%FSLAX45Y45*%
G04 Gerber Fmt 4.5, Leading zero omitted, Abs format (unit mm)*
G04 Created by KiCad (PCBNEW (5.1.4)-1) date 2020-09-30 13:12:36*
%MOMM*%
%LPD*%
G04 APERTURE LIST*
%ADD10C,0.050000*%
%ADD11C,0.200000*%
%ADD12C,0.300000*%
G04 APERTURE END LIST*
D10*
X5690000Y-3380000D02*
X5690000Y-4245000D01*
X4950000Y-3380000D02*
X5690000Y-3380000D01*
X4950000Y-4245000D02*
X4950000Y-3380000D01*
X5690000Y-4245000D02*
X4950000Y-4245000D01*
D11*
X5087500Y-4042465D02*
X5147500Y-4102465D01*
X5147500Y-4042465D02*
X5087500Y-4102465D01*
X5117500Y-3542500D02*
X5177500Y-3602500D01*
X5177500Y-3542500D02*
X5117500Y-3602500D01*
X5560000Y-3560000D02*
G75*
G03X5560000Y-3560000I-50000J0D01*
G01*
X5560000Y-3814000D02*
G75*
G03X5560000Y-3814000I-50000J0D01*
G01*
X5560000Y-4068000D02*
G75*
G03X5560000Y-4068000I-50000J0D01*
G01*
D12*
X5233928Y-4713214D02*
X5233928Y-4413214D01*
X5305357Y-4413214D01*
X5348214Y-4427500D01*
X5376786Y-4456072D01*
X5391071Y-4484643D01*
X5405357Y-4541786D01*
X5405357Y-4584643D01*
X5391071Y-4641786D01*
X5376786Y-4670357D01*
X5348214Y-4698929D01*
X5305357Y-4713214D01*
X5233928Y-4713214D01*
X5533928Y-4713214D02*
X5533928Y-4513214D01*
X5533928Y-4570357D02*
X5548214Y-4541786D01*
X5562500Y-4527500D01*
X5591071Y-4513214D01*
X5619643Y-4513214D01*
X5719643Y-4713214D02*
X5719643Y-4513214D01*
X5719643Y-4413214D02*
X5705357Y-4427500D01*
X5719643Y-4441786D01*
X5733928Y-4427500D01*
X5719643Y-4413214D01*
X5719643Y-4441786D01*
X5905357Y-4713214D02*
X5876786Y-4698929D01*
X5862500Y-4670357D01*
X5862500Y-4413214D01*
X6062500Y-4713214D02*
X6033928Y-4698929D01*
X6019643Y-4670357D01*
X6019643Y-4413214D01*
X6405357Y-4713214D02*
X6405357Y-4413214D01*
X6505357Y-4627500D01*
X6605357Y-4413214D01*
X6605357Y-4713214D01*
X6876786Y-4713214D02*
X6876786Y-4556072D01*
X6862500Y-4527500D01*
X6833928Y-4513214D01*
X6776786Y-4513214D01*
X6748214Y-4527500D01*
X6876786Y-4698929D02*
X6848214Y-4713214D01*
X6776786Y-4713214D01*
X6748214Y-4698929D01*
X6733928Y-4670357D01*
X6733928Y-4641786D01*
X6748214Y-4613214D01*
X6776786Y-4598929D01*
X6848214Y-4598929D01*
X6876786Y-4584643D01*
X7019643Y-4513214D02*
X7019643Y-4813214D01*
X7019643Y-4527500D02*
X7048214Y-4513214D01*
X7105357Y-4513214D01*
X7133928Y-4527500D01*
X7148214Y-4541786D01*
X7162500Y-4570357D01*
X7162500Y-4656072D01*
X7148214Y-4684643D01*
X7133928Y-4698929D01*
X7105357Y-4713214D01*
X7048214Y-4713214D01*
X7019643Y-4698929D01*
X7291071Y-4684643D02*
X7305357Y-4698929D01*
X7291071Y-4713214D01*
X7276786Y-4698929D01*
X7291071Y-4684643D01*
X7291071Y-4713214D01*
X7291071Y-4527500D02*
X7305357Y-4541786D01*
X7291071Y-4556072D01*
X7276786Y-4541786D01*
X7291071Y-4527500D01*
X7291071Y-4556072D01*
X4887500Y-5177500D02*
X4947500Y-5237500D01*
X4947500Y-5177500D02*
X4887500Y-5237500D01*
X5291071Y-5043214D02*
X5319643Y-5043214D01*
X5348214Y-5057500D01*
X5362500Y-5071786D01*
X5376786Y-5100357D01*
X5391071Y-5157500D01*
X5391071Y-5228929D01*
X5376786Y-5286072D01*
X5362500Y-5314643D01*
X5348214Y-5328929D01*
X5319643Y-5343214D01*
X5291071Y-5343214D01*
X5262500Y-5328929D01*
X5248214Y-5314643D01*
X5233928Y-5286072D01*
X5219643Y-5228929D01*
X5219643Y-5157500D01*
X5233928Y-5100357D01*
X5248214Y-5071786D01*
X5262500Y-5057500D01*
X5291071Y-5043214D01*
X5519643Y-5314643D02*
X5533928Y-5328929D01*
X5519643Y-5343214D01*
X5505357Y-5328929D01*
X5519643Y-5314643D01*
X5519643Y-5343214D01*
X5791071Y-5043214D02*
X5733928Y-5043214D01*
X5705357Y-5057500D01*
X5691071Y-5071786D01*
X5662500Y-5114643D01*
X5648214Y-5171786D01*
X5648214Y-5286072D01*
X5662500Y-5314643D01*
X5676786Y-5328929D01*
X5705357Y-5343214D01*
X5762500Y-5343214D01*
X5791071Y-5328929D01*
X5805357Y-5314643D01*
X5819643Y-5286072D01*
X5819643Y-5214643D01*
X5805357Y-5186072D01*
X5791071Y-5171786D01*
X5762500Y-5157500D01*
X5705357Y-5157500D01*
X5676786Y-5171786D01*
X5662500Y-5186072D01*
X5648214Y-5214643D01*
X6005357Y-5043214D02*
X6033928Y-5043214D01*
X6062500Y-5057500D01*
X6076786Y-5071786D01*
X6091071Y-5100357D01*
X6105357Y-5157500D01*
X6105357Y-5228929D01*
X6091071Y-5286072D01*
X6076786Y-5314643D01*
X6062500Y-5328929D01*
X6033928Y-5343214D01*
X6005357Y-5343214D01*
X5976786Y-5328929D01*
X5962500Y-5314643D01*
X5948214Y-5286072D01*
X5933928Y-5228929D01*
X5933928Y-5157500D01*
X5948214Y-5100357D01*
X5962500Y-5071786D01*
X5976786Y-5057500D01*
X6005357Y-5043214D01*
X6233928Y-5343214D02*
X6233928Y-5143214D01*
X6233928Y-5171786D02*
X6248214Y-5157500D01*
X6276786Y-5143214D01*
X6319643Y-5143214D01*
X6348214Y-5157500D01*
X6362500Y-5186072D01*
X6362500Y-5343214D01*
X6362500Y-5186072D02*
X6376786Y-5157500D01*
X6405357Y-5143214D01*
X6448214Y-5143214D01*
X6476786Y-5157500D01*
X6491071Y-5186072D01*
X6491071Y-5343214D01*
X6633928Y-5343214D02*
X6633928Y-5143214D01*
X6633928Y-5171786D02*
X6648214Y-5157500D01*
X6676786Y-5143214D01*
X6719643Y-5143214D01*
X6748214Y-5157500D01*
X6762500Y-5186072D01*
X6762500Y-5343214D01*
X6762500Y-5186072D02*
X6776786Y-5157500D01*
X6805357Y-5143214D01*
X6848214Y-5143214D01*
X6876786Y-5157500D01*
X6891071Y-5186072D01*
X6891071Y-5343214D01*
X7476786Y-5028929D02*
X7219643Y-5414643D01*
X7862500Y-5043214D02*
X7891071Y-5043214D01*
X7919643Y-5057500D01*
X7933928Y-5071786D01*
X7948214Y-5100357D01*
X7962500Y-5157500D01*
X7962500Y-5228929D01*
X7948214Y-5286072D01*
X7933928Y-5314643D01*
X7919643Y-5328929D01*
X7891071Y-5343214D01*
X7862500Y-5343214D01*
X7833928Y-5328929D01*
X7819643Y-5314643D01*
X7805357Y-5286072D01*
X7791071Y-5228929D01*
X7791071Y-5157500D01*
X7805357Y-5100357D01*
X7819643Y-5071786D01*
X7833928Y-5057500D01*
X7862500Y-5043214D01*
X8091071Y-5314643D02*
X8105357Y-5328929D01*
X8091071Y-5343214D01*
X8076786Y-5328929D01*
X8091071Y-5314643D01*
X8091071Y-5343214D01*
X8291071Y-5043214D02*
X8319643Y-5043214D01*
X8348214Y-5057500D01*
X8362500Y-5071786D01*
X8376786Y-5100357D01*
X8391071Y-5157500D01*
X8391071Y-5228929D01*
X8376786Y-5286072D01*
X8362500Y-5314643D01*
X8348214Y-5328929D01*
X8319643Y-5343214D01*
X8291071Y-5343214D01*
X8262500Y-5328929D01*
X8248214Y-5314643D01*
X8233928Y-5286072D01*
X8219643Y-5228929D01*
X8219643Y-5157500D01*
X8233928Y-5100357D01*
X8248214Y-5071786D01*
X8262500Y-5057500D01*
X8291071Y-5043214D01*
X8505357Y-5071786D02*
X8519643Y-5057500D01*
X8548214Y-5043214D01*
X8619643Y-5043214D01*
X8648214Y-5057500D01*
X8662500Y-5071786D01*
X8676786Y-5100357D01*
X8676786Y-5128929D01*
X8662500Y-5171786D01*
X8491071Y-5343214D01*
X8676786Y-5343214D01*
X8933928Y-5143214D02*
X8933928Y-5343214D01*
X8862500Y-5028929D02*
X8791071Y-5243214D01*
X8976786Y-5243214D01*
X9076786Y-5043214D02*
X9076786Y-5100357D01*
X9191071Y-5043214D02*
X9191071Y-5100357D01*
X9633928Y-5457500D02*
X9619643Y-5443214D01*
X9591071Y-5400357D01*
X9576786Y-5371786D01*
X9562500Y-5328929D01*
X9548214Y-5257500D01*
X9548214Y-5200357D01*
X9562500Y-5128929D01*
X9576786Y-5086072D01*
X9591071Y-5057500D01*
X9619643Y-5014643D01*
X9633928Y-5000357D01*
X9733928Y-5071786D02*
X9748214Y-5057500D01*
X9776786Y-5043214D01*
X9848214Y-5043214D01*
X9876786Y-5057500D01*
X9891071Y-5071786D01*
X9905357Y-5100357D01*
X9905357Y-5128929D01*
X9891071Y-5171786D01*
X9719643Y-5343214D01*
X9905357Y-5343214D01*
X10262500Y-5343214D02*
X10262500Y-5043214D01*
X10391071Y-5343214D02*
X10391071Y-5186072D01*
X10376786Y-5157500D01*
X10348214Y-5143214D01*
X10305357Y-5143214D01*
X10276786Y-5157500D01*
X10262500Y-5171786D01*
X10576786Y-5343214D02*
X10548214Y-5328929D01*
X10533928Y-5314643D01*
X10519643Y-5286072D01*
X10519643Y-5200357D01*
X10533928Y-5171786D01*
X10548214Y-5157500D01*
X10576786Y-5143214D01*
X10619643Y-5143214D01*
X10648214Y-5157500D01*
X10662500Y-5171786D01*
X10676786Y-5200357D01*
X10676786Y-5286072D01*
X10662500Y-5314643D01*
X10648214Y-5328929D01*
X10619643Y-5343214D01*
X10576786Y-5343214D01*
X10848214Y-5343214D02*
X10819643Y-5328929D01*
X10805357Y-5300357D01*
X10805357Y-5043214D01*
X11076786Y-5328929D02*
X11048214Y-5343214D01*
X10991071Y-5343214D01*
X10962500Y-5328929D01*
X10948214Y-5300357D01*
X10948214Y-5186072D01*
X10962500Y-5157500D01*
X10991071Y-5143214D01*
X11048214Y-5143214D01*
X11076786Y-5157500D01*
X11091071Y-5186072D01*
X11091071Y-5214643D01*
X10948214Y-5243214D01*
X11205357Y-5328929D02*
X11233928Y-5343214D01*
X11291071Y-5343214D01*
X11319643Y-5328929D01*
X11333928Y-5300357D01*
X11333928Y-5286072D01*
X11319643Y-5257500D01*
X11291071Y-5243214D01*
X11248214Y-5243214D01*
X11219643Y-5228929D01*
X11205357Y-5200357D01*
X11205357Y-5186072D01*
X11219643Y-5157500D01*
X11248214Y-5143214D01*
X11291071Y-5143214D01*
X11319643Y-5157500D01*
X11433928Y-5457500D02*
X11448214Y-5443214D01*
X11476786Y-5400357D01*
X11491071Y-5371786D01*
X11505357Y-5328929D01*
X11519643Y-5257500D01*
X11519643Y-5200357D01*
X11505357Y-5128929D01*
X11491071Y-5086072D01*
X11476786Y-5057500D01*
X11448214Y-5014643D01*
X11433928Y-5000357D01*
X4947500Y-5603500D02*
G75*
G03X4947500Y-5603500I-50000J0D01*
G01*
X5391071Y-5739214D02*
X5219643Y-5739214D01*
X5305357Y-5739214D02*
X5305357Y-5439214D01*
X5276786Y-5482072D01*
X5248214Y-5510643D01*
X5219643Y-5524929D01*
X5519643Y-5710643D02*
X5533928Y-5724929D01*
X5519643Y-5739214D01*
X5505357Y-5724929D01*
X5519643Y-5710643D01*
X5519643Y-5739214D01*
X5719643Y-5439214D02*
X5748214Y-5439214D01*
X5776786Y-5453500D01*
X5791071Y-5467786D01*
X5805357Y-5496357D01*
X5819643Y-5553500D01*
X5819643Y-5624929D01*
X5805357Y-5682071D01*
X5791071Y-5710643D01*
X5776786Y-5724929D01*
X5748214Y-5739214D01*
X5719643Y-5739214D01*
X5691071Y-5724929D01*
X5676786Y-5710643D01*
X5662500Y-5682071D01*
X5648214Y-5624929D01*
X5648214Y-5553500D01*
X5662500Y-5496357D01*
X5676786Y-5467786D01*
X5691071Y-5453500D01*
X5719643Y-5439214D01*
X6005357Y-5439214D02*
X6033928Y-5439214D01*
X6062500Y-5453500D01*
X6076786Y-5467786D01*
X6091071Y-5496357D01*
X6105357Y-5553500D01*
X6105357Y-5624929D01*
X6091071Y-5682071D01*
X6076786Y-5710643D01*
X6062500Y-5724929D01*
X6033928Y-5739214D01*
X6005357Y-5739214D01*
X5976786Y-5724929D01*
X5962500Y-5710643D01*
X5948214Y-5682071D01*
X5933928Y-5624929D01*
X5933928Y-5553500D01*
X5948214Y-5496357D01*
X5962500Y-5467786D01*
X5976786Y-5453500D01*
X6005357Y-5439214D01*
X6233928Y-5739214D02*
X6233928Y-5539214D01*
X6233928Y-5567786D02*
X6248214Y-5553500D01*
X6276786Y-5539214D01*
X6319643Y-5539214D01*
X6348214Y-5553500D01*
X6362500Y-5582072D01*
X6362500Y-5739214D01*
X6362500Y-5582072D02*
X6376786Y-5553500D01*
X6405357Y-5539214D01*
X6448214Y-5539214D01*
X6476786Y-5553500D01*
X6491071Y-5582072D01*
X6491071Y-5739214D01*
X6633928Y-5739214D02*
X6633928Y-5539214D01*
X6633928Y-5567786D02*
X6648214Y-5553500D01*
X6676786Y-5539214D01*
X6719643Y-5539214D01*
X6748214Y-5553500D01*
X6762500Y-5582072D01*
X6762500Y-5739214D01*
X6762500Y-5582072D02*
X6776786Y-5553500D01*
X6805357Y-5539214D01*
X6848214Y-5539214D01*
X6876786Y-5553500D01*
X6891071Y-5582072D01*
X6891071Y-5739214D01*
X7476786Y-5424929D02*
X7219643Y-5810643D01*
X7862500Y-5439214D02*
X7891071Y-5439214D01*
X7919643Y-5453500D01*
X7933928Y-5467786D01*
X7948214Y-5496357D01*
X7962500Y-5553500D01*
X7962500Y-5624929D01*
X7948214Y-5682071D01*
X7933928Y-5710643D01*
X7919643Y-5724929D01*
X7891071Y-5739214D01*
X7862500Y-5739214D01*
X7833928Y-5724929D01*
X7819643Y-5710643D01*
X7805357Y-5682071D01*
X7791071Y-5624929D01*
X7791071Y-5553500D01*
X7805357Y-5496357D01*
X7819643Y-5467786D01*
X7833928Y-5453500D01*
X7862500Y-5439214D01*
X8091071Y-5710643D02*
X8105357Y-5724929D01*
X8091071Y-5739214D01*
X8076786Y-5724929D01*
X8091071Y-5710643D01*
X8091071Y-5739214D01*
X8291071Y-5439214D02*
X8319643Y-5439214D01*
X8348214Y-5453500D01*
X8362500Y-5467786D01*
X8376786Y-5496357D01*
X8391071Y-5553500D01*
X8391071Y-5624929D01*
X8376786Y-5682071D01*
X8362500Y-5710643D01*
X8348214Y-5724929D01*
X8319643Y-5739214D01*
X8291071Y-5739214D01*
X8262500Y-5724929D01*
X8248214Y-5710643D01*
X8233928Y-5682071D01*
X8219643Y-5624929D01*
X8219643Y-5553500D01*
X8233928Y-5496357D01*
X8248214Y-5467786D01*
X8262500Y-5453500D01*
X8291071Y-5439214D01*
X8491071Y-5439214D02*
X8676786Y-5439214D01*
X8576786Y-5553500D01*
X8619643Y-5553500D01*
X8648214Y-5567786D01*
X8662500Y-5582072D01*
X8676786Y-5610643D01*
X8676786Y-5682071D01*
X8662500Y-5710643D01*
X8648214Y-5724929D01*
X8619643Y-5739214D01*
X8533928Y-5739214D01*
X8505357Y-5724929D01*
X8491071Y-5710643D01*
X8819643Y-5739214D02*
X8876786Y-5739214D01*
X8905357Y-5724929D01*
X8919643Y-5710643D01*
X8948214Y-5667786D01*
X8962500Y-5610643D01*
X8962500Y-5496357D01*
X8948214Y-5467786D01*
X8933928Y-5453500D01*
X8905357Y-5439214D01*
X8848214Y-5439214D01*
X8819643Y-5453500D01*
X8805357Y-5467786D01*
X8791071Y-5496357D01*
X8791071Y-5567786D01*
X8805357Y-5596357D01*
X8819643Y-5610643D01*
X8848214Y-5624929D01*
X8905357Y-5624929D01*
X8933928Y-5610643D01*
X8948214Y-5596357D01*
X8962500Y-5567786D01*
X9076786Y-5439214D02*
X9076786Y-5496357D01*
X9191071Y-5439214D02*
X9191071Y-5496357D01*
X9633928Y-5853500D02*
X9619643Y-5839214D01*
X9591071Y-5796357D01*
X9576786Y-5767786D01*
X9562500Y-5724929D01*
X9548214Y-5653500D01*
X9548214Y-5596357D01*
X9562500Y-5524929D01*
X9576786Y-5482072D01*
X9591071Y-5453500D01*
X9619643Y-5410643D01*
X9633928Y-5396357D01*
X9719643Y-5439214D02*
X9905357Y-5439214D01*
X9805357Y-5553500D01*
X9848214Y-5553500D01*
X9876786Y-5567786D01*
X9891071Y-5582072D01*
X9905357Y-5610643D01*
X9905357Y-5682071D01*
X9891071Y-5710643D01*
X9876786Y-5724929D01*
X9848214Y-5739214D01*
X9762500Y-5739214D01*
X9733928Y-5724929D01*
X9719643Y-5710643D01*
X10262500Y-5739214D02*
X10262500Y-5439214D01*
X10391071Y-5739214D02*
X10391071Y-5582072D01*
X10376786Y-5553500D01*
X10348214Y-5539214D01*
X10305357Y-5539214D01*
X10276786Y-5553500D01*
X10262500Y-5567786D01*
X10576786Y-5739214D02*
X10548214Y-5724929D01*
X10533928Y-5710643D01*
X10519643Y-5682071D01*
X10519643Y-5596357D01*
X10533928Y-5567786D01*
X10548214Y-5553500D01*
X10576786Y-5539214D01*
X10619643Y-5539214D01*
X10648214Y-5553500D01*
X10662500Y-5567786D01*
X10676786Y-5596357D01*
X10676786Y-5682071D01*
X10662500Y-5710643D01*
X10648214Y-5724929D01*
X10619643Y-5739214D01*
X10576786Y-5739214D01*
X10848214Y-5739214D02*
X10819643Y-5724929D01*
X10805357Y-5696357D01*
X10805357Y-5439214D01*
X11076786Y-5724929D02*
X11048214Y-5739214D01*
X10991071Y-5739214D01*
X10962500Y-5724929D01*
X10948214Y-5696357D01*
X10948214Y-5582072D01*
X10962500Y-5553500D01*
X10991071Y-5539214D01*
X11048214Y-5539214D01*
X11076786Y-5553500D01*
X11091071Y-5582072D01*
X11091071Y-5610643D01*
X10948214Y-5639214D01*
X11205357Y-5724929D02*
X11233928Y-5739214D01*
X11291071Y-5739214D01*
X11319643Y-5724929D01*
X11333928Y-5696357D01*
X11333928Y-5682071D01*
X11319643Y-5653500D01*
X11291071Y-5639214D01*
X11248214Y-5639214D01*
X11219643Y-5624929D01*
X11205357Y-5596357D01*
X11205357Y-5582072D01*
X11219643Y-5553500D01*
X11248214Y-5539214D01*
X11291071Y-5539214D01*
X11319643Y-5553500D01*
X11433928Y-5853500D02*
X11448214Y-5839214D01*
X11476786Y-5796357D01*
X11491071Y-5767786D01*
X11505357Y-5724929D01*
X11519643Y-5653500D01*
X11519643Y-5596357D01*
X11505357Y-5524929D01*
X11491071Y-5482072D01*
X11476786Y-5453500D01*
X11448214Y-5410643D01*
X11433928Y-5396357D01*
M02*
