G04 #@! TF.GenerationSoftware,KiCad,Pcbnew,(5.1.4)-1*
G04 #@! TF.CreationDate,2020-09-30T13:12:30+02:00*
G04 #@! TF.ProjectId,mosfet_satelite,6d6f7366-6574-45f7-9361-74656c697465,rev?*
G04 #@! TF.SameCoordinates,Original*
G04 #@! TF.FileFunction,Soldermask,Bot*
G04 #@! TF.FilePolarity,Negative*
%FSLAX46Y46*%
G04 Gerber Fmt 4.6, Leading zero omitted, Abs format (unit mm)*
G04 Created by KiCad (PCBNEW (5.1.4)-1) date 2020-09-30 13:12:30*
%MOMM*%
%LPD*%
G04 APERTURE LIST*
%ADD10C,0.100000*%
G04 APERTURE END LIST*
D10*
G36*
X55210442Y-39785518D02*
G01*
X55276627Y-39792037D01*
X55446466Y-39843557D01*
X55602991Y-39927222D01*
X55638729Y-39956552D01*
X55740186Y-40039814D01*
X55823448Y-40141271D01*
X55852778Y-40177009D01*
X55936443Y-40333534D01*
X55987963Y-40503373D01*
X56005359Y-40680000D01*
X55987963Y-40856627D01*
X55936443Y-41026466D01*
X55852778Y-41182991D01*
X55823448Y-41218729D01*
X55740186Y-41320186D01*
X55638729Y-41403448D01*
X55602991Y-41432778D01*
X55446466Y-41516443D01*
X55276627Y-41567963D01*
X55210443Y-41574481D01*
X55144260Y-41581000D01*
X55055740Y-41581000D01*
X54989557Y-41574481D01*
X54923373Y-41567963D01*
X54753534Y-41516443D01*
X54597009Y-41432778D01*
X54561271Y-41403448D01*
X54459814Y-41320186D01*
X54376552Y-41218729D01*
X54347222Y-41182991D01*
X54263557Y-41026466D01*
X54212037Y-40856627D01*
X54194641Y-40680000D01*
X54212037Y-40503373D01*
X54263557Y-40333534D01*
X54347222Y-40177009D01*
X54376552Y-40141271D01*
X54459814Y-40039814D01*
X54561271Y-39956552D01*
X54597009Y-39927222D01*
X54753534Y-39843557D01*
X54923373Y-39792037D01*
X54989558Y-39785518D01*
X55055740Y-39779000D01*
X55144260Y-39779000D01*
X55210442Y-39785518D01*
X55210442Y-39785518D01*
G37*
G36*
X55210442Y-37245518D02*
G01*
X55276627Y-37252037D01*
X55446466Y-37303557D01*
X55602991Y-37387222D01*
X55638729Y-37416552D01*
X55740186Y-37499814D01*
X55823448Y-37601271D01*
X55852778Y-37637009D01*
X55936443Y-37793534D01*
X55987963Y-37963373D01*
X56005359Y-38140000D01*
X55987963Y-38316627D01*
X55936443Y-38486466D01*
X55852778Y-38642991D01*
X55823448Y-38678729D01*
X55740186Y-38780186D01*
X55638729Y-38863448D01*
X55602991Y-38892778D01*
X55446466Y-38976443D01*
X55276627Y-39027963D01*
X55210442Y-39034482D01*
X55144260Y-39041000D01*
X55055740Y-39041000D01*
X54989558Y-39034482D01*
X54923373Y-39027963D01*
X54753534Y-38976443D01*
X54597009Y-38892778D01*
X54561271Y-38863448D01*
X54459814Y-38780186D01*
X54376552Y-38678729D01*
X54347222Y-38642991D01*
X54263557Y-38486466D01*
X54212037Y-38316627D01*
X54194641Y-38140000D01*
X54212037Y-37963373D01*
X54263557Y-37793534D01*
X54347222Y-37637009D01*
X54376552Y-37601271D01*
X54459814Y-37499814D01*
X54561271Y-37416552D01*
X54597009Y-37387222D01*
X54753534Y-37303557D01*
X54923373Y-37252037D01*
X54989558Y-37245518D01*
X55055740Y-37239000D01*
X55144260Y-37239000D01*
X55210442Y-37245518D01*
X55210442Y-37245518D01*
G37*
G36*
X56001000Y-36501000D02*
G01*
X54199000Y-36501000D01*
X54199000Y-34699000D01*
X56001000Y-34699000D01*
X56001000Y-36501000D01*
X56001000Y-36501000D01*
G37*
M02*
