%FSLAX45Y45*%
G04 Gerber Fmt 4.5, Leading zero omitted, Abs format (unit mm)*
G04 Created by KiCad (PCBNEW (5.1.4)-1) date 2020-09-30 13:12:36*
%MOMM*%
%LPD*%
G04 APERTURE LIST*
%ADD10C,0.050000*%
%ADD11C,0.200000*%
%ADD12C,0.300000*%
G04 APERTURE END LIST*
D10*
X5690000Y-3380000D02*
X5690000Y-4245000D01*
X4950000Y-3380000D02*
X5690000Y-3380000D01*
X4950000Y-4245000D02*
X4950000Y-3380000D01*
X5690000Y-4245000D02*
X4950000Y-4245000D01*
D11*
D12*
X5233928Y-4713214D02*
X5233928Y-4413214D01*
X5305357Y-4413214D01*
X5348214Y-4427500D01*
X5376786Y-4456072D01*
X5391071Y-4484643D01*
X5405357Y-4541786D01*
X5405357Y-4584643D01*
X5391071Y-4641786D01*
X5376786Y-4670357D01*
X5348214Y-4698929D01*
X5305357Y-4713214D01*
X5233928Y-4713214D01*
X5533928Y-4713214D02*
X5533928Y-4513214D01*
X5533928Y-4570357D02*
X5548214Y-4541786D01*
X5562500Y-4527500D01*
X5591071Y-4513214D01*
X5619643Y-4513214D01*
X5719643Y-4713214D02*
X5719643Y-4513214D01*
X5719643Y-4413214D02*
X5705357Y-4427500D01*
X5719643Y-4441786D01*
X5733928Y-4427500D01*
X5719643Y-4413214D01*
X5719643Y-4441786D01*
X5905357Y-4713214D02*
X5876786Y-4698929D01*
X5862500Y-4670357D01*
X5862500Y-4413214D01*
X6062500Y-4713214D02*
X6033928Y-4698929D01*
X6019643Y-4670357D01*
X6019643Y-4413214D01*
X6405357Y-4713214D02*
X6405357Y-4413214D01*
X6505357Y-4627500D01*
X6605357Y-4413214D01*
X6605357Y-4713214D01*
X6876786Y-4713214D02*
X6876786Y-4556072D01*
X6862500Y-4527500D01*
X6833928Y-4513214D01*
X6776786Y-4513214D01*
X6748214Y-4527500D01*
X6876786Y-4698929D02*
X6848214Y-4713214D01*
X6776786Y-4713214D01*
X6748214Y-4698929D01*
X6733928Y-4670357D01*
X6733928Y-4641786D01*
X6748214Y-4613214D01*
X6776786Y-4598929D01*
X6848214Y-4598929D01*
X6876786Y-4584643D01*
X7019643Y-4513214D02*
X7019643Y-4813214D01*
X7019643Y-4527500D02*
X7048214Y-4513214D01*
X7105357Y-4513214D01*
X7133928Y-4527500D01*
X7148214Y-4541786D01*
X7162500Y-4570357D01*
X7162500Y-4656072D01*
X7148214Y-4684643D01*
X7133928Y-4698929D01*
X7105357Y-4713214D01*
X7048214Y-4713214D01*
X7019643Y-4698929D01*
X7291071Y-4684643D02*
X7305357Y-4698929D01*
X7291071Y-4713214D01*
X7276786Y-4698929D01*
X7291071Y-4684643D01*
X7291071Y-4713214D01*
X7291071Y-4527500D02*
X7305357Y-4541786D01*
X7291071Y-4556072D01*
X7276786Y-4541786D01*
X7291071Y-4527500D01*
X7291071Y-4556072D01*
M02*
