G04 #@! TF.GenerationSoftware,KiCad,Pcbnew,(5.1.4)-1*
G04 #@! TF.CreationDate,2020-09-30T13:12:30+02:00*
G04 #@! TF.ProjectId,mosfet_satelite,6d6f7366-6574-45f7-9361-74656c697465,rev?*
G04 #@! TF.SameCoordinates,Original*
G04 #@! TF.FileFunction,Legend,Bot*
G04 #@! TF.FilePolarity,Positive*
%FSLAX46Y46*%
G04 Gerber Fmt 4.6, Leading zero omitted, Abs format (unit mm)*
G04 Created by KiCad (PCBNEW (5.1.4)-1) date 2020-09-30 13:12:30*
%MOMM*%
%LPD*%
G04 APERTURE LIST*
%ADD10C,0.120000*%
%ADD11C,0.150000*%
G04 APERTURE END LIST*
D10*
X53660000Y-34270000D02*
X53660000Y-42010000D01*
X53660000Y-42010000D02*
X51000000Y-42010000D01*
X51000000Y-42010000D02*
X51000000Y-34270000D01*
X51000000Y-34270000D02*
X53660000Y-34270000D01*
X51000000Y-35220000D02*
X45000000Y-35220000D01*
X45000000Y-35220000D02*
X45000000Y-35980000D01*
X45000000Y-35980000D02*
X51000000Y-35980000D01*
X51000000Y-35280000D02*
X45000000Y-35280000D01*
X51000000Y-35400000D02*
X45000000Y-35400000D01*
X51000000Y-35520000D02*
X45000000Y-35520000D01*
X51000000Y-35640000D02*
X45000000Y-35640000D01*
X51000000Y-35760000D02*
X45000000Y-35760000D01*
X51000000Y-35880000D02*
X45000000Y-35880000D01*
X53990000Y-35220000D02*
X53660000Y-35220000D01*
X53990000Y-35980000D02*
X53660000Y-35980000D01*
X53660000Y-36870000D02*
X51000000Y-36870000D01*
X51000000Y-37760000D02*
X45000000Y-37760000D01*
X45000000Y-37760000D02*
X45000000Y-38520000D01*
X45000000Y-38520000D02*
X51000000Y-38520000D01*
X54057071Y-37760000D02*
X53660000Y-37760000D01*
X54057071Y-38520000D02*
X53660000Y-38520000D01*
X53660000Y-39410000D02*
X51000000Y-39410000D01*
X51000000Y-40300000D02*
X45000000Y-40300000D01*
X45000000Y-40300000D02*
X45000000Y-41060000D01*
X45000000Y-41060000D02*
X51000000Y-41060000D01*
X54057071Y-40300000D02*
X53660000Y-40300000D01*
X54057071Y-41060000D02*
X53660000Y-41060000D01*
X56370000Y-35600000D02*
X56370000Y-34330000D01*
X56370000Y-34330000D02*
X55100000Y-34330000D01*
D11*
X51048333Y-32782380D02*
X51048333Y-33496666D01*
X51095952Y-33639523D01*
X51191190Y-33734761D01*
X51334047Y-33782380D01*
X51429285Y-33782380D01*
X50048333Y-33782380D02*
X50619761Y-33782380D01*
X50334047Y-33782380D02*
X50334047Y-32782380D01*
X50429285Y-32925238D01*
X50524523Y-33020476D01*
X50619761Y-33068095D01*
M02*
