%FSLAX45Y45*%
G04 Gerber Fmt 4.5, Leading zero omitted, Abs format (unit mm)*
G04 Created by KiCad (PCBNEW (5.1.4)-1) date 2020-09-30 13:09:03*
%MOMM*%
%LPD*%
G04 APERTURE LIST*
%ADD10C,0.050000*%
%ADD11C,0.200000*%
%ADD12C,0.300000*%
G04 APERTURE END LIST*
D10*
X16565000Y-3835000D02*
X16565000Y-13535000D01*
X7065000Y-3835000D02*
X16565000Y-3835000D01*
X7065000Y-13535000D02*
X7065000Y-3835000D01*
X16565000Y-13535000D02*
X7065000Y-13535000D01*
D11*
D12*
X7348928Y-14003214D02*
X7348928Y-13703214D01*
X7420357Y-13703214D01*
X7463214Y-13717500D01*
X7491786Y-13746071D01*
X7506071Y-13774643D01*
X7520357Y-13831786D01*
X7520357Y-13874643D01*
X7506071Y-13931786D01*
X7491786Y-13960357D01*
X7463214Y-13988929D01*
X7420357Y-14003214D01*
X7348928Y-14003214D01*
X7648928Y-14003214D02*
X7648928Y-13803214D01*
X7648928Y-13860357D02*
X7663214Y-13831786D01*
X7677500Y-13817500D01*
X7706071Y-13803214D01*
X7734643Y-13803214D01*
X7834643Y-14003214D02*
X7834643Y-13803214D01*
X7834643Y-13703214D02*
X7820357Y-13717500D01*
X7834643Y-13731786D01*
X7848928Y-13717500D01*
X7834643Y-13703214D01*
X7834643Y-13731786D01*
X8020357Y-14003214D02*
X7991786Y-13988929D01*
X7977500Y-13960357D01*
X7977500Y-13703214D01*
X8177500Y-14003214D02*
X8148928Y-13988929D01*
X8134643Y-13960357D01*
X8134643Y-13703214D01*
X8520357Y-14003214D02*
X8520357Y-13703214D01*
X8620357Y-13917500D01*
X8720357Y-13703214D01*
X8720357Y-14003214D01*
X8991786Y-14003214D02*
X8991786Y-13846071D01*
X8977500Y-13817500D01*
X8948928Y-13803214D01*
X8891786Y-13803214D01*
X8863214Y-13817500D01*
X8991786Y-13988929D02*
X8963214Y-14003214D01*
X8891786Y-14003214D01*
X8863214Y-13988929D01*
X8848928Y-13960357D01*
X8848928Y-13931786D01*
X8863214Y-13903214D01*
X8891786Y-13888929D01*
X8963214Y-13888929D01*
X8991786Y-13874643D01*
X9134643Y-13803214D02*
X9134643Y-14103214D01*
X9134643Y-13817500D02*
X9163214Y-13803214D01*
X9220357Y-13803214D01*
X9248928Y-13817500D01*
X9263214Y-13831786D01*
X9277500Y-13860357D01*
X9277500Y-13946071D01*
X9263214Y-13974643D01*
X9248928Y-13988929D01*
X9220357Y-14003214D01*
X9163214Y-14003214D01*
X9134643Y-13988929D01*
X9406071Y-13974643D02*
X9420357Y-13988929D01*
X9406071Y-14003214D01*
X9391786Y-13988929D01*
X9406071Y-13974643D01*
X9406071Y-14003214D01*
X9406071Y-13817500D02*
X9420357Y-13831786D01*
X9406071Y-13846071D01*
X9391786Y-13831786D01*
X9406071Y-13817500D01*
X9406071Y-13846071D01*
M02*
