M48
; DRILL file {KiCad (5.1.4)-1} date 30/09/2020 13:09:02
; FORMAT={-:-/ absolute / inch / decimal}
; #@! TF.CreationDate,2020-09-30T13:09:02+02:00
; #@! TF.GenerationSoftware,Kicad,Pcbnew,(5.1.4)-1
; #@! TF.FileFunction,Plated,1,2,PTH
FMAT,2
INCH
T1C0.0118
T2C0.0157
T3C0.0236
T4C0.0354
T5C0.0394
T6C0.0409
T7C0.0748
T8C0.1260
%
G90
G05
T1
X5.3147Y-4.0458
X5.3652Y-4.0142
X5.6187Y-4.2071
X5.6187Y-4.2406
X5.8124Y-4.0697
X5.8341Y-4.046
X5.8341Y-4.2071
X5.8341Y-4.2406
T2
X2.951Y-1.6774
X3.5518Y-4.0518
X3.673Y-4.1612
X3.7549Y-4.6656
X3.8329Y-5.0368
X3.8435Y-4.5317
X4.0242Y-5.0329
X4.2171Y-4.1915
X4.2293Y-4.1222
X4.6112Y-1.8136
X5.236Y-2.3289
X5.2518Y-4.614
X5.2573Y-3.4801
X5.2581Y-3.8612
X5.2589Y-4.225
X5.2593Y-3.1018
X5.2687Y-4.9703
X5.2704Y-2.6943
X5.6486Y-5.1927
T3
X5.5671Y-2.5329
X5.7049Y-4.8419
X5.8057Y-4.4758
X5.8404Y-2.9486
X5.8486Y-3.0959
T4
X5.46Y-1.7136
X5.56Y-1.7136
T5
X5.8943Y-3.3372
X5.914Y-3.9715
X5.9518Y-2.3191
X5.9825Y-4.7226
X6.0156Y-4.9159
X6.0612Y-2.9656
X6.1703Y-2.8317
X6.3837Y-5.1459
X5.451Y-2.5972
X5.451Y-2.6972
X5.451Y-2.7972
X5.451Y-4.8766
X5.451Y-4.9766
X5.451Y-5.0766
X5.451Y-2.2171
X5.451Y-2.3171
X5.451Y-2.4171
X5.451Y-3.7368
X5.451Y-3.8368
X5.451Y-3.9368
X5.451Y-4.4967
X5.451Y-4.5967
X5.451Y-4.6967
X5.451Y-2.977
X5.451Y-3.077
X5.451Y-3.177
X6.1063Y-3.4262
X6.1063Y-3.5352
X6.1063Y-3.6443
X6.1063Y-3.7533
X6.1063Y-3.8624
X6.1063Y-3.9715
X6.1063Y-4.0805
X6.1063Y-4.1896
X6.1063Y-4.2986
X6.1063Y-4.4077
X6.1063Y-4.5167
X6.1063Y-4.6258
X6.1063Y-4.7348
X6.2181Y-3.4807
X6.2181Y-3.5898
X6.2181Y-3.6988
X6.2181Y-3.8079
X6.2181Y-3.9169
X6.2181Y-4.026
X6.2181Y-4.135
X6.2181Y-4.2441
X6.2181Y-4.3531
X6.2181Y-4.4622
X6.2181Y-4.5713
X6.2181Y-4.6803
X6.4331Y-1.5955
X6.4331Y-2.0285
X5.451Y-4.1167
X5.451Y-4.2167
X5.451Y-4.3167
X5.451Y-3.3569
X5.451Y-3.4569
X5.451Y-3.5569
T6
X2.9396Y-2.8955
X2.9396Y-2.9955
X2.9396Y-3.0955
X2.9396Y-3.1955
X2.9396Y-3.2955
X2.9396Y-3.3955
X2.9396Y-3.4955
X2.9396Y-3.5955
X2.9396Y-3.6955
X2.9396Y-3.7955
X2.9396Y-3.8955
X2.9396Y-3.9955
X2.9396Y-4.0955
X2.9396Y-4.1955
X2.9396Y-4.2955
X2.9396Y-4.3955
X2.9396Y-4.4955
X2.9396Y-4.5955
X2.9396Y-4.6955
X3.9396Y-2.8955
X3.9396Y-2.9955
X3.9396Y-3.0955
X3.9396Y-3.1955
X3.9396Y-3.2955
X3.9396Y-3.3955
X3.9396Y-3.4955
X3.9396Y-3.5955
X3.9396Y-3.6955
X3.9396Y-3.7955
X3.9396Y-3.8955
X3.9396Y-3.9955
X3.9396Y-4.0955
X3.9396Y-4.1955
X3.9396Y-4.2955
X3.9396Y-4.3955
X3.9396Y-4.4955
X3.9396Y-4.5955
X3.9396Y-4.6955
T7
X6.0394Y-1.7136
X6.0394Y-1.9104
T8
X6.1622Y-3.1533
X6.1622Y-5.0077
T0
M30
