G04 #@! TF.GenerationSoftware,KiCad,Pcbnew,(5.1.4)-1*
G04 #@! TF.CreationDate,2020-09-30T13:08:59+02:00*
G04 #@! TF.ProjectId,car_controller,6361725f-636f-46e7-9472-6f6c6c65722e,rev?*
G04 #@! TF.SameCoordinates,Original*
G04 #@! TF.FileFunction,Legend,Top*
G04 #@! TF.FilePolarity,Positive*
%FSLAX46Y46*%
G04 Gerber Fmt 4.6, Leading zero omitted, Abs format (unit mm)*
G04 Created by KiCad (PCBNEW (5.1.4)-1) date 2020-09-30 13:08:59*
%MOMM*%
%LPD*%
G04 APERTURE LIST*
%ADD10C,0.150000*%
%ADD11C,0.010000*%
%ADD12C,0.120000*%
%ADD13C,0.200000*%
%ADD14C,0.125000*%
%ADD15C,0.127000*%
%ADD16C,0.254000*%
%ADD17C,0.015000*%
G04 APERTURE END LIST*
D10*
X85914285Y-60260714D02*
X86152380Y-60927380D01*
X86390476Y-60260714D01*
X87152380Y-60879761D02*
X87057142Y-60927380D01*
X86866666Y-60927380D01*
X86771428Y-60879761D01*
X86723809Y-60784523D01*
X86723809Y-60403571D01*
X86771428Y-60308333D01*
X86866666Y-60260714D01*
X87057142Y-60260714D01*
X87152380Y-60308333D01*
X87200000Y-60403571D01*
X87200000Y-60498809D01*
X86723809Y-60594047D01*
X87628571Y-60927380D02*
X87628571Y-60260714D01*
X87628571Y-60451190D02*
X87676190Y-60355952D01*
X87723809Y-60308333D01*
X87819047Y-60260714D01*
X87914285Y-60260714D01*
X88247619Y-60832142D02*
X88295238Y-60879761D01*
X88247619Y-60927380D01*
X88200000Y-60879761D01*
X88247619Y-60832142D01*
X88247619Y-60927380D01*
X89438095Y-60022619D02*
X89485714Y-59975000D01*
X89580952Y-59927380D01*
X89819047Y-59927380D01*
X89914285Y-59975000D01*
X89961904Y-60022619D01*
X90009523Y-60117857D01*
X90009523Y-60213095D01*
X89961904Y-60355952D01*
X89390476Y-60927380D01*
X90009523Y-60927380D01*
X90438095Y-60832142D02*
X90485714Y-60879761D01*
X90438095Y-60927380D01*
X90390476Y-60879761D01*
X90438095Y-60832142D01*
X90438095Y-60927380D01*
X91104761Y-59927380D02*
X91200000Y-59927380D01*
X91295238Y-59975000D01*
X91342857Y-60022619D01*
X91390476Y-60117857D01*
X91438095Y-60308333D01*
X91438095Y-60546428D01*
X91390476Y-60736904D01*
X91342857Y-60832142D01*
X91295238Y-60879761D01*
X91200000Y-60927380D01*
X91104761Y-60927380D01*
X91009523Y-60879761D01*
X90961904Y-60832142D01*
X90914285Y-60736904D01*
X90866666Y-60546428D01*
X90866666Y-60308333D01*
X90914285Y-60117857D01*
X90961904Y-60022619D01*
X91009523Y-59975000D01*
X91104761Y-59927380D01*
D11*
G36*
X91652522Y-54144560D02*
G01*
X91740495Y-54146010D01*
X91805202Y-54149869D01*
X91850173Y-54157192D01*
X91878940Y-54169036D01*
X91895032Y-54186456D01*
X91901980Y-54210506D01*
X91903316Y-54242243D01*
X91902569Y-54282722D01*
X91902466Y-54297067D01*
X91902726Y-54349350D01*
X91900578Y-54388109D01*
X91891634Y-54415358D01*
X91871502Y-54433112D01*
X91835794Y-54443386D01*
X91780120Y-54448195D01*
X91700090Y-54449554D01*
X91591315Y-54449478D01*
X91570455Y-54449467D01*
X91259000Y-54449467D01*
X91259000Y-54685604D01*
X91741600Y-54695000D01*
X91741600Y-54949000D01*
X91500300Y-54953698D01*
X91259000Y-54958397D01*
X91259000Y-55193802D01*
X91584966Y-55198401D01*
X91910933Y-55203000D01*
X91915908Y-55335839D01*
X91916021Y-55414977D01*
X91909967Y-55469754D01*
X91901134Y-55492472D01*
X91889620Y-55499706D01*
X91866157Y-55505332D01*
X91827217Y-55509511D01*
X91769270Y-55512405D01*
X91688787Y-55514179D01*
X91582239Y-55514993D01*
X91446097Y-55515012D01*
X91413560Y-55514930D01*
X91290314Y-55514281D01*
X91177701Y-55513122D01*
X91080296Y-55511544D01*
X91002676Y-55509641D01*
X90949420Y-55507506D01*
X90925104Y-55505229D01*
X90924566Y-55505052D01*
X90919012Y-55495519D01*
X90914445Y-55470136D01*
X90910788Y-55426372D01*
X90907962Y-55361695D01*
X90905888Y-55273576D01*
X90904490Y-55159484D01*
X90903687Y-55016888D01*
X90903403Y-54843258D01*
X90903400Y-54820589D01*
X90903400Y-54144667D01*
X91392655Y-54144667D01*
X91537752Y-54144464D01*
X91652522Y-54144560D01*
X91652522Y-54144560D01*
G37*
X91652522Y-54144560D02*
X91740495Y-54146010D01*
X91805202Y-54149869D01*
X91850173Y-54157192D01*
X91878940Y-54169036D01*
X91895032Y-54186456D01*
X91901980Y-54210506D01*
X91903316Y-54242243D01*
X91902569Y-54282722D01*
X91902466Y-54297067D01*
X91902726Y-54349350D01*
X91900578Y-54388109D01*
X91891634Y-54415358D01*
X91871502Y-54433112D01*
X91835794Y-54443386D01*
X91780120Y-54448195D01*
X91700090Y-54449554D01*
X91591315Y-54449478D01*
X91570455Y-54449467D01*
X91259000Y-54449467D01*
X91259000Y-54685604D01*
X91741600Y-54695000D01*
X91741600Y-54949000D01*
X91500300Y-54953698D01*
X91259000Y-54958397D01*
X91259000Y-55193802D01*
X91584966Y-55198401D01*
X91910933Y-55203000D01*
X91915908Y-55335839D01*
X91916021Y-55414977D01*
X91909967Y-55469754D01*
X91901134Y-55492472D01*
X91889620Y-55499706D01*
X91866157Y-55505332D01*
X91827217Y-55509511D01*
X91769270Y-55512405D01*
X91688787Y-55514179D01*
X91582239Y-55514993D01*
X91446097Y-55515012D01*
X91413560Y-55514930D01*
X91290314Y-55514281D01*
X91177701Y-55513122D01*
X91080296Y-55511544D01*
X91002676Y-55509641D01*
X90949420Y-55507506D01*
X90925104Y-55505229D01*
X90924566Y-55505052D01*
X90919012Y-55495519D01*
X90914445Y-55470136D01*
X90910788Y-55426372D01*
X90907962Y-55361695D01*
X90905888Y-55273576D01*
X90904490Y-55159484D01*
X90903687Y-55016888D01*
X90903403Y-54843258D01*
X90903400Y-54820589D01*
X90903400Y-54144667D01*
X91392655Y-54144667D01*
X91537752Y-54144464D01*
X91652522Y-54144560D01*
G36*
X89849548Y-54665367D02*
G01*
X89854030Y-55177600D01*
X90106572Y-55177600D01*
X90215036Y-55178035D01*
X90294234Y-55181037D01*
X90348769Y-55189157D01*
X90383241Y-55204940D01*
X90402252Y-55230937D01*
X90410404Y-55269695D01*
X90412297Y-55323763D01*
X90412333Y-55346934D01*
X90412424Y-55396502D01*
X90410246Y-55435329D01*
X90402120Y-55464724D01*
X90384369Y-55485996D01*
X90353314Y-55500453D01*
X90305278Y-55509404D01*
X90236583Y-55514158D01*
X90143551Y-55516024D01*
X90022503Y-55516309D01*
X89936459Y-55516267D01*
X89798170Y-55515859D01*
X89690663Y-55514534D01*
X89610864Y-55512141D01*
X89555697Y-55508528D01*
X89522086Y-55503543D01*
X89506958Y-55497037D01*
X89505666Y-55495060D01*
X89503973Y-55473918D01*
X89502624Y-55422699D01*
X89501638Y-55345189D01*
X89501037Y-55245175D01*
X89500840Y-55126444D01*
X89501069Y-54992784D01*
X89501743Y-54847981D01*
X89501964Y-54813493D01*
X89506400Y-54153133D01*
X89845066Y-54153133D01*
X89849548Y-54665367D01*
X89849548Y-54665367D01*
G37*
X89849548Y-54665367D02*
X89854030Y-55177600D01*
X90106572Y-55177600D01*
X90215036Y-55178035D01*
X90294234Y-55181037D01*
X90348769Y-55189157D01*
X90383241Y-55204940D01*
X90402252Y-55230937D01*
X90410404Y-55269695D01*
X90412297Y-55323763D01*
X90412333Y-55346934D01*
X90412424Y-55396502D01*
X90410246Y-55435329D01*
X90402120Y-55464724D01*
X90384369Y-55485996D01*
X90353314Y-55500453D01*
X90305278Y-55509404D01*
X90236583Y-55514158D01*
X90143551Y-55516024D01*
X90022503Y-55516309D01*
X89936459Y-55516267D01*
X89798170Y-55515859D01*
X89690663Y-55514534D01*
X89610864Y-55512141D01*
X89555697Y-55508528D01*
X89522086Y-55503543D01*
X89506958Y-55497037D01*
X89505666Y-55495060D01*
X89503973Y-55473918D01*
X89502624Y-55422699D01*
X89501638Y-55345189D01*
X89501037Y-55245175D01*
X89500840Y-55126444D01*
X89501069Y-54992784D01*
X89501743Y-54847981D01*
X89501964Y-54813493D01*
X89506400Y-54153133D01*
X89845066Y-54153133D01*
X89849548Y-54665367D01*
G36*
X88472797Y-54145700D02*
G01*
X88520236Y-54149628D01*
X88547753Y-54157696D01*
X88562298Y-54171147D01*
X88564109Y-54174300D01*
X88573469Y-54196149D01*
X88593624Y-54246072D01*
X88623187Y-54320544D01*
X88660772Y-54416037D01*
X88704993Y-54529026D01*
X88754463Y-54655985D01*
X88807796Y-54793388D01*
X88828100Y-54845827D01*
X88892696Y-55013574D01*
X88945359Y-55152224D01*
X88986877Y-55264067D01*
X89018039Y-55351392D01*
X89039636Y-55416488D01*
X89052457Y-55461645D01*
X89057292Y-55489152D01*
X89054931Y-55501297D01*
X89054361Y-55501734D01*
X89026383Y-55508706D01*
X88975232Y-55513246D01*
X88911431Y-55515308D01*
X88845504Y-55514847D01*
X88787972Y-55511818D01*
X88749358Y-55506174D01*
X88741431Y-55503090D01*
X88725229Y-55481356D01*
X88703450Y-55437849D01*
X88685181Y-55393282D01*
X88648833Y-55296134D01*
X88149957Y-55296134D01*
X88118703Y-55385034D01*
X88098365Y-55438443D01*
X88079716Y-55480079D01*
X88070951Y-55495100D01*
X88046190Y-55506262D01*
X87998556Y-55513581D01*
X87937391Y-55517104D01*
X87872040Y-55516878D01*
X87811846Y-55512948D01*
X87766153Y-55505361D01*
X87744303Y-55494164D01*
X87743991Y-55493476D01*
X87748393Y-55474436D01*
X87763642Y-55427584D01*
X87788330Y-55356685D01*
X87821054Y-55265499D01*
X87860407Y-55157790D01*
X87904984Y-55037320D01*
X87924095Y-54986194D01*
X88261800Y-54986194D01*
X88277397Y-54988581D01*
X88318844Y-54990378D01*
X88378128Y-54991282D01*
X88397267Y-54991334D01*
X88460176Y-54989807D01*
X88507549Y-54985750D01*
X88531373Y-54979947D01*
X88532733Y-54978071D01*
X88527455Y-54950196D01*
X88513385Y-54902793D01*
X88493171Y-54842877D01*
X88469460Y-54777465D01*
X88444900Y-54713572D01*
X88422136Y-54658215D01*
X88403818Y-54618410D01*
X88392591Y-54601173D01*
X88390786Y-54601867D01*
X88381391Y-54627600D01*
X88364874Y-54675206D01*
X88343834Y-54736936D01*
X88320873Y-54805042D01*
X88298589Y-54871776D01*
X88279584Y-54929392D01*
X88266457Y-54970140D01*
X88261800Y-54986194D01*
X87924095Y-54986194D01*
X87953380Y-54907851D01*
X88004188Y-54773146D01*
X88056004Y-54636967D01*
X88107423Y-54503076D01*
X88157038Y-54375236D01*
X88203444Y-54257209D01*
X88239952Y-54165833D01*
X88258856Y-54154273D01*
X88305966Y-54147345D01*
X88383807Y-54144712D01*
X88398482Y-54144667D01*
X88472797Y-54145700D01*
X88472797Y-54145700D01*
G37*
X88472797Y-54145700D02*
X88520236Y-54149628D01*
X88547753Y-54157696D01*
X88562298Y-54171147D01*
X88564109Y-54174300D01*
X88573469Y-54196149D01*
X88593624Y-54246072D01*
X88623187Y-54320544D01*
X88660772Y-54416037D01*
X88704993Y-54529026D01*
X88754463Y-54655985D01*
X88807796Y-54793388D01*
X88828100Y-54845827D01*
X88892696Y-55013574D01*
X88945359Y-55152224D01*
X88986877Y-55264067D01*
X89018039Y-55351392D01*
X89039636Y-55416488D01*
X89052457Y-55461645D01*
X89057292Y-55489152D01*
X89054931Y-55501297D01*
X89054361Y-55501734D01*
X89026383Y-55508706D01*
X88975232Y-55513246D01*
X88911431Y-55515308D01*
X88845504Y-55514847D01*
X88787972Y-55511818D01*
X88749358Y-55506174D01*
X88741431Y-55503090D01*
X88725229Y-55481356D01*
X88703450Y-55437849D01*
X88685181Y-55393282D01*
X88648833Y-55296134D01*
X88149957Y-55296134D01*
X88118703Y-55385034D01*
X88098365Y-55438443D01*
X88079716Y-55480079D01*
X88070951Y-55495100D01*
X88046190Y-55506262D01*
X87998556Y-55513581D01*
X87937391Y-55517104D01*
X87872040Y-55516878D01*
X87811846Y-55512948D01*
X87766153Y-55505361D01*
X87744303Y-55494164D01*
X87743991Y-55493476D01*
X87748393Y-55474436D01*
X87763642Y-55427584D01*
X87788330Y-55356685D01*
X87821054Y-55265499D01*
X87860407Y-55157790D01*
X87904984Y-55037320D01*
X87924095Y-54986194D01*
X88261800Y-54986194D01*
X88277397Y-54988581D01*
X88318844Y-54990378D01*
X88378128Y-54991282D01*
X88397267Y-54991334D01*
X88460176Y-54989807D01*
X88507549Y-54985750D01*
X88531373Y-54979947D01*
X88532733Y-54978071D01*
X88527455Y-54950196D01*
X88513385Y-54902793D01*
X88493171Y-54842877D01*
X88469460Y-54777465D01*
X88444900Y-54713572D01*
X88422136Y-54658215D01*
X88403818Y-54618410D01*
X88392591Y-54601173D01*
X88390786Y-54601867D01*
X88381391Y-54627600D01*
X88364874Y-54675206D01*
X88343834Y-54736936D01*
X88320873Y-54805042D01*
X88298589Y-54871776D01*
X88279584Y-54929392D01*
X88266457Y-54970140D01*
X88261800Y-54986194D01*
X87924095Y-54986194D01*
X87953380Y-54907851D01*
X88004188Y-54773146D01*
X88056004Y-54636967D01*
X88107423Y-54503076D01*
X88157038Y-54375236D01*
X88203444Y-54257209D01*
X88239952Y-54165833D01*
X88258856Y-54154273D01*
X88305966Y-54147345D01*
X88383807Y-54144712D01*
X88398482Y-54144667D01*
X88472797Y-54145700D01*
G36*
X87067571Y-54144978D02*
G01*
X87122984Y-54146674D01*
X87156594Y-54150897D01*
X87174432Y-54158790D01*
X87182529Y-54171495D01*
X87185403Y-54182767D01*
X87191030Y-54218682D01*
X87198855Y-54281532D01*
X87208451Y-54366778D01*
X87219391Y-54469882D01*
X87231247Y-54586305D01*
X87243593Y-54711510D01*
X87256001Y-54840959D01*
X87268045Y-54970112D01*
X87279298Y-55094432D01*
X87289333Y-55209380D01*
X87297722Y-55310418D01*
X87304039Y-55393008D01*
X87307856Y-55452612D01*
X87308747Y-55484691D01*
X87308274Y-55488614D01*
X87297304Y-55502185D01*
X87272759Y-55510581D01*
X87228167Y-55514903D01*
X87157053Y-55516252D01*
X87145731Y-55516267D01*
X87077512Y-55514887D01*
X87023184Y-55511195D01*
X86990865Y-55505861D01*
X86985625Y-55503042D01*
X86981309Y-55482837D01*
X86974098Y-55434326D01*
X86964695Y-55362882D01*
X86953805Y-55273873D01*
X86942129Y-55172671D01*
X86940728Y-55160142D01*
X86928944Y-55056850D01*
X86917844Y-54964163D01*
X86908145Y-54887709D01*
X86900564Y-54833120D01*
X86895818Y-54806025D01*
X86895534Y-54805067D01*
X86888597Y-54812896D01*
X86873934Y-54849043D01*
X86853003Y-54909229D01*
X86827266Y-54989175D01*
X86798183Y-55084602D01*
X86785836Y-55126507D01*
X86754966Y-55230482D01*
X86726199Y-55324038D01*
X86701190Y-55402052D01*
X86681594Y-55459400D01*
X86669068Y-55490959D01*
X86666797Y-55494807D01*
X86640140Y-55506703D01*
X86591011Y-55513997D01*
X86530328Y-55516676D01*
X86469009Y-55514728D01*
X86417974Y-55508143D01*
X86388140Y-55496908D01*
X86386384Y-55495100D01*
X86376810Y-55473053D01*
X86359725Y-55423561D01*
X86336769Y-55351789D01*
X86309579Y-55262898D01*
X86279796Y-55162053D01*
X86270961Y-55131494D01*
X86241429Y-55030395D01*
X86214712Y-54941849D01*
X86192275Y-54870478D01*
X86175584Y-54820902D01*
X86166105Y-54797741D01*
X86164787Y-54796701D01*
X86160617Y-54815095D01*
X86153420Y-54861980D01*
X86143890Y-54932184D01*
X86132725Y-55020539D01*
X86120620Y-55121874D01*
X86118101Y-55143647D01*
X86105727Y-55247720D01*
X86093933Y-55340547D01*
X86083460Y-55416775D01*
X86075050Y-55471051D01*
X86069445Y-55498021D01*
X86068765Y-55499606D01*
X86047488Y-55507867D01*
X86002034Y-55513262D01*
X85941968Y-55515834D01*
X85876854Y-55515623D01*
X85816257Y-55512672D01*
X85769741Y-55507023D01*
X85746872Y-55498718D01*
X85746493Y-55498190D01*
X85745629Y-55477801D01*
X85748068Y-55428257D01*
X85753364Y-55354062D01*
X85761071Y-55259720D01*
X85770746Y-55149733D01*
X85781942Y-55028607D01*
X85794213Y-54900844D01*
X85807116Y-54770948D01*
X85820203Y-54643423D01*
X85833030Y-54522772D01*
X85845152Y-54413500D01*
X85856123Y-54320109D01*
X85865498Y-54247105D01*
X85872831Y-54198989D01*
X85876624Y-54182210D01*
X85884263Y-54165439D01*
X85896738Y-54154592D01*
X85920350Y-54148618D01*
X85961403Y-54146464D01*
X86026201Y-54147077D01*
X86079417Y-54148344D01*
X86268116Y-54153133D01*
X86359487Y-54457934D01*
X86391257Y-54563940D01*
X86422372Y-54667813D01*
X86450456Y-54761609D01*
X86473128Y-54837387D01*
X86485967Y-54880349D01*
X86507258Y-54943952D01*
X86523411Y-54974636D01*
X86534396Y-54973483D01*
X86543069Y-54950531D01*
X86559753Y-54900266D01*
X86582814Y-54827840D01*
X86610622Y-54738403D01*
X86641542Y-54637108D01*
X86652177Y-54601867D01*
X86684245Y-54495416D01*
X86714002Y-54396843D01*
X86739712Y-54311885D01*
X86759638Y-54246281D01*
X86772043Y-54205767D01*
X86773932Y-54199700D01*
X86791226Y-54144667D01*
X86984324Y-54144667D01*
X87067571Y-54144978D01*
X87067571Y-54144978D01*
G37*
X87067571Y-54144978D02*
X87122984Y-54146674D01*
X87156594Y-54150897D01*
X87174432Y-54158790D01*
X87182529Y-54171495D01*
X87185403Y-54182767D01*
X87191030Y-54218682D01*
X87198855Y-54281532D01*
X87208451Y-54366778D01*
X87219391Y-54469882D01*
X87231247Y-54586305D01*
X87243593Y-54711510D01*
X87256001Y-54840959D01*
X87268045Y-54970112D01*
X87279298Y-55094432D01*
X87289333Y-55209380D01*
X87297722Y-55310418D01*
X87304039Y-55393008D01*
X87307856Y-55452612D01*
X87308747Y-55484691D01*
X87308274Y-55488614D01*
X87297304Y-55502185D01*
X87272759Y-55510581D01*
X87228167Y-55514903D01*
X87157053Y-55516252D01*
X87145731Y-55516267D01*
X87077512Y-55514887D01*
X87023184Y-55511195D01*
X86990865Y-55505861D01*
X86985625Y-55503042D01*
X86981309Y-55482837D01*
X86974098Y-55434326D01*
X86964695Y-55362882D01*
X86953805Y-55273873D01*
X86942129Y-55172671D01*
X86940728Y-55160142D01*
X86928944Y-55056850D01*
X86917844Y-54964163D01*
X86908145Y-54887709D01*
X86900564Y-54833120D01*
X86895818Y-54806025D01*
X86895534Y-54805067D01*
X86888597Y-54812896D01*
X86873934Y-54849043D01*
X86853003Y-54909229D01*
X86827266Y-54989175D01*
X86798183Y-55084602D01*
X86785836Y-55126507D01*
X86754966Y-55230482D01*
X86726199Y-55324038D01*
X86701190Y-55402052D01*
X86681594Y-55459400D01*
X86669068Y-55490959D01*
X86666797Y-55494807D01*
X86640140Y-55506703D01*
X86591011Y-55513997D01*
X86530328Y-55516676D01*
X86469009Y-55514728D01*
X86417974Y-55508143D01*
X86388140Y-55496908D01*
X86386384Y-55495100D01*
X86376810Y-55473053D01*
X86359725Y-55423561D01*
X86336769Y-55351789D01*
X86309579Y-55262898D01*
X86279796Y-55162053D01*
X86270961Y-55131494D01*
X86241429Y-55030395D01*
X86214712Y-54941849D01*
X86192275Y-54870478D01*
X86175584Y-54820902D01*
X86166105Y-54797741D01*
X86164787Y-54796701D01*
X86160617Y-54815095D01*
X86153420Y-54861980D01*
X86143890Y-54932184D01*
X86132725Y-55020539D01*
X86120620Y-55121874D01*
X86118101Y-55143647D01*
X86105727Y-55247720D01*
X86093933Y-55340547D01*
X86083460Y-55416775D01*
X86075050Y-55471051D01*
X86069445Y-55498021D01*
X86068765Y-55499606D01*
X86047488Y-55507867D01*
X86002034Y-55513262D01*
X85941968Y-55515834D01*
X85876854Y-55515623D01*
X85816257Y-55512672D01*
X85769741Y-55507023D01*
X85746872Y-55498718D01*
X85746493Y-55498190D01*
X85745629Y-55477801D01*
X85748068Y-55428257D01*
X85753364Y-55354062D01*
X85761071Y-55259720D01*
X85770746Y-55149733D01*
X85781942Y-55028607D01*
X85794213Y-54900844D01*
X85807116Y-54770948D01*
X85820203Y-54643423D01*
X85833030Y-54522772D01*
X85845152Y-54413500D01*
X85856123Y-54320109D01*
X85865498Y-54247105D01*
X85872831Y-54198989D01*
X85876624Y-54182210D01*
X85884263Y-54165439D01*
X85896738Y-54154592D01*
X85920350Y-54148618D01*
X85961403Y-54146464D01*
X86026201Y-54147077D01*
X86079417Y-54148344D01*
X86268116Y-54153133D01*
X86359487Y-54457934D01*
X86391257Y-54563940D01*
X86422372Y-54667813D01*
X86450456Y-54761609D01*
X86473128Y-54837387D01*
X86485967Y-54880349D01*
X86507258Y-54943952D01*
X86523411Y-54974636D01*
X86534396Y-54973483D01*
X86543069Y-54950531D01*
X86559753Y-54900266D01*
X86582814Y-54827840D01*
X86610622Y-54738403D01*
X86641542Y-54637108D01*
X86652177Y-54601867D01*
X86684245Y-54495416D01*
X86714002Y-54396843D01*
X86739712Y-54311885D01*
X86759638Y-54246281D01*
X86772043Y-54205767D01*
X86773932Y-54199700D01*
X86791226Y-54144667D01*
X86984324Y-54144667D01*
X87067571Y-54144978D01*
G36*
X95150349Y-54656900D02*
G01*
X95145200Y-55169134D01*
X95099310Y-55256134D01*
X95032373Y-55352283D01*
X94944969Y-55431917D01*
X94846318Y-55486857D01*
X94834192Y-55491391D01*
X94748936Y-55512293D01*
X94644926Y-55524210D01*
X94535841Y-55526663D01*
X94435359Y-55519175D01*
X94376111Y-55507386D01*
X94267526Y-55467117D01*
X94180242Y-55410687D01*
X94115108Y-55345664D01*
X94082352Y-55304571D01*
X94056163Y-55263193D01*
X94035726Y-55217112D01*
X94020223Y-55161908D01*
X94008837Y-55093163D01*
X94000750Y-55006458D01*
X93995146Y-54897373D01*
X93991206Y-54761491D01*
X93989304Y-54665405D01*
X93987603Y-54545071D01*
X93986851Y-54434126D01*
X93987019Y-54337635D01*
X93988074Y-54260660D01*
X93989986Y-54208264D01*
X93992211Y-54187038D01*
X93998411Y-54167699D01*
X94009699Y-54155373D01*
X94032700Y-54148481D01*
X94074041Y-54145445D01*
X94140348Y-54144687D01*
X94170044Y-54144667D01*
X94249444Y-54145606D01*
X94301080Y-54149033D01*
X94331019Y-54155863D01*
X94345326Y-54167012D01*
X94347521Y-54171452D01*
X94350325Y-54195163D01*
X94352837Y-54247868D01*
X94354948Y-54324696D01*
X94356550Y-54420776D01*
X94357533Y-54531234D01*
X94357800Y-54629493D01*
X94358149Y-54774107D01*
X94359678Y-54888829D01*
X94363107Y-54977629D01*
X94369159Y-55044476D01*
X94378553Y-55093343D01*
X94392012Y-55128200D01*
X94410256Y-55153016D01*
X94434007Y-55171764D01*
X94458846Y-55185780D01*
X94507672Y-55201998D01*
X94568398Y-55210889D01*
X94585808Y-55211467D01*
X94640248Y-55206930D01*
X94682819Y-55188712D01*
X94726349Y-55153528D01*
X94789600Y-55095590D01*
X94793891Y-54658228D01*
X94795386Y-54537984D01*
X94797359Y-54427398D01*
X94799672Y-54331466D01*
X94802189Y-54255181D01*
X94804773Y-54203536D01*
X94806914Y-54182767D01*
X94812740Y-54165462D01*
X94824976Y-54154385D01*
X94850113Y-54148152D01*
X94894641Y-54145378D01*
X94965051Y-54144679D01*
X94985571Y-54144667D01*
X95155497Y-54144667D01*
X95150349Y-54656900D01*
X95150349Y-54656900D01*
G37*
X95150349Y-54656900D02*
X95145200Y-55169134D01*
X95099310Y-55256134D01*
X95032373Y-55352283D01*
X94944969Y-55431917D01*
X94846318Y-55486857D01*
X94834192Y-55491391D01*
X94748936Y-55512293D01*
X94644926Y-55524210D01*
X94535841Y-55526663D01*
X94435359Y-55519175D01*
X94376111Y-55507386D01*
X94267526Y-55467117D01*
X94180242Y-55410687D01*
X94115108Y-55345664D01*
X94082352Y-55304571D01*
X94056163Y-55263193D01*
X94035726Y-55217112D01*
X94020223Y-55161908D01*
X94008837Y-55093163D01*
X94000750Y-55006458D01*
X93995146Y-54897373D01*
X93991206Y-54761491D01*
X93989304Y-54665405D01*
X93987603Y-54545071D01*
X93986851Y-54434126D01*
X93987019Y-54337635D01*
X93988074Y-54260660D01*
X93989986Y-54208264D01*
X93992211Y-54187038D01*
X93998411Y-54167699D01*
X94009699Y-54155373D01*
X94032700Y-54148481D01*
X94074041Y-54145445D01*
X94140348Y-54144687D01*
X94170044Y-54144667D01*
X94249444Y-54145606D01*
X94301080Y-54149033D01*
X94331019Y-54155863D01*
X94345326Y-54167012D01*
X94347521Y-54171452D01*
X94350325Y-54195163D01*
X94352837Y-54247868D01*
X94354948Y-54324696D01*
X94356550Y-54420776D01*
X94357533Y-54531234D01*
X94357800Y-54629493D01*
X94358149Y-54774107D01*
X94359678Y-54888829D01*
X94363107Y-54977629D01*
X94369159Y-55044476D01*
X94378553Y-55093343D01*
X94392012Y-55128200D01*
X94410256Y-55153016D01*
X94434007Y-55171764D01*
X94458846Y-55185780D01*
X94507672Y-55201998D01*
X94568398Y-55210889D01*
X94585808Y-55211467D01*
X94640248Y-55206930D01*
X94682819Y-55188712D01*
X94726349Y-55153528D01*
X94789600Y-55095590D01*
X94793891Y-54658228D01*
X94795386Y-54537984D01*
X94797359Y-54427398D01*
X94799672Y-54331466D01*
X94802189Y-54255181D01*
X94804773Y-54203536D01*
X94806914Y-54182767D01*
X94812740Y-54165462D01*
X94824976Y-54154385D01*
X94850113Y-54148152D01*
X94894641Y-54145378D01*
X94965051Y-54144679D01*
X94985571Y-54144667D01*
X95155497Y-54144667D01*
X95150349Y-54656900D01*
G36*
X93172900Y-54134737D02*
G01*
X93267624Y-54153746D01*
X93355894Y-54181759D01*
X93427793Y-54215776D01*
X93465539Y-54243946D01*
X93481156Y-54261101D01*
X93486781Y-54277478D01*
X93480200Y-54300074D01*
X93459204Y-54335888D01*
X93421580Y-54391918D01*
X93416364Y-54399568D01*
X93376670Y-54455487D01*
X93342283Y-54499798D01*
X93318768Y-54525484D01*
X93313808Y-54528915D01*
X93287998Y-54526338D01*
X93245675Y-54510990D01*
X93225583Y-54501449D01*
X93132222Y-54471018D01*
X93031128Y-54466782D01*
X92934283Y-54488461D01*
X92890771Y-54509184D01*
X92809498Y-54575276D01*
X92754524Y-54661897D01*
X92726996Y-54766899D01*
X92723865Y-54822000D01*
X92737969Y-54936036D01*
X92780553Y-55032169D01*
X92852466Y-55112084D01*
X92881825Y-55134515D01*
X92930312Y-55164739D01*
X92974766Y-55180126D01*
X93030922Y-55185169D01*
X93059625Y-55185302D01*
X93153096Y-55176583D01*
X93229801Y-55150014D01*
X93235292Y-55147202D01*
X93278900Y-55125235D01*
X93308745Y-55111815D01*
X93315209Y-55109867D01*
X93328609Y-55123024D01*
X93354576Y-55157361D01*
X93387992Y-55205173D01*
X93423740Y-55258757D01*
X93456703Y-55310410D01*
X93481763Y-55352426D01*
X93493804Y-55377104D01*
X93494200Y-55379322D01*
X93479350Y-55400438D01*
X93439982Y-55427723D01*
X93383866Y-55457127D01*
X93318770Y-55484601D01*
X93252466Y-55506096D01*
X93249342Y-55506920D01*
X93097787Y-55530233D01*
X92947895Y-55520129D01*
X92885010Y-55506054D01*
X92748479Y-55452644D01*
X92628471Y-55372668D01*
X92527854Y-55270552D01*
X92449491Y-55150721D01*
X92396248Y-55017599D01*
X92370991Y-54875611D01*
X92376585Y-54729182D01*
X92377619Y-54722486D01*
X92417570Y-54571878D01*
X92484778Y-54439133D01*
X92576346Y-54326699D01*
X92689376Y-54237024D01*
X92820971Y-54172556D01*
X92968234Y-54135742D01*
X93081636Y-54127734D01*
X93172900Y-54134737D01*
X93172900Y-54134737D01*
G37*
X93172900Y-54134737D02*
X93267624Y-54153746D01*
X93355894Y-54181759D01*
X93427793Y-54215776D01*
X93465539Y-54243946D01*
X93481156Y-54261101D01*
X93486781Y-54277478D01*
X93480200Y-54300074D01*
X93459204Y-54335888D01*
X93421580Y-54391918D01*
X93416364Y-54399568D01*
X93376670Y-54455487D01*
X93342283Y-54499798D01*
X93318768Y-54525484D01*
X93313808Y-54528915D01*
X93287998Y-54526338D01*
X93245675Y-54510990D01*
X93225583Y-54501449D01*
X93132222Y-54471018D01*
X93031128Y-54466782D01*
X92934283Y-54488461D01*
X92890771Y-54509184D01*
X92809498Y-54575276D01*
X92754524Y-54661897D01*
X92726996Y-54766899D01*
X92723865Y-54822000D01*
X92737969Y-54936036D01*
X92780553Y-55032169D01*
X92852466Y-55112084D01*
X92881825Y-55134515D01*
X92930312Y-55164739D01*
X92974766Y-55180126D01*
X93030922Y-55185169D01*
X93059625Y-55185302D01*
X93153096Y-55176583D01*
X93229801Y-55150014D01*
X93235292Y-55147202D01*
X93278900Y-55125235D01*
X93308745Y-55111815D01*
X93315209Y-55109867D01*
X93328609Y-55123024D01*
X93354576Y-55157361D01*
X93387992Y-55205173D01*
X93423740Y-55258757D01*
X93456703Y-55310410D01*
X93481763Y-55352426D01*
X93493804Y-55377104D01*
X93494200Y-55379322D01*
X93479350Y-55400438D01*
X93439982Y-55427723D01*
X93383866Y-55457127D01*
X93318770Y-55484601D01*
X93252466Y-55506096D01*
X93249342Y-55506920D01*
X93097787Y-55530233D01*
X92947895Y-55520129D01*
X92885010Y-55506054D01*
X92748479Y-55452644D01*
X92628471Y-55372668D01*
X92527854Y-55270552D01*
X92449491Y-55150721D01*
X92396248Y-55017599D01*
X92370991Y-54875611D01*
X92376585Y-54729182D01*
X92377619Y-54722486D01*
X92417570Y-54571878D01*
X92484778Y-54439133D01*
X92576346Y-54326699D01*
X92689376Y-54237024D01*
X92820971Y-54172556D01*
X92968234Y-54135742D01*
X93081636Y-54127734D01*
X93172900Y-54134737D01*
G36*
X91157400Y-56600000D02*
G01*
X90717133Y-56600000D01*
X90717133Y-56430667D01*
X91157400Y-56430667D01*
X91157400Y-56600000D01*
X91157400Y-56600000D01*
G37*
X91157400Y-56600000D02*
X90717133Y-56600000D01*
X90717133Y-56430667D01*
X91157400Y-56430667D01*
X91157400Y-56600000D01*
G36*
X89057667Y-56600000D02*
G01*
X88617400Y-56600000D01*
X88617400Y-56430667D01*
X89057667Y-56430667D01*
X89057667Y-56600000D01*
X89057667Y-56600000D01*
G37*
X89057667Y-56600000D02*
X88617400Y-56600000D01*
X88617400Y-56430667D01*
X89057667Y-56430667D01*
X89057667Y-56600000D01*
G36*
X92461266Y-56718534D02*
G01*
X92647533Y-56718534D01*
X92647533Y-56887867D01*
X92054866Y-56887867D01*
X92054866Y-56718534D01*
X92275000Y-56718534D01*
X92275000Y-56464533D01*
X92274465Y-56376140D01*
X92272990Y-56301125D01*
X92270773Y-56245343D01*
X92268009Y-56214646D01*
X92266483Y-56210533D01*
X92248584Y-56218769D01*
X92211364Y-56240010D01*
X92177612Y-56260548D01*
X92097257Y-56310562D01*
X92068305Y-56256314D01*
X92048584Y-56212901D01*
X92038833Y-56178840D01*
X92038643Y-56176207D01*
X92053001Y-56155045D01*
X92091908Y-56126873D01*
X92147754Y-56095310D01*
X92212933Y-56063973D01*
X92279835Y-56036480D01*
X92340853Y-56016449D01*
X92388378Y-56007497D01*
X92393782Y-56007333D01*
X92461266Y-56007333D01*
X92461266Y-56718534D01*
X92461266Y-56718534D01*
G37*
X92461266Y-56718534D02*
X92647533Y-56718534D01*
X92647533Y-56887867D01*
X92054866Y-56887867D01*
X92054866Y-56718534D01*
X92275000Y-56718534D01*
X92275000Y-56464533D01*
X92274465Y-56376140D01*
X92272990Y-56301125D01*
X92270773Y-56245343D01*
X92268009Y-56214646D01*
X92266483Y-56210533D01*
X92248584Y-56218769D01*
X92211364Y-56240010D01*
X92177612Y-56260548D01*
X92097257Y-56310562D01*
X92068305Y-56256314D01*
X92048584Y-56212901D01*
X92038833Y-56178840D01*
X92038643Y-56176207D01*
X92053001Y-56155045D01*
X92091908Y-56126873D01*
X92147754Y-56095310D01*
X92212933Y-56063973D01*
X92279835Y-56036480D01*
X92340853Y-56016449D01*
X92388378Y-56007497D01*
X92393782Y-56007333D01*
X92461266Y-56007333D01*
X92461266Y-56718534D01*
G36*
X90336560Y-56008652D02*
G01*
X90413498Y-56051450D01*
X90441158Y-56077349D01*
X90491714Y-56154892D01*
X90524786Y-56253651D01*
X90539885Y-56365547D01*
X90536518Y-56482499D01*
X90514196Y-56596428D01*
X90478261Y-56688206D01*
X90419732Y-56766572D01*
X90335120Y-56826870D01*
X90227977Y-56867421D01*
X90101859Y-56886544D01*
X90055900Y-56887867D01*
X89972066Y-56887867D01*
X89972066Y-56718534D01*
X90054616Y-56718534D01*
X90147798Y-56713949D01*
X90216996Y-56698516D01*
X90271056Y-56669716D01*
X90294404Y-56650235D01*
X90332398Y-56610490D01*
X90344689Y-56583527D01*
X90329279Y-56567136D01*
X90284170Y-56559103D01*
X90210400Y-56557203D01*
X90117414Y-56552372D01*
X90049610Y-56534700D01*
X89999577Y-56500536D01*
X89959902Y-56446233D01*
X89950926Y-56429463D01*
X89929402Y-56362360D01*
X89923694Y-56299431D01*
X90096295Y-56299431D01*
X90115575Y-56354630D01*
X90125655Y-56369065D01*
X90152234Y-56398177D01*
X90179853Y-56410881D01*
X90221919Y-56411661D01*
X90246715Y-56409550D01*
X90298920Y-56401399D01*
X90337552Y-56389727D01*
X90347710Y-56383530D01*
X90357909Y-56353325D01*
X90356318Y-56304602D01*
X90345194Y-56249656D01*
X90326796Y-56200784D01*
X90309513Y-56175446D01*
X90260423Y-56144483D01*
X90209928Y-56141360D01*
X90163147Y-56160685D01*
X90125202Y-56197067D01*
X90101211Y-56245113D01*
X90096295Y-56299431D01*
X89923694Y-56299431D01*
X89922242Y-56283424D01*
X89929779Y-56207976D01*
X89945155Y-56163126D01*
X90001482Y-56087054D01*
X90075640Y-56032385D01*
X90160776Y-56000305D01*
X90250034Y-55991999D01*
X90336560Y-56008652D01*
X90336560Y-56008652D01*
G37*
X90336560Y-56008652D02*
X90413498Y-56051450D01*
X90441158Y-56077349D01*
X90491714Y-56154892D01*
X90524786Y-56253651D01*
X90539885Y-56365547D01*
X90536518Y-56482499D01*
X90514196Y-56596428D01*
X90478261Y-56688206D01*
X90419732Y-56766572D01*
X90335120Y-56826870D01*
X90227977Y-56867421D01*
X90101859Y-56886544D01*
X90055900Y-56887867D01*
X89972066Y-56887867D01*
X89972066Y-56718534D01*
X90054616Y-56718534D01*
X90147798Y-56713949D01*
X90216996Y-56698516D01*
X90271056Y-56669716D01*
X90294404Y-56650235D01*
X90332398Y-56610490D01*
X90344689Y-56583527D01*
X90329279Y-56567136D01*
X90284170Y-56559103D01*
X90210400Y-56557203D01*
X90117414Y-56552372D01*
X90049610Y-56534700D01*
X89999577Y-56500536D01*
X89959902Y-56446233D01*
X89950926Y-56429463D01*
X89929402Y-56362360D01*
X89923694Y-56299431D01*
X90096295Y-56299431D01*
X90115575Y-56354630D01*
X90125655Y-56369065D01*
X90152234Y-56398177D01*
X90179853Y-56410881D01*
X90221919Y-56411661D01*
X90246715Y-56409550D01*
X90298920Y-56401399D01*
X90337552Y-56389727D01*
X90347710Y-56383530D01*
X90357909Y-56353325D01*
X90356318Y-56304602D01*
X90345194Y-56249656D01*
X90326796Y-56200784D01*
X90309513Y-56175446D01*
X90260423Y-56144483D01*
X90209928Y-56141360D01*
X90163147Y-56160685D01*
X90125202Y-56197067D01*
X90101211Y-56245113D01*
X90096295Y-56299431D01*
X89923694Y-56299431D01*
X89922242Y-56283424D01*
X89929779Y-56207976D01*
X89945155Y-56163126D01*
X90001482Y-56087054D01*
X90075640Y-56032385D01*
X90160776Y-56000305D01*
X90250034Y-55991999D01*
X90336560Y-56008652D01*
G36*
X89657005Y-56015196D02*
G01*
X89729657Y-56061390D01*
X89788517Y-56133076D01*
X89797045Y-56148455D01*
X89828409Y-56237736D01*
X89843221Y-56345680D01*
X89841734Y-56461547D01*
X89824199Y-56574594D01*
X89790868Y-56674082D01*
X89784409Y-56687393D01*
X89725582Y-56766330D01*
X89640731Y-56826929D01*
X89533293Y-56867563D01*
X89406702Y-56886601D01*
X89361633Y-56887867D01*
X89277800Y-56887867D01*
X89277800Y-56718534D01*
X89360350Y-56718534D01*
X89453531Y-56713949D01*
X89522729Y-56698516D01*
X89576789Y-56669716D01*
X89600138Y-56650235D01*
X89638132Y-56610490D01*
X89650423Y-56583527D01*
X89635012Y-56567136D01*
X89589904Y-56559103D01*
X89516133Y-56557203D01*
X89442023Y-56555705D01*
X89391804Y-56549345D01*
X89355632Y-56536253D01*
X89334100Y-56522596D01*
X89274858Y-56459040D01*
X89238040Y-56375105D01*
X89228233Y-56299431D01*
X89402029Y-56299431D01*
X89421308Y-56354630D01*
X89431389Y-56369065D01*
X89457968Y-56398177D01*
X89485587Y-56410881D01*
X89527652Y-56411661D01*
X89552448Y-56409550D01*
X89604654Y-56401399D01*
X89643286Y-56389727D01*
X89653444Y-56383530D01*
X89663642Y-56353325D01*
X89662051Y-56304602D01*
X89650928Y-56249656D01*
X89632529Y-56200784D01*
X89615246Y-56175446D01*
X89566156Y-56144483D01*
X89515661Y-56141360D01*
X89468881Y-56160685D01*
X89430935Y-56197067D01*
X89406944Y-56245113D01*
X89402029Y-56299431D01*
X89228233Y-56299431D01*
X89227026Y-56290126D01*
X89241306Y-56196373D01*
X89280521Y-56118488D01*
X89339140Y-56057845D01*
X89411631Y-56015819D01*
X89492460Y-55993786D01*
X89576096Y-55993120D01*
X89657005Y-56015196D01*
X89657005Y-56015196D01*
G37*
X89657005Y-56015196D02*
X89729657Y-56061390D01*
X89788517Y-56133076D01*
X89797045Y-56148455D01*
X89828409Y-56237736D01*
X89843221Y-56345680D01*
X89841734Y-56461547D01*
X89824199Y-56574594D01*
X89790868Y-56674082D01*
X89784409Y-56687393D01*
X89725582Y-56766330D01*
X89640731Y-56826929D01*
X89533293Y-56867563D01*
X89406702Y-56886601D01*
X89361633Y-56887867D01*
X89277800Y-56887867D01*
X89277800Y-56718534D01*
X89360350Y-56718534D01*
X89453531Y-56713949D01*
X89522729Y-56698516D01*
X89576789Y-56669716D01*
X89600138Y-56650235D01*
X89638132Y-56610490D01*
X89650423Y-56583527D01*
X89635012Y-56567136D01*
X89589904Y-56559103D01*
X89516133Y-56557203D01*
X89442023Y-56555705D01*
X89391804Y-56549345D01*
X89355632Y-56536253D01*
X89334100Y-56522596D01*
X89274858Y-56459040D01*
X89238040Y-56375105D01*
X89228233Y-56299431D01*
X89402029Y-56299431D01*
X89421308Y-56354630D01*
X89431389Y-56369065D01*
X89457968Y-56398177D01*
X89485587Y-56410881D01*
X89527652Y-56411661D01*
X89552448Y-56409550D01*
X89604654Y-56401399D01*
X89643286Y-56389727D01*
X89653444Y-56383530D01*
X89663642Y-56353325D01*
X89662051Y-56304602D01*
X89650928Y-56249656D01*
X89632529Y-56200784D01*
X89615246Y-56175446D01*
X89566156Y-56144483D01*
X89515661Y-56141360D01*
X89468881Y-56160685D01*
X89430935Y-56197067D01*
X89406944Y-56245113D01*
X89402029Y-56299431D01*
X89228233Y-56299431D01*
X89227026Y-56290126D01*
X89241306Y-56196373D01*
X89280521Y-56118488D01*
X89339140Y-56057845D01*
X89411631Y-56015819D01*
X89492460Y-55993786D01*
X89576096Y-55993120D01*
X89657005Y-56015196D01*
G36*
X88261800Y-56718534D02*
G01*
X88448067Y-56718534D01*
X88448067Y-56887867D01*
X87855400Y-56887867D01*
X87855400Y-56718534D01*
X88075533Y-56718534D01*
X88075533Y-56464533D01*
X88074998Y-56376140D01*
X88073524Y-56301125D01*
X88071306Y-56245343D01*
X88068542Y-56214646D01*
X88067017Y-56210533D01*
X88049117Y-56218769D01*
X88011897Y-56240010D01*
X87978145Y-56260548D01*
X87897790Y-56310562D01*
X87868838Y-56256314D01*
X87849118Y-56212901D01*
X87839367Y-56178840D01*
X87839176Y-56176207D01*
X87853535Y-56155045D01*
X87892441Y-56126873D01*
X87948288Y-56095310D01*
X88013466Y-56063973D01*
X88080368Y-56036480D01*
X88141386Y-56016449D01*
X88188911Y-56007497D01*
X88194315Y-56007333D01*
X88261800Y-56007333D01*
X88261800Y-56718534D01*
X88261800Y-56718534D01*
G37*
X88261800Y-56718534D02*
X88448067Y-56718534D01*
X88448067Y-56887867D01*
X87855400Y-56887867D01*
X87855400Y-56718534D01*
X88075533Y-56718534D01*
X88075533Y-56464533D01*
X88074998Y-56376140D01*
X88073524Y-56301125D01*
X88071306Y-56245343D01*
X88068542Y-56214646D01*
X88067017Y-56210533D01*
X88049117Y-56218769D01*
X88011897Y-56240010D01*
X87978145Y-56260548D01*
X87897790Y-56310562D01*
X87868838Y-56256314D01*
X87849118Y-56212901D01*
X87839367Y-56178840D01*
X87839176Y-56176207D01*
X87853535Y-56155045D01*
X87892441Y-56126873D01*
X87948288Y-56095310D01*
X88013466Y-56063973D01*
X88080368Y-56036480D01*
X88141386Y-56016449D01*
X88188911Y-56007497D01*
X88194315Y-56007333D01*
X88261800Y-56007333D01*
X88261800Y-56718534D01*
G36*
X87224892Y-55984460D02*
G01*
X87250085Y-56001966D01*
X87277934Y-56009860D01*
X87299294Y-56017513D01*
X87318077Y-56037549D01*
X87338010Y-56076068D01*
X87362820Y-56139170D01*
X87371463Y-56162951D01*
X87395704Y-56228545D01*
X87416456Y-56281415D01*
X87430640Y-56313860D01*
X87434301Y-56320012D01*
X87443966Y-56309560D01*
X87462103Y-56273459D01*
X87485783Y-56217950D01*
X87503348Y-56172861D01*
X87562484Y-56015800D01*
X87658142Y-56010722D01*
X87712283Y-56008636D01*
X87740929Y-56012196D01*
X87752391Y-56025032D01*
X87754980Y-56050775D01*
X87755041Y-56053055D01*
X87756235Y-56083198D01*
X87758900Y-56141688D01*
X87762775Y-56223048D01*
X87767595Y-56321804D01*
X87773099Y-56432478D01*
X87776208Y-56494177D01*
X87796133Y-56887888D01*
X87707233Y-56887877D01*
X87618333Y-56887867D01*
X87616354Y-56722767D01*
X87614266Y-56635637D01*
X87610418Y-56546703D01*
X87605517Y-56471107D01*
X87603654Y-56450303D01*
X87592933Y-56342939D01*
X87544510Y-56479936D01*
X87496087Y-56616934D01*
X87433828Y-56616934D01*
X87401818Y-56615743D01*
X87380479Y-56607681D01*
X87364011Y-56586011D01*
X87346608Y-56543998D01*
X87329851Y-56496239D01*
X87288133Y-56375545D01*
X87276688Y-56449672D01*
X87271715Y-56498401D01*
X87267561Y-56569778D01*
X87264783Y-56652586D01*
X87263988Y-56705834D01*
X87262733Y-56887867D01*
X87088355Y-56887867D01*
X87099703Y-56646567D01*
X87107401Y-56482721D01*
X87113784Y-56349530D01*
X87119209Y-56243826D01*
X87124037Y-56162438D01*
X87128626Y-56102196D01*
X87133337Y-56059932D01*
X87138527Y-56032475D01*
X87144556Y-56016656D01*
X87151784Y-56009305D01*
X87160569Y-56007253D01*
X87171270Y-56007330D01*
X87172141Y-56007333D01*
X87202809Y-55999676D01*
X87212192Y-55986167D01*
X87216576Y-55974517D01*
X87224892Y-55984460D01*
X87224892Y-55984460D01*
G37*
X87224892Y-55984460D02*
X87250085Y-56001966D01*
X87277934Y-56009860D01*
X87299294Y-56017513D01*
X87318077Y-56037549D01*
X87338010Y-56076068D01*
X87362820Y-56139170D01*
X87371463Y-56162951D01*
X87395704Y-56228545D01*
X87416456Y-56281415D01*
X87430640Y-56313860D01*
X87434301Y-56320012D01*
X87443966Y-56309560D01*
X87462103Y-56273459D01*
X87485783Y-56217950D01*
X87503348Y-56172861D01*
X87562484Y-56015800D01*
X87658142Y-56010722D01*
X87712283Y-56008636D01*
X87740929Y-56012196D01*
X87752391Y-56025032D01*
X87754980Y-56050775D01*
X87755041Y-56053055D01*
X87756235Y-56083198D01*
X87758900Y-56141688D01*
X87762775Y-56223048D01*
X87767595Y-56321804D01*
X87773099Y-56432478D01*
X87776208Y-56494177D01*
X87796133Y-56887888D01*
X87707233Y-56887877D01*
X87618333Y-56887867D01*
X87616354Y-56722767D01*
X87614266Y-56635637D01*
X87610418Y-56546703D01*
X87605517Y-56471107D01*
X87603654Y-56450303D01*
X87592933Y-56342939D01*
X87544510Y-56479936D01*
X87496087Y-56616934D01*
X87433828Y-56616934D01*
X87401818Y-56615743D01*
X87380479Y-56607681D01*
X87364011Y-56586011D01*
X87346608Y-56543998D01*
X87329851Y-56496239D01*
X87288133Y-56375545D01*
X87276688Y-56449672D01*
X87271715Y-56498401D01*
X87267561Y-56569778D01*
X87264783Y-56652586D01*
X87263988Y-56705834D01*
X87262733Y-56887867D01*
X87088355Y-56887867D01*
X87099703Y-56646567D01*
X87107401Y-56482721D01*
X87113784Y-56349530D01*
X87119209Y-56243826D01*
X87124037Y-56162438D01*
X87128626Y-56102196D01*
X87133337Y-56059932D01*
X87138527Y-56032475D01*
X87144556Y-56016656D01*
X87151784Y-56009305D01*
X87160569Y-56007253D01*
X87171270Y-56007330D01*
X87172141Y-56007333D01*
X87202809Y-55999676D01*
X87212192Y-55986167D01*
X87216576Y-55974517D01*
X87224892Y-55984460D01*
G36*
X87025667Y-56176667D02*
G01*
X86670067Y-56176667D01*
X86670067Y-56346000D01*
X87008733Y-56346000D01*
X87008733Y-56515334D01*
X86670067Y-56515334D01*
X86670067Y-56718534D01*
X87025667Y-56718534D01*
X87025667Y-56887867D01*
X86483800Y-56887867D01*
X86483800Y-56007333D01*
X87025667Y-56007333D01*
X87025667Y-56176667D01*
X87025667Y-56176667D01*
G37*
X87025667Y-56176667D02*
X86670067Y-56176667D01*
X86670067Y-56346000D01*
X87008733Y-56346000D01*
X87008733Y-56515334D01*
X86670067Y-56515334D01*
X86670067Y-56718534D01*
X87025667Y-56718534D01*
X87025667Y-56887867D01*
X86483800Y-56887867D01*
X86483800Y-56007333D01*
X87025667Y-56007333D01*
X87025667Y-56176667D01*
G36*
X86365267Y-56176667D02*
G01*
X86128200Y-56176667D01*
X86128200Y-56887867D01*
X85941933Y-56887867D01*
X85941933Y-56176667D01*
X85704867Y-56176667D01*
X85704867Y-56007333D01*
X86365267Y-56007333D01*
X86365267Y-56176667D01*
X86365267Y-56176667D01*
G37*
X86365267Y-56176667D02*
X86128200Y-56176667D01*
X86128200Y-56887867D01*
X85941933Y-56887867D01*
X85941933Y-56176667D01*
X85704867Y-56176667D01*
X85704867Y-56007333D01*
X86365267Y-56007333D01*
X86365267Y-56176667D01*
G36*
X91767826Y-56027264D02*
G01*
X91844194Y-56084432D01*
X91900268Y-56166761D01*
X91920983Y-56221630D01*
X91934165Y-56289799D01*
X91941734Y-56376710D01*
X91943675Y-56471141D01*
X91939973Y-56561871D01*
X91930615Y-56637677D01*
X91921566Y-56673419D01*
X91873182Y-56768199D01*
X91805322Y-56839367D01*
X91723011Y-56884731D01*
X91631278Y-56902098D01*
X91535151Y-56889275D01*
X91478488Y-56866700D01*
X91429997Y-56836917D01*
X91393522Y-56798545D01*
X91359034Y-56740546D01*
X91352934Y-56728516D01*
X91328073Y-56674649D01*
X91323636Y-56660725D01*
X91513000Y-56660725D01*
X91527206Y-56695978D01*
X91561398Y-56729410D01*
X91602934Y-56750119D01*
X91619299Y-56752400D01*
X91663464Y-56742670D01*
X91694203Y-56726948D01*
X91726457Y-56690780D01*
X91751395Y-56630541D01*
X91770555Y-56542091D01*
X91775636Y-56507749D01*
X91780875Y-56459019D01*
X91778471Y-56437912D01*
X91767476Y-56438853D01*
X91764307Y-56441087D01*
X91662887Y-56519251D01*
X91586810Y-56581597D01*
X91536993Y-56627321D01*
X91514355Y-56655622D01*
X91513000Y-56660725D01*
X91323636Y-56660725D01*
X91312979Y-56627285D01*
X91305230Y-56574306D01*
X91302400Y-56503593D01*
X91302134Y-56474516D01*
X91305107Y-56394155D01*
X91478683Y-56394155D01*
X91480061Y-56432230D01*
X91488264Y-56447594D01*
X91488503Y-56447600D01*
X91504978Y-56437651D01*
X91541135Y-56411033D01*
X91590499Y-56372591D01*
X91615503Y-56352559D01*
X91668000Y-56307659D01*
X91708420Y-56268357D01*
X91730670Y-56240796D01*
X91733133Y-56234026D01*
X91719185Y-56199756D01*
X91685913Y-56166358D01*
X91646174Y-56145253D01*
X91630420Y-56142800D01*
X91574426Y-56155195D01*
X91532020Y-56194734D01*
X91506569Y-56244249D01*
X91492831Y-56290106D01*
X91483237Y-56343428D01*
X91478683Y-56394155D01*
X91305107Y-56394155D01*
X91306747Y-56349865D01*
X91323389Y-56250748D01*
X91354087Y-56170346D01*
X91400866Y-56101839D01*
X91418625Y-56082288D01*
X91468322Y-56036540D01*
X91514519Y-56011154D01*
X91569718Y-55998271D01*
X91675043Y-55997722D01*
X91767826Y-56027264D01*
X91767826Y-56027264D01*
G37*
X91767826Y-56027264D02*
X91844194Y-56084432D01*
X91900268Y-56166761D01*
X91920983Y-56221630D01*
X91934165Y-56289799D01*
X91941734Y-56376710D01*
X91943675Y-56471141D01*
X91939973Y-56561871D01*
X91930615Y-56637677D01*
X91921566Y-56673419D01*
X91873182Y-56768199D01*
X91805322Y-56839367D01*
X91723011Y-56884731D01*
X91631278Y-56902098D01*
X91535151Y-56889275D01*
X91478488Y-56866700D01*
X91429997Y-56836917D01*
X91393522Y-56798545D01*
X91359034Y-56740546D01*
X91352934Y-56728516D01*
X91328073Y-56674649D01*
X91323636Y-56660725D01*
X91513000Y-56660725D01*
X91527206Y-56695978D01*
X91561398Y-56729410D01*
X91602934Y-56750119D01*
X91619299Y-56752400D01*
X91663464Y-56742670D01*
X91694203Y-56726948D01*
X91726457Y-56690780D01*
X91751395Y-56630541D01*
X91770555Y-56542091D01*
X91775636Y-56507749D01*
X91780875Y-56459019D01*
X91778471Y-56437912D01*
X91767476Y-56438853D01*
X91764307Y-56441087D01*
X91662887Y-56519251D01*
X91586810Y-56581597D01*
X91536993Y-56627321D01*
X91514355Y-56655622D01*
X91513000Y-56660725D01*
X91323636Y-56660725D01*
X91312979Y-56627285D01*
X91305230Y-56574306D01*
X91302400Y-56503593D01*
X91302134Y-56474516D01*
X91305107Y-56394155D01*
X91478683Y-56394155D01*
X91480061Y-56432230D01*
X91488264Y-56447594D01*
X91488503Y-56447600D01*
X91504978Y-56437651D01*
X91541135Y-56411033D01*
X91590499Y-56372591D01*
X91615503Y-56352559D01*
X91668000Y-56307659D01*
X91708420Y-56268357D01*
X91730670Y-56240796D01*
X91733133Y-56234026D01*
X91719185Y-56199756D01*
X91685913Y-56166358D01*
X91646174Y-56145253D01*
X91630420Y-56142800D01*
X91574426Y-56155195D01*
X91532020Y-56194734D01*
X91506569Y-56244249D01*
X91492831Y-56290106D01*
X91483237Y-56343428D01*
X91478683Y-56394155D01*
X91305107Y-56394155D01*
X91306747Y-56349865D01*
X91323389Y-56250748D01*
X91354087Y-56170346D01*
X91400866Y-56101839D01*
X91418625Y-56082288D01*
X91468322Y-56036540D01*
X91514519Y-56011154D01*
X91569718Y-55998271D01*
X91675043Y-55997722D01*
X91767826Y-56027264D01*
G36*
X90615533Y-57683734D02*
G01*
X90835666Y-57683734D01*
X90835666Y-57395867D01*
X90988066Y-57395867D01*
X90988066Y-58140934D01*
X90835666Y-58140934D01*
X90835666Y-57836134D01*
X90615533Y-57836134D01*
X90615533Y-58140934D01*
X90446200Y-58140934D01*
X90446200Y-57395867D01*
X90615533Y-57395867D01*
X90615533Y-57683734D01*
X90615533Y-57683734D01*
G37*
X90615533Y-57683734D02*
X90835666Y-57683734D01*
X90835666Y-57395867D01*
X90988066Y-57395867D01*
X90988066Y-58140934D01*
X90835666Y-58140934D01*
X90835666Y-57836134D01*
X90615533Y-57836134D01*
X90615533Y-58140934D01*
X90446200Y-58140934D01*
X90446200Y-57395867D01*
X90615533Y-57395867D01*
X90615533Y-57683734D01*
G36*
X90412333Y-57548267D02*
G01*
X90209133Y-57548267D01*
X90209133Y-58140934D01*
X90056733Y-58140934D01*
X90056733Y-57548267D01*
X89853533Y-57548267D01*
X89853533Y-57395867D01*
X90412333Y-57395867D01*
X90412333Y-57548267D01*
X90412333Y-57548267D01*
G37*
X90412333Y-57548267D02*
X90209133Y-57548267D01*
X90209133Y-58140934D01*
X90056733Y-58140934D01*
X90056733Y-57548267D01*
X89853533Y-57548267D01*
X89853533Y-57395867D01*
X90412333Y-57395867D01*
X90412333Y-57548267D01*
G36*
X89785800Y-57548267D02*
G01*
X89633400Y-57548267D01*
X89633400Y-57988534D01*
X89785800Y-57988534D01*
X89785800Y-58140934D01*
X89311667Y-58140934D01*
X89311667Y-57988534D01*
X89481000Y-57988534D01*
X89481000Y-57548267D01*
X89311667Y-57548267D01*
X89311667Y-57395867D01*
X89785800Y-57395867D01*
X89785800Y-57548267D01*
X89785800Y-57548267D01*
G37*
X89785800Y-57548267D02*
X89633400Y-57548267D01*
X89633400Y-57988534D01*
X89785800Y-57988534D01*
X89785800Y-58140934D01*
X89311667Y-58140934D01*
X89311667Y-57988534D01*
X89481000Y-57988534D01*
X89481000Y-57548267D01*
X89311667Y-57548267D01*
X89311667Y-57395867D01*
X89785800Y-57395867D01*
X89785800Y-57548267D01*
G36*
X88041667Y-57548267D02*
G01*
X87753800Y-57548267D01*
X87753800Y-57683734D01*
X88024733Y-57683734D01*
X88024733Y-57836134D01*
X87753800Y-57836134D01*
X87753800Y-57988534D01*
X88041667Y-57988534D01*
X88041667Y-58140934D01*
X87584467Y-58140934D01*
X87584467Y-57395867D01*
X88041667Y-57395867D01*
X88041667Y-57548267D01*
X88041667Y-57548267D01*
G37*
X88041667Y-57548267D02*
X87753800Y-57548267D01*
X87753800Y-57683734D01*
X88024733Y-57683734D01*
X88024733Y-57836134D01*
X87753800Y-57836134D01*
X87753800Y-57988534D01*
X88041667Y-57988534D01*
X88041667Y-58140934D01*
X87584467Y-58140934D01*
X87584467Y-57395867D01*
X88041667Y-57395867D01*
X88041667Y-57548267D01*
G36*
X85890874Y-57373522D02*
G01*
X85905507Y-57391207D01*
X85929233Y-57398922D01*
X85951633Y-57408166D01*
X85971380Y-57433076D01*
X85992510Y-57480103D01*
X86009417Y-57527100D01*
X86030682Y-57585375D01*
X86048937Y-57628675D01*
X86060824Y-57649186D01*
X86062182Y-57649867D01*
X86072551Y-57635136D01*
X86090558Y-57596035D01*
X86112772Y-57540199D01*
X86118818Y-57523867D01*
X86146179Y-57454905D01*
X86171294Y-57413090D01*
X86201017Y-57392949D01*
X86242199Y-57389006D01*
X86282532Y-57393088D01*
X86306416Y-57398776D01*
X86320885Y-57413121D01*
X86329614Y-57444059D01*
X86336275Y-57499527D01*
X86337445Y-57511751D01*
X86343251Y-57590296D01*
X86347623Y-57680983D01*
X86349403Y-57751467D01*
X86351293Y-57829524D01*
X86355804Y-57880053D01*
X86364032Y-57902246D01*
X86377072Y-57895299D01*
X86396019Y-57858405D01*
X86406993Y-57829796D01*
X86568467Y-57829796D01*
X86583508Y-57833767D01*
X86621076Y-57835973D01*
X86636200Y-57836134D01*
X86684185Y-57831231D01*
X86702541Y-57817140D01*
X86702621Y-57814967D01*
X86696416Y-57787838D01*
X86681970Y-57741528D01*
X86670700Y-57709134D01*
X86650479Y-57661412D01*
X86635775Y-57644505D01*
X86629961Y-57649867D01*
X86616791Y-57685024D01*
X86600197Y-57731953D01*
X86584052Y-57779324D01*
X86572227Y-57815806D01*
X86568467Y-57829796D01*
X86406993Y-57829796D01*
X86421969Y-57790759D01*
X86456018Y-57691555D01*
X86464161Y-57667056D01*
X86553965Y-57395867D01*
X86729968Y-57395867D01*
X86842540Y-57730300D01*
X86955111Y-58064734D01*
X86956522Y-57730300D01*
X86957290Y-57548267D01*
X87127267Y-57548267D01*
X87127267Y-57992993D01*
X87196314Y-57983731D01*
X87249098Y-57970571D01*
X87291847Y-57949810D01*
X87297986Y-57944946D01*
X87335699Y-57889496D01*
X87355050Y-57812383D01*
X87355136Y-57720964D01*
X87336830Y-57628514D01*
X87312114Y-57595727D01*
X87265382Y-57567821D01*
X87208469Y-57550810D01*
X87178907Y-57548267D01*
X87127267Y-57548267D01*
X86957290Y-57548267D01*
X86957933Y-57395867D01*
X87106100Y-57396610D01*
X87227049Y-57402869D01*
X87320674Y-57421810D01*
X87391885Y-57455727D01*
X87445591Y-57506916D01*
X87484886Y-57573667D01*
X87506123Y-57645998D01*
X87515681Y-57735762D01*
X87513338Y-57828518D01*
X87498871Y-57909830D01*
X87490435Y-57934044D01*
X87451842Y-58006800D01*
X87401992Y-58061572D01*
X87336580Y-58100176D01*
X87251300Y-58124427D01*
X87141844Y-58136141D01*
X87008470Y-58137241D01*
X86800069Y-58132467D01*
X86781147Y-58064734D01*
X86762224Y-57997000D01*
X86640078Y-57992028D01*
X86517932Y-57987055D01*
X86497354Y-58063994D01*
X86476776Y-58140934D01*
X86217886Y-58140934D01*
X86207011Y-58001234D01*
X86201619Y-57923942D01*
X86197431Y-57848963D01*
X86195256Y-57791022D01*
X86195161Y-57785334D01*
X86194186Y-57709134D01*
X86155279Y-57810734D01*
X86132976Y-57865857D01*
X86115004Y-57896307D01*
X86094483Y-57909365D01*
X86064531Y-57912313D01*
X86059268Y-57912334D01*
X86022202Y-57908895D01*
X85999591Y-57892660D01*
X85981000Y-57854752D01*
X85975995Y-57841491D01*
X85957403Y-57795604D01*
X85941598Y-57763997D01*
X85937413Y-57758236D01*
X85932589Y-57769027D01*
X85928640Y-57807591D01*
X85925974Y-57867835D01*
X85925000Y-57943378D01*
X85925000Y-58140934D01*
X85760753Y-58140934D01*
X85767858Y-58018167D01*
X85771350Y-57954468D01*
X85775845Y-57867586D01*
X85780804Y-57768168D01*
X85785690Y-57666864D01*
X85786482Y-57650062D01*
X85791308Y-57554025D01*
X85795890Y-57486607D01*
X85801172Y-57442580D01*
X85808094Y-57416718D01*
X85817599Y-57403794D01*
X85830631Y-57398579D01*
X85831867Y-57398336D01*
X85865845Y-57384275D01*
X85878174Y-57372741D01*
X85888999Y-57362909D01*
X85890874Y-57373522D01*
X85890874Y-57373522D01*
G37*
X85890874Y-57373522D02*
X85905507Y-57391207D01*
X85929233Y-57398922D01*
X85951633Y-57408166D01*
X85971380Y-57433076D01*
X85992510Y-57480103D01*
X86009417Y-57527100D01*
X86030682Y-57585375D01*
X86048937Y-57628675D01*
X86060824Y-57649186D01*
X86062182Y-57649867D01*
X86072551Y-57635136D01*
X86090558Y-57596035D01*
X86112772Y-57540199D01*
X86118818Y-57523867D01*
X86146179Y-57454905D01*
X86171294Y-57413090D01*
X86201017Y-57392949D01*
X86242199Y-57389006D01*
X86282532Y-57393088D01*
X86306416Y-57398776D01*
X86320885Y-57413121D01*
X86329614Y-57444059D01*
X86336275Y-57499527D01*
X86337445Y-57511751D01*
X86343251Y-57590296D01*
X86347623Y-57680983D01*
X86349403Y-57751467D01*
X86351293Y-57829524D01*
X86355804Y-57880053D01*
X86364032Y-57902246D01*
X86377072Y-57895299D01*
X86396019Y-57858405D01*
X86406993Y-57829796D01*
X86568467Y-57829796D01*
X86583508Y-57833767D01*
X86621076Y-57835973D01*
X86636200Y-57836134D01*
X86684185Y-57831231D01*
X86702541Y-57817140D01*
X86702621Y-57814967D01*
X86696416Y-57787838D01*
X86681970Y-57741528D01*
X86670700Y-57709134D01*
X86650479Y-57661412D01*
X86635775Y-57644505D01*
X86629961Y-57649867D01*
X86616791Y-57685024D01*
X86600197Y-57731953D01*
X86584052Y-57779324D01*
X86572227Y-57815806D01*
X86568467Y-57829796D01*
X86406993Y-57829796D01*
X86421969Y-57790759D01*
X86456018Y-57691555D01*
X86464161Y-57667056D01*
X86553965Y-57395867D01*
X86729968Y-57395867D01*
X86842540Y-57730300D01*
X86955111Y-58064734D01*
X86956522Y-57730300D01*
X86957290Y-57548267D01*
X87127267Y-57548267D01*
X87127267Y-57992993D01*
X87196314Y-57983731D01*
X87249098Y-57970571D01*
X87291847Y-57949810D01*
X87297986Y-57944946D01*
X87335699Y-57889496D01*
X87355050Y-57812383D01*
X87355136Y-57720964D01*
X87336830Y-57628514D01*
X87312114Y-57595727D01*
X87265382Y-57567821D01*
X87208469Y-57550810D01*
X87178907Y-57548267D01*
X87127267Y-57548267D01*
X86957290Y-57548267D01*
X86957933Y-57395867D01*
X87106100Y-57396610D01*
X87227049Y-57402869D01*
X87320674Y-57421810D01*
X87391885Y-57455727D01*
X87445591Y-57506916D01*
X87484886Y-57573667D01*
X87506123Y-57645998D01*
X87515681Y-57735762D01*
X87513338Y-57828518D01*
X87498871Y-57909830D01*
X87490435Y-57934044D01*
X87451842Y-58006800D01*
X87401992Y-58061572D01*
X87336580Y-58100176D01*
X87251300Y-58124427D01*
X87141844Y-58136141D01*
X87008470Y-58137241D01*
X86800069Y-58132467D01*
X86781147Y-58064734D01*
X86762224Y-57997000D01*
X86640078Y-57992028D01*
X86517932Y-57987055D01*
X86497354Y-58063994D01*
X86476776Y-58140934D01*
X86217886Y-58140934D01*
X86207011Y-58001234D01*
X86201619Y-57923942D01*
X86197431Y-57848963D01*
X86195256Y-57791022D01*
X86195161Y-57785334D01*
X86194186Y-57709134D01*
X86155279Y-57810734D01*
X86132976Y-57865857D01*
X86115004Y-57896307D01*
X86094483Y-57909365D01*
X86064531Y-57912313D01*
X86059268Y-57912334D01*
X86022202Y-57908895D01*
X85999591Y-57892660D01*
X85981000Y-57854752D01*
X85975995Y-57841491D01*
X85957403Y-57795604D01*
X85941598Y-57763997D01*
X85937413Y-57758236D01*
X85932589Y-57769027D01*
X85928640Y-57807591D01*
X85925974Y-57867835D01*
X85925000Y-57943378D01*
X85925000Y-58140934D01*
X85760753Y-58140934D01*
X85767858Y-58018167D01*
X85771350Y-57954468D01*
X85775845Y-57867586D01*
X85780804Y-57768168D01*
X85785690Y-57666864D01*
X85786482Y-57650062D01*
X85791308Y-57554025D01*
X85795890Y-57486607D01*
X85801172Y-57442580D01*
X85808094Y-57416718D01*
X85817599Y-57403794D01*
X85830631Y-57398579D01*
X85831867Y-57398336D01*
X85865845Y-57384275D01*
X85878174Y-57372741D01*
X85888999Y-57362909D01*
X85890874Y-57373522D01*
G36*
X88788833Y-57397853D02*
G01*
X88812444Y-57408276D01*
X88823702Y-57433834D01*
X88826950Y-57448784D01*
X88832820Y-57494023D01*
X88837328Y-57557824D01*
X88839221Y-57613884D01*
X88841802Y-57678731D01*
X88846830Y-57735121D01*
X88852275Y-57766664D01*
X88859797Y-57785048D01*
X88868413Y-57781015D01*
X88880989Y-57750766D01*
X88893785Y-57711631D01*
X88911933Y-57658161D01*
X88927830Y-57629555D01*
X88948422Y-57618079D01*
X88979651Y-57616000D01*
X89010191Y-57617893D01*
X89030109Y-57628480D01*
X89045527Y-57655122D01*
X89062570Y-57705180D01*
X89067685Y-57721834D01*
X89100000Y-57827667D01*
X89111216Y-57743000D01*
X89117081Y-57682221D01*
X89121647Y-57604472D01*
X89123916Y-57527100D01*
X89125400Y-57395867D01*
X89277800Y-57395867D01*
X89276652Y-57467834D01*
X89274846Y-57521076D01*
X89271062Y-57593753D01*
X89265769Y-57679633D01*
X89259437Y-57772488D01*
X89252534Y-57866086D01*
X89245529Y-57954199D01*
X89238890Y-58030594D01*
X89233087Y-58089044D01*
X89228588Y-58123318D01*
X89226851Y-58129595D01*
X89194797Y-58140724D01*
X89130294Y-58143413D01*
X89113676Y-58142940D01*
X89085136Y-58139909D01*
X89065554Y-58128696D01*
X89049508Y-58102242D01*
X89031574Y-58053489D01*
X89021728Y-58023285D01*
X89002043Y-57967372D01*
X88984906Y-57927916D01*
X88973620Y-57912368D01*
X88972645Y-57912553D01*
X88962884Y-57931252D01*
X88948069Y-57973608D01*
X88931479Y-58030202D01*
X88913795Y-58089963D01*
X88898501Y-58123612D01*
X88881193Y-58138215D01*
X88862464Y-58140934D01*
X88828468Y-58149070D01*
X88814881Y-58162100D01*
X88807230Y-58174579D01*
X88805003Y-58162100D01*
X88789442Y-58146161D01*
X88761333Y-58140934D01*
X88730123Y-58134760D01*
X88719503Y-58109435D01*
X88718931Y-58094367D01*
X88717647Y-58057545D01*
X88714207Y-57994547D01*
X88709133Y-57912958D01*
X88702949Y-57820363D01*
X88696178Y-57724347D01*
X88689342Y-57632496D01*
X88682966Y-57552392D01*
X88677571Y-57491622D01*
X88676892Y-57484767D01*
X88667904Y-57395867D01*
X88742135Y-57395867D01*
X88788833Y-57397853D01*
X88788833Y-57397853D01*
G37*
X88788833Y-57397853D02*
X88812444Y-57408276D01*
X88823702Y-57433834D01*
X88826950Y-57448784D01*
X88832820Y-57494023D01*
X88837328Y-57557824D01*
X88839221Y-57613884D01*
X88841802Y-57678731D01*
X88846830Y-57735121D01*
X88852275Y-57766664D01*
X88859797Y-57785048D01*
X88868413Y-57781015D01*
X88880989Y-57750766D01*
X88893785Y-57711631D01*
X88911933Y-57658161D01*
X88927830Y-57629555D01*
X88948422Y-57618079D01*
X88979651Y-57616000D01*
X89010191Y-57617893D01*
X89030109Y-57628480D01*
X89045527Y-57655122D01*
X89062570Y-57705180D01*
X89067685Y-57721834D01*
X89100000Y-57827667D01*
X89111216Y-57743000D01*
X89117081Y-57682221D01*
X89121647Y-57604472D01*
X89123916Y-57527100D01*
X89125400Y-57395867D01*
X89277800Y-57395867D01*
X89276652Y-57467834D01*
X89274846Y-57521076D01*
X89271062Y-57593753D01*
X89265769Y-57679633D01*
X89259437Y-57772488D01*
X89252534Y-57866086D01*
X89245529Y-57954199D01*
X89238890Y-58030594D01*
X89233087Y-58089044D01*
X89228588Y-58123318D01*
X89226851Y-58129595D01*
X89194797Y-58140724D01*
X89130294Y-58143413D01*
X89113676Y-58142940D01*
X89085136Y-58139909D01*
X89065554Y-58128696D01*
X89049508Y-58102242D01*
X89031574Y-58053489D01*
X89021728Y-58023285D01*
X89002043Y-57967372D01*
X88984906Y-57927916D01*
X88973620Y-57912368D01*
X88972645Y-57912553D01*
X88962884Y-57931252D01*
X88948069Y-57973608D01*
X88931479Y-58030202D01*
X88913795Y-58089963D01*
X88898501Y-58123612D01*
X88881193Y-58138215D01*
X88862464Y-58140934D01*
X88828468Y-58149070D01*
X88814881Y-58162100D01*
X88807230Y-58174579D01*
X88805003Y-58162100D01*
X88789442Y-58146161D01*
X88761333Y-58140934D01*
X88730123Y-58134760D01*
X88719503Y-58109435D01*
X88718931Y-58094367D01*
X88717647Y-58057545D01*
X88714207Y-57994547D01*
X88709133Y-57912958D01*
X88702949Y-57820363D01*
X88696178Y-57724347D01*
X88689342Y-57632496D01*
X88682966Y-57552392D01*
X88677571Y-57491622D01*
X88676892Y-57484767D01*
X88667904Y-57395867D01*
X88742135Y-57395867D01*
X88788833Y-57397853D01*
G36*
X92276659Y-57345975D02*
G01*
X92350896Y-57378733D01*
X92414026Y-57430393D01*
X92461562Y-57497387D01*
X92489019Y-57576148D01*
X92491912Y-57663109D01*
X92469992Y-57744992D01*
X92453038Y-57770695D01*
X92417755Y-57814333D01*
X92368455Y-57871306D01*
X92309450Y-57937016D01*
X92245052Y-58006862D01*
X92179574Y-58076245D01*
X92117328Y-58140565D01*
X92062626Y-58195223D01*
X92019780Y-58235618D01*
X91993103Y-58257152D01*
X91987660Y-58259467D01*
X91973044Y-58247971D01*
X91938578Y-58215950D01*
X91888082Y-58167102D01*
X91825374Y-58105126D01*
X91754271Y-58033719D01*
X91747272Y-58026634D01*
X91655292Y-57931840D01*
X91585811Y-57855572D01*
X91536225Y-57793627D01*
X91503929Y-57741801D01*
X91486319Y-57695887D01*
X91480790Y-57651684D01*
X91484736Y-57604985D01*
X91485002Y-57603327D01*
X91513747Y-57517458D01*
X91565855Y-57446088D01*
X91635000Y-57392124D01*
X91714853Y-57358475D01*
X91799089Y-57348049D01*
X91881379Y-57363755D01*
X91938569Y-57394842D01*
X91988080Y-57431447D01*
X92032150Y-57396781D01*
X92112800Y-57351432D01*
X92195798Y-57335686D01*
X92276659Y-57345975D01*
X92276659Y-57345975D01*
G37*
X92276659Y-57345975D02*
X92350896Y-57378733D01*
X92414026Y-57430393D01*
X92461562Y-57497387D01*
X92489019Y-57576148D01*
X92491912Y-57663109D01*
X92469992Y-57744992D01*
X92453038Y-57770695D01*
X92417755Y-57814333D01*
X92368455Y-57871306D01*
X92309450Y-57937016D01*
X92245052Y-58006862D01*
X92179574Y-58076245D01*
X92117328Y-58140565D01*
X92062626Y-58195223D01*
X92019780Y-58235618D01*
X91993103Y-58257152D01*
X91987660Y-58259467D01*
X91973044Y-58247971D01*
X91938578Y-58215950D01*
X91888082Y-58167102D01*
X91825374Y-58105126D01*
X91754271Y-58033719D01*
X91747272Y-58026634D01*
X91655292Y-57931840D01*
X91585811Y-57855572D01*
X91536225Y-57793627D01*
X91503929Y-57741801D01*
X91486319Y-57695887D01*
X91480790Y-57651684D01*
X91484736Y-57604985D01*
X91485002Y-57603327D01*
X91513747Y-57517458D01*
X91565855Y-57446088D01*
X91635000Y-57392124D01*
X91714853Y-57358475D01*
X91799089Y-57348049D01*
X91881379Y-57363755D01*
X91938569Y-57394842D01*
X91988080Y-57431447D01*
X92032150Y-57396781D01*
X92112800Y-57351432D01*
X92195798Y-57335686D01*
X92276659Y-57345975D01*
G36*
X87787667Y-59394000D02*
G01*
X87449000Y-59394000D01*
X87449000Y-59258533D01*
X87787667Y-59258533D01*
X87787667Y-59394000D01*
X87787667Y-59394000D01*
G37*
X87787667Y-59394000D02*
X87449000Y-59394000D01*
X87449000Y-59258533D01*
X87787667Y-59258533D01*
X87787667Y-59394000D01*
G36*
X87313533Y-59089200D02*
G01*
X87178067Y-59089200D01*
X87178067Y-59461733D01*
X87313533Y-59461733D01*
X87313533Y-59597200D01*
X86907133Y-59597200D01*
X86907133Y-59529467D01*
X86908927Y-59486100D01*
X86920006Y-59466827D01*
X86948912Y-59461885D01*
X86966400Y-59461733D01*
X87025667Y-59461733D01*
X87025667Y-59089200D01*
X86966400Y-59089200D01*
X86928453Y-59087150D01*
X86911590Y-59074489D01*
X86907266Y-59041453D01*
X86907133Y-59021467D01*
X86907133Y-58953733D01*
X87313533Y-58953733D01*
X87313533Y-59089200D01*
X87313533Y-59089200D01*
G37*
X87313533Y-59089200D02*
X87178067Y-59089200D01*
X87178067Y-59461733D01*
X87313533Y-59461733D01*
X87313533Y-59597200D01*
X86907133Y-59597200D01*
X86907133Y-59529467D01*
X86908927Y-59486100D01*
X86920006Y-59466827D01*
X86948912Y-59461885D01*
X86966400Y-59461733D01*
X87025667Y-59461733D01*
X87025667Y-59089200D01*
X86966400Y-59089200D01*
X86928453Y-59087150D01*
X86911590Y-59074489D01*
X86907266Y-59041453D01*
X86907133Y-59021467D01*
X86907133Y-58953733D01*
X87313533Y-58953733D01*
X87313533Y-59089200D01*
G36*
X86625509Y-58962008D02*
G01*
X86712039Y-58987002D01*
X86769692Y-59028969D01*
X86798826Y-59088165D01*
X86800526Y-59159776D01*
X86786290Y-59213223D01*
X86762934Y-59257019D01*
X86757156Y-59263636D01*
X86723156Y-59297636D01*
X86873606Y-59597200D01*
X86707693Y-59597200D01*
X86647381Y-59470200D01*
X86612740Y-59403858D01*
X86583143Y-59360019D01*
X86561701Y-59343247D01*
X86560834Y-59343200D01*
X86547082Y-59349254D01*
X86539005Y-59371634D01*
X86535299Y-59416663D01*
X86534600Y-59470200D01*
X86534600Y-59597200D01*
X86382200Y-59597200D01*
X86382200Y-59149592D01*
X86534600Y-59149592D01*
X86537078Y-59189526D01*
X86549484Y-59204830D01*
X86579270Y-59204647D01*
X86579459Y-59204625D01*
X86619647Y-59190891D01*
X86641420Y-59171935D01*
X86652151Y-59131924D01*
X86633727Y-59102121D01*
X86590686Y-59089291D01*
X86585931Y-59089200D01*
X86551676Y-59092356D01*
X86537456Y-59108627D01*
X86534601Y-59148215D01*
X86534600Y-59149592D01*
X86382200Y-59149592D01*
X86382200Y-58953733D01*
X86509744Y-58953733D01*
X86625509Y-58962008D01*
X86625509Y-58962008D01*
G37*
X86625509Y-58962008D02*
X86712039Y-58987002D01*
X86769692Y-59028969D01*
X86798826Y-59088165D01*
X86800526Y-59159776D01*
X86786290Y-59213223D01*
X86762934Y-59257019D01*
X86757156Y-59263636D01*
X86723156Y-59297636D01*
X86873606Y-59597200D01*
X86707693Y-59597200D01*
X86647381Y-59470200D01*
X86612740Y-59403858D01*
X86583143Y-59360019D01*
X86561701Y-59343247D01*
X86560834Y-59343200D01*
X86547082Y-59349254D01*
X86539005Y-59371634D01*
X86535299Y-59416663D01*
X86534600Y-59470200D01*
X86534600Y-59597200D01*
X86382200Y-59597200D01*
X86382200Y-59149592D01*
X86534600Y-59149592D01*
X86537078Y-59189526D01*
X86549484Y-59204830D01*
X86579270Y-59204647D01*
X86579459Y-59204625D01*
X86619647Y-59190891D01*
X86641420Y-59171935D01*
X86652151Y-59131924D01*
X86633727Y-59102121D01*
X86590686Y-59089291D01*
X86585931Y-59089200D01*
X86551676Y-59092356D01*
X86537456Y-59108627D01*
X86534601Y-59148215D01*
X86534600Y-59149592D01*
X86382200Y-59149592D01*
X86382200Y-58953733D01*
X86509744Y-58953733D01*
X86625509Y-58962008D01*
G36*
X88254165Y-58946036D02*
G01*
X88279294Y-58947363D01*
X88482003Y-58958819D01*
X88544065Y-59159476D01*
X88568440Y-59235864D01*
X88589967Y-59298852D01*
X88606431Y-59342267D01*
X88615618Y-59359934D01*
X88615996Y-59360051D01*
X88624505Y-59344837D01*
X88640630Y-59303347D01*
X88662146Y-59241712D01*
X88686829Y-59166062D01*
X88689736Y-59156851D01*
X88753605Y-58953733D01*
X89057667Y-58953733D01*
X89057667Y-59161937D01*
X89137387Y-59057835D01*
X89217108Y-58953733D01*
X89308794Y-58953733D01*
X89360504Y-58954679D01*
X89384297Y-58959155D01*
X89386107Y-58969624D01*
X89377240Y-58982117D01*
X89356605Y-59007161D01*
X89320452Y-59050894D01*
X89274882Y-59105937D01*
X89248648Y-59137595D01*
X89199619Y-59198382D01*
X89170486Y-59239644D01*
X89158244Y-59266807D01*
X89159889Y-59285299D01*
X89163580Y-59291246D01*
X89182739Y-59315387D01*
X89217594Y-59358487D01*
X89262315Y-59413358D01*
X89290098Y-59447282D01*
X89335134Y-59503142D01*
X89370701Y-59549103D01*
X89392155Y-59579056D01*
X89396333Y-59586982D01*
X89381055Y-59592630D01*
X89341813Y-59596181D01*
X89307433Y-59596843D01*
X89261541Y-59595698D01*
X89230041Y-59588893D01*
X89203676Y-59570692D01*
X89173191Y-59535360D01*
X89142333Y-59494540D01*
X89066133Y-59392596D01*
X89061092Y-59494898D01*
X89056050Y-59597200D01*
X88905267Y-59597200D01*
X88904368Y-59288167D01*
X88903470Y-58979133D01*
X88691440Y-59588733D01*
X88536120Y-59598917D01*
X88428593Y-59280559D01*
X88391749Y-59172538D01*
X88363906Y-59093889D01*
X88343789Y-59041713D01*
X88330121Y-59013111D01*
X88321625Y-59005186D01*
X88317025Y-59015040D01*
X88315875Y-59024635D01*
X88310683Y-59087069D01*
X88196952Y-59077534D01*
X88131775Y-59073832D01*
X88091539Y-59076928D01*
X88067804Y-59087896D01*
X88060986Y-59094791D01*
X88047852Y-59118322D01*
X88053572Y-59140154D01*
X88081862Y-59164225D01*
X88136442Y-59194471D01*
X88171129Y-59211412D01*
X88256497Y-59258969D01*
X88311710Y-59307174D01*
X88340324Y-59359960D01*
X88346467Y-59405591D01*
X88331908Y-59483639D01*
X88290626Y-59544867D01*
X88226208Y-59587561D01*
X88142241Y-59610006D01*
X88042314Y-59610488D01*
X87952767Y-59593768D01*
X87913120Y-59580947D01*
X87894762Y-59562881D01*
X87889522Y-59527922D01*
X87889267Y-59503249D01*
X87889267Y-59429595D01*
X87947989Y-59454131D01*
X88004129Y-59469930D01*
X88069042Y-59477411D01*
X88129432Y-59476012D01*
X88172004Y-59465174D01*
X88174566Y-59463678D01*
X88194735Y-59437158D01*
X88182196Y-59404499D01*
X88137428Y-59366314D01*
X88067067Y-59326267D01*
X87977014Y-59271278D01*
X87920332Y-59212604D01*
X87896643Y-59149387D01*
X87905570Y-59080770D01*
X87934064Y-59024286D01*
X87965193Y-58988209D01*
X88007518Y-58963515D01*
X88066289Y-58949035D01*
X88146754Y-58943599D01*
X88254165Y-58946036D01*
X88254165Y-58946036D01*
G37*
X88254165Y-58946036D02*
X88279294Y-58947363D01*
X88482003Y-58958819D01*
X88544065Y-59159476D01*
X88568440Y-59235864D01*
X88589967Y-59298852D01*
X88606431Y-59342267D01*
X88615618Y-59359934D01*
X88615996Y-59360051D01*
X88624505Y-59344837D01*
X88640630Y-59303347D01*
X88662146Y-59241712D01*
X88686829Y-59166062D01*
X88689736Y-59156851D01*
X88753605Y-58953733D01*
X89057667Y-58953733D01*
X89057667Y-59161937D01*
X89137387Y-59057835D01*
X89217108Y-58953733D01*
X89308794Y-58953733D01*
X89360504Y-58954679D01*
X89384297Y-58959155D01*
X89386107Y-58969624D01*
X89377240Y-58982117D01*
X89356605Y-59007161D01*
X89320452Y-59050894D01*
X89274882Y-59105937D01*
X89248648Y-59137595D01*
X89199619Y-59198382D01*
X89170486Y-59239644D01*
X89158244Y-59266807D01*
X89159889Y-59285299D01*
X89163580Y-59291246D01*
X89182739Y-59315387D01*
X89217594Y-59358487D01*
X89262315Y-59413358D01*
X89290098Y-59447282D01*
X89335134Y-59503142D01*
X89370701Y-59549103D01*
X89392155Y-59579056D01*
X89396333Y-59586982D01*
X89381055Y-59592630D01*
X89341813Y-59596181D01*
X89307433Y-59596843D01*
X89261541Y-59595698D01*
X89230041Y-59588893D01*
X89203676Y-59570692D01*
X89173191Y-59535360D01*
X89142333Y-59494540D01*
X89066133Y-59392596D01*
X89061092Y-59494898D01*
X89056050Y-59597200D01*
X88905267Y-59597200D01*
X88904368Y-59288167D01*
X88903470Y-58979133D01*
X88691440Y-59588733D01*
X88536120Y-59598917D01*
X88428593Y-59280559D01*
X88391749Y-59172538D01*
X88363906Y-59093889D01*
X88343789Y-59041713D01*
X88330121Y-59013111D01*
X88321625Y-59005186D01*
X88317025Y-59015040D01*
X88315875Y-59024635D01*
X88310683Y-59087069D01*
X88196952Y-59077534D01*
X88131775Y-59073832D01*
X88091539Y-59076928D01*
X88067804Y-59087896D01*
X88060986Y-59094791D01*
X88047852Y-59118322D01*
X88053572Y-59140154D01*
X88081862Y-59164225D01*
X88136442Y-59194471D01*
X88171129Y-59211412D01*
X88256497Y-59258969D01*
X88311710Y-59307174D01*
X88340324Y-59359960D01*
X88346467Y-59405591D01*
X88331908Y-59483639D01*
X88290626Y-59544867D01*
X88226208Y-59587561D01*
X88142241Y-59610006D01*
X88042314Y-59610488D01*
X87952767Y-59593768D01*
X87913120Y-59580947D01*
X87894762Y-59562881D01*
X87889522Y-59527922D01*
X87889267Y-59503249D01*
X87889267Y-59429595D01*
X87947989Y-59454131D01*
X88004129Y-59469930D01*
X88069042Y-59477411D01*
X88129432Y-59476012D01*
X88172004Y-59465174D01*
X88174566Y-59463678D01*
X88194735Y-59437158D01*
X88182196Y-59404499D01*
X88137428Y-59366314D01*
X88067067Y-59326267D01*
X87977014Y-59271278D01*
X87920332Y-59212604D01*
X87896643Y-59149387D01*
X87905570Y-59080770D01*
X87934064Y-59024286D01*
X87965193Y-58988209D01*
X88007518Y-58963515D01*
X88066289Y-58949035D01*
X88146754Y-58943599D01*
X88254165Y-58946036D01*
G36*
X86250967Y-58954624D02*
G01*
X86290450Y-58967861D01*
X86308846Y-58986071D01*
X86314185Y-59020908D01*
X86314467Y-59046799D01*
X86314467Y-59121339D01*
X86255744Y-59096803D01*
X86171651Y-59073846D01*
X86102032Y-59080334D01*
X86048666Y-59115572D01*
X86013333Y-59178863D01*
X86008986Y-59193327D01*
X85997720Y-59277289D01*
X86008047Y-59353947D01*
X86037033Y-59417145D01*
X86081747Y-59460728D01*
X86139255Y-59478538D01*
X86144907Y-59478667D01*
X86197254Y-59471834D01*
X86252954Y-59455273D01*
X86255744Y-59454131D01*
X86314467Y-59429595D01*
X86314467Y-59502251D01*
X86312339Y-59548511D01*
X86300206Y-59573090D01*
X86269443Y-59588145D01*
X86249002Y-59594520D01*
X86147635Y-59612713D01*
X86055759Y-59601667D01*
X85997826Y-59578909D01*
X85931306Y-59528477D01*
X85884346Y-59457304D01*
X85856821Y-59372202D01*
X85848604Y-59279988D01*
X85859568Y-59187477D01*
X85889588Y-59101482D01*
X85938537Y-59028818D01*
X86006289Y-58976301D01*
X86009021Y-58974900D01*
X86090323Y-58944355D01*
X86170470Y-58939153D01*
X86250967Y-58954624D01*
X86250967Y-58954624D01*
G37*
X86250967Y-58954624D02*
X86290450Y-58967861D01*
X86308846Y-58986071D01*
X86314185Y-59020908D01*
X86314467Y-59046799D01*
X86314467Y-59121339D01*
X86255744Y-59096803D01*
X86171651Y-59073846D01*
X86102032Y-59080334D01*
X86048666Y-59115572D01*
X86013333Y-59178863D01*
X86008986Y-59193327D01*
X85997720Y-59277289D01*
X86008047Y-59353947D01*
X86037033Y-59417145D01*
X86081747Y-59460728D01*
X86139255Y-59478538D01*
X86144907Y-59478667D01*
X86197254Y-59471834D01*
X86252954Y-59455273D01*
X86255744Y-59454131D01*
X86314467Y-59429595D01*
X86314467Y-59502251D01*
X86312339Y-59548511D01*
X86300206Y-59573090D01*
X86269443Y-59588145D01*
X86249002Y-59594520D01*
X86147635Y-59612713D01*
X86055759Y-59601667D01*
X85997826Y-59578909D01*
X85931306Y-59528477D01*
X85884346Y-59457304D01*
X85856821Y-59372202D01*
X85848604Y-59279988D01*
X85859568Y-59187477D01*
X85889588Y-59101482D01*
X85938537Y-59028818D01*
X86006289Y-58976301D01*
X86009021Y-58974900D01*
X86090323Y-58944355D01*
X86170470Y-58939153D01*
X86250967Y-58954624D01*
G36*
X80099933Y-53568934D02*
G01*
X80337000Y-53568934D01*
X80337000Y-52298934D01*
X80624866Y-52298934D01*
X80624866Y-53568934D01*
X80878866Y-53568934D01*
X80878866Y-52298934D01*
X81166733Y-52298934D01*
X81166733Y-53568934D01*
X81420733Y-53568934D01*
X81420733Y-52298934D01*
X81691667Y-52298934D01*
X81691667Y-53568934D01*
X81945667Y-53568934D01*
X81945667Y-52298934D01*
X82267400Y-52298934D01*
X82267400Y-53566608D01*
X83241066Y-53578432D01*
X83368066Y-53626741D01*
X83544081Y-53710435D01*
X83696850Y-53818239D01*
X83825233Y-53948928D01*
X83928096Y-54101278D01*
X84004299Y-54274064D01*
X84022145Y-54330933D01*
X84035081Y-54395890D01*
X84045407Y-54491716D01*
X84053214Y-54619462D01*
X84057602Y-54741567D01*
X84066408Y-55059067D01*
X83452733Y-55059067D01*
X83452733Y-55346647D01*
X84388300Y-55351023D01*
X85323867Y-55355400D01*
X85323867Y-55677133D01*
X84693100Y-55681573D01*
X84062333Y-55686012D01*
X84062333Y-55922255D01*
X85323867Y-55931133D01*
X85333703Y-56210533D01*
X84062333Y-56210533D01*
X84062333Y-56464533D01*
X85333703Y-56464533D01*
X85328785Y-56604234D01*
X85323867Y-56743934D01*
X84062333Y-56752812D01*
X84062333Y-57006400D01*
X85332333Y-57006400D01*
X85332333Y-57277334D01*
X84062333Y-57277334D01*
X84062333Y-57531334D01*
X85332333Y-57531334D01*
X85332333Y-57853067D01*
X84065499Y-57853067D01*
X84058550Y-58322967D01*
X84056377Y-58462239D01*
X84054176Y-58572494D01*
X84051530Y-58658579D01*
X84048023Y-58725342D01*
X84043238Y-58777630D01*
X84036760Y-58820290D01*
X84028171Y-58858170D01*
X84017056Y-58896118D01*
X84006547Y-58928333D01*
X83932232Y-59099786D01*
X83830681Y-59252700D01*
X83704511Y-59384526D01*
X83556341Y-59492715D01*
X83388789Y-59574717D01*
X83317266Y-59599510D01*
X83267817Y-59613745D01*
X83221085Y-59624104D01*
X83170283Y-59631198D01*
X83108627Y-59635638D01*
X83029330Y-59638034D01*
X82925607Y-59638997D01*
X82877000Y-59639116D01*
X82563733Y-59639533D01*
X82554631Y-58869067D01*
X82267400Y-58869067D01*
X82267400Y-60918000D01*
X81945667Y-60918000D01*
X81945667Y-59648000D01*
X81691667Y-59648000D01*
X81691667Y-60918000D01*
X81420733Y-60918000D01*
X81420733Y-59648000D01*
X81167145Y-59648000D01*
X81158267Y-60909534D01*
X81018567Y-60914452D01*
X80878866Y-60919370D01*
X80878866Y-59648000D01*
X80624866Y-59648000D01*
X80624866Y-60919370D01*
X80345466Y-60909534D01*
X80336588Y-59648000D01*
X80100345Y-59648000D01*
X80095906Y-60278767D01*
X80091466Y-60909534D01*
X79938246Y-60914357D01*
X79869201Y-60915257D01*
X79813456Y-60913604D01*
X79779332Y-60909753D01*
X79773146Y-60907302D01*
X79770441Y-60888219D01*
X79767952Y-60839105D01*
X79765751Y-60763798D01*
X79763911Y-60666132D01*
X79762502Y-60549943D01*
X79761596Y-60419068D01*
X79761267Y-60277343D01*
X79761267Y-59651207D01*
X79299833Y-59643469D01*
X79148693Y-59640474D01*
X79027363Y-59636930D01*
X78931790Y-59632583D01*
X78857917Y-59627175D01*
X78801691Y-59620451D01*
X78759056Y-59612155D01*
X78745266Y-59608446D01*
X78564781Y-59539072D01*
X78405281Y-59443295D01*
X78267809Y-59322086D01*
X78153407Y-59176415D01*
X78063118Y-59007249D01*
X78041517Y-58953733D01*
X78025165Y-58908794D01*
X78012890Y-58868742D01*
X78003981Y-58827471D01*
X77997730Y-58778876D01*
X77993429Y-58716850D01*
X77990367Y-58635289D01*
X77987836Y-58528085D01*
X77986953Y-58483834D01*
X77980256Y-58140934D01*
X78813000Y-58140934D01*
X78813000Y-57853067D01*
X76713267Y-57853067D01*
X76713267Y-57666800D01*
X80218466Y-57666800D01*
X80218466Y-57954667D01*
X81810200Y-57954667D01*
X81810200Y-57666800D01*
X80218466Y-57666800D01*
X76713267Y-57666800D01*
X76713267Y-57531334D01*
X77983267Y-57531334D01*
X77983267Y-57277334D01*
X76713267Y-57277334D01*
X76713267Y-57006400D01*
X77983267Y-57006400D01*
X77983267Y-56752400D01*
X76713267Y-56752400D01*
X76713267Y-56464533D01*
X77983267Y-56464533D01*
X77983267Y-56331072D01*
X79930711Y-56331072D01*
X79944525Y-56426486D01*
X79984126Y-56501375D01*
X80047140Y-56553305D01*
X80131192Y-56579837D01*
X80176133Y-56582844D01*
X80258180Y-56572875D01*
X80309207Y-56550929D01*
X80374365Y-56491990D01*
X80411013Y-56417886D01*
X80421555Y-56332644D01*
X80419013Y-56277189D01*
X80407068Y-56237617D01*
X80379496Y-56198704D01*
X80356317Y-56173031D01*
X80316499Y-56133383D01*
X80282116Y-56111312D01*
X80239330Y-56100481D01*
X80186804Y-56095438D01*
X80082640Y-56087904D01*
X80006620Y-56163924D01*
X79964652Y-56208120D01*
X79941876Y-56242224D01*
X79932495Y-56279004D01*
X79930711Y-56331072D01*
X77983267Y-56331072D01*
X77983267Y-56210533D01*
X76713267Y-56210533D01*
X76713267Y-55922667D01*
X77983267Y-55922667D01*
X77983267Y-55685600D01*
X76713267Y-55685600D01*
X76713267Y-55346934D01*
X77983267Y-55346934D01*
X77983267Y-55299193D01*
X79710467Y-55299193D01*
X79710467Y-55610117D01*
X80044900Y-55609759D01*
X80163923Y-55609998D01*
X80255634Y-55611366D01*
X80326580Y-55614402D01*
X80383311Y-55619646D01*
X80432375Y-55627638D01*
X80480322Y-55638919D01*
X80514800Y-55648504D01*
X80626574Y-55686571D01*
X80722910Y-55730775D01*
X80796244Y-55777421D01*
X80818402Y-55796888D01*
X80825181Y-55807009D01*
X80830721Y-55824597D01*
X80835145Y-55852797D01*
X80838572Y-55894757D01*
X80841123Y-55953625D01*
X80842919Y-56032546D01*
X80844081Y-56134670D01*
X80844728Y-56263142D01*
X80844982Y-56421109D01*
X80845000Y-56491143D01*
X80845000Y-57158800D01*
X81200600Y-57158800D01*
X81200600Y-56306416D01*
X81612196Y-56306416D01*
X81612570Y-56379843D01*
X81638354Y-56447864D01*
X81692536Y-56517288D01*
X81764449Y-56563243D01*
X81846348Y-56583509D01*
X81930487Y-56575869D01*
X81992388Y-56549292D01*
X82058529Y-56492340D01*
X82097824Y-56423237D01*
X82111988Y-56348029D01*
X82102736Y-56272763D01*
X82071783Y-56203488D01*
X82020844Y-56146250D01*
X81951634Y-56107098D01*
X81865867Y-56092078D01*
X81862729Y-56092063D01*
X81771924Y-56107025D01*
X81698144Y-56151011D01*
X81643211Y-56222918D01*
X81641550Y-56226128D01*
X81612196Y-56306416D01*
X81200600Y-56306416D01*
X81200600Y-55803388D01*
X81279195Y-55753544D01*
X81397805Y-55691903D01*
X81534386Y-55646980D01*
X81692138Y-55618185D01*
X81874257Y-55604929D01*
X82076900Y-55606346D01*
X82335133Y-55616185D01*
X82335133Y-55299610D01*
X82221206Y-55279771D01*
X82042538Y-55256865D01*
X81864173Y-55249231D01*
X81697619Y-55257077D01*
X81611552Y-55268701D01*
X81450504Y-55305357D01*
X81311983Y-55356609D01*
X81186364Y-55426409D01*
X81128651Y-55467040D01*
X81014369Y-55552804D01*
X80942385Y-55491098D01*
X80861599Y-55433079D01*
X80759053Y-55376010D01*
X80646506Y-55325687D01*
X80535716Y-55287905D01*
X80523266Y-55284534D01*
X80445389Y-55270336D01*
X80343318Y-55260691D01*
X80226434Y-55255700D01*
X80104118Y-55255468D01*
X79985748Y-55260099D01*
X79880706Y-55269697D01*
X79833233Y-55276907D01*
X79710467Y-55299193D01*
X77983267Y-55299193D01*
X77983267Y-54909376D01*
X77983560Y-54770482D01*
X77984642Y-54660262D01*
X77986821Y-54573524D01*
X77990400Y-54505078D01*
X77995685Y-54449734D01*
X78002982Y-54402301D01*
X78012596Y-54357589D01*
X78016717Y-54341026D01*
X78064846Y-54193942D01*
X78131548Y-54064641D01*
X78222460Y-53943407D01*
X78287898Y-53873565D01*
X78388431Y-53781401D01*
X78488767Y-53708594D01*
X78594427Y-53653260D01*
X78710929Y-53613511D01*
X78843794Y-53587464D01*
X78998540Y-53573233D01*
X79179775Y-53568934D01*
X79473400Y-53568934D01*
X79473400Y-54398667D01*
X79761267Y-54398667D01*
X79761267Y-52298934D01*
X80099933Y-52298934D01*
X80099933Y-53568934D01*
X80099933Y-53568934D01*
G37*
X80099933Y-53568934D02*
X80337000Y-53568934D01*
X80337000Y-52298934D01*
X80624866Y-52298934D01*
X80624866Y-53568934D01*
X80878866Y-53568934D01*
X80878866Y-52298934D01*
X81166733Y-52298934D01*
X81166733Y-53568934D01*
X81420733Y-53568934D01*
X81420733Y-52298934D01*
X81691667Y-52298934D01*
X81691667Y-53568934D01*
X81945667Y-53568934D01*
X81945667Y-52298934D01*
X82267400Y-52298934D01*
X82267400Y-53566608D01*
X83241066Y-53578432D01*
X83368066Y-53626741D01*
X83544081Y-53710435D01*
X83696850Y-53818239D01*
X83825233Y-53948928D01*
X83928096Y-54101278D01*
X84004299Y-54274064D01*
X84022145Y-54330933D01*
X84035081Y-54395890D01*
X84045407Y-54491716D01*
X84053214Y-54619462D01*
X84057602Y-54741567D01*
X84066408Y-55059067D01*
X83452733Y-55059067D01*
X83452733Y-55346647D01*
X84388300Y-55351023D01*
X85323867Y-55355400D01*
X85323867Y-55677133D01*
X84693100Y-55681573D01*
X84062333Y-55686012D01*
X84062333Y-55922255D01*
X85323867Y-55931133D01*
X85333703Y-56210533D01*
X84062333Y-56210533D01*
X84062333Y-56464533D01*
X85333703Y-56464533D01*
X85328785Y-56604234D01*
X85323867Y-56743934D01*
X84062333Y-56752812D01*
X84062333Y-57006400D01*
X85332333Y-57006400D01*
X85332333Y-57277334D01*
X84062333Y-57277334D01*
X84062333Y-57531334D01*
X85332333Y-57531334D01*
X85332333Y-57853067D01*
X84065499Y-57853067D01*
X84058550Y-58322967D01*
X84056377Y-58462239D01*
X84054176Y-58572494D01*
X84051530Y-58658579D01*
X84048023Y-58725342D01*
X84043238Y-58777630D01*
X84036760Y-58820290D01*
X84028171Y-58858170D01*
X84017056Y-58896118D01*
X84006547Y-58928333D01*
X83932232Y-59099786D01*
X83830681Y-59252700D01*
X83704511Y-59384526D01*
X83556341Y-59492715D01*
X83388789Y-59574717D01*
X83317266Y-59599510D01*
X83267817Y-59613745D01*
X83221085Y-59624104D01*
X83170283Y-59631198D01*
X83108627Y-59635638D01*
X83029330Y-59638034D01*
X82925607Y-59638997D01*
X82877000Y-59639116D01*
X82563733Y-59639533D01*
X82554631Y-58869067D01*
X82267400Y-58869067D01*
X82267400Y-60918000D01*
X81945667Y-60918000D01*
X81945667Y-59648000D01*
X81691667Y-59648000D01*
X81691667Y-60918000D01*
X81420733Y-60918000D01*
X81420733Y-59648000D01*
X81167145Y-59648000D01*
X81158267Y-60909534D01*
X81018567Y-60914452D01*
X80878866Y-60919370D01*
X80878866Y-59648000D01*
X80624866Y-59648000D01*
X80624866Y-60919370D01*
X80345466Y-60909534D01*
X80336588Y-59648000D01*
X80100345Y-59648000D01*
X80095906Y-60278767D01*
X80091466Y-60909534D01*
X79938246Y-60914357D01*
X79869201Y-60915257D01*
X79813456Y-60913604D01*
X79779332Y-60909753D01*
X79773146Y-60907302D01*
X79770441Y-60888219D01*
X79767952Y-60839105D01*
X79765751Y-60763798D01*
X79763911Y-60666132D01*
X79762502Y-60549943D01*
X79761596Y-60419068D01*
X79761267Y-60277343D01*
X79761267Y-59651207D01*
X79299833Y-59643469D01*
X79148693Y-59640474D01*
X79027363Y-59636930D01*
X78931790Y-59632583D01*
X78857917Y-59627175D01*
X78801691Y-59620451D01*
X78759056Y-59612155D01*
X78745266Y-59608446D01*
X78564781Y-59539072D01*
X78405281Y-59443295D01*
X78267809Y-59322086D01*
X78153407Y-59176415D01*
X78063118Y-59007249D01*
X78041517Y-58953733D01*
X78025165Y-58908794D01*
X78012890Y-58868742D01*
X78003981Y-58827471D01*
X77997730Y-58778876D01*
X77993429Y-58716850D01*
X77990367Y-58635289D01*
X77987836Y-58528085D01*
X77986953Y-58483834D01*
X77980256Y-58140934D01*
X78813000Y-58140934D01*
X78813000Y-57853067D01*
X76713267Y-57853067D01*
X76713267Y-57666800D01*
X80218466Y-57666800D01*
X80218466Y-57954667D01*
X81810200Y-57954667D01*
X81810200Y-57666800D01*
X80218466Y-57666800D01*
X76713267Y-57666800D01*
X76713267Y-57531334D01*
X77983267Y-57531334D01*
X77983267Y-57277334D01*
X76713267Y-57277334D01*
X76713267Y-57006400D01*
X77983267Y-57006400D01*
X77983267Y-56752400D01*
X76713267Y-56752400D01*
X76713267Y-56464533D01*
X77983267Y-56464533D01*
X77983267Y-56331072D01*
X79930711Y-56331072D01*
X79944525Y-56426486D01*
X79984126Y-56501375D01*
X80047140Y-56553305D01*
X80131192Y-56579837D01*
X80176133Y-56582844D01*
X80258180Y-56572875D01*
X80309207Y-56550929D01*
X80374365Y-56491990D01*
X80411013Y-56417886D01*
X80421555Y-56332644D01*
X80419013Y-56277189D01*
X80407068Y-56237617D01*
X80379496Y-56198704D01*
X80356317Y-56173031D01*
X80316499Y-56133383D01*
X80282116Y-56111312D01*
X80239330Y-56100481D01*
X80186804Y-56095438D01*
X80082640Y-56087904D01*
X80006620Y-56163924D01*
X79964652Y-56208120D01*
X79941876Y-56242224D01*
X79932495Y-56279004D01*
X79930711Y-56331072D01*
X77983267Y-56331072D01*
X77983267Y-56210533D01*
X76713267Y-56210533D01*
X76713267Y-55922667D01*
X77983267Y-55922667D01*
X77983267Y-55685600D01*
X76713267Y-55685600D01*
X76713267Y-55346934D01*
X77983267Y-55346934D01*
X77983267Y-55299193D01*
X79710467Y-55299193D01*
X79710467Y-55610117D01*
X80044900Y-55609759D01*
X80163923Y-55609998D01*
X80255634Y-55611366D01*
X80326580Y-55614402D01*
X80383311Y-55619646D01*
X80432375Y-55627638D01*
X80480322Y-55638919D01*
X80514800Y-55648504D01*
X80626574Y-55686571D01*
X80722910Y-55730775D01*
X80796244Y-55777421D01*
X80818402Y-55796888D01*
X80825181Y-55807009D01*
X80830721Y-55824597D01*
X80835145Y-55852797D01*
X80838572Y-55894757D01*
X80841123Y-55953625D01*
X80842919Y-56032546D01*
X80844081Y-56134670D01*
X80844728Y-56263142D01*
X80844982Y-56421109D01*
X80845000Y-56491143D01*
X80845000Y-57158800D01*
X81200600Y-57158800D01*
X81200600Y-56306416D01*
X81612196Y-56306416D01*
X81612570Y-56379843D01*
X81638354Y-56447864D01*
X81692536Y-56517288D01*
X81764449Y-56563243D01*
X81846348Y-56583509D01*
X81930487Y-56575869D01*
X81992388Y-56549292D01*
X82058529Y-56492340D01*
X82097824Y-56423237D01*
X82111988Y-56348029D01*
X82102736Y-56272763D01*
X82071783Y-56203488D01*
X82020844Y-56146250D01*
X81951634Y-56107098D01*
X81865867Y-56092078D01*
X81862729Y-56092063D01*
X81771924Y-56107025D01*
X81698144Y-56151011D01*
X81643211Y-56222918D01*
X81641550Y-56226128D01*
X81612196Y-56306416D01*
X81200600Y-56306416D01*
X81200600Y-55803388D01*
X81279195Y-55753544D01*
X81397805Y-55691903D01*
X81534386Y-55646980D01*
X81692138Y-55618185D01*
X81874257Y-55604929D01*
X82076900Y-55606346D01*
X82335133Y-55616185D01*
X82335133Y-55299610D01*
X82221206Y-55279771D01*
X82042538Y-55256865D01*
X81864173Y-55249231D01*
X81697619Y-55257077D01*
X81611552Y-55268701D01*
X81450504Y-55305357D01*
X81311983Y-55356609D01*
X81186364Y-55426409D01*
X81128651Y-55467040D01*
X81014369Y-55552804D01*
X80942385Y-55491098D01*
X80861599Y-55433079D01*
X80759053Y-55376010D01*
X80646506Y-55325687D01*
X80535716Y-55287905D01*
X80523266Y-55284534D01*
X80445389Y-55270336D01*
X80343318Y-55260691D01*
X80226434Y-55255700D01*
X80104118Y-55255468D01*
X79985748Y-55260099D01*
X79880706Y-55269697D01*
X79833233Y-55276907D01*
X79710467Y-55299193D01*
X77983267Y-55299193D01*
X77983267Y-54909376D01*
X77983560Y-54770482D01*
X77984642Y-54660262D01*
X77986821Y-54573524D01*
X77990400Y-54505078D01*
X77995685Y-54449734D01*
X78002982Y-54402301D01*
X78012596Y-54357589D01*
X78016717Y-54341026D01*
X78064846Y-54193942D01*
X78131548Y-54064641D01*
X78222460Y-53943407D01*
X78287898Y-53873565D01*
X78388431Y-53781401D01*
X78488767Y-53708594D01*
X78594427Y-53653260D01*
X78710929Y-53613511D01*
X78843794Y-53587464D01*
X78998540Y-53573233D01*
X79179775Y-53568934D01*
X79473400Y-53568934D01*
X79473400Y-54398667D01*
X79761267Y-54398667D01*
X79761267Y-52298934D01*
X80099933Y-52298934D01*
X80099933Y-53568934D01*
D12*
X135285000Y-42575000D02*
X134785000Y-42575000D01*
X135035000Y-42325000D02*
X135035000Y-42825000D01*
X132279437Y-43065000D02*
X131215000Y-44129437D01*
X134670563Y-43065000D02*
X135735000Y-44129437D01*
X134670563Y-43065000D02*
X134535000Y-43065000D01*
X132279437Y-43065000D02*
X132415000Y-43065000D01*
X131215000Y-44129437D02*
X131215000Y-47585000D01*
X135735000Y-44129437D02*
X135735000Y-47585000D01*
X135735000Y-47585000D02*
X134535000Y-47585000D01*
X131215000Y-47585000D02*
X132415000Y-47585000D01*
X110510000Y-40840000D02*
X109310000Y-40840000D01*
X105990000Y-40840000D02*
X107190000Y-40840000D01*
X105990000Y-44295563D02*
X105990000Y-40840000D01*
X110510000Y-44295563D02*
X110510000Y-40840000D01*
X109445563Y-45360000D02*
X109310000Y-45360000D01*
X107054437Y-45360000D02*
X107190000Y-45360000D01*
X107054437Y-45360000D02*
X105990000Y-44295563D01*
X109445563Y-45360000D02*
X110510000Y-44295563D01*
X106690000Y-46100000D02*
X106690000Y-45600000D01*
X106440000Y-45850000D02*
X106940000Y-45850000D01*
X99110000Y-47100000D02*
X99110000Y-44240000D01*
X99110000Y-44240000D02*
X97190000Y-44240000D01*
X97190000Y-44240000D02*
X97190000Y-47100000D01*
X95560000Y-47100000D02*
X95560000Y-44240000D01*
X95560000Y-44240000D02*
X93640000Y-44240000D01*
X93640000Y-44240000D02*
X93640000Y-47100000D01*
X90090000Y-44240000D02*
X90090000Y-47100000D01*
X92010000Y-44240000D02*
X90090000Y-44240000D01*
X92010000Y-47100000D02*
X92010000Y-44240000D01*
X147510000Y-62377500D02*
X147510000Y-58317500D01*
X147510000Y-58317500D02*
X145240000Y-58317500D01*
X145240000Y-58317500D02*
X145240000Y-62377500D01*
X145240000Y-67977500D02*
X145240000Y-72037500D01*
X147510000Y-67977500D02*
X145240000Y-67977500D01*
X147510000Y-72037500D02*
X147510000Y-67977500D01*
X145240000Y-77627500D02*
X145240000Y-81687500D01*
X147510000Y-77627500D02*
X145240000Y-77627500D01*
X147510000Y-81687500D02*
X147510000Y-77627500D01*
X86540000Y-44240000D02*
X86540000Y-47100000D01*
X88460000Y-44240000D02*
X86540000Y-44240000D01*
X88460000Y-47100000D02*
X88460000Y-44240000D01*
X82990000Y-44240000D02*
X82990000Y-47100000D01*
X84910000Y-44240000D02*
X82990000Y-44240000D01*
X84910000Y-47100000D02*
X84910000Y-44240000D01*
X79440000Y-44240000D02*
X79440000Y-47100000D01*
X81360000Y-44240000D02*
X79440000Y-44240000D01*
X81360000Y-47100000D02*
X81360000Y-44240000D01*
X147510000Y-91337500D02*
X147510000Y-87277500D01*
X147510000Y-87277500D02*
X145240000Y-87277500D01*
X145240000Y-87277500D02*
X145240000Y-91337500D01*
X147510000Y-100987500D02*
X147510000Y-96927500D01*
X147510000Y-96927500D02*
X145240000Y-96927500D01*
X145240000Y-96927500D02*
X145240000Y-100987500D01*
X145240000Y-106577500D02*
X145240000Y-110637500D01*
X147510000Y-106577500D02*
X145240000Y-106577500D01*
X147510000Y-110637500D02*
X147510000Y-106577500D01*
X77810000Y-47100000D02*
X77810000Y-44240000D01*
X77810000Y-44240000D02*
X75890000Y-44240000D01*
X75890000Y-44240000D02*
X75890000Y-47100000D01*
X74260000Y-47100000D02*
X74260000Y-44240000D01*
X74260000Y-44240000D02*
X72340000Y-44240000D01*
X72340000Y-44240000D02*
X72340000Y-47100000D01*
X147510000Y-120287500D02*
X147510000Y-116227500D01*
X147510000Y-116227500D02*
X145240000Y-116227500D01*
X145240000Y-116227500D02*
X145240000Y-120287500D01*
X145240000Y-125877500D02*
X145240000Y-129937500D01*
X147510000Y-125877500D02*
X145240000Y-125877500D01*
X147510000Y-129937500D02*
X147510000Y-125877500D01*
X141627335Y-42446392D02*
G75*
G03X138395000Y-42289484I-1672335J-1078608D01*
G01*
X141627335Y-44603608D02*
G75*
G02X138395000Y-44760516I-1672335J1078608D01*
G01*
X140996130Y-42445163D02*
G75*
G03X138914039Y-42445000I-1041130J-1079837D01*
G01*
X140996130Y-44604837D02*
G75*
G02X138914039Y-44605000I-1041130J1079837D01*
G01*
X138395000Y-42289000D02*
X138395000Y-42445000D01*
X138395000Y-44605000D02*
X138395000Y-44761000D01*
X110783733Y-117665000D02*
X111126267Y-117665000D01*
X110783733Y-118685000D02*
X111126267Y-118685000D01*
X110808733Y-121690000D02*
X111151267Y-121690000D01*
X110808733Y-122710000D02*
X111151267Y-122710000D01*
X111183733Y-105610000D02*
X111526267Y-105610000D01*
X111183733Y-104590000D02*
X111526267Y-104590000D01*
X111058733Y-109610000D02*
X111401267Y-109610000D01*
X111058733Y-108590000D02*
X111401267Y-108590000D01*
D13*
X122325000Y-40965000D02*
X125325000Y-40965000D01*
X125325000Y-40965000D02*
X125325000Y-51165000D01*
X125325000Y-51165000D02*
X122325000Y-51165000D01*
D14*
X129287000Y-49665000D02*
X129287000Y-49665000D01*
X129162000Y-49665000D02*
X129162000Y-49665000D01*
X129162000Y-49666000D02*
G75*
G02X129287000Y-49665000I62500J500D01*
G01*
X129287000Y-49666000D02*
G75*
G02X129162000Y-49665000I-62500J500D01*
G01*
D12*
X166610000Y-40965000D02*
X166610000Y-51085000D01*
X157390000Y-40965000D02*
X157390000Y-51085000D01*
X162290000Y-40965000D02*
X157390000Y-40965000D01*
X166610000Y-40965000D02*
X164510000Y-40965000D01*
X162290000Y-51085000D02*
X157390000Y-51085000D01*
X162290000Y-51085000D02*
X162290000Y-51675000D01*
X164510000Y-51085000D02*
X164510000Y-51675000D01*
X164510000Y-40375000D02*
X164510000Y-40965000D01*
X162290000Y-40375000D02*
X162290000Y-40965000D01*
X166610000Y-51085000D02*
X164510000Y-51085000D01*
X162290000Y-40375000D02*
G75*
G02X164510000Y-40375000I1110000J0D01*
G01*
X164510000Y-51675000D02*
G75*
G02X162290000Y-51675000I-1110000J0D01*
G01*
X165580000Y-130255000D02*
X153240000Y-130255000D01*
X153240000Y-130255000D02*
X153240000Y-77035000D01*
X153240000Y-77035000D02*
X165580000Y-77035000D01*
X152345662Y-87275000D02*
X152345662Y-86775000D01*
X152345662Y-86775000D02*
X152778675Y-87025000D01*
X152778675Y-87025000D02*
X152345662Y-87275000D01*
X138455000Y-62725000D02*
X139565000Y-62725000D01*
X139565000Y-62725000D02*
X139565000Y-61395000D01*
X128365000Y-62725000D02*
X128365000Y-54985000D01*
X128365000Y-54985000D02*
X136995000Y-54985000D01*
X136995000Y-62725000D02*
X136995000Y-54985000D01*
X128365000Y-62725000D02*
X136995000Y-62725000D01*
X128365000Y-57585000D02*
X136995000Y-57585000D01*
X128365000Y-60125000D02*
X136995000Y-60125000D01*
X136995000Y-55955000D02*
X137405000Y-55955000D01*
X136995000Y-56675000D02*
X137405000Y-56675000D01*
X136995000Y-58495000D02*
X137405000Y-58495000D01*
X136995000Y-59215000D02*
X137405000Y-59215000D01*
X136995000Y-61035000D02*
X137345000Y-61035000D01*
X136995000Y-61755000D02*
X137345000Y-61755000D01*
X128365000Y-60243100D02*
X136995000Y-60243100D01*
X128365000Y-60361195D02*
X136995000Y-60361195D01*
X128365000Y-60479290D02*
X136995000Y-60479290D01*
X128365000Y-60597385D02*
X136995000Y-60597385D01*
X128365000Y-60715480D02*
X136995000Y-60715480D01*
X128365000Y-60833575D02*
X136995000Y-60833575D01*
X128365000Y-60951670D02*
X136995000Y-60951670D01*
X128365000Y-61069765D02*
X136995000Y-61069765D01*
X128365000Y-61187860D02*
X136995000Y-61187860D01*
X128365000Y-61305955D02*
X136995000Y-61305955D01*
X128365000Y-61424050D02*
X136995000Y-61424050D01*
X128365000Y-61542145D02*
X136995000Y-61542145D01*
X128365000Y-61660240D02*
X136995000Y-61660240D01*
X128365000Y-61778335D02*
X136995000Y-61778335D01*
X128365000Y-61896430D02*
X136995000Y-61896430D01*
X128365000Y-62014525D02*
X136995000Y-62014525D01*
X128365000Y-62132620D02*
X136995000Y-62132620D01*
X128365000Y-62250715D02*
X136995000Y-62250715D01*
X128365000Y-62368810D02*
X136995000Y-62368810D01*
X128365000Y-62486905D02*
X136995000Y-62486905D01*
X128365000Y-62605000D02*
X136995000Y-62605000D01*
X128365000Y-72260000D02*
X136995000Y-72260000D01*
X128365000Y-72141905D02*
X136995000Y-72141905D01*
X128365000Y-72023810D02*
X136995000Y-72023810D01*
X128365000Y-71905715D02*
X136995000Y-71905715D01*
X128365000Y-71787620D02*
X136995000Y-71787620D01*
X128365000Y-71669525D02*
X136995000Y-71669525D01*
X128365000Y-71551430D02*
X136995000Y-71551430D01*
X128365000Y-71433335D02*
X136995000Y-71433335D01*
X128365000Y-71315240D02*
X136995000Y-71315240D01*
X128365000Y-71197145D02*
X136995000Y-71197145D01*
X128365000Y-71079050D02*
X136995000Y-71079050D01*
X128365000Y-70960955D02*
X136995000Y-70960955D01*
X128365000Y-70842860D02*
X136995000Y-70842860D01*
X128365000Y-70724765D02*
X136995000Y-70724765D01*
X128365000Y-70606670D02*
X136995000Y-70606670D01*
X128365000Y-70488575D02*
X136995000Y-70488575D01*
X128365000Y-70370480D02*
X136995000Y-70370480D01*
X128365000Y-70252385D02*
X136995000Y-70252385D01*
X128365000Y-70134290D02*
X136995000Y-70134290D01*
X128365000Y-70016195D02*
X136995000Y-70016195D01*
X128365000Y-69898100D02*
X136995000Y-69898100D01*
X136995000Y-71410000D02*
X137345000Y-71410000D01*
X136995000Y-70690000D02*
X137345000Y-70690000D01*
X136995000Y-68870000D02*
X137405000Y-68870000D01*
X136995000Y-68150000D02*
X137405000Y-68150000D01*
X136995000Y-66330000D02*
X137405000Y-66330000D01*
X136995000Y-65610000D02*
X137405000Y-65610000D01*
X128365000Y-69780000D02*
X136995000Y-69780000D01*
X128365000Y-67240000D02*
X136995000Y-67240000D01*
X128365000Y-72380000D02*
X136995000Y-72380000D01*
X136995000Y-72380000D02*
X136995000Y-64640000D01*
X128365000Y-64640000D02*
X136995000Y-64640000D01*
X128365000Y-72380000D02*
X128365000Y-64640000D01*
X139565000Y-72380000D02*
X139565000Y-71050000D01*
X138455000Y-72380000D02*
X139565000Y-72380000D01*
X128365000Y-81905000D02*
X136995000Y-81905000D01*
X128365000Y-81786905D02*
X136995000Y-81786905D01*
X128365000Y-81668810D02*
X136995000Y-81668810D01*
X128365000Y-81550715D02*
X136995000Y-81550715D01*
X128365000Y-81432620D02*
X136995000Y-81432620D01*
X128365000Y-81314525D02*
X136995000Y-81314525D01*
X128365000Y-81196430D02*
X136995000Y-81196430D01*
X128365000Y-81078335D02*
X136995000Y-81078335D01*
X128365000Y-80960240D02*
X136995000Y-80960240D01*
X128365000Y-80842145D02*
X136995000Y-80842145D01*
X128365000Y-80724050D02*
X136995000Y-80724050D01*
X128365000Y-80605955D02*
X136995000Y-80605955D01*
X128365000Y-80487860D02*
X136995000Y-80487860D01*
X128365000Y-80369765D02*
X136995000Y-80369765D01*
X128365000Y-80251670D02*
X136995000Y-80251670D01*
X128365000Y-80133575D02*
X136995000Y-80133575D01*
X128365000Y-80015480D02*
X136995000Y-80015480D01*
X128365000Y-79897385D02*
X136995000Y-79897385D01*
X128365000Y-79779290D02*
X136995000Y-79779290D01*
X128365000Y-79661195D02*
X136995000Y-79661195D01*
X128365000Y-79543100D02*
X136995000Y-79543100D01*
X136995000Y-81055000D02*
X137345000Y-81055000D01*
X136995000Y-80335000D02*
X137345000Y-80335000D01*
X136995000Y-78515000D02*
X137405000Y-78515000D01*
X136995000Y-77795000D02*
X137405000Y-77795000D01*
X136995000Y-75975000D02*
X137405000Y-75975000D01*
X136995000Y-75255000D02*
X137405000Y-75255000D01*
X128365000Y-79425000D02*
X136995000Y-79425000D01*
X128365000Y-76885000D02*
X136995000Y-76885000D01*
X128365000Y-82025000D02*
X136995000Y-82025000D01*
X136995000Y-82025000D02*
X136995000Y-74285000D01*
X128365000Y-74285000D02*
X136995000Y-74285000D01*
X128365000Y-82025000D02*
X128365000Y-74285000D01*
X139565000Y-82025000D02*
X139565000Y-80695000D01*
X138455000Y-82025000D02*
X139565000Y-82025000D01*
X138455000Y-91675000D02*
X139565000Y-91675000D01*
X139565000Y-91675000D02*
X139565000Y-90345000D01*
X128365000Y-91675000D02*
X128365000Y-83935000D01*
X128365000Y-83935000D02*
X136995000Y-83935000D01*
X136995000Y-91675000D02*
X136995000Y-83935000D01*
X128365000Y-91675000D02*
X136995000Y-91675000D01*
X128365000Y-86535000D02*
X136995000Y-86535000D01*
X128365000Y-89075000D02*
X136995000Y-89075000D01*
X136995000Y-84905000D02*
X137405000Y-84905000D01*
X136995000Y-85625000D02*
X137405000Y-85625000D01*
X136995000Y-87445000D02*
X137405000Y-87445000D01*
X136995000Y-88165000D02*
X137405000Y-88165000D01*
X136995000Y-89985000D02*
X137345000Y-89985000D01*
X136995000Y-90705000D02*
X137345000Y-90705000D01*
X128365000Y-89193100D02*
X136995000Y-89193100D01*
X128365000Y-89311195D02*
X136995000Y-89311195D01*
X128365000Y-89429290D02*
X136995000Y-89429290D01*
X128365000Y-89547385D02*
X136995000Y-89547385D01*
X128365000Y-89665480D02*
X136995000Y-89665480D01*
X128365000Y-89783575D02*
X136995000Y-89783575D01*
X128365000Y-89901670D02*
X136995000Y-89901670D01*
X128365000Y-90019765D02*
X136995000Y-90019765D01*
X128365000Y-90137860D02*
X136995000Y-90137860D01*
X128365000Y-90255955D02*
X136995000Y-90255955D01*
X128365000Y-90374050D02*
X136995000Y-90374050D01*
X128365000Y-90492145D02*
X136995000Y-90492145D01*
X128365000Y-90610240D02*
X136995000Y-90610240D01*
X128365000Y-90728335D02*
X136995000Y-90728335D01*
X128365000Y-90846430D02*
X136995000Y-90846430D01*
X128365000Y-90964525D02*
X136995000Y-90964525D01*
X128365000Y-91082620D02*
X136995000Y-91082620D01*
X128365000Y-91200715D02*
X136995000Y-91200715D01*
X128365000Y-91318810D02*
X136995000Y-91318810D01*
X128365000Y-91436905D02*
X136995000Y-91436905D01*
X128365000Y-91555000D02*
X136995000Y-91555000D01*
X138455000Y-101325000D02*
X139565000Y-101325000D01*
X139565000Y-101325000D02*
X139565000Y-99995000D01*
X128365000Y-101325000D02*
X128365000Y-93585000D01*
X128365000Y-93585000D02*
X136995000Y-93585000D01*
X136995000Y-101325000D02*
X136995000Y-93585000D01*
X128365000Y-101325000D02*
X136995000Y-101325000D01*
X128365000Y-96185000D02*
X136995000Y-96185000D01*
X128365000Y-98725000D02*
X136995000Y-98725000D01*
X136995000Y-94555000D02*
X137405000Y-94555000D01*
X136995000Y-95275000D02*
X137405000Y-95275000D01*
X136995000Y-97095000D02*
X137405000Y-97095000D01*
X136995000Y-97815000D02*
X137405000Y-97815000D01*
X136995000Y-99635000D02*
X137345000Y-99635000D01*
X136995000Y-100355000D02*
X137345000Y-100355000D01*
X128365000Y-98843100D02*
X136995000Y-98843100D01*
X128365000Y-98961195D02*
X136995000Y-98961195D01*
X128365000Y-99079290D02*
X136995000Y-99079290D01*
X128365000Y-99197385D02*
X136995000Y-99197385D01*
X128365000Y-99315480D02*
X136995000Y-99315480D01*
X128365000Y-99433575D02*
X136995000Y-99433575D01*
X128365000Y-99551670D02*
X136995000Y-99551670D01*
X128365000Y-99669765D02*
X136995000Y-99669765D01*
X128365000Y-99787860D02*
X136995000Y-99787860D01*
X128365000Y-99905955D02*
X136995000Y-99905955D01*
X128365000Y-100024050D02*
X136995000Y-100024050D01*
X128365000Y-100142145D02*
X136995000Y-100142145D01*
X128365000Y-100260240D02*
X136995000Y-100260240D01*
X128365000Y-100378335D02*
X136995000Y-100378335D01*
X128365000Y-100496430D02*
X136995000Y-100496430D01*
X128365000Y-100614525D02*
X136995000Y-100614525D01*
X128365000Y-100732620D02*
X136995000Y-100732620D01*
X128365000Y-100850715D02*
X136995000Y-100850715D01*
X128365000Y-100968810D02*
X136995000Y-100968810D01*
X128365000Y-101086905D02*
X136995000Y-101086905D01*
X128365000Y-101205000D02*
X136995000Y-101205000D01*
X128365000Y-110855000D02*
X136995000Y-110855000D01*
X128365000Y-110736905D02*
X136995000Y-110736905D01*
X128365000Y-110618810D02*
X136995000Y-110618810D01*
X128365000Y-110500715D02*
X136995000Y-110500715D01*
X128365000Y-110382620D02*
X136995000Y-110382620D01*
X128365000Y-110264525D02*
X136995000Y-110264525D01*
X128365000Y-110146430D02*
X136995000Y-110146430D01*
X128365000Y-110028335D02*
X136995000Y-110028335D01*
X128365000Y-109910240D02*
X136995000Y-109910240D01*
X128365000Y-109792145D02*
X136995000Y-109792145D01*
X128365000Y-109674050D02*
X136995000Y-109674050D01*
X128365000Y-109555955D02*
X136995000Y-109555955D01*
X128365000Y-109437860D02*
X136995000Y-109437860D01*
X128365000Y-109319765D02*
X136995000Y-109319765D01*
X128365000Y-109201670D02*
X136995000Y-109201670D01*
X128365000Y-109083575D02*
X136995000Y-109083575D01*
X128365000Y-108965480D02*
X136995000Y-108965480D01*
X128365000Y-108847385D02*
X136995000Y-108847385D01*
X128365000Y-108729290D02*
X136995000Y-108729290D01*
X128365000Y-108611195D02*
X136995000Y-108611195D01*
X128365000Y-108493100D02*
X136995000Y-108493100D01*
X136995000Y-110005000D02*
X137345000Y-110005000D01*
X136995000Y-109285000D02*
X137345000Y-109285000D01*
X136995000Y-107465000D02*
X137405000Y-107465000D01*
X136995000Y-106745000D02*
X137405000Y-106745000D01*
X136995000Y-104925000D02*
X137405000Y-104925000D01*
X136995000Y-104205000D02*
X137405000Y-104205000D01*
X128365000Y-108375000D02*
X136995000Y-108375000D01*
X128365000Y-105835000D02*
X136995000Y-105835000D01*
X128365000Y-110975000D02*
X136995000Y-110975000D01*
X136995000Y-110975000D02*
X136995000Y-103235000D01*
X128365000Y-103235000D02*
X136995000Y-103235000D01*
X128365000Y-110975000D02*
X128365000Y-103235000D01*
X139565000Y-110975000D02*
X139565000Y-109645000D01*
X138455000Y-110975000D02*
X139565000Y-110975000D01*
X128365000Y-120505000D02*
X136995000Y-120505000D01*
X128365000Y-120386905D02*
X136995000Y-120386905D01*
X128365000Y-120268810D02*
X136995000Y-120268810D01*
X128365000Y-120150715D02*
X136995000Y-120150715D01*
X128365000Y-120032620D02*
X136995000Y-120032620D01*
X128365000Y-119914525D02*
X136995000Y-119914525D01*
X128365000Y-119796430D02*
X136995000Y-119796430D01*
X128365000Y-119678335D02*
X136995000Y-119678335D01*
X128365000Y-119560240D02*
X136995000Y-119560240D01*
X128365000Y-119442145D02*
X136995000Y-119442145D01*
X128365000Y-119324050D02*
X136995000Y-119324050D01*
X128365000Y-119205955D02*
X136995000Y-119205955D01*
X128365000Y-119087860D02*
X136995000Y-119087860D01*
X128365000Y-118969765D02*
X136995000Y-118969765D01*
X128365000Y-118851670D02*
X136995000Y-118851670D01*
X128365000Y-118733575D02*
X136995000Y-118733575D01*
X128365000Y-118615480D02*
X136995000Y-118615480D01*
X128365000Y-118497385D02*
X136995000Y-118497385D01*
X128365000Y-118379290D02*
X136995000Y-118379290D01*
X128365000Y-118261195D02*
X136995000Y-118261195D01*
X128365000Y-118143100D02*
X136995000Y-118143100D01*
X136995000Y-119655000D02*
X137345000Y-119655000D01*
X136995000Y-118935000D02*
X137345000Y-118935000D01*
X136995000Y-117115000D02*
X137405000Y-117115000D01*
X136995000Y-116395000D02*
X137405000Y-116395000D01*
X136995000Y-114575000D02*
X137405000Y-114575000D01*
X136995000Y-113855000D02*
X137405000Y-113855000D01*
X128365000Y-118025000D02*
X136995000Y-118025000D01*
X128365000Y-115485000D02*
X136995000Y-115485000D01*
X128365000Y-120625000D02*
X136995000Y-120625000D01*
X136995000Y-120625000D02*
X136995000Y-112885000D01*
X128365000Y-112885000D02*
X136995000Y-112885000D01*
X128365000Y-120625000D02*
X128365000Y-112885000D01*
X139565000Y-120625000D02*
X139565000Y-119295000D01*
X138455000Y-120625000D02*
X139565000Y-120625000D01*
X138455000Y-130275000D02*
X139565000Y-130275000D01*
X139565000Y-130275000D02*
X139565000Y-128945000D01*
X128365000Y-130275000D02*
X128365000Y-122535000D01*
X128365000Y-122535000D02*
X136995000Y-122535000D01*
X136995000Y-130275000D02*
X136995000Y-122535000D01*
X128365000Y-130275000D02*
X136995000Y-130275000D01*
X128365000Y-125135000D02*
X136995000Y-125135000D01*
X128365000Y-127675000D02*
X136995000Y-127675000D01*
X136995000Y-123505000D02*
X137405000Y-123505000D01*
X136995000Y-124225000D02*
X137405000Y-124225000D01*
X136995000Y-126045000D02*
X137405000Y-126045000D01*
X136995000Y-126765000D02*
X137405000Y-126765000D01*
X136995000Y-128585000D02*
X137345000Y-128585000D01*
X136995000Y-129305000D02*
X137345000Y-129305000D01*
X128365000Y-127793100D02*
X136995000Y-127793100D01*
X128365000Y-127911195D02*
X136995000Y-127911195D01*
X128365000Y-128029290D02*
X136995000Y-128029290D01*
X128365000Y-128147385D02*
X136995000Y-128147385D01*
X128365000Y-128265480D02*
X136995000Y-128265480D01*
X128365000Y-128383575D02*
X136995000Y-128383575D01*
X128365000Y-128501670D02*
X136995000Y-128501670D01*
X128365000Y-128619765D02*
X136995000Y-128619765D01*
X128365000Y-128737860D02*
X136995000Y-128737860D01*
X128365000Y-128855955D02*
X136995000Y-128855955D01*
X128365000Y-128974050D02*
X136995000Y-128974050D01*
X128365000Y-129092145D02*
X136995000Y-129092145D01*
X128365000Y-129210240D02*
X136995000Y-129210240D01*
X128365000Y-129328335D02*
X136995000Y-129328335D01*
X128365000Y-129446430D02*
X136995000Y-129446430D01*
X128365000Y-129564525D02*
X136995000Y-129564525D01*
X128365000Y-129682620D02*
X136995000Y-129682620D01*
X128365000Y-129800715D02*
X136995000Y-129800715D01*
X128365000Y-129918810D02*
X136995000Y-129918810D01*
X128365000Y-130036905D02*
X136995000Y-130036905D01*
X128365000Y-130155000D02*
X136995000Y-130155000D01*
X98660000Y-42346267D02*
X98660000Y-42003733D01*
X97640000Y-42346267D02*
X97640000Y-42003733D01*
X95135000Y-42346267D02*
X95135000Y-42003733D01*
X94115000Y-42346267D02*
X94115000Y-42003733D01*
X91560000Y-42346267D02*
X91560000Y-42003733D01*
X90540000Y-42346267D02*
X90540000Y-42003733D01*
X86990000Y-42346267D02*
X86990000Y-42003733D01*
X88010000Y-42346267D02*
X88010000Y-42003733D01*
X83440000Y-42346267D02*
X83440000Y-42003733D01*
X84460000Y-42346267D02*
X84460000Y-42003733D01*
X80910000Y-42346267D02*
X80910000Y-42003733D01*
X79890000Y-42346267D02*
X79890000Y-42003733D01*
X76315000Y-42346267D02*
X76315000Y-42003733D01*
X77335000Y-42346267D02*
X77335000Y-42003733D01*
X73810000Y-42346267D02*
X73810000Y-42003733D01*
X72790000Y-42346267D02*
X72790000Y-42003733D01*
X139378733Y-48840000D02*
X139721267Y-48840000D01*
X139378733Y-49860000D02*
X139721267Y-49860000D01*
D15*
X101315000Y-72255000D02*
X101315000Y-126655000D01*
X101315000Y-126655000D02*
X73415000Y-126655000D01*
X73415000Y-126655000D02*
X73415000Y-72255000D01*
X73415000Y-72255000D02*
X101315000Y-72255000D01*
D10*
X137032142Y-45491666D02*
X137079761Y-45539285D01*
X137127380Y-45682142D01*
X137127380Y-45777380D01*
X137079761Y-45920238D01*
X136984523Y-46015476D01*
X136889285Y-46063095D01*
X136698809Y-46110714D01*
X136555952Y-46110714D01*
X136365476Y-46063095D01*
X136270238Y-46015476D01*
X136175000Y-45920238D01*
X136127380Y-45777380D01*
X136127380Y-45682142D01*
X136175000Y-45539285D01*
X136222619Y-45491666D01*
X137127380Y-44539285D02*
X137127380Y-45110714D01*
X137127380Y-44825000D02*
X136127380Y-44825000D01*
X136270238Y-44920238D01*
X136365476Y-45015476D01*
X136413095Y-45110714D01*
X105407142Y-43266666D02*
X105454761Y-43314285D01*
X105502380Y-43457142D01*
X105502380Y-43552380D01*
X105454761Y-43695238D01*
X105359523Y-43790476D01*
X105264285Y-43838095D01*
X105073809Y-43885714D01*
X104930952Y-43885714D01*
X104740476Y-43838095D01*
X104645238Y-43790476D01*
X104550000Y-43695238D01*
X104502380Y-43552380D01*
X104502380Y-43457142D01*
X104550000Y-43314285D01*
X104597619Y-43266666D01*
X104597619Y-42885714D02*
X104550000Y-42838095D01*
X104502380Y-42742857D01*
X104502380Y-42504761D01*
X104550000Y-42409523D01*
X104597619Y-42361904D01*
X104692857Y-42314285D01*
X104788095Y-42314285D01*
X104930952Y-42361904D01*
X105502380Y-42933333D01*
X105502380Y-42314285D01*
X100252380Y-46838095D02*
X99252380Y-46838095D01*
X99252380Y-46600000D01*
X99300000Y-46457142D01*
X99395238Y-46361904D01*
X99490476Y-46314285D01*
X99680952Y-46266666D01*
X99823809Y-46266666D01*
X100014285Y-46314285D01*
X100109523Y-46361904D01*
X100204761Y-46457142D01*
X100252380Y-46600000D01*
X100252380Y-46838095D01*
X100252380Y-45314285D02*
X100252380Y-45885714D01*
X100252380Y-45600000D02*
X99252380Y-45600000D01*
X99395238Y-45695238D01*
X99490476Y-45790476D01*
X99538095Y-45885714D01*
X96702380Y-46838095D02*
X95702380Y-46838095D01*
X95702380Y-46600000D01*
X95750000Y-46457142D01*
X95845238Y-46361904D01*
X95940476Y-46314285D01*
X96130952Y-46266666D01*
X96273809Y-46266666D01*
X96464285Y-46314285D01*
X96559523Y-46361904D01*
X96654761Y-46457142D01*
X96702380Y-46600000D01*
X96702380Y-46838095D01*
X95797619Y-45885714D02*
X95750000Y-45838095D01*
X95702380Y-45742857D01*
X95702380Y-45504761D01*
X95750000Y-45409523D01*
X95797619Y-45361904D01*
X95892857Y-45314285D01*
X95988095Y-45314285D01*
X96130952Y-45361904D01*
X96702380Y-45933333D01*
X96702380Y-45314285D01*
X93152380Y-46838095D02*
X92152380Y-46838095D01*
X92152380Y-46600000D01*
X92200000Y-46457142D01*
X92295238Y-46361904D01*
X92390476Y-46314285D01*
X92580952Y-46266666D01*
X92723809Y-46266666D01*
X92914285Y-46314285D01*
X93009523Y-46361904D01*
X93104761Y-46457142D01*
X93152380Y-46600000D01*
X93152380Y-46838095D01*
X92152380Y-45933333D02*
X92152380Y-45314285D01*
X92533333Y-45647619D01*
X92533333Y-45504761D01*
X92580952Y-45409523D01*
X92628571Y-45361904D01*
X92723809Y-45314285D01*
X92961904Y-45314285D01*
X93057142Y-45361904D01*
X93104761Y-45409523D01*
X93152380Y-45504761D01*
X93152380Y-45790476D01*
X93104761Y-45885714D01*
X93057142Y-45933333D01*
X148647380Y-61515595D02*
X147647380Y-61515595D01*
X147647380Y-61277500D01*
X147695000Y-61134642D01*
X147790238Y-61039404D01*
X147885476Y-60991785D01*
X148075952Y-60944166D01*
X148218809Y-60944166D01*
X148409285Y-60991785D01*
X148504523Y-61039404D01*
X148599761Y-61134642D01*
X148647380Y-61277500D01*
X148647380Y-61515595D01*
X147980714Y-60087023D02*
X148647380Y-60087023D01*
X147599761Y-60325119D02*
X148314047Y-60563214D01*
X148314047Y-59944166D01*
X148647380Y-71175595D02*
X147647380Y-71175595D01*
X147647380Y-70937500D01*
X147695000Y-70794642D01*
X147790238Y-70699404D01*
X147885476Y-70651785D01*
X148075952Y-70604166D01*
X148218809Y-70604166D01*
X148409285Y-70651785D01*
X148504523Y-70699404D01*
X148599761Y-70794642D01*
X148647380Y-70937500D01*
X148647380Y-71175595D01*
X147647380Y-69699404D02*
X147647380Y-70175595D01*
X148123571Y-70223214D01*
X148075952Y-70175595D01*
X148028333Y-70080357D01*
X148028333Y-69842261D01*
X148075952Y-69747023D01*
X148123571Y-69699404D01*
X148218809Y-69651785D01*
X148456904Y-69651785D01*
X148552142Y-69699404D01*
X148599761Y-69747023D01*
X148647380Y-69842261D01*
X148647380Y-70080357D01*
X148599761Y-70175595D01*
X148552142Y-70223214D01*
X148647380Y-80825595D02*
X147647380Y-80825595D01*
X147647380Y-80587500D01*
X147695000Y-80444642D01*
X147790238Y-80349404D01*
X147885476Y-80301785D01*
X148075952Y-80254166D01*
X148218809Y-80254166D01*
X148409285Y-80301785D01*
X148504523Y-80349404D01*
X148599761Y-80444642D01*
X148647380Y-80587500D01*
X148647380Y-80825595D01*
X147647380Y-79397023D02*
X147647380Y-79587500D01*
X147695000Y-79682738D01*
X147742619Y-79730357D01*
X147885476Y-79825595D01*
X148075952Y-79873214D01*
X148456904Y-79873214D01*
X148552142Y-79825595D01*
X148599761Y-79777976D01*
X148647380Y-79682738D01*
X148647380Y-79492261D01*
X148599761Y-79397023D01*
X148552142Y-79349404D01*
X148456904Y-79301785D01*
X148218809Y-79301785D01*
X148123571Y-79349404D01*
X148075952Y-79397023D01*
X148028333Y-79492261D01*
X148028333Y-79682738D01*
X148075952Y-79777976D01*
X148123571Y-79825595D01*
X148218809Y-79873214D01*
X89602380Y-46838095D02*
X88602380Y-46838095D01*
X88602380Y-46600000D01*
X88650000Y-46457142D01*
X88745238Y-46361904D01*
X88840476Y-46314285D01*
X89030952Y-46266666D01*
X89173809Y-46266666D01*
X89364285Y-46314285D01*
X89459523Y-46361904D01*
X89554761Y-46457142D01*
X89602380Y-46600000D01*
X89602380Y-46838095D01*
X88602380Y-45933333D02*
X88602380Y-45266666D01*
X89602380Y-45695238D01*
X86052380Y-46838095D02*
X85052380Y-46838095D01*
X85052380Y-46600000D01*
X85100000Y-46457142D01*
X85195238Y-46361904D01*
X85290476Y-46314285D01*
X85480952Y-46266666D01*
X85623809Y-46266666D01*
X85814285Y-46314285D01*
X85909523Y-46361904D01*
X86004761Y-46457142D01*
X86052380Y-46600000D01*
X86052380Y-46838095D01*
X85480952Y-45695238D02*
X85433333Y-45790476D01*
X85385714Y-45838095D01*
X85290476Y-45885714D01*
X85242857Y-45885714D01*
X85147619Y-45838095D01*
X85100000Y-45790476D01*
X85052380Y-45695238D01*
X85052380Y-45504761D01*
X85100000Y-45409523D01*
X85147619Y-45361904D01*
X85242857Y-45314285D01*
X85290476Y-45314285D01*
X85385714Y-45361904D01*
X85433333Y-45409523D01*
X85480952Y-45504761D01*
X85480952Y-45695238D01*
X85528571Y-45790476D01*
X85576190Y-45838095D01*
X85671428Y-45885714D01*
X85861904Y-45885714D01*
X85957142Y-45838095D01*
X86004761Y-45790476D01*
X86052380Y-45695238D01*
X86052380Y-45504761D01*
X86004761Y-45409523D01*
X85957142Y-45361904D01*
X85861904Y-45314285D01*
X85671428Y-45314285D01*
X85576190Y-45361904D01*
X85528571Y-45409523D01*
X85480952Y-45504761D01*
X82502380Y-46838095D02*
X81502380Y-46838095D01*
X81502380Y-46600000D01*
X81550000Y-46457142D01*
X81645238Y-46361904D01*
X81740476Y-46314285D01*
X81930952Y-46266666D01*
X82073809Y-46266666D01*
X82264285Y-46314285D01*
X82359523Y-46361904D01*
X82454761Y-46457142D01*
X82502380Y-46600000D01*
X82502380Y-46838095D01*
X82502380Y-45790476D02*
X82502380Y-45600000D01*
X82454761Y-45504761D01*
X82407142Y-45457142D01*
X82264285Y-45361904D01*
X82073809Y-45314285D01*
X81692857Y-45314285D01*
X81597619Y-45361904D01*
X81550000Y-45409523D01*
X81502380Y-45504761D01*
X81502380Y-45695238D01*
X81550000Y-45790476D01*
X81597619Y-45838095D01*
X81692857Y-45885714D01*
X81930952Y-45885714D01*
X82026190Y-45838095D01*
X82073809Y-45790476D01*
X82121428Y-45695238D01*
X82121428Y-45504761D01*
X82073809Y-45409523D01*
X82026190Y-45361904D01*
X81930952Y-45314285D01*
X148647380Y-90951785D02*
X147647380Y-90951785D01*
X147647380Y-90713690D01*
X147695000Y-90570833D01*
X147790238Y-90475595D01*
X147885476Y-90427976D01*
X148075952Y-90380357D01*
X148218809Y-90380357D01*
X148409285Y-90427976D01*
X148504523Y-90475595D01*
X148599761Y-90570833D01*
X148647380Y-90713690D01*
X148647380Y-90951785D01*
X148647380Y-89427976D02*
X148647380Y-89999404D01*
X148647380Y-89713690D02*
X147647380Y-89713690D01*
X147790238Y-89808928D01*
X147885476Y-89904166D01*
X147933095Y-89999404D01*
X147647380Y-88808928D02*
X147647380Y-88713690D01*
X147695000Y-88618452D01*
X147742619Y-88570833D01*
X147837857Y-88523214D01*
X148028333Y-88475595D01*
X148266428Y-88475595D01*
X148456904Y-88523214D01*
X148552142Y-88570833D01*
X148599761Y-88618452D01*
X148647380Y-88713690D01*
X148647380Y-88808928D01*
X148599761Y-88904166D01*
X148552142Y-88951785D01*
X148456904Y-88999404D01*
X148266428Y-89047023D01*
X148028333Y-89047023D01*
X147837857Y-88999404D01*
X147742619Y-88951785D01*
X147695000Y-88904166D01*
X147647380Y-88808928D01*
X148647380Y-100601785D02*
X147647380Y-100601785D01*
X147647380Y-100363690D01*
X147695000Y-100220833D01*
X147790238Y-100125595D01*
X147885476Y-100077976D01*
X148075952Y-100030357D01*
X148218809Y-100030357D01*
X148409285Y-100077976D01*
X148504523Y-100125595D01*
X148599761Y-100220833D01*
X148647380Y-100363690D01*
X148647380Y-100601785D01*
X148647380Y-99077976D02*
X148647380Y-99649404D01*
X148647380Y-99363690D02*
X147647380Y-99363690D01*
X147790238Y-99458928D01*
X147885476Y-99554166D01*
X147933095Y-99649404D01*
X148647380Y-98125595D02*
X148647380Y-98697023D01*
X148647380Y-98411309D02*
X147647380Y-98411309D01*
X147790238Y-98506547D01*
X147885476Y-98601785D01*
X147933095Y-98697023D01*
X148647380Y-110251785D02*
X147647380Y-110251785D01*
X147647380Y-110013690D01*
X147695000Y-109870833D01*
X147790238Y-109775595D01*
X147885476Y-109727976D01*
X148075952Y-109680357D01*
X148218809Y-109680357D01*
X148409285Y-109727976D01*
X148504523Y-109775595D01*
X148599761Y-109870833D01*
X148647380Y-110013690D01*
X148647380Y-110251785D01*
X148647380Y-108727976D02*
X148647380Y-109299404D01*
X148647380Y-109013690D02*
X147647380Y-109013690D01*
X147790238Y-109108928D01*
X147885476Y-109204166D01*
X147933095Y-109299404D01*
X147742619Y-108347023D02*
X147695000Y-108299404D01*
X147647380Y-108204166D01*
X147647380Y-107966071D01*
X147695000Y-107870833D01*
X147742619Y-107823214D01*
X147837857Y-107775595D01*
X147933095Y-107775595D01*
X148075952Y-107823214D01*
X148647380Y-108394642D01*
X148647380Y-107775595D01*
X78952380Y-47314285D02*
X77952380Y-47314285D01*
X77952380Y-47076190D01*
X78000000Y-46933333D01*
X78095238Y-46838095D01*
X78190476Y-46790476D01*
X78380952Y-46742857D01*
X78523809Y-46742857D01*
X78714285Y-46790476D01*
X78809523Y-46838095D01*
X78904761Y-46933333D01*
X78952380Y-47076190D01*
X78952380Y-47314285D01*
X78952380Y-45790476D02*
X78952380Y-46361904D01*
X78952380Y-46076190D02*
X77952380Y-46076190D01*
X78095238Y-46171428D01*
X78190476Y-46266666D01*
X78238095Y-46361904D01*
X77952380Y-45457142D02*
X77952380Y-44838095D01*
X78333333Y-45171428D01*
X78333333Y-45028571D01*
X78380952Y-44933333D01*
X78428571Y-44885714D01*
X78523809Y-44838095D01*
X78761904Y-44838095D01*
X78857142Y-44885714D01*
X78904761Y-44933333D01*
X78952380Y-45028571D01*
X78952380Y-45314285D01*
X78904761Y-45409523D01*
X78857142Y-45457142D01*
X75402380Y-47314285D02*
X74402380Y-47314285D01*
X74402380Y-47076190D01*
X74450000Y-46933333D01*
X74545238Y-46838095D01*
X74640476Y-46790476D01*
X74830952Y-46742857D01*
X74973809Y-46742857D01*
X75164285Y-46790476D01*
X75259523Y-46838095D01*
X75354761Y-46933333D01*
X75402380Y-47076190D01*
X75402380Y-47314285D01*
X75402380Y-45790476D02*
X75402380Y-46361904D01*
X75402380Y-46076190D02*
X74402380Y-46076190D01*
X74545238Y-46171428D01*
X74640476Y-46266666D01*
X74688095Y-46361904D01*
X74735714Y-44933333D02*
X75402380Y-44933333D01*
X74354761Y-45171428D02*
X75069047Y-45409523D01*
X75069047Y-44790476D01*
X148647380Y-119901785D02*
X147647380Y-119901785D01*
X147647380Y-119663690D01*
X147695000Y-119520833D01*
X147790238Y-119425595D01*
X147885476Y-119377976D01*
X148075952Y-119330357D01*
X148218809Y-119330357D01*
X148409285Y-119377976D01*
X148504523Y-119425595D01*
X148599761Y-119520833D01*
X148647380Y-119663690D01*
X148647380Y-119901785D01*
X148647380Y-118377976D02*
X148647380Y-118949404D01*
X148647380Y-118663690D02*
X147647380Y-118663690D01*
X147790238Y-118758928D01*
X147885476Y-118854166D01*
X147933095Y-118949404D01*
X147647380Y-117473214D02*
X147647380Y-117949404D01*
X148123571Y-117997023D01*
X148075952Y-117949404D01*
X148028333Y-117854166D01*
X148028333Y-117616071D01*
X148075952Y-117520833D01*
X148123571Y-117473214D01*
X148218809Y-117425595D01*
X148456904Y-117425595D01*
X148552142Y-117473214D01*
X148599761Y-117520833D01*
X148647380Y-117616071D01*
X148647380Y-117854166D01*
X148599761Y-117949404D01*
X148552142Y-117997023D01*
X148647380Y-129551785D02*
X147647380Y-129551785D01*
X147647380Y-129313690D01*
X147695000Y-129170833D01*
X147790238Y-129075595D01*
X147885476Y-129027976D01*
X148075952Y-128980357D01*
X148218809Y-128980357D01*
X148409285Y-129027976D01*
X148504523Y-129075595D01*
X148599761Y-129170833D01*
X148647380Y-129313690D01*
X148647380Y-129551785D01*
X148647380Y-128027976D02*
X148647380Y-128599404D01*
X148647380Y-128313690D02*
X147647380Y-128313690D01*
X147790238Y-128408928D01*
X147885476Y-128504166D01*
X147933095Y-128599404D01*
X147647380Y-127170833D02*
X147647380Y-127361309D01*
X147695000Y-127456547D01*
X147742619Y-127504166D01*
X147885476Y-127599404D01*
X148075952Y-127647023D01*
X148456904Y-127647023D01*
X148552142Y-127599404D01*
X148599761Y-127551785D01*
X148647380Y-127456547D01*
X148647380Y-127266071D01*
X148599761Y-127170833D01*
X148552142Y-127123214D01*
X148456904Y-127075595D01*
X148218809Y-127075595D01*
X148123571Y-127123214D01*
X148075952Y-127170833D01*
X148028333Y-127266071D01*
X148028333Y-127456547D01*
X148075952Y-127551785D01*
X148123571Y-127599404D01*
X148218809Y-127647023D01*
X138740714Y-41017380D02*
X138740714Y-40017380D01*
X138978809Y-40017380D01*
X139121666Y-40065000D01*
X139216904Y-40160238D01*
X139264523Y-40255476D01*
X139312142Y-40445952D01*
X139312142Y-40588809D01*
X139264523Y-40779285D01*
X139216904Y-40874523D01*
X139121666Y-40969761D01*
X138978809Y-41017380D01*
X138740714Y-41017380D01*
X140264523Y-41017380D02*
X139693095Y-41017380D01*
X139978809Y-41017380D02*
X139978809Y-40017380D01*
X139883571Y-40160238D01*
X139788333Y-40255476D01*
X139693095Y-40303095D01*
X140597857Y-40017380D02*
X141264523Y-40017380D01*
X140835952Y-41017380D01*
X110121666Y-116673571D02*
X109788333Y-116673571D01*
X109788333Y-117197380D02*
X109788333Y-116197380D01*
X110264523Y-116197380D01*
X110978809Y-116673571D02*
X111121666Y-116721190D01*
X111169285Y-116768809D01*
X111216904Y-116864047D01*
X111216904Y-117006904D01*
X111169285Y-117102142D01*
X111121666Y-117149761D01*
X111026428Y-117197380D01*
X110645476Y-117197380D01*
X110645476Y-116197380D01*
X110978809Y-116197380D01*
X111074047Y-116245000D01*
X111121666Y-116292619D01*
X111169285Y-116387857D01*
X111169285Y-116483095D01*
X111121666Y-116578333D01*
X111074047Y-116625952D01*
X110978809Y-116673571D01*
X110645476Y-116673571D01*
X112169285Y-117197380D02*
X111597857Y-117197380D01*
X111883571Y-117197380D02*
X111883571Y-116197380D01*
X111788333Y-116340238D01*
X111693095Y-116435476D01*
X111597857Y-116483095D01*
X110146666Y-120698571D02*
X109813333Y-120698571D01*
X109813333Y-121222380D02*
X109813333Y-120222380D01*
X110289523Y-120222380D01*
X111003809Y-120698571D02*
X111146666Y-120746190D01*
X111194285Y-120793809D01*
X111241904Y-120889047D01*
X111241904Y-121031904D01*
X111194285Y-121127142D01*
X111146666Y-121174761D01*
X111051428Y-121222380D01*
X110670476Y-121222380D01*
X110670476Y-120222380D01*
X111003809Y-120222380D01*
X111099047Y-120270000D01*
X111146666Y-120317619D01*
X111194285Y-120412857D01*
X111194285Y-120508095D01*
X111146666Y-120603333D01*
X111099047Y-120650952D01*
X111003809Y-120698571D01*
X110670476Y-120698571D01*
X111622857Y-120317619D02*
X111670476Y-120270000D01*
X111765714Y-120222380D01*
X112003809Y-120222380D01*
X112099047Y-120270000D01*
X112146666Y-120317619D01*
X112194285Y-120412857D01*
X112194285Y-120508095D01*
X112146666Y-120650952D01*
X111575238Y-121222380D01*
X112194285Y-121222380D01*
X110521666Y-103598571D02*
X110188333Y-103598571D01*
X110188333Y-104122380D02*
X110188333Y-103122380D01*
X110664523Y-103122380D01*
X111378809Y-103598571D02*
X111521666Y-103646190D01*
X111569285Y-103693809D01*
X111616904Y-103789047D01*
X111616904Y-103931904D01*
X111569285Y-104027142D01*
X111521666Y-104074761D01*
X111426428Y-104122380D01*
X111045476Y-104122380D01*
X111045476Y-103122380D01*
X111378809Y-103122380D01*
X111474047Y-103170000D01*
X111521666Y-103217619D01*
X111569285Y-103312857D01*
X111569285Y-103408095D01*
X111521666Y-103503333D01*
X111474047Y-103550952D01*
X111378809Y-103598571D01*
X111045476Y-103598571D01*
X111950238Y-103122380D02*
X112569285Y-103122380D01*
X112235952Y-103503333D01*
X112378809Y-103503333D01*
X112474047Y-103550952D01*
X112521666Y-103598571D01*
X112569285Y-103693809D01*
X112569285Y-103931904D01*
X112521666Y-104027142D01*
X112474047Y-104074761D01*
X112378809Y-104122380D01*
X112093095Y-104122380D01*
X111997857Y-104074761D01*
X111950238Y-104027142D01*
X110396666Y-107598571D02*
X110063333Y-107598571D01*
X110063333Y-108122380D02*
X110063333Y-107122380D01*
X110539523Y-107122380D01*
X111253809Y-107598571D02*
X111396666Y-107646190D01*
X111444285Y-107693809D01*
X111491904Y-107789047D01*
X111491904Y-107931904D01*
X111444285Y-108027142D01*
X111396666Y-108074761D01*
X111301428Y-108122380D01*
X110920476Y-108122380D01*
X110920476Y-107122380D01*
X111253809Y-107122380D01*
X111349047Y-107170000D01*
X111396666Y-107217619D01*
X111444285Y-107312857D01*
X111444285Y-107408095D01*
X111396666Y-107503333D01*
X111349047Y-107550952D01*
X111253809Y-107598571D01*
X110920476Y-107598571D01*
X112349047Y-107455714D02*
X112349047Y-108122380D01*
X112110952Y-107074761D02*
X111872857Y-107789047D01*
X112491904Y-107789047D01*
D16*
X119529238Y-46639523D02*
X119529238Y-45369523D01*
X120859714Y-46518571D02*
X120799238Y-46579047D01*
X120617809Y-46639523D01*
X120496857Y-46639523D01*
X120315428Y-46579047D01*
X120194476Y-46458095D01*
X120134000Y-46337142D01*
X120073523Y-46095238D01*
X120073523Y-45913809D01*
X120134000Y-45671904D01*
X120194476Y-45550952D01*
X120315428Y-45430000D01*
X120496857Y-45369523D01*
X120617809Y-45369523D01*
X120799238Y-45430000D01*
X120859714Y-45490476D01*
X122069238Y-46639523D02*
X121343523Y-46639523D01*
X121706380Y-46639523D02*
X121706380Y-45369523D01*
X121585428Y-45550952D01*
X121464476Y-45671904D01*
X121343523Y-45732380D01*
D10*
X167352380Y-46358333D02*
X168066666Y-46358333D01*
X168209523Y-46405952D01*
X168304761Y-46501190D01*
X168352380Y-46644047D01*
X168352380Y-46739285D01*
X168352380Y-45358333D02*
X168352380Y-45929761D01*
X168352380Y-45644047D02*
X167352380Y-45644047D01*
X167495238Y-45739285D01*
X167590476Y-45834523D01*
X167638095Y-45929761D01*
X153507142Y-52096428D02*
X153507142Y-50953571D01*
X153507142Y-41096428D02*
X153507142Y-39953571D01*
X154078571Y-40525000D02*
X152935714Y-40525000D01*
X151752380Y-103978333D02*
X152466666Y-103978333D01*
X152609523Y-104025952D01*
X152704761Y-104121190D01*
X152752380Y-104264047D01*
X152752380Y-104359285D01*
X151752380Y-103597380D02*
X151752380Y-102978333D01*
X152133333Y-103311666D01*
X152133333Y-103168809D01*
X152180952Y-103073571D01*
X152228571Y-103025952D01*
X152323809Y-102978333D01*
X152561904Y-102978333D01*
X152657142Y-103025952D01*
X152704761Y-103073571D01*
X152752380Y-103168809D01*
X152752380Y-103454523D01*
X152704761Y-103549761D01*
X152657142Y-103597380D01*
X133741666Y-63617380D02*
X133741666Y-64331666D01*
X133694047Y-64474523D01*
X133598809Y-64569761D01*
X133455952Y-64617380D01*
X133360714Y-64617380D01*
X134646428Y-63950714D02*
X134646428Y-64617380D01*
X134408333Y-63569761D02*
X134170238Y-64284047D01*
X134789285Y-64284047D01*
X133741666Y-73272380D02*
X133741666Y-73986666D01*
X133694047Y-74129523D01*
X133598809Y-74224761D01*
X133455952Y-74272380D01*
X133360714Y-74272380D01*
X134694047Y-73272380D02*
X134217857Y-73272380D01*
X134170238Y-73748571D01*
X134217857Y-73700952D01*
X134313095Y-73653333D01*
X134551190Y-73653333D01*
X134646428Y-73700952D01*
X134694047Y-73748571D01*
X134741666Y-73843809D01*
X134741666Y-74081904D01*
X134694047Y-74177142D01*
X134646428Y-74224761D01*
X134551190Y-74272380D01*
X134313095Y-74272380D01*
X134217857Y-74224761D01*
X134170238Y-74177142D01*
X133741666Y-82917380D02*
X133741666Y-83631666D01*
X133694047Y-83774523D01*
X133598809Y-83869761D01*
X133455952Y-83917380D01*
X133360714Y-83917380D01*
X134646428Y-82917380D02*
X134455952Y-82917380D01*
X134360714Y-82965000D01*
X134313095Y-83012619D01*
X134217857Y-83155476D01*
X134170238Y-83345952D01*
X134170238Y-83726904D01*
X134217857Y-83822142D01*
X134265476Y-83869761D01*
X134360714Y-83917380D01*
X134551190Y-83917380D01*
X134646428Y-83869761D01*
X134694047Y-83822142D01*
X134741666Y-83726904D01*
X134741666Y-83488809D01*
X134694047Y-83393571D01*
X134646428Y-83345952D01*
X134551190Y-83298333D01*
X134360714Y-83298333D01*
X134265476Y-83345952D01*
X134217857Y-83393571D01*
X134170238Y-83488809D01*
X133741666Y-92567380D02*
X133741666Y-93281666D01*
X133694047Y-93424523D01*
X133598809Y-93519761D01*
X133455952Y-93567380D01*
X133360714Y-93567380D01*
X134122619Y-92567380D02*
X134789285Y-92567380D01*
X134360714Y-93567380D01*
X133741666Y-102217380D02*
X133741666Y-102931666D01*
X133694047Y-103074523D01*
X133598809Y-103169761D01*
X133455952Y-103217380D01*
X133360714Y-103217380D01*
X134360714Y-102645952D02*
X134265476Y-102598333D01*
X134217857Y-102550714D01*
X134170238Y-102455476D01*
X134170238Y-102407857D01*
X134217857Y-102312619D01*
X134265476Y-102265000D01*
X134360714Y-102217380D01*
X134551190Y-102217380D01*
X134646428Y-102265000D01*
X134694047Y-102312619D01*
X134741666Y-102407857D01*
X134741666Y-102455476D01*
X134694047Y-102550714D01*
X134646428Y-102598333D01*
X134551190Y-102645952D01*
X134360714Y-102645952D01*
X134265476Y-102693571D01*
X134217857Y-102741190D01*
X134170238Y-102836428D01*
X134170238Y-103026904D01*
X134217857Y-103122142D01*
X134265476Y-103169761D01*
X134360714Y-103217380D01*
X134551190Y-103217380D01*
X134646428Y-103169761D01*
X134694047Y-103122142D01*
X134741666Y-103026904D01*
X134741666Y-102836428D01*
X134694047Y-102741190D01*
X134646428Y-102693571D01*
X134551190Y-102645952D01*
X133741666Y-111867380D02*
X133741666Y-112581666D01*
X133694047Y-112724523D01*
X133598809Y-112819761D01*
X133455952Y-112867380D01*
X133360714Y-112867380D01*
X134265476Y-112867380D02*
X134455952Y-112867380D01*
X134551190Y-112819761D01*
X134598809Y-112772142D01*
X134694047Y-112629285D01*
X134741666Y-112438809D01*
X134741666Y-112057857D01*
X134694047Y-111962619D01*
X134646428Y-111915000D01*
X134551190Y-111867380D01*
X134360714Y-111867380D01*
X134265476Y-111915000D01*
X134217857Y-111962619D01*
X134170238Y-112057857D01*
X134170238Y-112295952D01*
X134217857Y-112391190D01*
X134265476Y-112438809D01*
X134360714Y-112486428D01*
X134551190Y-112486428D01*
X134646428Y-112438809D01*
X134694047Y-112391190D01*
X134741666Y-112295952D01*
X133265476Y-121517380D02*
X133265476Y-122231666D01*
X133217857Y-122374523D01*
X133122619Y-122469761D01*
X132979761Y-122517380D01*
X132884523Y-122517380D01*
X134265476Y-122517380D02*
X133694047Y-122517380D01*
X133979761Y-122517380D02*
X133979761Y-121517380D01*
X133884523Y-121660238D01*
X133789285Y-121755476D01*
X133694047Y-121803095D01*
X134884523Y-121517380D02*
X134979761Y-121517380D01*
X135075000Y-121565000D01*
X135122619Y-121612619D01*
X135170238Y-121707857D01*
X135217857Y-121898333D01*
X135217857Y-122136428D01*
X135170238Y-122326904D01*
X135122619Y-122422142D01*
X135075000Y-122469761D01*
X134979761Y-122517380D01*
X134884523Y-122517380D01*
X134789285Y-122469761D01*
X134741666Y-122422142D01*
X134694047Y-122326904D01*
X134646428Y-122136428D01*
X134646428Y-121898333D01*
X134694047Y-121707857D01*
X134741666Y-121612619D01*
X134789285Y-121565000D01*
X134884523Y-121517380D01*
X133265476Y-131167380D02*
X133265476Y-131881666D01*
X133217857Y-132024523D01*
X133122619Y-132119761D01*
X132979761Y-132167380D01*
X132884523Y-132167380D01*
X134265476Y-132167380D02*
X133694047Y-132167380D01*
X133979761Y-132167380D02*
X133979761Y-131167380D01*
X133884523Y-131310238D01*
X133789285Y-131405476D01*
X133694047Y-131453095D01*
X135217857Y-132167380D02*
X134646428Y-132167380D01*
X134932142Y-132167380D02*
X134932142Y-131167380D01*
X134836904Y-131310238D01*
X134741666Y-131405476D01*
X134646428Y-131453095D01*
X97172380Y-42341666D02*
X96696190Y-42675000D01*
X97172380Y-42913095D02*
X96172380Y-42913095D01*
X96172380Y-42532142D01*
X96220000Y-42436904D01*
X96267619Y-42389285D01*
X96362857Y-42341666D01*
X96505714Y-42341666D01*
X96600952Y-42389285D01*
X96648571Y-42436904D01*
X96696190Y-42532142D01*
X96696190Y-42913095D01*
X96505714Y-41484523D02*
X97172380Y-41484523D01*
X96124761Y-41722619D02*
X96839047Y-41960714D01*
X96839047Y-41341666D01*
X93647380Y-42341666D02*
X93171190Y-42675000D01*
X93647380Y-42913095D02*
X92647380Y-42913095D01*
X92647380Y-42532142D01*
X92695000Y-42436904D01*
X92742619Y-42389285D01*
X92837857Y-42341666D01*
X92980714Y-42341666D01*
X93075952Y-42389285D01*
X93123571Y-42436904D01*
X93171190Y-42532142D01*
X93171190Y-42913095D01*
X92647380Y-41436904D02*
X92647380Y-41913095D01*
X93123571Y-41960714D01*
X93075952Y-41913095D01*
X93028333Y-41817857D01*
X93028333Y-41579761D01*
X93075952Y-41484523D01*
X93123571Y-41436904D01*
X93218809Y-41389285D01*
X93456904Y-41389285D01*
X93552142Y-41436904D01*
X93599761Y-41484523D01*
X93647380Y-41579761D01*
X93647380Y-41817857D01*
X93599761Y-41913095D01*
X93552142Y-41960714D01*
X90072380Y-42341666D02*
X89596190Y-42675000D01*
X90072380Y-42913095D02*
X89072380Y-42913095D01*
X89072380Y-42532142D01*
X89120000Y-42436904D01*
X89167619Y-42389285D01*
X89262857Y-42341666D01*
X89405714Y-42341666D01*
X89500952Y-42389285D01*
X89548571Y-42436904D01*
X89596190Y-42532142D01*
X89596190Y-42913095D01*
X89072380Y-41484523D02*
X89072380Y-41675000D01*
X89120000Y-41770238D01*
X89167619Y-41817857D01*
X89310476Y-41913095D01*
X89500952Y-41960714D01*
X89881904Y-41960714D01*
X89977142Y-41913095D01*
X90024761Y-41865476D01*
X90072380Y-41770238D01*
X90072380Y-41579761D01*
X90024761Y-41484523D01*
X89977142Y-41436904D01*
X89881904Y-41389285D01*
X89643809Y-41389285D01*
X89548571Y-41436904D01*
X89500952Y-41484523D01*
X89453333Y-41579761D01*
X89453333Y-41770238D01*
X89500952Y-41865476D01*
X89548571Y-41913095D01*
X89643809Y-41960714D01*
X86522380Y-42817857D02*
X86046190Y-43151190D01*
X86522380Y-43389285D02*
X85522380Y-43389285D01*
X85522380Y-43008333D01*
X85570000Y-42913095D01*
X85617619Y-42865476D01*
X85712857Y-42817857D01*
X85855714Y-42817857D01*
X85950952Y-42865476D01*
X85998571Y-42913095D01*
X86046190Y-43008333D01*
X86046190Y-43389285D01*
X86522380Y-41865476D02*
X86522380Y-42436904D01*
X86522380Y-42151190D02*
X85522380Y-42151190D01*
X85665238Y-42246428D01*
X85760476Y-42341666D01*
X85808095Y-42436904D01*
X85522380Y-41532142D02*
X85522380Y-40913095D01*
X85903333Y-41246428D01*
X85903333Y-41103571D01*
X85950952Y-41008333D01*
X85998571Y-40960714D01*
X86093809Y-40913095D01*
X86331904Y-40913095D01*
X86427142Y-40960714D01*
X86474761Y-41008333D01*
X86522380Y-41103571D01*
X86522380Y-41389285D01*
X86474761Y-41484523D01*
X86427142Y-41532142D01*
X82972380Y-42817857D02*
X82496190Y-43151190D01*
X82972380Y-43389285D02*
X81972380Y-43389285D01*
X81972380Y-43008333D01*
X82020000Y-42913095D01*
X82067619Y-42865476D01*
X82162857Y-42817857D01*
X82305714Y-42817857D01*
X82400952Y-42865476D01*
X82448571Y-42913095D01*
X82496190Y-43008333D01*
X82496190Y-43389285D01*
X82972380Y-41865476D02*
X82972380Y-42436904D01*
X82972380Y-42151190D02*
X81972380Y-42151190D01*
X82115238Y-42246428D01*
X82210476Y-42341666D01*
X82258095Y-42436904D01*
X82305714Y-41008333D02*
X82972380Y-41008333D01*
X81924761Y-41246428D02*
X82639047Y-41484523D01*
X82639047Y-40865476D01*
X79422380Y-42817857D02*
X78946190Y-43151190D01*
X79422380Y-43389285D02*
X78422380Y-43389285D01*
X78422380Y-43008333D01*
X78470000Y-42913095D01*
X78517619Y-42865476D01*
X78612857Y-42817857D01*
X78755714Y-42817857D01*
X78850952Y-42865476D01*
X78898571Y-42913095D01*
X78946190Y-43008333D01*
X78946190Y-43389285D01*
X79422380Y-41865476D02*
X79422380Y-42436904D01*
X79422380Y-42151190D02*
X78422380Y-42151190D01*
X78565238Y-42246428D01*
X78660476Y-42341666D01*
X78708095Y-42436904D01*
X78422380Y-40960714D02*
X78422380Y-41436904D01*
X78898571Y-41484523D01*
X78850952Y-41436904D01*
X78803333Y-41341666D01*
X78803333Y-41103571D01*
X78850952Y-41008333D01*
X78898571Y-40960714D01*
X78993809Y-40913095D01*
X79231904Y-40913095D01*
X79327142Y-40960714D01*
X79374761Y-41008333D01*
X79422380Y-41103571D01*
X79422380Y-41341666D01*
X79374761Y-41436904D01*
X79327142Y-41484523D01*
X75847380Y-42817857D02*
X75371190Y-43151190D01*
X75847380Y-43389285D02*
X74847380Y-43389285D01*
X74847380Y-43008333D01*
X74895000Y-42913095D01*
X74942619Y-42865476D01*
X75037857Y-42817857D01*
X75180714Y-42817857D01*
X75275952Y-42865476D01*
X75323571Y-42913095D01*
X75371190Y-43008333D01*
X75371190Y-43389285D01*
X74942619Y-42436904D02*
X74895000Y-42389285D01*
X74847380Y-42294047D01*
X74847380Y-42055952D01*
X74895000Y-41960714D01*
X74942619Y-41913095D01*
X75037857Y-41865476D01*
X75133095Y-41865476D01*
X75275952Y-41913095D01*
X75847380Y-42484523D01*
X75847380Y-41865476D01*
X75847380Y-40913095D02*
X75847380Y-41484523D01*
X75847380Y-41198809D02*
X74847380Y-41198809D01*
X74990238Y-41294047D01*
X75085476Y-41389285D01*
X75133095Y-41484523D01*
X72322380Y-42817857D02*
X71846190Y-43151190D01*
X72322380Y-43389285D02*
X71322380Y-43389285D01*
X71322380Y-43008333D01*
X71370000Y-42913095D01*
X71417619Y-42865476D01*
X71512857Y-42817857D01*
X71655714Y-42817857D01*
X71750952Y-42865476D01*
X71798571Y-42913095D01*
X71846190Y-43008333D01*
X71846190Y-43389285D01*
X71417619Y-42436904D02*
X71370000Y-42389285D01*
X71322380Y-42294047D01*
X71322380Y-42055952D01*
X71370000Y-41960714D01*
X71417619Y-41913095D01*
X71512857Y-41865476D01*
X71608095Y-41865476D01*
X71750952Y-41913095D01*
X72322380Y-42484523D01*
X72322380Y-41865476D01*
X71417619Y-41484523D02*
X71370000Y-41436904D01*
X71322380Y-41341666D01*
X71322380Y-41103571D01*
X71370000Y-41008333D01*
X71417619Y-40960714D01*
X71512857Y-40913095D01*
X71608095Y-40913095D01*
X71750952Y-40960714D01*
X72322380Y-41532142D01*
X72322380Y-40913095D01*
X138907142Y-48372380D02*
X138573809Y-47896190D01*
X138335714Y-48372380D02*
X138335714Y-47372380D01*
X138716666Y-47372380D01*
X138811904Y-47420000D01*
X138859523Y-47467619D01*
X138907142Y-47562857D01*
X138907142Y-47705714D01*
X138859523Y-47800952D01*
X138811904Y-47848571D01*
X138716666Y-47896190D01*
X138335714Y-47896190D01*
X139288095Y-47467619D02*
X139335714Y-47420000D01*
X139430952Y-47372380D01*
X139669047Y-47372380D01*
X139764285Y-47420000D01*
X139811904Y-47467619D01*
X139859523Y-47562857D01*
X139859523Y-47658095D01*
X139811904Y-47800952D01*
X139240476Y-48372380D01*
X139859523Y-48372380D01*
X140192857Y-47372380D02*
X140859523Y-47372380D01*
X140430952Y-48372380D01*
D17*
X97431976Y-127403214D02*
X97431976Y-128213050D01*
X97479613Y-128308325D01*
X97527251Y-128355963D01*
X97622525Y-128403600D01*
X97813075Y-128403600D01*
X97908350Y-128355963D01*
X97955987Y-128308325D01*
X98003625Y-128213050D01*
X98003625Y-127403214D01*
X99004011Y-128403600D02*
X98432362Y-128403600D01*
X98718186Y-128403600D02*
X98718186Y-127403214D01*
X98622911Y-127546126D01*
X98527637Y-127641401D01*
X98432362Y-127689039D01*
M02*
