%FSLAX45Y45*%
G04 Gerber Fmt 4.5, Leading zero omitted, Abs format (unit mm)*
G04 Created by KiCad (PCBNEW (5.1.4)-1) date 2020-09-30 13:09:02*
%MOMM*%
%LPD*%
G04 APERTURE LIST*
%ADD10C,0.050000*%
%ADD11C,0.200000*%
%ADD12C,0.300000*%
G04 APERTURE END LIST*
D10*
X16565000Y-3835000D02*
X16565000Y-13535000D01*
X7065000Y-3835000D02*
X16565000Y-3835000D01*
X7065000Y-13535000D02*
X7065000Y-3835000D01*
X16565000Y-13535000D02*
X7065000Y-13535000D01*
D11*
X13484400Y-10261400D02*
X13514400Y-10291400D01*
X13514400Y-10261400D02*
X13484400Y-10291400D01*
X13612500Y-10181000D02*
X13642500Y-10211000D01*
X13642500Y-10181000D02*
X13612500Y-10211000D01*
X14256500Y-10671000D02*
X14286500Y-10701000D01*
X14286500Y-10671000D02*
X14256500Y-10701000D01*
X14256500Y-10756000D02*
X14286500Y-10786000D01*
X14286500Y-10756000D02*
X14256500Y-10786000D01*
X14748448Y-10322052D02*
X14778448Y-10352052D01*
X14778448Y-10322052D02*
X14748448Y-10352052D01*
X14803499Y-10261948D02*
X14833499Y-10291948D01*
X14833499Y-10261948D02*
X14803499Y-10291948D01*
X14803499Y-10671000D02*
X14833499Y-10701000D01*
X14833499Y-10671000D02*
X14803499Y-10701000D01*
X14803499Y-10756000D02*
X14833499Y-10786000D01*
X14833499Y-10756000D02*
X14803499Y-10786000D01*
X7515500Y-4260500D02*
G75*
G03X7515500Y-4260500I-20000J0D01*
G01*
X9041500Y-10291500D02*
G75*
G03X9041500Y-10291500I-20000J0D01*
G01*
X9349500Y-10569500D02*
G75*
G03X9349500Y-10569500I-20000J0D01*
G01*
X9557500Y-11850500D02*
G75*
G03X9557500Y-11850500I-20000J0D01*
G01*
X9755500Y-12793500D02*
G75*
G03X9755500Y-12793500I-20000J0D01*
G01*
X9782500Y-11510500D02*
G75*
G03X9782500Y-11510500I-20000J0D01*
G01*
X10241500Y-12783500D02*
G75*
G03X10241500Y-12783500I-20000J0D01*
G01*
X10731500Y-10646500D02*
G75*
G03X10731500Y-10646500I-20000J0D01*
G01*
X10762500Y-10470500D02*
G75*
G03X10762500Y-10470500I-20000J0D01*
G01*
X11732500Y-4606500D02*
G75*
G03X11732500Y-4606500I-20000J0D01*
G01*
X13319500Y-5915500D02*
G75*
G03X13319500Y-5915500I-20000J0D01*
G01*
X13359500Y-11719500D02*
G75*
G03X13359500Y-11719500I-20000J0D01*
G01*
X13373500Y-8839500D02*
G75*
G03X13373500Y-8839500I-20000J0D01*
G01*
X13375500Y-9807500D02*
G75*
G03X13375500Y-9807500I-20000J0D01*
G01*
X13377500Y-10731500D02*
G75*
G03X13377500Y-10731500I-20000J0D01*
G01*
X13378500Y-7878500D02*
G75*
G03X13378500Y-7878500I-20000J0D01*
G01*
X13402500Y-12624500D02*
G75*
G03X13402500Y-12624500I-20000J0D01*
G01*
X13406752Y-6843500D02*
G75*
G03X13406752Y-6843500I-20000J0D01*
G01*
X14367500Y-13189500D02*
G75*
G03X14367500Y-13189500I-20000J0D01*
G01*
X14140500Y-6403500D02*
X14140500Y-6463500D01*
X14110500Y-6433500D02*
X14170500Y-6433500D01*
X14490500Y-12268500D02*
X14490500Y-12328500D01*
X14460500Y-12298500D02*
X14520500Y-12298500D01*
X14746500Y-11338500D02*
X14746500Y-11398500D01*
X14716500Y-11368500D02*
X14776500Y-11368500D01*
X14834500Y-7459500D02*
X14834500Y-7519500D01*
X14804500Y-7489500D02*
X14864500Y-7489500D01*
X14855500Y-7833500D02*
X14855500Y-7893500D01*
X14825500Y-7863500D02*
X14885500Y-7863500D01*
X13900320Y-4384320D02*
X13900320Y-4320680D01*
X13836680Y-4320680D01*
X13836680Y-4384320D01*
X13900320Y-4384320D01*
X14154320Y-4384320D02*
X14154320Y-4320680D01*
X14090680Y-4320680D01*
X14090680Y-4384320D01*
X14154320Y-4384320D01*
X14971500Y-8526500D02*
X15021500Y-8476500D01*
X14971500Y-8426500D01*
X14921500Y-8476500D01*
X14971500Y-8526500D01*
X15021500Y-10137496D02*
X15071500Y-10087496D01*
X15021500Y-10037496D01*
X14971500Y-10087496D01*
X15021500Y-10137496D01*
X15117500Y-5940500D02*
X15167500Y-5890500D01*
X15117500Y-5840500D01*
X15067500Y-5890500D01*
X15117500Y-5940500D01*
X15195500Y-12045500D02*
X15245500Y-11995500D01*
X15195500Y-11945500D01*
X15145500Y-11995500D01*
X15195500Y-12045500D01*
X15279500Y-12536502D02*
X15329500Y-12486502D01*
X15279500Y-12436502D01*
X15229500Y-12486502D01*
X15279500Y-12536502D01*
X15395500Y-7582500D02*
X15445500Y-7532500D01*
X15395500Y-7482500D01*
X15345500Y-7532500D01*
X15395500Y-7582500D01*
X15672500Y-7242500D02*
X15722500Y-7192500D01*
X15672500Y-7142500D01*
X15622500Y-7192500D01*
X15672500Y-7242500D01*
X16214500Y-13120500D02*
X16264500Y-13070500D01*
X16214500Y-13020500D01*
X16164500Y-13070500D01*
X16214500Y-13120500D01*
X13845500Y-6647000D02*
X13895500Y-6597000D01*
X13845500Y-6547000D01*
X13795500Y-6597000D01*
X13845500Y-6647000D01*
X13845500Y-6901000D02*
X13895500Y-6851000D01*
X13845500Y-6801000D01*
X13795500Y-6851000D01*
X13845500Y-6901000D01*
X13845500Y-7155000D02*
X13895500Y-7105000D01*
X13845500Y-7055000D01*
X13795500Y-7105000D01*
X13845500Y-7155000D01*
X13845500Y-12436500D02*
X13895500Y-12386500D01*
X13845500Y-12336500D01*
X13795500Y-12386500D01*
X13845500Y-12436500D01*
X13845500Y-12690500D02*
X13895500Y-12640500D01*
X13845500Y-12590500D01*
X13795500Y-12640500D01*
X13845500Y-12690500D01*
X13845500Y-12944500D02*
X13895500Y-12894500D01*
X13845500Y-12844500D01*
X13795500Y-12894500D01*
X13845500Y-12944500D01*
X13845500Y-5681500D02*
X13895500Y-5631500D01*
X13845500Y-5581500D01*
X13795500Y-5631500D01*
X13845500Y-5681500D01*
X13845500Y-5935500D02*
X13895500Y-5885500D01*
X13845500Y-5835500D01*
X13795500Y-5885500D01*
X13845500Y-5935500D01*
X13845500Y-6189500D02*
X13895500Y-6139500D01*
X13845500Y-6089500D01*
X13795500Y-6139500D01*
X13845500Y-6189500D01*
X13845500Y-9541500D02*
X13895500Y-9491500D01*
X13845500Y-9441500D01*
X13795500Y-9491500D01*
X13845500Y-9541500D01*
X13845500Y-9795500D02*
X13895500Y-9745500D01*
X13845500Y-9695500D01*
X13795500Y-9745500D01*
X13845500Y-9795500D01*
X13845500Y-10049500D02*
X13895500Y-9999500D01*
X13845500Y-9949500D01*
X13795500Y-9999500D01*
X13845500Y-10049500D01*
X13845500Y-11471500D02*
X13895500Y-11421500D01*
X13845500Y-11371500D01*
X13795500Y-11421500D01*
X13845500Y-11471500D01*
X13845500Y-11725500D02*
X13895500Y-11675500D01*
X13845500Y-11625500D01*
X13795500Y-11675500D01*
X13845500Y-11725500D01*
X13845500Y-11979500D02*
X13895500Y-11929500D01*
X13845500Y-11879500D01*
X13795500Y-11929500D01*
X13845500Y-11979500D01*
X13845500Y-7611500D02*
X13895500Y-7561500D01*
X13845500Y-7511500D01*
X13795500Y-7561500D01*
X13845500Y-7611500D01*
X13845500Y-7865500D02*
X13895500Y-7815500D01*
X13845500Y-7765500D01*
X13795500Y-7815500D01*
X13845500Y-7865500D01*
X13845500Y-8119500D02*
X13895500Y-8069500D01*
X13845500Y-8019500D01*
X13795500Y-8069500D01*
X13845500Y-8119500D01*
X15510000Y-8752500D02*
X15560000Y-8702500D01*
X15510000Y-8652500D01*
X15460000Y-8702500D01*
X15510000Y-8752500D01*
X15510000Y-9029500D02*
X15560000Y-8979500D01*
X15510000Y-8929500D01*
X15460000Y-8979500D01*
X15510000Y-9029500D01*
X15510000Y-9306500D02*
X15560000Y-9256500D01*
X15510000Y-9206500D01*
X15460000Y-9256500D01*
X15510000Y-9306500D01*
X15510000Y-9583500D02*
X15560000Y-9533500D01*
X15510000Y-9483500D01*
X15460000Y-9533500D01*
X15510000Y-9583500D01*
X15510000Y-9860500D02*
X15560000Y-9810500D01*
X15510000Y-9760500D01*
X15460000Y-9810500D01*
X15510000Y-9860500D01*
X15510000Y-10137500D02*
X15560000Y-10087500D01*
X15510000Y-10037500D01*
X15460000Y-10087500D01*
X15510000Y-10137500D01*
X15510000Y-10414500D02*
X15560000Y-10364500D01*
X15510000Y-10314500D01*
X15460000Y-10364500D01*
X15510000Y-10414500D01*
X15510000Y-10691500D02*
X15560000Y-10641500D01*
X15510000Y-10591500D01*
X15460000Y-10641500D01*
X15510000Y-10691500D01*
X15510000Y-10968500D02*
X15560000Y-10918500D01*
X15510000Y-10868500D01*
X15460000Y-10918500D01*
X15510000Y-10968500D01*
X15510000Y-11245500D02*
X15560000Y-11195500D01*
X15510000Y-11145500D01*
X15460000Y-11195500D01*
X15510000Y-11245500D01*
X15510000Y-11522500D02*
X15560000Y-11472500D01*
X15510000Y-11422500D01*
X15460000Y-11472500D01*
X15510000Y-11522500D01*
X15510000Y-11799500D02*
X15560000Y-11749500D01*
X15510000Y-11699500D01*
X15460000Y-11749500D01*
X15510000Y-11799500D01*
X15510000Y-12076500D02*
X15560000Y-12026500D01*
X15510000Y-11976500D01*
X15460000Y-12026500D01*
X15510000Y-12076500D01*
X15794000Y-8891000D02*
X15844000Y-8841000D01*
X15794000Y-8791000D01*
X15744000Y-8841000D01*
X15794000Y-8891000D01*
X15794000Y-9168000D02*
X15844000Y-9118000D01*
X15794000Y-9068000D01*
X15744000Y-9118000D01*
X15794000Y-9168000D01*
X15794000Y-9445000D02*
X15844000Y-9395000D01*
X15794000Y-9345000D01*
X15744000Y-9395000D01*
X15794000Y-9445000D01*
X15794000Y-9722000D02*
X15844000Y-9672000D01*
X15794000Y-9622000D01*
X15744000Y-9672000D01*
X15794000Y-9722000D01*
X15794000Y-9999000D02*
X15844000Y-9949000D01*
X15794000Y-9899000D01*
X15744000Y-9949000D01*
X15794000Y-9999000D01*
X15794000Y-10276000D02*
X15844000Y-10226000D01*
X15794000Y-10176000D01*
X15744000Y-10226000D01*
X15794000Y-10276000D01*
X15794000Y-10553000D02*
X15844000Y-10503000D01*
X15794000Y-10453000D01*
X15744000Y-10503000D01*
X15794000Y-10553000D01*
X15794000Y-10830000D02*
X15844000Y-10780000D01*
X15794000Y-10730000D01*
X15744000Y-10780000D01*
X15794000Y-10830000D01*
X15794000Y-11107000D02*
X15844000Y-11057000D01*
X15794000Y-11007000D01*
X15744000Y-11057000D01*
X15794000Y-11107000D01*
X15794000Y-11384000D02*
X15844000Y-11334000D01*
X15794000Y-11284000D01*
X15744000Y-11334000D01*
X15794000Y-11384000D01*
X15794000Y-11661000D02*
X15844000Y-11611000D01*
X15794000Y-11561000D01*
X15744000Y-11611000D01*
X15794000Y-11661000D01*
X15794000Y-11938000D02*
X15844000Y-11888000D01*
X15794000Y-11838000D01*
X15744000Y-11888000D01*
X15794000Y-11938000D01*
X16340000Y-4102500D02*
X16390000Y-4052500D01*
X16340000Y-4002500D01*
X16290000Y-4052500D01*
X16340000Y-4102500D01*
X16340000Y-5202500D02*
X16390000Y-5152500D01*
X16340000Y-5102500D01*
X16290000Y-5152500D01*
X16340000Y-5202500D01*
X13845500Y-10506500D02*
X13895500Y-10456500D01*
X13845500Y-10406500D01*
X13795500Y-10456500D01*
X13845500Y-10506500D01*
X13845500Y-10760500D02*
X13895500Y-10710500D01*
X13845500Y-10660500D01*
X13795500Y-10710500D01*
X13845500Y-10760500D01*
X13845500Y-11014500D02*
X13895500Y-10964500D01*
X13845500Y-10914500D01*
X13795500Y-10964500D01*
X13845500Y-11014500D01*
X13845500Y-8576500D02*
X13895500Y-8526500D01*
X13845500Y-8476500D01*
X13795500Y-8526500D01*
X13845500Y-8576500D01*
X13845500Y-8830500D02*
X13895500Y-8780500D01*
X13845500Y-8730500D01*
X13795500Y-8780500D01*
X13845500Y-8830500D01*
X13845500Y-9084500D02*
X13895500Y-9034500D01*
X13845500Y-8984500D01*
X13795500Y-9034500D01*
X13845500Y-9084500D01*
X7414500Y-7302500D02*
X7518500Y-7406500D01*
X7518500Y-7302500D02*
X7414500Y-7406500D01*
X7518500Y-7354500D02*
G75*
G03X7518500Y-7354500I-52000J0D01*
G01*
X7414500Y-7556500D02*
X7518500Y-7660500D01*
X7518500Y-7556500D02*
X7414500Y-7660500D01*
X7518500Y-7608500D02*
G75*
G03X7518500Y-7608500I-52000J0D01*
G01*
X7414500Y-7810500D02*
X7518500Y-7914500D01*
X7518500Y-7810500D02*
X7414500Y-7914500D01*
X7518500Y-7862500D02*
G75*
G03X7518500Y-7862500I-52000J0D01*
G01*
X7414500Y-8064500D02*
X7518500Y-8168500D01*
X7518500Y-8064500D02*
X7414500Y-8168500D01*
X7518500Y-8116500D02*
G75*
G03X7518500Y-8116500I-52000J0D01*
G01*
X7414500Y-8318500D02*
X7518500Y-8422500D01*
X7518500Y-8318500D02*
X7414500Y-8422500D01*
X7518500Y-8370500D02*
G75*
G03X7518500Y-8370500I-52000J0D01*
G01*
X7414500Y-8572500D02*
X7518500Y-8676500D01*
X7518500Y-8572500D02*
X7414500Y-8676500D01*
X7518500Y-8624500D02*
G75*
G03X7518500Y-8624500I-52000J0D01*
G01*
X7414500Y-8826500D02*
X7518500Y-8930500D01*
X7518500Y-8826500D02*
X7414500Y-8930500D01*
X7518500Y-8878500D02*
G75*
G03X7518500Y-8878500I-52000J0D01*
G01*
X7414500Y-9080500D02*
X7518500Y-9184500D01*
X7518500Y-9080500D02*
X7414500Y-9184500D01*
X7518500Y-9132500D02*
G75*
G03X7518500Y-9132500I-52000J0D01*
G01*
X7414500Y-9334500D02*
X7518500Y-9438500D01*
X7518500Y-9334500D02*
X7414500Y-9438500D01*
X7518500Y-9386500D02*
G75*
G03X7518500Y-9386500I-52000J0D01*
G01*
X7414500Y-9588500D02*
X7518500Y-9692500D01*
X7518500Y-9588500D02*
X7414500Y-9692500D01*
X7518500Y-9640500D02*
G75*
G03X7518500Y-9640500I-52000J0D01*
G01*
X7414500Y-9842500D02*
X7518500Y-9946500D01*
X7518500Y-9842500D02*
X7414500Y-9946500D01*
X7518500Y-9894500D02*
G75*
G03X7518500Y-9894500I-52000J0D01*
G01*
X7414500Y-10096500D02*
X7518500Y-10200500D01*
X7518500Y-10096500D02*
X7414500Y-10200500D01*
X7518500Y-10148500D02*
G75*
G03X7518500Y-10148500I-52000J0D01*
G01*
X7414500Y-10350500D02*
X7518500Y-10454500D01*
X7518500Y-10350500D02*
X7414500Y-10454500D01*
X7518500Y-10402500D02*
G75*
G03X7518500Y-10402500I-52000J0D01*
G01*
X7414500Y-10604500D02*
X7518500Y-10708500D01*
X7518500Y-10604500D02*
X7414500Y-10708500D01*
X7518500Y-10656500D02*
G75*
G03X7518500Y-10656500I-52000J0D01*
G01*
X7414500Y-10858500D02*
X7518500Y-10962500D01*
X7518500Y-10858500D02*
X7414500Y-10962500D01*
X7518500Y-10910500D02*
G75*
G03X7518500Y-10910500I-52000J0D01*
G01*
X7414500Y-11112500D02*
X7518500Y-11216500D01*
X7518500Y-11112500D02*
X7414500Y-11216500D01*
X7518500Y-11164500D02*
G75*
G03X7518500Y-11164500I-52000J0D01*
G01*
X7414500Y-11366500D02*
X7518500Y-11470500D01*
X7518500Y-11366500D02*
X7414500Y-11470500D01*
X7518500Y-11418500D02*
G75*
G03X7518500Y-11418500I-52000J0D01*
G01*
X7414500Y-11620500D02*
X7518500Y-11724500D01*
X7518500Y-11620500D02*
X7414500Y-11724500D01*
X7518500Y-11672500D02*
G75*
G03X7518500Y-11672500I-52000J0D01*
G01*
X7414500Y-11874500D02*
X7518500Y-11978500D01*
X7518500Y-11874500D02*
X7414500Y-11978500D01*
X7518500Y-11926500D02*
G75*
G03X7518500Y-11926500I-52000J0D01*
G01*
X9954500Y-7302500D02*
X10058500Y-7406500D01*
X10058500Y-7302500D02*
X9954500Y-7406500D01*
X10058500Y-7354500D02*
G75*
G03X10058500Y-7354500I-52000J0D01*
G01*
X9954500Y-7556500D02*
X10058500Y-7660500D01*
X10058500Y-7556500D02*
X9954500Y-7660500D01*
X10058500Y-7608500D02*
G75*
G03X10058500Y-7608500I-52000J0D01*
G01*
X9954500Y-7810500D02*
X10058500Y-7914500D01*
X10058500Y-7810500D02*
X9954500Y-7914500D01*
X10058500Y-7862500D02*
G75*
G03X10058500Y-7862500I-52000J0D01*
G01*
X9954500Y-8064500D02*
X10058500Y-8168500D01*
X10058500Y-8064500D02*
X9954500Y-8168500D01*
X10058500Y-8116500D02*
G75*
G03X10058500Y-8116500I-52000J0D01*
G01*
X9954500Y-8318500D02*
X10058500Y-8422500D01*
X10058500Y-8318500D02*
X9954500Y-8422500D01*
X10058500Y-8370500D02*
G75*
G03X10058500Y-8370500I-52000J0D01*
G01*
X9954500Y-8572500D02*
X10058500Y-8676500D01*
X10058500Y-8572500D02*
X9954500Y-8676500D01*
X10058500Y-8624500D02*
G75*
G03X10058500Y-8624500I-52000J0D01*
G01*
X9954500Y-8826500D02*
X10058500Y-8930500D01*
X10058500Y-8826500D02*
X9954500Y-8930500D01*
X10058500Y-8878500D02*
G75*
G03X10058500Y-8878500I-52000J0D01*
G01*
X9954500Y-9080500D02*
X10058500Y-9184500D01*
X10058500Y-9080500D02*
X9954500Y-9184500D01*
X10058500Y-9132500D02*
G75*
G03X10058500Y-9132500I-52000J0D01*
G01*
X9954500Y-9334500D02*
X10058500Y-9438500D01*
X10058500Y-9334500D02*
X9954500Y-9438500D01*
X10058500Y-9386500D02*
G75*
G03X10058500Y-9386500I-52000J0D01*
G01*
X9954500Y-9588500D02*
X10058500Y-9692500D01*
X10058500Y-9588500D02*
X9954500Y-9692500D01*
X10058500Y-9640500D02*
G75*
G03X10058500Y-9640500I-52000J0D01*
G01*
X9954500Y-9842500D02*
X10058500Y-9946500D01*
X10058500Y-9842500D02*
X9954500Y-9946500D01*
X10058500Y-9894500D02*
G75*
G03X10058500Y-9894500I-52000J0D01*
G01*
X9954500Y-10096500D02*
X10058500Y-10200500D01*
X10058500Y-10096500D02*
X9954500Y-10200500D01*
X10058500Y-10148500D02*
G75*
G03X10058500Y-10148500I-52000J0D01*
G01*
X9954500Y-10350500D02*
X10058500Y-10454500D01*
X10058500Y-10350500D02*
X9954500Y-10454500D01*
X10058500Y-10402500D02*
G75*
G03X10058500Y-10402500I-52000J0D01*
G01*
X9954500Y-10604500D02*
X10058500Y-10708500D01*
X10058500Y-10604500D02*
X9954500Y-10708500D01*
X10058500Y-10656500D02*
G75*
G03X10058500Y-10656500I-52000J0D01*
G01*
X9954500Y-10858500D02*
X10058500Y-10962500D01*
X10058500Y-10858500D02*
X9954500Y-10962500D01*
X10058500Y-10910500D02*
G75*
G03X10058500Y-10910500I-52000J0D01*
G01*
X9954500Y-11112500D02*
X10058500Y-11216500D01*
X10058500Y-11112500D02*
X9954500Y-11216500D01*
X10058500Y-11164500D02*
G75*
G03X10058500Y-11164500I-52000J0D01*
G01*
X9954500Y-11366500D02*
X10058500Y-11470500D01*
X10058500Y-11366500D02*
X9954500Y-11470500D01*
X10058500Y-11418500D02*
G75*
G03X10058500Y-11418500I-52000J0D01*
G01*
X9954500Y-11620500D02*
X10058500Y-11724500D01*
X10058500Y-11620500D02*
X9954500Y-11724500D01*
X10058500Y-11672500D02*
G75*
G03X10058500Y-11672500I-52000J0D01*
G01*
X9954500Y-11874500D02*
X10058500Y-11978500D01*
X10058500Y-11874500D02*
X9954500Y-11978500D01*
X10058500Y-11926500D02*
G75*
G03X10058500Y-11926500I-52000J0D01*
G01*
X15245000Y-4257500D02*
X15435000Y-4447500D01*
X15435000Y-4257500D02*
X15245000Y-4447500D01*
X15340000Y-4257500D02*
X15340000Y-4447500D01*
X15245000Y-4352500D02*
X15435000Y-4352500D01*
X15245000Y-4757500D02*
X15435000Y-4947500D01*
X15435000Y-4757500D02*
X15245000Y-4947500D01*
X15340000Y-4757500D02*
X15340000Y-4947500D01*
X15245000Y-4852500D02*
X15435000Y-4852500D01*
X15492000Y-7849500D02*
X15812000Y-8169500D01*
X15812000Y-7849500D02*
X15492000Y-8169500D01*
X15765138Y-8122638D02*
X15765138Y-7896362D01*
X15538862Y-7896362D01*
X15538862Y-8122638D01*
X15765138Y-8122638D01*
X15492000Y-12559500D02*
X15812000Y-12879500D01*
X15812000Y-12559500D02*
X15492000Y-12879500D01*
X15765138Y-12832638D02*
X15765138Y-12606362D01*
X15538862Y-12606362D01*
X15538862Y-12832638D01*
X15765138Y-12832638D01*
D12*
X7348928Y-14003214D02*
X7348928Y-13703214D01*
X7420357Y-13703214D01*
X7463214Y-13717500D01*
X7491786Y-13746071D01*
X7506071Y-13774643D01*
X7520357Y-13831786D01*
X7520357Y-13874643D01*
X7506071Y-13931786D01*
X7491786Y-13960357D01*
X7463214Y-13988929D01*
X7420357Y-14003214D01*
X7348928Y-14003214D01*
X7648928Y-14003214D02*
X7648928Y-13803214D01*
X7648928Y-13860357D02*
X7663214Y-13831786D01*
X7677500Y-13817500D01*
X7706071Y-13803214D01*
X7734643Y-13803214D01*
X7834643Y-14003214D02*
X7834643Y-13803214D01*
X7834643Y-13703214D02*
X7820357Y-13717500D01*
X7834643Y-13731786D01*
X7848928Y-13717500D01*
X7834643Y-13703214D01*
X7834643Y-13731786D01*
X8020357Y-14003214D02*
X7991786Y-13988929D01*
X7977500Y-13960357D01*
X7977500Y-13703214D01*
X8177500Y-14003214D02*
X8148928Y-13988929D01*
X8134643Y-13960357D01*
X8134643Y-13703214D01*
X8520357Y-14003214D02*
X8520357Y-13703214D01*
X8620357Y-13917500D01*
X8720357Y-13703214D01*
X8720357Y-14003214D01*
X8991786Y-14003214D02*
X8991786Y-13846071D01*
X8977500Y-13817500D01*
X8948928Y-13803214D01*
X8891786Y-13803214D01*
X8863214Y-13817500D01*
X8991786Y-13988929D02*
X8963214Y-14003214D01*
X8891786Y-14003214D01*
X8863214Y-13988929D01*
X8848928Y-13960357D01*
X8848928Y-13931786D01*
X8863214Y-13903214D01*
X8891786Y-13888929D01*
X8963214Y-13888929D01*
X8991786Y-13874643D01*
X9134643Y-13803214D02*
X9134643Y-14103214D01*
X9134643Y-13817500D02*
X9163214Y-13803214D01*
X9220357Y-13803214D01*
X9248928Y-13817500D01*
X9263214Y-13831786D01*
X9277500Y-13860357D01*
X9277500Y-13946071D01*
X9263214Y-13974643D01*
X9248928Y-13988929D01*
X9220357Y-14003214D01*
X9163214Y-14003214D01*
X9134643Y-13988929D01*
X9406071Y-13974643D02*
X9420357Y-13988929D01*
X9406071Y-14003214D01*
X9391786Y-13988929D01*
X9406071Y-13974643D01*
X9406071Y-14003214D01*
X9406071Y-13817500D02*
X9420357Y-13831786D01*
X9406071Y-13846071D01*
X9391786Y-13831786D01*
X9406071Y-13817500D01*
X9406071Y-13846071D01*
X7032500Y-14482500D02*
X7062500Y-14512500D01*
X7062500Y-14482500D02*
X7032500Y-14512500D01*
X7406071Y-14333214D02*
X7434643Y-14333214D01*
X7463214Y-14347500D01*
X7477500Y-14361786D01*
X7491786Y-14390357D01*
X7506071Y-14447500D01*
X7506071Y-14518929D01*
X7491786Y-14576071D01*
X7477500Y-14604643D01*
X7463214Y-14618929D01*
X7434643Y-14633214D01*
X7406071Y-14633214D01*
X7377500Y-14618929D01*
X7363214Y-14604643D01*
X7348928Y-14576071D01*
X7334643Y-14518929D01*
X7334643Y-14447500D01*
X7348928Y-14390357D01*
X7363214Y-14361786D01*
X7377500Y-14347500D01*
X7406071Y-14333214D01*
X7634643Y-14604643D02*
X7648928Y-14618929D01*
X7634643Y-14633214D01*
X7620357Y-14618929D01*
X7634643Y-14604643D01*
X7634643Y-14633214D01*
X7748928Y-14333214D02*
X7934643Y-14333214D01*
X7834643Y-14447500D01*
X7877500Y-14447500D01*
X7906071Y-14461786D01*
X7920357Y-14476071D01*
X7934643Y-14504643D01*
X7934643Y-14576071D01*
X7920357Y-14604643D01*
X7906071Y-14618929D01*
X7877500Y-14633214D01*
X7791786Y-14633214D01*
X7763214Y-14618929D01*
X7748928Y-14604643D01*
X8120357Y-14333214D02*
X8148928Y-14333214D01*
X8177500Y-14347500D01*
X8191786Y-14361786D01*
X8206071Y-14390357D01*
X8220357Y-14447500D01*
X8220357Y-14518929D01*
X8206071Y-14576071D01*
X8191786Y-14604643D01*
X8177500Y-14618929D01*
X8148928Y-14633214D01*
X8120357Y-14633214D01*
X8091786Y-14618929D01*
X8077500Y-14604643D01*
X8063214Y-14576071D01*
X8048928Y-14518929D01*
X8048928Y-14447500D01*
X8063214Y-14390357D01*
X8077500Y-14361786D01*
X8091786Y-14347500D01*
X8120357Y-14333214D01*
X8348928Y-14633214D02*
X8348928Y-14433214D01*
X8348928Y-14461786D02*
X8363214Y-14447500D01*
X8391786Y-14433214D01*
X8434643Y-14433214D01*
X8463214Y-14447500D01*
X8477500Y-14476071D01*
X8477500Y-14633214D01*
X8477500Y-14476071D02*
X8491786Y-14447500D01*
X8520357Y-14433214D01*
X8563214Y-14433214D01*
X8591786Y-14447500D01*
X8606071Y-14476071D01*
X8606071Y-14633214D01*
X8748928Y-14633214D02*
X8748928Y-14433214D01*
X8748928Y-14461786D02*
X8763214Y-14447500D01*
X8791786Y-14433214D01*
X8834643Y-14433214D01*
X8863214Y-14447500D01*
X8877500Y-14476071D01*
X8877500Y-14633214D01*
X8877500Y-14476071D02*
X8891786Y-14447500D01*
X8920357Y-14433214D01*
X8963214Y-14433214D01*
X8991786Y-14447500D01*
X9006071Y-14476071D01*
X9006071Y-14633214D01*
X9591786Y-14318929D02*
X9334643Y-14704643D01*
X9977500Y-14333214D02*
X10006071Y-14333214D01*
X10034643Y-14347500D01*
X10048928Y-14361786D01*
X10063214Y-14390357D01*
X10077500Y-14447500D01*
X10077500Y-14518929D01*
X10063214Y-14576071D01*
X10048928Y-14604643D01*
X10034643Y-14618929D01*
X10006071Y-14633214D01*
X9977500Y-14633214D01*
X9948928Y-14618929D01*
X9934643Y-14604643D01*
X9920357Y-14576071D01*
X9906071Y-14518929D01*
X9906071Y-14447500D01*
X9920357Y-14390357D01*
X9934643Y-14361786D01*
X9948928Y-14347500D01*
X9977500Y-14333214D01*
X10206071Y-14604643D02*
X10220357Y-14618929D01*
X10206071Y-14633214D01*
X10191786Y-14618929D01*
X10206071Y-14604643D01*
X10206071Y-14633214D01*
X10406071Y-14333214D02*
X10434643Y-14333214D01*
X10463214Y-14347500D01*
X10477500Y-14361786D01*
X10491786Y-14390357D01*
X10506071Y-14447500D01*
X10506071Y-14518929D01*
X10491786Y-14576071D01*
X10477500Y-14604643D01*
X10463214Y-14618929D01*
X10434643Y-14633214D01*
X10406071Y-14633214D01*
X10377500Y-14618929D01*
X10363214Y-14604643D01*
X10348928Y-14576071D01*
X10334643Y-14518929D01*
X10334643Y-14447500D01*
X10348928Y-14390357D01*
X10363214Y-14361786D01*
X10377500Y-14347500D01*
X10406071Y-14333214D01*
X10791786Y-14633214D02*
X10620357Y-14633214D01*
X10706071Y-14633214D02*
X10706071Y-14333214D01*
X10677500Y-14376071D01*
X10648928Y-14404643D01*
X10620357Y-14418929D01*
X10906071Y-14361786D02*
X10920357Y-14347500D01*
X10948928Y-14333214D01*
X11020357Y-14333214D01*
X11048928Y-14347500D01*
X11063214Y-14361786D01*
X11077500Y-14390357D01*
X11077500Y-14418929D01*
X11063214Y-14461786D01*
X10891786Y-14633214D01*
X11077500Y-14633214D01*
X11191786Y-14333214D02*
X11191786Y-14390357D01*
X11306071Y-14333214D02*
X11306071Y-14390357D01*
X11748928Y-14747500D02*
X11734643Y-14733214D01*
X11706071Y-14690357D01*
X11691786Y-14661786D01*
X11677500Y-14618929D01*
X11663214Y-14547500D01*
X11663214Y-14490357D01*
X11677500Y-14418929D01*
X11691786Y-14376071D01*
X11706071Y-14347500D01*
X11734643Y-14304643D01*
X11748928Y-14290357D01*
X11906071Y-14461786D02*
X11877500Y-14447500D01*
X11863214Y-14433214D01*
X11848928Y-14404643D01*
X11848928Y-14390357D01*
X11863214Y-14361786D01*
X11877500Y-14347500D01*
X11906071Y-14333214D01*
X11963214Y-14333214D01*
X11991786Y-14347500D01*
X12006071Y-14361786D01*
X12020357Y-14390357D01*
X12020357Y-14404643D01*
X12006071Y-14433214D01*
X11991786Y-14447500D01*
X11963214Y-14461786D01*
X11906071Y-14461786D01*
X11877500Y-14476071D01*
X11863214Y-14490357D01*
X11848928Y-14518929D01*
X11848928Y-14576071D01*
X11863214Y-14604643D01*
X11877500Y-14618929D01*
X11906071Y-14633214D01*
X11963214Y-14633214D01*
X11991786Y-14618929D01*
X12006071Y-14604643D01*
X12020357Y-14576071D01*
X12020357Y-14518929D01*
X12006071Y-14490357D01*
X11991786Y-14476071D01*
X11963214Y-14461786D01*
X12377500Y-14633214D02*
X12377500Y-14333214D01*
X12506071Y-14633214D02*
X12506071Y-14476071D01*
X12491786Y-14447500D01*
X12463214Y-14433214D01*
X12420357Y-14433214D01*
X12391786Y-14447500D01*
X12377500Y-14461786D01*
X12691786Y-14633214D02*
X12663214Y-14618929D01*
X12648928Y-14604643D01*
X12634643Y-14576071D01*
X12634643Y-14490357D01*
X12648928Y-14461786D01*
X12663214Y-14447500D01*
X12691786Y-14433214D01*
X12734643Y-14433214D01*
X12763214Y-14447500D01*
X12777500Y-14461786D01*
X12791786Y-14490357D01*
X12791786Y-14576071D01*
X12777500Y-14604643D01*
X12763214Y-14618929D01*
X12734643Y-14633214D01*
X12691786Y-14633214D01*
X12963214Y-14633214D02*
X12934643Y-14618929D01*
X12920357Y-14590357D01*
X12920357Y-14333214D01*
X13191786Y-14618929D02*
X13163214Y-14633214D01*
X13106071Y-14633214D01*
X13077500Y-14618929D01*
X13063214Y-14590357D01*
X13063214Y-14476071D01*
X13077500Y-14447500D01*
X13106071Y-14433214D01*
X13163214Y-14433214D01*
X13191786Y-14447500D01*
X13206071Y-14476071D01*
X13206071Y-14504643D01*
X13063214Y-14533214D01*
X13320357Y-14618929D02*
X13348928Y-14633214D01*
X13406071Y-14633214D01*
X13434643Y-14618929D01*
X13448928Y-14590357D01*
X13448928Y-14576071D01*
X13434643Y-14547500D01*
X13406071Y-14533214D01*
X13363214Y-14533214D01*
X13334643Y-14518929D01*
X13320357Y-14490357D01*
X13320357Y-14476071D01*
X13334643Y-14447500D01*
X13363214Y-14433214D01*
X13406071Y-14433214D01*
X13434643Y-14447500D01*
X13548928Y-14747500D02*
X13563214Y-14733214D01*
X13591786Y-14690357D01*
X13606071Y-14661786D01*
X13620357Y-14618929D01*
X13634643Y-14547500D01*
X13634643Y-14490357D01*
X13620357Y-14418929D01*
X13606071Y-14376071D01*
X13591786Y-14347500D01*
X13563214Y-14304643D01*
X13548928Y-14290357D01*
X7062500Y-14893500D02*
G75*
G03X7062500Y-14893500I-20000J0D01*
G01*
X7406071Y-14729214D02*
X7434643Y-14729214D01*
X7463214Y-14743500D01*
X7477500Y-14757786D01*
X7491786Y-14786357D01*
X7506071Y-14843500D01*
X7506071Y-14914929D01*
X7491786Y-14972071D01*
X7477500Y-15000643D01*
X7463214Y-15014929D01*
X7434643Y-15029214D01*
X7406071Y-15029214D01*
X7377500Y-15014929D01*
X7363214Y-15000643D01*
X7348928Y-14972071D01*
X7334643Y-14914929D01*
X7334643Y-14843500D01*
X7348928Y-14786357D01*
X7363214Y-14757786D01*
X7377500Y-14743500D01*
X7406071Y-14729214D01*
X7634643Y-15000643D02*
X7648928Y-15014929D01*
X7634643Y-15029214D01*
X7620357Y-15014929D01*
X7634643Y-15000643D01*
X7634643Y-15029214D01*
X7906071Y-14829214D02*
X7906071Y-15029214D01*
X7834643Y-14714929D02*
X7763214Y-14929214D01*
X7948928Y-14929214D01*
X8120357Y-14729214D02*
X8148928Y-14729214D01*
X8177500Y-14743500D01*
X8191786Y-14757786D01*
X8206071Y-14786357D01*
X8220357Y-14843500D01*
X8220357Y-14914929D01*
X8206071Y-14972071D01*
X8191786Y-15000643D01*
X8177500Y-15014929D01*
X8148928Y-15029214D01*
X8120357Y-15029214D01*
X8091786Y-15014929D01*
X8077500Y-15000643D01*
X8063214Y-14972071D01*
X8048928Y-14914929D01*
X8048928Y-14843500D01*
X8063214Y-14786357D01*
X8077500Y-14757786D01*
X8091786Y-14743500D01*
X8120357Y-14729214D01*
X8348928Y-15029214D02*
X8348928Y-14829214D01*
X8348928Y-14857786D02*
X8363214Y-14843500D01*
X8391786Y-14829214D01*
X8434643Y-14829214D01*
X8463214Y-14843500D01*
X8477500Y-14872071D01*
X8477500Y-15029214D01*
X8477500Y-14872071D02*
X8491786Y-14843500D01*
X8520357Y-14829214D01*
X8563214Y-14829214D01*
X8591786Y-14843500D01*
X8606071Y-14872071D01*
X8606071Y-15029214D01*
X8748928Y-15029214D02*
X8748928Y-14829214D01*
X8748928Y-14857786D02*
X8763214Y-14843500D01*
X8791786Y-14829214D01*
X8834643Y-14829214D01*
X8863214Y-14843500D01*
X8877500Y-14872071D01*
X8877500Y-15029214D01*
X8877500Y-14872071D02*
X8891786Y-14843500D01*
X8920357Y-14829214D01*
X8963214Y-14829214D01*
X8991786Y-14843500D01*
X9006071Y-14872071D01*
X9006071Y-15029214D01*
X9591786Y-14714929D02*
X9334643Y-15100643D01*
X9977500Y-14729214D02*
X10006071Y-14729214D01*
X10034643Y-14743500D01*
X10048928Y-14757786D01*
X10063214Y-14786357D01*
X10077500Y-14843500D01*
X10077500Y-14914929D01*
X10063214Y-14972071D01*
X10048928Y-15000643D01*
X10034643Y-15014929D01*
X10006071Y-15029214D01*
X9977500Y-15029214D01*
X9948928Y-15014929D01*
X9934643Y-15000643D01*
X9920357Y-14972071D01*
X9906071Y-14914929D01*
X9906071Y-14843500D01*
X9920357Y-14786357D01*
X9934643Y-14757786D01*
X9948928Y-14743500D01*
X9977500Y-14729214D01*
X10206071Y-15000643D02*
X10220357Y-15014929D01*
X10206071Y-15029214D01*
X10191786Y-15014929D01*
X10206071Y-15000643D01*
X10206071Y-15029214D01*
X10406071Y-14729214D02*
X10434643Y-14729214D01*
X10463214Y-14743500D01*
X10477500Y-14757786D01*
X10491786Y-14786357D01*
X10506071Y-14843500D01*
X10506071Y-14914929D01*
X10491786Y-14972071D01*
X10477500Y-15000643D01*
X10463214Y-15014929D01*
X10434643Y-15029214D01*
X10406071Y-15029214D01*
X10377500Y-15014929D01*
X10363214Y-15000643D01*
X10348928Y-14972071D01*
X10334643Y-14914929D01*
X10334643Y-14843500D01*
X10348928Y-14786357D01*
X10363214Y-14757786D01*
X10377500Y-14743500D01*
X10406071Y-14729214D01*
X10791786Y-15029214D02*
X10620357Y-15029214D01*
X10706071Y-15029214D02*
X10706071Y-14729214D01*
X10677500Y-14772071D01*
X10648928Y-14800643D01*
X10620357Y-14814929D01*
X11048928Y-14729214D02*
X10991786Y-14729214D01*
X10963214Y-14743500D01*
X10948928Y-14757786D01*
X10920357Y-14800643D01*
X10906071Y-14857786D01*
X10906071Y-14972071D01*
X10920357Y-15000643D01*
X10934643Y-15014929D01*
X10963214Y-15029214D01*
X11020357Y-15029214D01*
X11048928Y-15014929D01*
X11063214Y-15000643D01*
X11077500Y-14972071D01*
X11077500Y-14900643D01*
X11063214Y-14872071D01*
X11048928Y-14857786D01*
X11020357Y-14843500D01*
X10963214Y-14843500D01*
X10934643Y-14857786D01*
X10920357Y-14872071D01*
X10906071Y-14900643D01*
X11191786Y-14729214D02*
X11191786Y-14786357D01*
X11306071Y-14729214D02*
X11306071Y-14786357D01*
X11748928Y-15143500D02*
X11734643Y-15129214D01*
X11706071Y-15086357D01*
X11691786Y-15057786D01*
X11677500Y-15014929D01*
X11663214Y-14943500D01*
X11663214Y-14886357D01*
X11677500Y-14814929D01*
X11691786Y-14772071D01*
X11706071Y-14743500D01*
X11734643Y-14700643D01*
X11748928Y-14686357D01*
X12020357Y-15029214D02*
X11848928Y-15029214D01*
X11934643Y-15029214D02*
X11934643Y-14729214D01*
X11906071Y-14772071D01*
X11877500Y-14800643D01*
X11848928Y-14814929D01*
X12163214Y-15029214D02*
X12220357Y-15029214D01*
X12248928Y-15014929D01*
X12263214Y-15000643D01*
X12291786Y-14957786D01*
X12306071Y-14900643D01*
X12306071Y-14786357D01*
X12291786Y-14757786D01*
X12277500Y-14743500D01*
X12248928Y-14729214D01*
X12191786Y-14729214D01*
X12163214Y-14743500D01*
X12148928Y-14757786D01*
X12134643Y-14786357D01*
X12134643Y-14857786D01*
X12148928Y-14886357D01*
X12163214Y-14900643D01*
X12191786Y-14914929D01*
X12248928Y-14914929D01*
X12277500Y-14900643D01*
X12291786Y-14886357D01*
X12306071Y-14857786D01*
X12663214Y-15029214D02*
X12663214Y-14729214D01*
X12791786Y-15029214D02*
X12791786Y-14872071D01*
X12777500Y-14843500D01*
X12748928Y-14829214D01*
X12706071Y-14829214D01*
X12677500Y-14843500D01*
X12663214Y-14857786D01*
X12977500Y-15029214D02*
X12948928Y-15014929D01*
X12934643Y-15000643D01*
X12920357Y-14972071D01*
X12920357Y-14886357D01*
X12934643Y-14857786D01*
X12948928Y-14843500D01*
X12977500Y-14829214D01*
X13020357Y-14829214D01*
X13048928Y-14843500D01*
X13063214Y-14857786D01*
X13077500Y-14886357D01*
X13077500Y-14972071D01*
X13063214Y-15000643D01*
X13048928Y-15014929D01*
X13020357Y-15029214D01*
X12977500Y-15029214D01*
X13248928Y-15029214D02*
X13220357Y-15014929D01*
X13206071Y-14986357D01*
X13206071Y-14729214D01*
X13477500Y-15014929D02*
X13448928Y-15029214D01*
X13391786Y-15029214D01*
X13363214Y-15014929D01*
X13348928Y-14986357D01*
X13348928Y-14872071D01*
X13363214Y-14843500D01*
X13391786Y-14829214D01*
X13448928Y-14829214D01*
X13477500Y-14843500D01*
X13491786Y-14872071D01*
X13491786Y-14900643D01*
X13348928Y-14929214D01*
X13606071Y-15014929D02*
X13634643Y-15029214D01*
X13691786Y-15029214D01*
X13720357Y-15014929D01*
X13734643Y-14986357D01*
X13734643Y-14972071D01*
X13720357Y-14943500D01*
X13691786Y-14929214D01*
X13648928Y-14929214D01*
X13620357Y-14914929D01*
X13606071Y-14886357D01*
X13606071Y-14872071D01*
X13620357Y-14843500D01*
X13648928Y-14829214D01*
X13691786Y-14829214D01*
X13720357Y-14843500D01*
X13834643Y-15143500D02*
X13848928Y-15129214D01*
X13877500Y-15086357D01*
X13891786Y-15057786D01*
X13906071Y-15014929D01*
X13920357Y-14943500D01*
X13920357Y-14886357D01*
X13906071Y-14814929D01*
X13891786Y-14772071D01*
X13877500Y-14743500D01*
X13848928Y-14700643D01*
X13834643Y-14686357D01*
X7032500Y-15259500D02*
X7032500Y-15319500D01*
X7002500Y-15289500D02*
X7062500Y-15289500D01*
X7406071Y-15125214D02*
X7434643Y-15125214D01*
X7463214Y-15139500D01*
X7477500Y-15153786D01*
X7491786Y-15182357D01*
X7506071Y-15239500D01*
X7506071Y-15310929D01*
X7491786Y-15368071D01*
X7477500Y-15396643D01*
X7463214Y-15410929D01*
X7434643Y-15425214D01*
X7406071Y-15425214D01*
X7377500Y-15410929D01*
X7363214Y-15396643D01*
X7348928Y-15368071D01*
X7334643Y-15310929D01*
X7334643Y-15239500D01*
X7348928Y-15182357D01*
X7363214Y-15153786D01*
X7377500Y-15139500D01*
X7406071Y-15125214D01*
X7634643Y-15396643D02*
X7648928Y-15410929D01*
X7634643Y-15425214D01*
X7620357Y-15410929D01*
X7634643Y-15396643D01*
X7634643Y-15425214D01*
X7906071Y-15125214D02*
X7848928Y-15125214D01*
X7820357Y-15139500D01*
X7806071Y-15153786D01*
X7777500Y-15196643D01*
X7763214Y-15253786D01*
X7763214Y-15368071D01*
X7777500Y-15396643D01*
X7791786Y-15410929D01*
X7820357Y-15425214D01*
X7877500Y-15425214D01*
X7906071Y-15410929D01*
X7920357Y-15396643D01*
X7934643Y-15368071D01*
X7934643Y-15296643D01*
X7920357Y-15268071D01*
X7906071Y-15253786D01*
X7877500Y-15239500D01*
X7820357Y-15239500D01*
X7791786Y-15253786D01*
X7777500Y-15268071D01*
X7763214Y-15296643D01*
X8120357Y-15125214D02*
X8148928Y-15125214D01*
X8177500Y-15139500D01*
X8191786Y-15153786D01*
X8206071Y-15182357D01*
X8220357Y-15239500D01*
X8220357Y-15310929D01*
X8206071Y-15368071D01*
X8191786Y-15396643D01*
X8177500Y-15410929D01*
X8148928Y-15425214D01*
X8120357Y-15425214D01*
X8091786Y-15410929D01*
X8077500Y-15396643D01*
X8063214Y-15368071D01*
X8048928Y-15310929D01*
X8048928Y-15239500D01*
X8063214Y-15182357D01*
X8077500Y-15153786D01*
X8091786Y-15139500D01*
X8120357Y-15125214D01*
X8348928Y-15425214D02*
X8348928Y-15225214D01*
X8348928Y-15253786D02*
X8363214Y-15239500D01*
X8391786Y-15225214D01*
X8434643Y-15225214D01*
X8463214Y-15239500D01*
X8477500Y-15268071D01*
X8477500Y-15425214D01*
X8477500Y-15268071D02*
X8491786Y-15239500D01*
X8520357Y-15225214D01*
X8563214Y-15225214D01*
X8591786Y-15239500D01*
X8606071Y-15268071D01*
X8606071Y-15425214D01*
X8748928Y-15425214D02*
X8748928Y-15225214D01*
X8748928Y-15253786D02*
X8763214Y-15239500D01*
X8791786Y-15225214D01*
X8834643Y-15225214D01*
X8863214Y-15239500D01*
X8877500Y-15268071D01*
X8877500Y-15425214D01*
X8877500Y-15268071D02*
X8891786Y-15239500D01*
X8920357Y-15225214D01*
X8963214Y-15225214D01*
X8991786Y-15239500D01*
X9006071Y-15268071D01*
X9006071Y-15425214D01*
X9591786Y-15110929D02*
X9334643Y-15496643D01*
X9977500Y-15125214D02*
X10006071Y-15125214D01*
X10034643Y-15139500D01*
X10048928Y-15153786D01*
X10063214Y-15182357D01*
X10077500Y-15239500D01*
X10077500Y-15310929D01*
X10063214Y-15368071D01*
X10048928Y-15396643D01*
X10034643Y-15410929D01*
X10006071Y-15425214D01*
X9977500Y-15425214D01*
X9948928Y-15410929D01*
X9934643Y-15396643D01*
X9920357Y-15368071D01*
X9906071Y-15310929D01*
X9906071Y-15239500D01*
X9920357Y-15182357D01*
X9934643Y-15153786D01*
X9948928Y-15139500D01*
X9977500Y-15125214D01*
X10206071Y-15396643D02*
X10220357Y-15410929D01*
X10206071Y-15425214D01*
X10191786Y-15410929D01*
X10206071Y-15396643D01*
X10206071Y-15425214D01*
X10406071Y-15125214D02*
X10434643Y-15125214D01*
X10463214Y-15139500D01*
X10477500Y-15153786D01*
X10491786Y-15182357D01*
X10506071Y-15239500D01*
X10506071Y-15310929D01*
X10491786Y-15368071D01*
X10477500Y-15396643D01*
X10463214Y-15410929D01*
X10434643Y-15425214D01*
X10406071Y-15425214D01*
X10377500Y-15410929D01*
X10363214Y-15396643D01*
X10348928Y-15368071D01*
X10334643Y-15310929D01*
X10334643Y-15239500D01*
X10348928Y-15182357D01*
X10363214Y-15153786D01*
X10377500Y-15139500D01*
X10406071Y-15125214D01*
X10620357Y-15153786D02*
X10634643Y-15139500D01*
X10663214Y-15125214D01*
X10734643Y-15125214D01*
X10763214Y-15139500D01*
X10777500Y-15153786D01*
X10791786Y-15182357D01*
X10791786Y-15210929D01*
X10777500Y-15253786D01*
X10606071Y-15425214D01*
X10791786Y-15425214D01*
X11048928Y-15225214D02*
X11048928Y-15425214D01*
X10977500Y-15110929D02*
X10906071Y-15325214D01*
X11091786Y-15325214D01*
X11191786Y-15125214D02*
X11191786Y-15182357D01*
X11306071Y-15125214D02*
X11306071Y-15182357D01*
X11748928Y-15539500D02*
X11734643Y-15525214D01*
X11706071Y-15482357D01*
X11691786Y-15453786D01*
X11677500Y-15410929D01*
X11663214Y-15339500D01*
X11663214Y-15282357D01*
X11677500Y-15210929D01*
X11691786Y-15168071D01*
X11706071Y-15139500D01*
X11734643Y-15096643D01*
X11748928Y-15082357D01*
X12006071Y-15125214D02*
X11863214Y-15125214D01*
X11848928Y-15268071D01*
X11863214Y-15253786D01*
X11891786Y-15239500D01*
X11963214Y-15239500D01*
X11991786Y-15253786D01*
X12006071Y-15268071D01*
X12020357Y-15296643D01*
X12020357Y-15368071D01*
X12006071Y-15396643D01*
X11991786Y-15410929D01*
X11963214Y-15425214D01*
X11891786Y-15425214D01*
X11863214Y-15410929D01*
X11848928Y-15396643D01*
X12377500Y-15425214D02*
X12377500Y-15125214D01*
X12506071Y-15425214D02*
X12506071Y-15268071D01*
X12491786Y-15239500D01*
X12463214Y-15225214D01*
X12420357Y-15225214D01*
X12391786Y-15239500D01*
X12377500Y-15253786D01*
X12691786Y-15425214D02*
X12663214Y-15410929D01*
X12648928Y-15396643D01*
X12634643Y-15368071D01*
X12634643Y-15282357D01*
X12648928Y-15253786D01*
X12663214Y-15239500D01*
X12691786Y-15225214D01*
X12734643Y-15225214D01*
X12763214Y-15239500D01*
X12777500Y-15253786D01*
X12791786Y-15282357D01*
X12791786Y-15368071D01*
X12777500Y-15396643D01*
X12763214Y-15410929D01*
X12734643Y-15425214D01*
X12691786Y-15425214D01*
X12963214Y-15425214D02*
X12934643Y-15410929D01*
X12920357Y-15382357D01*
X12920357Y-15125214D01*
X13191786Y-15410929D02*
X13163214Y-15425214D01*
X13106071Y-15425214D01*
X13077500Y-15410929D01*
X13063214Y-15382357D01*
X13063214Y-15268071D01*
X13077500Y-15239500D01*
X13106071Y-15225214D01*
X13163214Y-15225214D01*
X13191786Y-15239500D01*
X13206071Y-15268071D01*
X13206071Y-15296643D01*
X13063214Y-15325214D01*
X13320357Y-15410929D02*
X13348928Y-15425214D01*
X13406071Y-15425214D01*
X13434643Y-15410929D01*
X13448928Y-15382357D01*
X13448928Y-15368071D01*
X13434643Y-15339500D01*
X13406071Y-15325214D01*
X13363214Y-15325214D01*
X13334643Y-15310929D01*
X13320357Y-15282357D01*
X13320357Y-15268071D01*
X13334643Y-15239500D01*
X13363214Y-15225214D01*
X13406071Y-15225214D01*
X13434643Y-15239500D01*
X13548928Y-15539500D02*
X13563214Y-15525214D01*
X13591786Y-15482357D01*
X13606071Y-15453786D01*
X13620357Y-15410929D01*
X13634643Y-15339500D01*
X13634643Y-15282357D01*
X13620357Y-15210929D01*
X13606071Y-15168071D01*
X13591786Y-15139500D01*
X13563214Y-15096643D01*
X13548928Y-15082357D01*
X7049320Y-15717320D02*
X7049320Y-15653680D01*
X6985680Y-15653680D01*
X6985680Y-15717320D01*
X7049320Y-15717320D01*
X7406071Y-15521214D02*
X7434643Y-15521214D01*
X7463214Y-15535500D01*
X7477500Y-15549786D01*
X7491786Y-15578357D01*
X7506071Y-15635500D01*
X7506071Y-15706929D01*
X7491786Y-15764071D01*
X7477500Y-15792643D01*
X7463214Y-15806929D01*
X7434643Y-15821214D01*
X7406071Y-15821214D01*
X7377500Y-15806929D01*
X7363214Y-15792643D01*
X7348928Y-15764071D01*
X7334643Y-15706929D01*
X7334643Y-15635500D01*
X7348928Y-15578357D01*
X7363214Y-15549786D01*
X7377500Y-15535500D01*
X7406071Y-15521214D01*
X7634643Y-15792643D02*
X7648928Y-15806929D01*
X7634643Y-15821214D01*
X7620357Y-15806929D01*
X7634643Y-15792643D01*
X7634643Y-15821214D01*
X7791786Y-15821214D02*
X7848928Y-15821214D01*
X7877500Y-15806929D01*
X7891786Y-15792643D01*
X7920357Y-15749786D01*
X7934643Y-15692643D01*
X7934643Y-15578357D01*
X7920357Y-15549786D01*
X7906071Y-15535500D01*
X7877500Y-15521214D01*
X7820357Y-15521214D01*
X7791786Y-15535500D01*
X7777500Y-15549786D01*
X7763214Y-15578357D01*
X7763214Y-15649786D01*
X7777500Y-15678357D01*
X7791786Y-15692643D01*
X7820357Y-15706929D01*
X7877500Y-15706929D01*
X7906071Y-15692643D01*
X7920357Y-15678357D01*
X7934643Y-15649786D01*
X8120357Y-15521214D02*
X8148928Y-15521214D01*
X8177500Y-15535500D01*
X8191786Y-15549786D01*
X8206071Y-15578357D01*
X8220357Y-15635500D01*
X8220357Y-15706929D01*
X8206071Y-15764071D01*
X8191786Y-15792643D01*
X8177500Y-15806929D01*
X8148928Y-15821214D01*
X8120357Y-15821214D01*
X8091786Y-15806929D01*
X8077500Y-15792643D01*
X8063214Y-15764071D01*
X8048928Y-15706929D01*
X8048928Y-15635500D01*
X8063214Y-15578357D01*
X8077500Y-15549786D01*
X8091786Y-15535500D01*
X8120357Y-15521214D01*
X8348928Y-15821214D02*
X8348928Y-15621214D01*
X8348928Y-15649786D02*
X8363214Y-15635500D01*
X8391786Y-15621214D01*
X8434643Y-15621214D01*
X8463214Y-15635500D01*
X8477500Y-15664071D01*
X8477500Y-15821214D01*
X8477500Y-15664071D02*
X8491786Y-15635500D01*
X8520357Y-15621214D01*
X8563214Y-15621214D01*
X8591786Y-15635500D01*
X8606071Y-15664071D01*
X8606071Y-15821214D01*
X8748928Y-15821214D02*
X8748928Y-15621214D01*
X8748928Y-15649786D02*
X8763214Y-15635500D01*
X8791786Y-15621214D01*
X8834643Y-15621214D01*
X8863214Y-15635500D01*
X8877500Y-15664071D01*
X8877500Y-15821214D01*
X8877500Y-15664071D02*
X8891786Y-15635500D01*
X8920357Y-15621214D01*
X8963214Y-15621214D01*
X8991786Y-15635500D01*
X9006071Y-15664071D01*
X9006071Y-15821214D01*
X9591786Y-15506929D02*
X9334643Y-15892643D01*
X9977500Y-15521214D02*
X10006071Y-15521214D01*
X10034643Y-15535500D01*
X10048928Y-15549786D01*
X10063214Y-15578357D01*
X10077500Y-15635500D01*
X10077500Y-15706929D01*
X10063214Y-15764071D01*
X10048928Y-15792643D01*
X10034643Y-15806929D01*
X10006071Y-15821214D01*
X9977500Y-15821214D01*
X9948928Y-15806929D01*
X9934643Y-15792643D01*
X9920357Y-15764071D01*
X9906071Y-15706929D01*
X9906071Y-15635500D01*
X9920357Y-15578357D01*
X9934643Y-15549786D01*
X9948928Y-15535500D01*
X9977500Y-15521214D01*
X10206071Y-15792643D02*
X10220357Y-15806929D01*
X10206071Y-15821214D01*
X10191786Y-15806929D01*
X10206071Y-15792643D01*
X10206071Y-15821214D01*
X10406071Y-15521214D02*
X10434643Y-15521214D01*
X10463214Y-15535500D01*
X10477500Y-15549786D01*
X10491786Y-15578357D01*
X10506071Y-15635500D01*
X10506071Y-15706929D01*
X10491786Y-15764071D01*
X10477500Y-15792643D01*
X10463214Y-15806929D01*
X10434643Y-15821214D01*
X10406071Y-15821214D01*
X10377500Y-15806929D01*
X10363214Y-15792643D01*
X10348928Y-15764071D01*
X10334643Y-15706929D01*
X10334643Y-15635500D01*
X10348928Y-15578357D01*
X10363214Y-15549786D01*
X10377500Y-15535500D01*
X10406071Y-15521214D01*
X10606071Y-15521214D02*
X10791786Y-15521214D01*
X10691786Y-15635500D01*
X10734643Y-15635500D01*
X10763214Y-15649786D01*
X10777500Y-15664071D01*
X10791786Y-15692643D01*
X10791786Y-15764071D01*
X10777500Y-15792643D01*
X10763214Y-15806929D01*
X10734643Y-15821214D01*
X10648928Y-15821214D01*
X10620357Y-15806929D01*
X10606071Y-15792643D01*
X11063214Y-15521214D02*
X10920357Y-15521214D01*
X10906071Y-15664071D01*
X10920357Y-15649786D01*
X10948928Y-15635500D01*
X11020357Y-15635500D01*
X11048928Y-15649786D01*
X11063214Y-15664071D01*
X11077500Y-15692643D01*
X11077500Y-15764071D01*
X11063214Y-15792643D01*
X11048928Y-15806929D01*
X11020357Y-15821214D01*
X10948928Y-15821214D01*
X10920357Y-15806929D01*
X10906071Y-15792643D01*
X11191786Y-15521214D02*
X11191786Y-15578357D01*
X11306071Y-15521214D02*
X11306071Y-15578357D01*
X11748928Y-15935500D02*
X11734643Y-15921214D01*
X11706071Y-15878357D01*
X11691786Y-15849786D01*
X11677500Y-15806929D01*
X11663214Y-15735500D01*
X11663214Y-15678357D01*
X11677500Y-15606929D01*
X11691786Y-15564071D01*
X11706071Y-15535500D01*
X11734643Y-15492643D01*
X11748928Y-15478357D01*
X11848928Y-15549786D02*
X11863214Y-15535500D01*
X11891786Y-15521214D01*
X11963214Y-15521214D01*
X11991786Y-15535500D01*
X12006071Y-15549786D01*
X12020357Y-15578357D01*
X12020357Y-15606929D01*
X12006071Y-15649786D01*
X11834643Y-15821214D01*
X12020357Y-15821214D01*
X12377500Y-15821214D02*
X12377500Y-15521214D01*
X12506071Y-15821214D02*
X12506071Y-15664071D01*
X12491786Y-15635500D01*
X12463214Y-15621214D01*
X12420357Y-15621214D01*
X12391786Y-15635500D01*
X12377500Y-15649786D01*
X12691786Y-15821214D02*
X12663214Y-15806929D01*
X12648928Y-15792643D01*
X12634643Y-15764071D01*
X12634643Y-15678357D01*
X12648928Y-15649786D01*
X12663214Y-15635500D01*
X12691786Y-15621214D01*
X12734643Y-15621214D01*
X12763214Y-15635500D01*
X12777500Y-15649786D01*
X12791786Y-15678357D01*
X12791786Y-15764071D01*
X12777500Y-15792643D01*
X12763214Y-15806929D01*
X12734643Y-15821214D01*
X12691786Y-15821214D01*
X12963214Y-15821214D02*
X12934643Y-15806929D01*
X12920357Y-15778357D01*
X12920357Y-15521214D01*
X13191786Y-15806929D02*
X13163214Y-15821214D01*
X13106071Y-15821214D01*
X13077500Y-15806929D01*
X13063214Y-15778357D01*
X13063214Y-15664071D01*
X13077500Y-15635500D01*
X13106071Y-15621214D01*
X13163214Y-15621214D01*
X13191786Y-15635500D01*
X13206071Y-15664071D01*
X13206071Y-15692643D01*
X13063214Y-15721214D01*
X13320357Y-15806929D02*
X13348928Y-15821214D01*
X13406071Y-15821214D01*
X13434643Y-15806929D01*
X13448928Y-15778357D01*
X13448928Y-15764071D01*
X13434643Y-15735500D01*
X13406071Y-15721214D01*
X13363214Y-15721214D01*
X13334643Y-15706929D01*
X13320357Y-15678357D01*
X13320357Y-15664071D01*
X13334643Y-15635500D01*
X13363214Y-15621214D01*
X13406071Y-15621214D01*
X13434643Y-15635500D01*
X13548928Y-15935500D02*
X13563214Y-15921214D01*
X13591786Y-15878357D01*
X13606071Y-15849786D01*
X13620357Y-15806929D01*
X13634643Y-15735500D01*
X13634643Y-15678357D01*
X13620357Y-15606929D01*
X13606071Y-15564071D01*
X13591786Y-15535500D01*
X13563214Y-15492643D01*
X13548928Y-15478357D01*
X7012500Y-16131500D02*
X7062500Y-16081500D01*
X7012500Y-16031500D01*
X6962500Y-16081500D01*
X7012500Y-16131500D01*
X7506071Y-16217214D02*
X7334643Y-16217214D01*
X7420357Y-16217214D02*
X7420357Y-15917214D01*
X7391786Y-15960071D01*
X7363214Y-15988643D01*
X7334643Y-16002929D01*
X7634643Y-16188643D02*
X7648928Y-16202929D01*
X7634643Y-16217214D01*
X7620357Y-16202929D01*
X7634643Y-16188643D01*
X7634643Y-16217214D01*
X7834643Y-15917214D02*
X7863214Y-15917214D01*
X7891786Y-15931500D01*
X7906071Y-15945786D01*
X7920357Y-15974357D01*
X7934643Y-16031500D01*
X7934643Y-16102929D01*
X7920357Y-16160071D01*
X7906071Y-16188643D01*
X7891786Y-16202929D01*
X7863214Y-16217214D01*
X7834643Y-16217214D01*
X7806071Y-16202929D01*
X7791786Y-16188643D01*
X7777500Y-16160071D01*
X7763214Y-16102929D01*
X7763214Y-16031500D01*
X7777500Y-15974357D01*
X7791786Y-15945786D01*
X7806071Y-15931500D01*
X7834643Y-15917214D01*
X8120357Y-15917214D02*
X8148928Y-15917214D01*
X8177500Y-15931500D01*
X8191786Y-15945786D01*
X8206071Y-15974357D01*
X8220357Y-16031500D01*
X8220357Y-16102929D01*
X8206071Y-16160071D01*
X8191786Y-16188643D01*
X8177500Y-16202929D01*
X8148928Y-16217214D01*
X8120357Y-16217214D01*
X8091786Y-16202929D01*
X8077500Y-16188643D01*
X8063214Y-16160071D01*
X8048928Y-16102929D01*
X8048928Y-16031500D01*
X8063214Y-15974357D01*
X8077500Y-15945786D01*
X8091786Y-15931500D01*
X8120357Y-15917214D01*
X8348928Y-16217214D02*
X8348928Y-16017214D01*
X8348928Y-16045786D02*
X8363214Y-16031500D01*
X8391786Y-16017214D01*
X8434643Y-16017214D01*
X8463214Y-16031500D01*
X8477500Y-16060071D01*
X8477500Y-16217214D01*
X8477500Y-16060071D02*
X8491786Y-16031500D01*
X8520357Y-16017214D01*
X8563214Y-16017214D01*
X8591786Y-16031500D01*
X8606071Y-16060071D01*
X8606071Y-16217214D01*
X8748928Y-16217214D02*
X8748928Y-16017214D01*
X8748928Y-16045786D02*
X8763214Y-16031500D01*
X8791786Y-16017214D01*
X8834643Y-16017214D01*
X8863214Y-16031500D01*
X8877500Y-16060071D01*
X8877500Y-16217214D01*
X8877500Y-16060071D02*
X8891786Y-16031500D01*
X8920357Y-16017214D01*
X8963214Y-16017214D01*
X8991786Y-16031500D01*
X9006071Y-16060071D01*
X9006071Y-16217214D01*
X9591786Y-15902929D02*
X9334643Y-16288643D01*
X9977500Y-15917214D02*
X10006071Y-15917214D01*
X10034643Y-15931500D01*
X10048928Y-15945786D01*
X10063214Y-15974357D01*
X10077500Y-16031500D01*
X10077500Y-16102929D01*
X10063214Y-16160071D01*
X10048928Y-16188643D01*
X10034643Y-16202929D01*
X10006071Y-16217214D01*
X9977500Y-16217214D01*
X9948928Y-16202929D01*
X9934643Y-16188643D01*
X9920357Y-16160071D01*
X9906071Y-16102929D01*
X9906071Y-16031500D01*
X9920357Y-15974357D01*
X9934643Y-15945786D01*
X9948928Y-15931500D01*
X9977500Y-15917214D01*
X10206071Y-16188643D02*
X10220357Y-16202929D01*
X10206071Y-16217214D01*
X10191786Y-16202929D01*
X10206071Y-16188643D01*
X10206071Y-16217214D01*
X10406071Y-15917214D02*
X10434643Y-15917214D01*
X10463214Y-15931500D01*
X10477500Y-15945786D01*
X10491786Y-15974357D01*
X10506071Y-16031500D01*
X10506071Y-16102929D01*
X10491786Y-16160071D01*
X10477500Y-16188643D01*
X10463214Y-16202929D01*
X10434643Y-16217214D01*
X10406071Y-16217214D01*
X10377500Y-16202929D01*
X10363214Y-16188643D01*
X10348928Y-16160071D01*
X10334643Y-16102929D01*
X10334643Y-16031500D01*
X10348928Y-15974357D01*
X10363214Y-15945786D01*
X10377500Y-15931500D01*
X10406071Y-15917214D01*
X10606071Y-15917214D02*
X10791786Y-15917214D01*
X10691786Y-16031500D01*
X10734643Y-16031500D01*
X10763214Y-16045786D01*
X10777500Y-16060071D01*
X10791786Y-16088643D01*
X10791786Y-16160071D01*
X10777500Y-16188643D01*
X10763214Y-16202929D01*
X10734643Y-16217214D01*
X10648928Y-16217214D01*
X10620357Y-16202929D01*
X10606071Y-16188643D01*
X10934643Y-16217214D02*
X10991786Y-16217214D01*
X11020357Y-16202929D01*
X11034643Y-16188643D01*
X11063214Y-16145786D01*
X11077500Y-16088643D01*
X11077500Y-15974357D01*
X11063214Y-15945786D01*
X11048928Y-15931500D01*
X11020357Y-15917214D01*
X10963214Y-15917214D01*
X10934643Y-15931500D01*
X10920357Y-15945786D01*
X10906071Y-15974357D01*
X10906071Y-16045786D01*
X10920357Y-16074357D01*
X10934643Y-16088643D01*
X10963214Y-16102929D01*
X11020357Y-16102929D01*
X11048928Y-16088643D01*
X11063214Y-16074357D01*
X11077500Y-16045786D01*
X11191786Y-15917214D02*
X11191786Y-15974357D01*
X11306071Y-15917214D02*
X11306071Y-15974357D01*
X11748928Y-16331500D02*
X11734643Y-16317214D01*
X11706071Y-16274357D01*
X11691786Y-16245786D01*
X11677500Y-16202929D01*
X11663214Y-16131500D01*
X11663214Y-16074357D01*
X11677500Y-16002929D01*
X11691786Y-15960071D01*
X11706071Y-15931500D01*
X11734643Y-15888643D01*
X11748928Y-15874357D01*
X12006071Y-15917214D02*
X11863214Y-15917214D01*
X11848928Y-16060071D01*
X11863214Y-16045786D01*
X11891786Y-16031500D01*
X11963214Y-16031500D01*
X11991786Y-16045786D01*
X12006071Y-16060071D01*
X12020357Y-16088643D01*
X12020357Y-16160071D01*
X12006071Y-16188643D01*
X11991786Y-16202929D01*
X11963214Y-16217214D01*
X11891786Y-16217214D01*
X11863214Y-16202929D01*
X11848928Y-16188643D01*
X12163214Y-16217214D02*
X12220357Y-16217214D01*
X12248928Y-16202929D01*
X12263214Y-16188643D01*
X12291786Y-16145786D01*
X12306071Y-16088643D01*
X12306071Y-15974357D01*
X12291786Y-15945786D01*
X12277500Y-15931500D01*
X12248928Y-15917214D01*
X12191786Y-15917214D01*
X12163214Y-15931500D01*
X12148928Y-15945786D01*
X12134643Y-15974357D01*
X12134643Y-16045786D01*
X12148928Y-16074357D01*
X12163214Y-16088643D01*
X12191786Y-16102929D01*
X12248928Y-16102929D01*
X12277500Y-16088643D01*
X12291786Y-16074357D01*
X12306071Y-16045786D01*
X12663214Y-16217214D02*
X12663214Y-15917214D01*
X12791786Y-16217214D02*
X12791786Y-16060071D01*
X12777500Y-16031500D01*
X12748928Y-16017214D01*
X12706071Y-16017214D01*
X12677500Y-16031500D01*
X12663214Y-16045786D01*
X12977500Y-16217214D02*
X12948928Y-16202929D01*
X12934643Y-16188643D01*
X12920357Y-16160071D01*
X12920357Y-16074357D01*
X12934643Y-16045786D01*
X12948928Y-16031500D01*
X12977500Y-16017214D01*
X13020357Y-16017214D01*
X13048928Y-16031500D01*
X13063214Y-16045786D01*
X13077500Y-16074357D01*
X13077500Y-16160071D01*
X13063214Y-16188643D01*
X13048928Y-16202929D01*
X13020357Y-16217214D01*
X12977500Y-16217214D01*
X13248928Y-16217214D02*
X13220357Y-16202929D01*
X13206071Y-16174357D01*
X13206071Y-15917214D01*
X13477500Y-16202929D02*
X13448928Y-16217214D01*
X13391786Y-16217214D01*
X13363214Y-16202929D01*
X13348928Y-16174357D01*
X13348928Y-16060071D01*
X13363214Y-16031500D01*
X13391786Y-16017214D01*
X13448928Y-16017214D01*
X13477500Y-16031500D01*
X13491786Y-16060071D01*
X13491786Y-16088643D01*
X13348928Y-16117214D01*
X13606071Y-16202929D02*
X13634643Y-16217214D01*
X13691786Y-16217214D01*
X13720357Y-16202929D01*
X13734643Y-16174357D01*
X13734643Y-16160071D01*
X13720357Y-16131500D01*
X13691786Y-16117214D01*
X13648928Y-16117214D01*
X13620357Y-16102929D01*
X13606071Y-16074357D01*
X13606071Y-16060071D01*
X13620357Y-16031500D01*
X13648928Y-16017214D01*
X13691786Y-16017214D01*
X13720357Y-16031500D01*
X13834643Y-16331500D02*
X13848928Y-16317214D01*
X13877500Y-16274357D01*
X13891786Y-16245786D01*
X13906071Y-16202929D01*
X13920357Y-16131500D01*
X13920357Y-16074357D01*
X13906071Y-16002929D01*
X13891786Y-15960071D01*
X13877500Y-15931500D01*
X13848928Y-15888643D01*
X13834643Y-15874357D01*
X6958500Y-16425500D02*
X7062500Y-16529500D01*
X7062500Y-16425500D02*
X6958500Y-16529500D01*
X7062500Y-16477500D02*
G75*
G03X7062500Y-16477500I-52000J0D01*
G01*
X7506071Y-16613214D02*
X7334643Y-16613214D01*
X7420357Y-16613214D02*
X7420357Y-16313214D01*
X7391786Y-16356071D01*
X7363214Y-16384643D01*
X7334643Y-16398929D01*
X7634643Y-16584643D02*
X7648928Y-16598929D01*
X7634643Y-16613214D01*
X7620357Y-16598929D01*
X7634643Y-16584643D01*
X7634643Y-16613214D01*
X7834643Y-16313214D02*
X7863214Y-16313214D01*
X7891786Y-16327500D01*
X7906071Y-16341786D01*
X7920357Y-16370357D01*
X7934643Y-16427500D01*
X7934643Y-16498929D01*
X7920357Y-16556071D01*
X7906071Y-16584643D01*
X7891786Y-16598929D01*
X7863214Y-16613214D01*
X7834643Y-16613214D01*
X7806071Y-16598929D01*
X7791786Y-16584643D01*
X7777500Y-16556071D01*
X7763214Y-16498929D01*
X7763214Y-16427500D01*
X7777500Y-16370357D01*
X7791786Y-16341786D01*
X7806071Y-16327500D01*
X7834643Y-16313214D01*
X8191786Y-16413214D02*
X8191786Y-16613214D01*
X8120357Y-16298929D02*
X8048928Y-16513214D01*
X8234643Y-16513214D01*
X8348928Y-16613214D02*
X8348928Y-16413214D01*
X8348928Y-16441786D02*
X8363214Y-16427500D01*
X8391786Y-16413214D01*
X8434643Y-16413214D01*
X8463214Y-16427500D01*
X8477500Y-16456071D01*
X8477500Y-16613214D01*
X8477500Y-16456071D02*
X8491786Y-16427500D01*
X8520357Y-16413214D01*
X8563214Y-16413214D01*
X8591786Y-16427500D01*
X8606071Y-16456071D01*
X8606071Y-16613214D01*
X8748928Y-16613214D02*
X8748928Y-16413214D01*
X8748928Y-16441786D02*
X8763214Y-16427500D01*
X8791786Y-16413214D01*
X8834643Y-16413214D01*
X8863214Y-16427500D01*
X8877500Y-16456071D01*
X8877500Y-16613214D01*
X8877500Y-16456071D02*
X8891786Y-16427500D01*
X8920357Y-16413214D01*
X8963214Y-16413214D01*
X8991786Y-16427500D01*
X9006071Y-16456071D01*
X9006071Y-16613214D01*
X9591786Y-16298929D02*
X9334643Y-16684643D01*
X9977500Y-16313214D02*
X10006071Y-16313214D01*
X10034643Y-16327500D01*
X10048928Y-16341786D01*
X10063214Y-16370357D01*
X10077500Y-16427500D01*
X10077500Y-16498929D01*
X10063214Y-16556071D01*
X10048928Y-16584643D01*
X10034643Y-16598929D01*
X10006071Y-16613214D01*
X9977500Y-16613214D01*
X9948928Y-16598929D01*
X9934643Y-16584643D01*
X9920357Y-16556071D01*
X9906071Y-16498929D01*
X9906071Y-16427500D01*
X9920357Y-16370357D01*
X9934643Y-16341786D01*
X9948928Y-16327500D01*
X9977500Y-16313214D01*
X10206071Y-16584643D02*
X10220357Y-16598929D01*
X10206071Y-16613214D01*
X10191786Y-16598929D01*
X10206071Y-16584643D01*
X10206071Y-16613214D01*
X10406071Y-16313214D02*
X10434643Y-16313214D01*
X10463214Y-16327500D01*
X10477500Y-16341786D01*
X10491786Y-16370357D01*
X10506071Y-16427500D01*
X10506071Y-16498929D01*
X10491786Y-16556071D01*
X10477500Y-16584643D01*
X10463214Y-16598929D01*
X10434643Y-16613214D01*
X10406071Y-16613214D01*
X10377500Y-16598929D01*
X10363214Y-16584643D01*
X10348928Y-16556071D01*
X10334643Y-16498929D01*
X10334643Y-16427500D01*
X10348928Y-16370357D01*
X10363214Y-16341786D01*
X10377500Y-16327500D01*
X10406071Y-16313214D01*
X10763214Y-16413214D02*
X10763214Y-16613214D01*
X10691786Y-16298929D02*
X10620357Y-16513214D01*
X10806071Y-16513214D01*
X11077500Y-16613214D02*
X10906071Y-16613214D01*
X10991786Y-16613214D02*
X10991786Y-16313214D01*
X10963214Y-16356071D01*
X10934643Y-16384643D01*
X10906071Y-16398929D01*
X11191786Y-16313214D02*
X11191786Y-16370357D01*
X11306071Y-16313214D02*
X11306071Y-16370357D01*
X11748928Y-16727500D02*
X11734643Y-16713214D01*
X11706071Y-16670357D01*
X11691786Y-16641786D01*
X11677500Y-16598929D01*
X11663214Y-16527500D01*
X11663214Y-16470357D01*
X11677500Y-16398929D01*
X11691786Y-16356071D01*
X11706071Y-16327500D01*
X11734643Y-16284643D01*
X11748928Y-16270357D01*
X11834643Y-16313214D02*
X12020357Y-16313214D01*
X11920357Y-16427500D01*
X11963214Y-16427500D01*
X11991786Y-16441786D01*
X12006071Y-16456071D01*
X12020357Y-16484643D01*
X12020357Y-16556071D01*
X12006071Y-16584643D01*
X11991786Y-16598929D01*
X11963214Y-16613214D01*
X11877500Y-16613214D01*
X11848928Y-16598929D01*
X11834643Y-16584643D01*
X12191786Y-16441786D02*
X12163214Y-16427500D01*
X12148928Y-16413214D01*
X12134643Y-16384643D01*
X12134643Y-16370357D01*
X12148928Y-16341786D01*
X12163214Y-16327500D01*
X12191786Y-16313214D01*
X12248928Y-16313214D01*
X12277500Y-16327500D01*
X12291786Y-16341786D01*
X12306071Y-16370357D01*
X12306071Y-16384643D01*
X12291786Y-16413214D01*
X12277500Y-16427500D01*
X12248928Y-16441786D01*
X12191786Y-16441786D01*
X12163214Y-16456071D01*
X12148928Y-16470357D01*
X12134643Y-16498929D01*
X12134643Y-16556071D01*
X12148928Y-16584643D01*
X12163214Y-16598929D01*
X12191786Y-16613214D01*
X12248928Y-16613214D01*
X12277500Y-16598929D01*
X12291786Y-16584643D01*
X12306071Y-16556071D01*
X12306071Y-16498929D01*
X12291786Y-16470357D01*
X12277500Y-16456071D01*
X12248928Y-16441786D01*
X12663214Y-16613214D02*
X12663214Y-16313214D01*
X12791786Y-16613214D02*
X12791786Y-16456071D01*
X12777500Y-16427500D01*
X12748928Y-16413214D01*
X12706071Y-16413214D01*
X12677500Y-16427500D01*
X12663214Y-16441786D01*
X12977500Y-16613214D02*
X12948928Y-16598929D01*
X12934643Y-16584643D01*
X12920357Y-16556071D01*
X12920357Y-16470357D01*
X12934643Y-16441786D01*
X12948928Y-16427500D01*
X12977500Y-16413214D01*
X13020357Y-16413214D01*
X13048928Y-16427500D01*
X13063214Y-16441786D01*
X13077500Y-16470357D01*
X13077500Y-16556071D01*
X13063214Y-16584643D01*
X13048928Y-16598929D01*
X13020357Y-16613214D01*
X12977500Y-16613214D01*
X13248928Y-16613214D02*
X13220357Y-16598929D01*
X13206071Y-16570357D01*
X13206071Y-16313214D01*
X13477500Y-16598929D02*
X13448928Y-16613214D01*
X13391786Y-16613214D01*
X13363214Y-16598929D01*
X13348928Y-16570357D01*
X13348928Y-16456071D01*
X13363214Y-16427500D01*
X13391786Y-16413214D01*
X13448928Y-16413214D01*
X13477500Y-16427500D01*
X13491786Y-16456071D01*
X13491786Y-16484643D01*
X13348928Y-16513214D01*
X13606071Y-16598929D02*
X13634643Y-16613214D01*
X13691786Y-16613214D01*
X13720357Y-16598929D01*
X13734643Y-16570357D01*
X13734643Y-16556071D01*
X13720357Y-16527500D01*
X13691786Y-16513214D01*
X13648928Y-16513214D01*
X13620357Y-16498929D01*
X13606071Y-16470357D01*
X13606071Y-16456071D01*
X13620357Y-16427500D01*
X13648928Y-16413214D01*
X13691786Y-16413214D01*
X13720357Y-16427500D01*
X13834643Y-16727500D02*
X13848928Y-16713214D01*
X13877500Y-16670357D01*
X13891786Y-16641786D01*
X13906071Y-16598929D01*
X13920357Y-16527500D01*
X13920357Y-16470357D01*
X13906071Y-16398929D01*
X13891786Y-16356071D01*
X13877500Y-16327500D01*
X13848928Y-16284643D01*
X13834643Y-16270357D01*
X6872500Y-16778500D02*
X7062500Y-16968500D01*
X7062500Y-16778500D02*
X6872500Y-16968500D01*
X6967500Y-16778500D02*
X6967500Y-16968500D01*
X6872500Y-16873500D02*
X7062500Y-16873500D01*
X7506071Y-17009214D02*
X7334643Y-17009214D01*
X7420357Y-17009214D02*
X7420357Y-16709214D01*
X7391786Y-16752071D01*
X7363214Y-16780643D01*
X7334643Y-16794929D01*
X7634643Y-16980643D02*
X7648928Y-16994929D01*
X7634643Y-17009214D01*
X7620357Y-16994929D01*
X7634643Y-16980643D01*
X7634643Y-17009214D01*
X7791786Y-17009214D02*
X7848928Y-17009214D01*
X7877500Y-16994929D01*
X7891786Y-16980643D01*
X7920357Y-16937786D01*
X7934643Y-16880643D01*
X7934643Y-16766357D01*
X7920357Y-16737786D01*
X7906071Y-16723500D01*
X7877500Y-16709214D01*
X7820357Y-16709214D01*
X7791786Y-16723500D01*
X7777500Y-16737786D01*
X7763214Y-16766357D01*
X7763214Y-16837786D01*
X7777500Y-16866357D01*
X7791786Y-16880643D01*
X7820357Y-16894929D01*
X7877500Y-16894929D01*
X7906071Y-16880643D01*
X7920357Y-16866357D01*
X7934643Y-16837786D01*
X8120357Y-16709214D02*
X8148928Y-16709214D01*
X8177500Y-16723500D01*
X8191786Y-16737786D01*
X8206071Y-16766357D01*
X8220357Y-16823500D01*
X8220357Y-16894929D01*
X8206071Y-16952072D01*
X8191786Y-16980643D01*
X8177500Y-16994929D01*
X8148928Y-17009214D01*
X8120357Y-17009214D01*
X8091786Y-16994929D01*
X8077500Y-16980643D01*
X8063214Y-16952072D01*
X8048928Y-16894929D01*
X8048928Y-16823500D01*
X8063214Y-16766357D01*
X8077500Y-16737786D01*
X8091786Y-16723500D01*
X8120357Y-16709214D01*
X8348928Y-17009214D02*
X8348928Y-16809214D01*
X8348928Y-16837786D02*
X8363214Y-16823500D01*
X8391786Y-16809214D01*
X8434643Y-16809214D01*
X8463214Y-16823500D01*
X8477500Y-16852072D01*
X8477500Y-17009214D01*
X8477500Y-16852072D02*
X8491786Y-16823500D01*
X8520357Y-16809214D01*
X8563214Y-16809214D01*
X8591786Y-16823500D01*
X8606071Y-16852072D01*
X8606071Y-17009214D01*
X8748928Y-17009214D02*
X8748928Y-16809214D01*
X8748928Y-16837786D02*
X8763214Y-16823500D01*
X8791786Y-16809214D01*
X8834643Y-16809214D01*
X8863214Y-16823500D01*
X8877500Y-16852072D01*
X8877500Y-17009214D01*
X8877500Y-16852072D02*
X8891786Y-16823500D01*
X8920357Y-16809214D01*
X8963214Y-16809214D01*
X8991786Y-16823500D01*
X9006071Y-16852072D01*
X9006071Y-17009214D01*
X9591786Y-16694929D02*
X9334643Y-17080643D01*
X9977500Y-16709214D02*
X10006071Y-16709214D01*
X10034643Y-16723500D01*
X10048928Y-16737786D01*
X10063214Y-16766357D01*
X10077500Y-16823500D01*
X10077500Y-16894929D01*
X10063214Y-16952072D01*
X10048928Y-16980643D01*
X10034643Y-16994929D01*
X10006071Y-17009214D01*
X9977500Y-17009214D01*
X9948928Y-16994929D01*
X9934643Y-16980643D01*
X9920357Y-16952072D01*
X9906071Y-16894929D01*
X9906071Y-16823500D01*
X9920357Y-16766357D01*
X9934643Y-16737786D01*
X9948928Y-16723500D01*
X9977500Y-16709214D01*
X10206071Y-16980643D02*
X10220357Y-16994929D01*
X10206071Y-17009214D01*
X10191786Y-16994929D01*
X10206071Y-16980643D01*
X10206071Y-17009214D01*
X10406071Y-16709214D02*
X10434643Y-16709214D01*
X10463214Y-16723500D01*
X10477500Y-16737786D01*
X10491786Y-16766357D01*
X10506071Y-16823500D01*
X10506071Y-16894929D01*
X10491786Y-16952072D01*
X10477500Y-16980643D01*
X10463214Y-16994929D01*
X10434643Y-17009214D01*
X10406071Y-17009214D01*
X10377500Y-16994929D01*
X10363214Y-16980643D01*
X10348928Y-16952072D01*
X10334643Y-16894929D01*
X10334643Y-16823500D01*
X10348928Y-16766357D01*
X10363214Y-16737786D01*
X10377500Y-16723500D01*
X10406071Y-16709214D01*
X10606071Y-16709214D02*
X10806071Y-16709214D01*
X10677500Y-17009214D01*
X11063214Y-16709214D02*
X10920357Y-16709214D01*
X10906071Y-16852072D01*
X10920357Y-16837786D01*
X10948928Y-16823500D01*
X11020357Y-16823500D01*
X11048928Y-16837786D01*
X11063214Y-16852072D01*
X11077500Y-16880643D01*
X11077500Y-16952072D01*
X11063214Y-16980643D01*
X11048928Y-16994929D01*
X11020357Y-17009214D01*
X10948928Y-17009214D01*
X10920357Y-16994929D01*
X10906071Y-16980643D01*
X11191786Y-16709214D02*
X11191786Y-16766357D01*
X11306071Y-16709214D02*
X11306071Y-16766357D01*
X11748928Y-17123500D02*
X11734643Y-17109214D01*
X11706071Y-17066357D01*
X11691786Y-17037786D01*
X11677500Y-16994929D01*
X11663214Y-16923500D01*
X11663214Y-16866357D01*
X11677500Y-16794929D01*
X11691786Y-16752071D01*
X11706071Y-16723500D01*
X11734643Y-16680643D01*
X11748928Y-16666357D01*
X11848928Y-16737786D02*
X11863214Y-16723500D01*
X11891786Y-16709214D01*
X11963214Y-16709214D01*
X11991786Y-16723500D01*
X12006071Y-16737786D01*
X12020357Y-16766357D01*
X12020357Y-16794929D01*
X12006071Y-16837786D01*
X11834643Y-17009214D01*
X12020357Y-17009214D01*
X12377500Y-17009214D02*
X12377500Y-16709214D01*
X12506071Y-17009214D02*
X12506071Y-16852072D01*
X12491786Y-16823500D01*
X12463214Y-16809214D01*
X12420357Y-16809214D01*
X12391786Y-16823500D01*
X12377500Y-16837786D01*
X12691786Y-17009214D02*
X12663214Y-16994929D01*
X12648928Y-16980643D01*
X12634643Y-16952072D01*
X12634643Y-16866357D01*
X12648928Y-16837786D01*
X12663214Y-16823500D01*
X12691786Y-16809214D01*
X12734643Y-16809214D01*
X12763214Y-16823500D01*
X12777500Y-16837786D01*
X12791786Y-16866357D01*
X12791786Y-16952072D01*
X12777500Y-16980643D01*
X12763214Y-16994929D01*
X12734643Y-17009214D01*
X12691786Y-17009214D01*
X12963214Y-17009214D02*
X12934643Y-16994929D01*
X12920357Y-16966357D01*
X12920357Y-16709214D01*
X13191786Y-16994929D02*
X13163214Y-17009214D01*
X13106071Y-17009214D01*
X13077500Y-16994929D01*
X13063214Y-16966357D01*
X13063214Y-16852072D01*
X13077500Y-16823500D01*
X13106071Y-16809214D01*
X13163214Y-16809214D01*
X13191786Y-16823500D01*
X13206071Y-16852072D01*
X13206071Y-16880643D01*
X13063214Y-16909214D01*
X13320357Y-16994929D02*
X13348928Y-17009214D01*
X13406071Y-17009214D01*
X13434643Y-16994929D01*
X13448928Y-16966357D01*
X13448928Y-16952072D01*
X13434643Y-16923500D01*
X13406071Y-16909214D01*
X13363214Y-16909214D01*
X13334643Y-16894929D01*
X13320357Y-16866357D01*
X13320357Y-16852072D01*
X13334643Y-16823500D01*
X13363214Y-16809214D01*
X13406071Y-16809214D01*
X13434643Y-16823500D01*
X13548928Y-17123500D02*
X13563214Y-17109214D01*
X13591786Y-17066357D01*
X13606071Y-17037786D01*
X13620357Y-16994929D01*
X13634643Y-16923500D01*
X13634643Y-16866357D01*
X13620357Y-16794929D01*
X13606071Y-16752071D01*
X13591786Y-16723500D01*
X13563214Y-16680643D01*
X13548928Y-16666357D01*
X6742500Y-17109500D02*
X7062500Y-17429500D01*
X7062500Y-17109500D02*
X6742500Y-17429500D01*
X7015638Y-17382638D02*
X7015638Y-17156362D01*
X6789362Y-17156362D01*
X6789362Y-17382638D01*
X7015638Y-17382638D01*
X7320357Y-17105214D02*
X7506071Y-17105214D01*
X7406071Y-17219500D01*
X7448928Y-17219500D01*
X7477500Y-17233786D01*
X7491786Y-17248072D01*
X7506071Y-17276643D01*
X7506071Y-17348072D01*
X7491786Y-17376643D01*
X7477500Y-17390929D01*
X7448928Y-17405214D01*
X7363214Y-17405214D01*
X7334643Y-17390929D01*
X7320357Y-17376643D01*
X7634643Y-17376643D02*
X7648928Y-17390929D01*
X7634643Y-17405214D01*
X7620357Y-17390929D01*
X7634643Y-17376643D01*
X7634643Y-17405214D01*
X7763214Y-17133786D02*
X7777500Y-17119500D01*
X7806071Y-17105214D01*
X7877500Y-17105214D01*
X7906071Y-17119500D01*
X7920357Y-17133786D01*
X7934643Y-17162357D01*
X7934643Y-17190929D01*
X7920357Y-17233786D01*
X7748928Y-17405214D01*
X7934643Y-17405214D01*
X8120357Y-17105214D02*
X8148928Y-17105214D01*
X8177500Y-17119500D01*
X8191786Y-17133786D01*
X8206071Y-17162357D01*
X8220357Y-17219500D01*
X8220357Y-17290929D01*
X8206071Y-17348072D01*
X8191786Y-17376643D01*
X8177500Y-17390929D01*
X8148928Y-17405214D01*
X8120357Y-17405214D01*
X8091786Y-17390929D01*
X8077500Y-17376643D01*
X8063214Y-17348072D01*
X8048928Y-17290929D01*
X8048928Y-17219500D01*
X8063214Y-17162357D01*
X8077500Y-17133786D01*
X8091786Y-17119500D01*
X8120357Y-17105214D01*
X8348928Y-17405214D02*
X8348928Y-17205214D01*
X8348928Y-17233786D02*
X8363214Y-17219500D01*
X8391786Y-17205214D01*
X8434643Y-17205214D01*
X8463214Y-17219500D01*
X8477500Y-17248072D01*
X8477500Y-17405214D01*
X8477500Y-17248072D02*
X8491786Y-17219500D01*
X8520357Y-17205214D01*
X8563214Y-17205214D01*
X8591786Y-17219500D01*
X8606071Y-17248072D01*
X8606071Y-17405214D01*
X8748928Y-17405214D02*
X8748928Y-17205214D01*
X8748928Y-17233786D02*
X8763214Y-17219500D01*
X8791786Y-17205214D01*
X8834643Y-17205214D01*
X8863214Y-17219500D01*
X8877500Y-17248072D01*
X8877500Y-17405214D01*
X8877500Y-17248072D02*
X8891786Y-17219500D01*
X8920357Y-17205214D01*
X8963214Y-17205214D01*
X8991786Y-17219500D01*
X9006071Y-17248072D01*
X9006071Y-17405214D01*
X9591786Y-17090929D02*
X9334643Y-17476643D01*
X9977500Y-17105214D02*
X10006071Y-17105214D01*
X10034643Y-17119500D01*
X10048928Y-17133786D01*
X10063214Y-17162357D01*
X10077500Y-17219500D01*
X10077500Y-17290929D01*
X10063214Y-17348072D01*
X10048928Y-17376643D01*
X10034643Y-17390929D01*
X10006071Y-17405214D01*
X9977500Y-17405214D01*
X9948928Y-17390929D01*
X9934643Y-17376643D01*
X9920357Y-17348072D01*
X9906071Y-17290929D01*
X9906071Y-17219500D01*
X9920357Y-17162357D01*
X9934643Y-17133786D01*
X9948928Y-17119500D01*
X9977500Y-17105214D01*
X10206071Y-17376643D02*
X10220357Y-17390929D01*
X10206071Y-17405214D01*
X10191786Y-17390929D01*
X10206071Y-17376643D01*
X10206071Y-17405214D01*
X10506071Y-17405214D02*
X10334643Y-17405214D01*
X10420357Y-17405214D02*
X10420357Y-17105214D01*
X10391786Y-17148072D01*
X10363214Y-17176643D01*
X10334643Y-17190929D01*
X10620357Y-17133786D02*
X10634643Y-17119500D01*
X10663214Y-17105214D01*
X10734643Y-17105214D01*
X10763214Y-17119500D01*
X10777500Y-17133786D01*
X10791786Y-17162357D01*
X10791786Y-17190929D01*
X10777500Y-17233786D01*
X10606071Y-17405214D01*
X10791786Y-17405214D01*
X11048928Y-17105214D02*
X10991786Y-17105214D01*
X10963214Y-17119500D01*
X10948928Y-17133786D01*
X10920357Y-17176643D01*
X10906071Y-17233786D01*
X10906071Y-17348072D01*
X10920357Y-17376643D01*
X10934643Y-17390929D01*
X10963214Y-17405214D01*
X11020357Y-17405214D01*
X11048928Y-17390929D01*
X11063214Y-17376643D01*
X11077500Y-17348072D01*
X11077500Y-17276643D01*
X11063214Y-17248072D01*
X11048928Y-17233786D01*
X11020357Y-17219500D01*
X10963214Y-17219500D01*
X10934643Y-17233786D01*
X10920357Y-17248072D01*
X10906071Y-17276643D01*
X11191786Y-17105214D02*
X11191786Y-17162357D01*
X11306071Y-17105214D02*
X11306071Y-17162357D01*
X11748928Y-17519500D02*
X11734643Y-17505214D01*
X11706071Y-17462357D01*
X11691786Y-17433786D01*
X11677500Y-17390929D01*
X11663214Y-17319500D01*
X11663214Y-17262357D01*
X11677500Y-17190929D01*
X11691786Y-17148072D01*
X11706071Y-17119500D01*
X11734643Y-17076643D01*
X11748928Y-17062357D01*
X11848928Y-17133786D02*
X11863214Y-17119500D01*
X11891786Y-17105214D01*
X11963214Y-17105214D01*
X11991786Y-17119500D01*
X12006071Y-17133786D01*
X12020357Y-17162357D01*
X12020357Y-17190929D01*
X12006071Y-17233786D01*
X11834643Y-17405214D01*
X12020357Y-17405214D01*
X12377500Y-17405214D02*
X12377500Y-17105214D01*
X12506071Y-17405214D02*
X12506071Y-17248072D01*
X12491786Y-17219500D01*
X12463214Y-17205214D01*
X12420357Y-17205214D01*
X12391786Y-17219500D01*
X12377500Y-17233786D01*
X12691786Y-17405214D02*
X12663214Y-17390929D01*
X12648928Y-17376643D01*
X12634643Y-17348072D01*
X12634643Y-17262357D01*
X12648928Y-17233786D01*
X12663214Y-17219500D01*
X12691786Y-17205214D01*
X12734643Y-17205214D01*
X12763214Y-17219500D01*
X12777500Y-17233786D01*
X12791786Y-17262357D01*
X12791786Y-17348072D01*
X12777500Y-17376643D01*
X12763214Y-17390929D01*
X12734643Y-17405214D01*
X12691786Y-17405214D01*
X12963214Y-17405214D02*
X12934643Y-17390929D01*
X12920357Y-17362357D01*
X12920357Y-17105214D01*
X13191786Y-17390929D02*
X13163214Y-17405214D01*
X13106071Y-17405214D01*
X13077500Y-17390929D01*
X13063214Y-17362357D01*
X13063214Y-17248072D01*
X13077500Y-17219500D01*
X13106071Y-17205214D01*
X13163214Y-17205214D01*
X13191786Y-17219500D01*
X13206071Y-17248072D01*
X13206071Y-17276643D01*
X13063214Y-17305214D01*
X13320357Y-17390929D02*
X13348928Y-17405214D01*
X13406071Y-17405214D01*
X13434643Y-17390929D01*
X13448928Y-17362357D01*
X13448928Y-17348072D01*
X13434643Y-17319500D01*
X13406071Y-17305214D01*
X13363214Y-17305214D01*
X13334643Y-17290929D01*
X13320357Y-17262357D01*
X13320357Y-17248072D01*
X13334643Y-17219500D01*
X13363214Y-17205214D01*
X13406071Y-17205214D01*
X13434643Y-17219500D01*
X13548928Y-17519500D02*
X13563214Y-17505214D01*
X13591786Y-17462357D01*
X13606071Y-17433786D01*
X13620357Y-17390929D01*
X13634643Y-17319500D01*
X13634643Y-17262357D01*
X13620357Y-17190929D01*
X13606071Y-17148072D01*
X13591786Y-17119500D01*
X13563214Y-17076643D01*
X13548928Y-17062357D01*
M02*
