G04 #@! TF.GenerationSoftware,KiCad,Pcbnew,(5.1.4)-1*
G04 #@! TF.CreationDate,2020-09-30T13:08:58+02:00*
G04 #@! TF.ProjectId,car_controller,6361725f-636f-46e7-9472-6f6c6c65722e,rev?*
G04 #@! TF.SameCoordinates,Original*
G04 #@! TF.FileFunction,Paste,Top*
G04 #@! TF.FilePolarity,Positive*
%FSLAX46Y46*%
G04 Gerber Fmt 4.6, Leading zero omitted, Abs format (unit mm)*
G04 Created by KiCad (PCBNEW (5.1.4)-1) date 2020-09-30 13:08:58*
%MOMM*%
%LPD*%
G04 APERTURE LIST*
%ADD10C,0.100000*%
%ADD11C,1.600000*%
%ADD12C,1.150000*%
%ADD13C,1.425000*%
%ADD14C,0.950000*%
%ADD15R,3.500000X1.600000*%
%ADD16R,9.750000X12.200000*%
G04 APERTURE END LIST*
D10*
G36*
X134049504Y-45826204D02*
G01*
X134073773Y-45829804D01*
X134097571Y-45835765D01*
X134120671Y-45844030D01*
X134142849Y-45854520D01*
X134163893Y-45867133D01*
X134183598Y-45881747D01*
X134201777Y-45898223D01*
X134218253Y-45916402D01*
X134232867Y-45936107D01*
X134245480Y-45957151D01*
X134255970Y-45979329D01*
X134264235Y-46002429D01*
X134270196Y-46026227D01*
X134273796Y-46050496D01*
X134275000Y-46075000D01*
X134275000Y-48175000D01*
X134273796Y-48199504D01*
X134270196Y-48223773D01*
X134264235Y-48247571D01*
X134255970Y-48270671D01*
X134245480Y-48292849D01*
X134232867Y-48313893D01*
X134218253Y-48333598D01*
X134201777Y-48351777D01*
X134183598Y-48368253D01*
X134163893Y-48382867D01*
X134142849Y-48395480D01*
X134120671Y-48405970D01*
X134097571Y-48414235D01*
X134073773Y-48420196D01*
X134049504Y-48423796D01*
X134025000Y-48425000D01*
X132925000Y-48425000D01*
X132900496Y-48423796D01*
X132876227Y-48420196D01*
X132852429Y-48414235D01*
X132829329Y-48405970D01*
X132807151Y-48395480D01*
X132786107Y-48382867D01*
X132766402Y-48368253D01*
X132748223Y-48351777D01*
X132731747Y-48333598D01*
X132717133Y-48313893D01*
X132704520Y-48292849D01*
X132694030Y-48270671D01*
X132685765Y-48247571D01*
X132679804Y-48223773D01*
X132676204Y-48199504D01*
X132675000Y-48175000D01*
X132675000Y-46075000D01*
X132676204Y-46050496D01*
X132679804Y-46026227D01*
X132685765Y-46002429D01*
X132694030Y-45979329D01*
X132704520Y-45957151D01*
X132717133Y-45936107D01*
X132731747Y-45916402D01*
X132748223Y-45898223D01*
X132766402Y-45881747D01*
X132786107Y-45867133D01*
X132807151Y-45854520D01*
X132829329Y-45844030D01*
X132852429Y-45835765D01*
X132876227Y-45829804D01*
X132900496Y-45826204D01*
X132925000Y-45825000D01*
X134025000Y-45825000D01*
X134049504Y-45826204D01*
X134049504Y-45826204D01*
G37*
D11*
X133475000Y-47125000D03*
D10*
G36*
X134049504Y-42226204D02*
G01*
X134073773Y-42229804D01*
X134097571Y-42235765D01*
X134120671Y-42244030D01*
X134142849Y-42254520D01*
X134163893Y-42267133D01*
X134183598Y-42281747D01*
X134201777Y-42298223D01*
X134218253Y-42316402D01*
X134232867Y-42336107D01*
X134245480Y-42357151D01*
X134255970Y-42379329D01*
X134264235Y-42402429D01*
X134270196Y-42426227D01*
X134273796Y-42450496D01*
X134275000Y-42475000D01*
X134275000Y-44575000D01*
X134273796Y-44599504D01*
X134270196Y-44623773D01*
X134264235Y-44647571D01*
X134255970Y-44670671D01*
X134245480Y-44692849D01*
X134232867Y-44713893D01*
X134218253Y-44733598D01*
X134201777Y-44751777D01*
X134183598Y-44768253D01*
X134163893Y-44782867D01*
X134142849Y-44795480D01*
X134120671Y-44805970D01*
X134097571Y-44814235D01*
X134073773Y-44820196D01*
X134049504Y-44823796D01*
X134025000Y-44825000D01*
X132925000Y-44825000D01*
X132900496Y-44823796D01*
X132876227Y-44820196D01*
X132852429Y-44814235D01*
X132829329Y-44805970D01*
X132807151Y-44795480D01*
X132786107Y-44782867D01*
X132766402Y-44768253D01*
X132748223Y-44751777D01*
X132731747Y-44733598D01*
X132717133Y-44713893D01*
X132704520Y-44692849D01*
X132694030Y-44670671D01*
X132685765Y-44647571D01*
X132679804Y-44623773D01*
X132676204Y-44599504D01*
X132675000Y-44575000D01*
X132675000Y-42475000D01*
X132676204Y-42450496D01*
X132679804Y-42426227D01*
X132685765Y-42402429D01*
X132694030Y-42379329D01*
X132704520Y-42357151D01*
X132717133Y-42336107D01*
X132731747Y-42316402D01*
X132748223Y-42298223D01*
X132766402Y-42281747D01*
X132786107Y-42267133D01*
X132807151Y-42254520D01*
X132829329Y-42244030D01*
X132852429Y-42235765D01*
X132876227Y-42229804D01*
X132900496Y-42226204D01*
X132925000Y-42225000D01*
X134025000Y-42225000D01*
X134049504Y-42226204D01*
X134049504Y-42226204D01*
G37*
D11*
X133475000Y-43525000D03*
D10*
G36*
X108824504Y-43601204D02*
G01*
X108848773Y-43604804D01*
X108872571Y-43610765D01*
X108895671Y-43619030D01*
X108917849Y-43629520D01*
X108938893Y-43642133D01*
X108958598Y-43656747D01*
X108976777Y-43673223D01*
X108993253Y-43691402D01*
X109007867Y-43711107D01*
X109020480Y-43732151D01*
X109030970Y-43754329D01*
X109039235Y-43777429D01*
X109045196Y-43801227D01*
X109048796Y-43825496D01*
X109050000Y-43850000D01*
X109050000Y-45950000D01*
X109048796Y-45974504D01*
X109045196Y-45998773D01*
X109039235Y-46022571D01*
X109030970Y-46045671D01*
X109020480Y-46067849D01*
X109007867Y-46088893D01*
X108993253Y-46108598D01*
X108976777Y-46126777D01*
X108958598Y-46143253D01*
X108938893Y-46157867D01*
X108917849Y-46170480D01*
X108895671Y-46180970D01*
X108872571Y-46189235D01*
X108848773Y-46195196D01*
X108824504Y-46198796D01*
X108800000Y-46200000D01*
X107700000Y-46200000D01*
X107675496Y-46198796D01*
X107651227Y-46195196D01*
X107627429Y-46189235D01*
X107604329Y-46180970D01*
X107582151Y-46170480D01*
X107561107Y-46157867D01*
X107541402Y-46143253D01*
X107523223Y-46126777D01*
X107506747Y-46108598D01*
X107492133Y-46088893D01*
X107479520Y-46067849D01*
X107469030Y-46045671D01*
X107460765Y-46022571D01*
X107454804Y-45998773D01*
X107451204Y-45974504D01*
X107450000Y-45950000D01*
X107450000Y-43850000D01*
X107451204Y-43825496D01*
X107454804Y-43801227D01*
X107460765Y-43777429D01*
X107469030Y-43754329D01*
X107479520Y-43732151D01*
X107492133Y-43711107D01*
X107506747Y-43691402D01*
X107523223Y-43673223D01*
X107541402Y-43656747D01*
X107561107Y-43642133D01*
X107582151Y-43629520D01*
X107604329Y-43619030D01*
X107627429Y-43610765D01*
X107651227Y-43604804D01*
X107675496Y-43601204D01*
X107700000Y-43600000D01*
X108800000Y-43600000D01*
X108824504Y-43601204D01*
X108824504Y-43601204D01*
G37*
D11*
X108250000Y-44900000D03*
D10*
G36*
X108824504Y-40001204D02*
G01*
X108848773Y-40004804D01*
X108872571Y-40010765D01*
X108895671Y-40019030D01*
X108917849Y-40029520D01*
X108938893Y-40042133D01*
X108958598Y-40056747D01*
X108976777Y-40073223D01*
X108993253Y-40091402D01*
X109007867Y-40111107D01*
X109020480Y-40132151D01*
X109030970Y-40154329D01*
X109039235Y-40177429D01*
X109045196Y-40201227D01*
X109048796Y-40225496D01*
X109050000Y-40250000D01*
X109050000Y-42350000D01*
X109048796Y-42374504D01*
X109045196Y-42398773D01*
X109039235Y-42422571D01*
X109030970Y-42445671D01*
X109020480Y-42467849D01*
X109007867Y-42488893D01*
X108993253Y-42508598D01*
X108976777Y-42526777D01*
X108958598Y-42543253D01*
X108938893Y-42557867D01*
X108917849Y-42570480D01*
X108895671Y-42580970D01*
X108872571Y-42589235D01*
X108848773Y-42595196D01*
X108824504Y-42598796D01*
X108800000Y-42600000D01*
X107700000Y-42600000D01*
X107675496Y-42598796D01*
X107651227Y-42595196D01*
X107627429Y-42589235D01*
X107604329Y-42580970D01*
X107582151Y-42570480D01*
X107561107Y-42557867D01*
X107541402Y-42543253D01*
X107523223Y-42526777D01*
X107506747Y-42508598D01*
X107492133Y-42488893D01*
X107479520Y-42467849D01*
X107469030Y-42445671D01*
X107460765Y-42422571D01*
X107454804Y-42398773D01*
X107451204Y-42374504D01*
X107450000Y-42350000D01*
X107450000Y-40250000D01*
X107451204Y-40225496D01*
X107454804Y-40201227D01*
X107460765Y-40177429D01*
X107469030Y-40154329D01*
X107479520Y-40132151D01*
X107492133Y-40111107D01*
X107506747Y-40091402D01*
X107523223Y-40073223D01*
X107541402Y-40056747D01*
X107561107Y-40042133D01*
X107582151Y-40029520D01*
X107604329Y-40019030D01*
X107627429Y-40010765D01*
X107651227Y-40004804D01*
X107675496Y-40001204D01*
X107700000Y-40000000D01*
X108800000Y-40000000D01*
X108824504Y-40001204D01*
X108824504Y-40001204D01*
G37*
D11*
X108250000Y-41300000D03*
D10*
G36*
X98624505Y-44501204D02*
G01*
X98648773Y-44504804D01*
X98672572Y-44510765D01*
X98695671Y-44519030D01*
X98717850Y-44529520D01*
X98738893Y-44542132D01*
X98758599Y-44556747D01*
X98776777Y-44573223D01*
X98793253Y-44591401D01*
X98807868Y-44611107D01*
X98820480Y-44632150D01*
X98830970Y-44654329D01*
X98839235Y-44677428D01*
X98845196Y-44701227D01*
X98848796Y-44725495D01*
X98850000Y-44749999D01*
X98850000Y-45400001D01*
X98848796Y-45424505D01*
X98845196Y-45448773D01*
X98839235Y-45472572D01*
X98830970Y-45495671D01*
X98820480Y-45517850D01*
X98807868Y-45538893D01*
X98793253Y-45558599D01*
X98776777Y-45576777D01*
X98758599Y-45593253D01*
X98738893Y-45607868D01*
X98717850Y-45620480D01*
X98695671Y-45630970D01*
X98672572Y-45639235D01*
X98648773Y-45645196D01*
X98624505Y-45648796D01*
X98600001Y-45650000D01*
X97699999Y-45650000D01*
X97675495Y-45648796D01*
X97651227Y-45645196D01*
X97627428Y-45639235D01*
X97604329Y-45630970D01*
X97582150Y-45620480D01*
X97561107Y-45607868D01*
X97541401Y-45593253D01*
X97523223Y-45576777D01*
X97506747Y-45558599D01*
X97492132Y-45538893D01*
X97479520Y-45517850D01*
X97469030Y-45495671D01*
X97460765Y-45472572D01*
X97454804Y-45448773D01*
X97451204Y-45424505D01*
X97450000Y-45400001D01*
X97450000Y-44749999D01*
X97451204Y-44725495D01*
X97454804Y-44701227D01*
X97460765Y-44677428D01*
X97469030Y-44654329D01*
X97479520Y-44632150D01*
X97492132Y-44611107D01*
X97506747Y-44591401D01*
X97523223Y-44573223D01*
X97541401Y-44556747D01*
X97561107Y-44542132D01*
X97582150Y-44529520D01*
X97604329Y-44519030D01*
X97627428Y-44510765D01*
X97651227Y-44504804D01*
X97675495Y-44501204D01*
X97699999Y-44500000D01*
X98600001Y-44500000D01*
X98624505Y-44501204D01*
X98624505Y-44501204D01*
G37*
D12*
X98150000Y-45075000D03*
D10*
G36*
X98624505Y-46551204D02*
G01*
X98648773Y-46554804D01*
X98672572Y-46560765D01*
X98695671Y-46569030D01*
X98717850Y-46579520D01*
X98738893Y-46592132D01*
X98758599Y-46606747D01*
X98776777Y-46623223D01*
X98793253Y-46641401D01*
X98807868Y-46661107D01*
X98820480Y-46682150D01*
X98830970Y-46704329D01*
X98839235Y-46727428D01*
X98845196Y-46751227D01*
X98848796Y-46775495D01*
X98850000Y-46799999D01*
X98850000Y-47450001D01*
X98848796Y-47474505D01*
X98845196Y-47498773D01*
X98839235Y-47522572D01*
X98830970Y-47545671D01*
X98820480Y-47567850D01*
X98807868Y-47588893D01*
X98793253Y-47608599D01*
X98776777Y-47626777D01*
X98758599Y-47643253D01*
X98738893Y-47657868D01*
X98717850Y-47670480D01*
X98695671Y-47680970D01*
X98672572Y-47689235D01*
X98648773Y-47695196D01*
X98624505Y-47698796D01*
X98600001Y-47700000D01*
X97699999Y-47700000D01*
X97675495Y-47698796D01*
X97651227Y-47695196D01*
X97627428Y-47689235D01*
X97604329Y-47680970D01*
X97582150Y-47670480D01*
X97561107Y-47657868D01*
X97541401Y-47643253D01*
X97523223Y-47626777D01*
X97506747Y-47608599D01*
X97492132Y-47588893D01*
X97479520Y-47567850D01*
X97469030Y-47545671D01*
X97460765Y-47522572D01*
X97454804Y-47498773D01*
X97451204Y-47474505D01*
X97450000Y-47450001D01*
X97450000Y-46799999D01*
X97451204Y-46775495D01*
X97454804Y-46751227D01*
X97460765Y-46727428D01*
X97469030Y-46704329D01*
X97479520Y-46682150D01*
X97492132Y-46661107D01*
X97506747Y-46641401D01*
X97523223Y-46623223D01*
X97541401Y-46606747D01*
X97561107Y-46592132D01*
X97582150Y-46579520D01*
X97604329Y-46569030D01*
X97627428Y-46560765D01*
X97651227Y-46554804D01*
X97675495Y-46551204D01*
X97699999Y-46550000D01*
X98600001Y-46550000D01*
X98624505Y-46551204D01*
X98624505Y-46551204D01*
G37*
D12*
X98150000Y-47125000D03*
D10*
G36*
X95074505Y-44501204D02*
G01*
X95098773Y-44504804D01*
X95122572Y-44510765D01*
X95145671Y-44519030D01*
X95167850Y-44529520D01*
X95188893Y-44542132D01*
X95208599Y-44556747D01*
X95226777Y-44573223D01*
X95243253Y-44591401D01*
X95257868Y-44611107D01*
X95270480Y-44632150D01*
X95280970Y-44654329D01*
X95289235Y-44677428D01*
X95295196Y-44701227D01*
X95298796Y-44725495D01*
X95300000Y-44749999D01*
X95300000Y-45400001D01*
X95298796Y-45424505D01*
X95295196Y-45448773D01*
X95289235Y-45472572D01*
X95280970Y-45495671D01*
X95270480Y-45517850D01*
X95257868Y-45538893D01*
X95243253Y-45558599D01*
X95226777Y-45576777D01*
X95208599Y-45593253D01*
X95188893Y-45607868D01*
X95167850Y-45620480D01*
X95145671Y-45630970D01*
X95122572Y-45639235D01*
X95098773Y-45645196D01*
X95074505Y-45648796D01*
X95050001Y-45650000D01*
X94149999Y-45650000D01*
X94125495Y-45648796D01*
X94101227Y-45645196D01*
X94077428Y-45639235D01*
X94054329Y-45630970D01*
X94032150Y-45620480D01*
X94011107Y-45607868D01*
X93991401Y-45593253D01*
X93973223Y-45576777D01*
X93956747Y-45558599D01*
X93942132Y-45538893D01*
X93929520Y-45517850D01*
X93919030Y-45495671D01*
X93910765Y-45472572D01*
X93904804Y-45448773D01*
X93901204Y-45424505D01*
X93900000Y-45400001D01*
X93900000Y-44749999D01*
X93901204Y-44725495D01*
X93904804Y-44701227D01*
X93910765Y-44677428D01*
X93919030Y-44654329D01*
X93929520Y-44632150D01*
X93942132Y-44611107D01*
X93956747Y-44591401D01*
X93973223Y-44573223D01*
X93991401Y-44556747D01*
X94011107Y-44542132D01*
X94032150Y-44529520D01*
X94054329Y-44519030D01*
X94077428Y-44510765D01*
X94101227Y-44504804D01*
X94125495Y-44501204D01*
X94149999Y-44500000D01*
X95050001Y-44500000D01*
X95074505Y-44501204D01*
X95074505Y-44501204D01*
G37*
D12*
X94600000Y-45075000D03*
D10*
G36*
X95074505Y-46551204D02*
G01*
X95098773Y-46554804D01*
X95122572Y-46560765D01*
X95145671Y-46569030D01*
X95167850Y-46579520D01*
X95188893Y-46592132D01*
X95208599Y-46606747D01*
X95226777Y-46623223D01*
X95243253Y-46641401D01*
X95257868Y-46661107D01*
X95270480Y-46682150D01*
X95280970Y-46704329D01*
X95289235Y-46727428D01*
X95295196Y-46751227D01*
X95298796Y-46775495D01*
X95300000Y-46799999D01*
X95300000Y-47450001D01*
X95298796Y-47474505D01*
X95295196Y-47498773D01*
X95289235Y-47522572D01*
X95280970Y-47545671D01*
X95270480Y-47567850D01*
X95257868Y-47588893D01*
X95243253Y-47608599D01*
X95226777Y-47626777D01*
X95208599Y-47643253D01*
X95188893Y-47657868D01*
X95167850Y-47670480D01*
X95145671Y-47680970D01*
X95122572Y-47689235D01*
X95098773Y-47695196D01*
X95074505Y-47698796D01*
X95050001Y-47700000D01*
X94149999Y-47700000D01*
X94125495Y-47698796D01*
X94101227Y-47695196D01*
X94077428Y-47689235D01*
X94054329Y-47680970D01*
X94032150Y-47670480D01*
X94011107Y-47657868D01*
X93991401Y-47643253D01*
X93973223Y-47626777D01*
X93956747Y-47608599D01*
X93942132Y-47588893D01*
X93929520Y-47567850D01*
X93919030Y-47545671D01*
X93910765Y-47522572D01*
X93904804Y-47498773D01*
X93901204Y-47474505D01*
X93900000Y-47450001D01*
X93900000Y-46799999D01*
X93901204Y-46775495D01*
X93904804Y-46751227D01*
X93910765Y-46727428D01*
X93919030Y-46704329D01*
X93929520Y-46682150D01*
X93942132Y-46661107D01*
X93956747Y-46641401D01*
X93973223Y-46623223D01*
X93991401Y-46606747D01*
X94011107Y-46592132D01*
X94032150Y-46579520D01*
X94054329Y-46569030D01*
X94077428Y-46560765D01*
X94101227Y-46554804D01*
X94125495Y-46551204D01*
X94149999Y-46550000D01*
X95050001Y-46550000D01*
X95074505Y-46551204D01*
X95074505Y-46551204D01*
G37*
D12*
X94600000Y-47125000D03*
D10*
G36*
X91524505Y-46551204D02*
G01*
X91548773Y-46554804D01*
X91572572Y-46560765D01*
X91595671Y-46569030D01*
X91617850Y-46579520D01*
X91638893Y-46592132D01*
X91658599Y-46606747D01*
X91676777Y-46623223D01*
X91693253Y-46641401D01*
X91707868Y-46661107D01*
X91720480Y-46682150D01*
X91730970Y-46704329D01*
X91739235Y-46727428D01*
X91745196Y-46751227D01*
X91748796Y-46775495D01*
X91750000Y-46799999D01*
X91750000Y-47450001D01*
X91748796Y-47474505D01*
X91745196Y-47498773D01*
X91739235Y-47522572D01*
X91730970Y-47545671D01*
X91720480Y-47567850D01*
X91707868Y-47588893D01*
X91693253Y-47608599D01*
X91676777Y-47626777D01*
X91658599Y-47643253D01*
X91638893Y-47657868D01*
X91617850Y-47670480D01*
X91595671Y-47680970D01*
X91572572Y-47689235D01*
X91548773Y-47695196D01*
X91524505Y-47698796D01*
X91500001Y-47700000D01*
X90599999Y-47700000D01*
X90575495Y-47698796D01*
X90551227Y-47695196D01*
X90527428Y-47689235D01*
X90504329Y-47680970D01*
X90482150Y-47670480D01*
X90461107Y-47657868D01*
X90441401Y-47643253D01*
X90423223Y-47626777D01*
X90406747Y-47608599D01*
X90392132Y-47588893D01*
X90379520Y-47567850D01*
X90369030Y-47545671D01*
X90360765Y-47522572D01*
X90354804Y-47498773D01*
X90351204Y-47474505D01*
X90350000Y-47450001D01*
X90350000Y-46799999D01*
X90351204Y-46775495D01*
X90354804Y-46751227D01*
X90360765Y-46727428D01*
X90369030Y-46704329D01*
X90379520Y-46682150D01*
X90392132Y-46661107D01*
X90406747Y-46641401D01*
X90423223Y-46623223D01*
X90441401Y-46606747D01*
X90461107Y-46592132D01*
X90482150Y-46579520D01*
X90504329Y-46569030D01*
X90527428Y-46560765D01*
X90551227Y-46554804D01*
X90575495Y-46551204D01*
X90599999Y-46550000D01*
X91500001Y-46550000D01*
X91524505Y-46551204D01*
X91524505Y-46551204D01*
G37*
D12*
X91050000Y-47125000D03*
D10*
G36*
X91524505Y-44501204D02*
G01*
X91548773Y-44504804D01*
X91572572Y-44510765D01*
X91595671Y-44519030D01*
X91617850Y-44529520D01*
X91638893Y-44542132D01*
X91658599Y-44556747D01*
X91676777Y-44573223D01*
X91693253Y-44591401D01*
X91707868Y-44611107D01*
X91720480Y-44632150D01*
X91730970Y-44654329D01*
X91739235Y-44677428D01*
X91745196Y-44701227D01*
X91748796Y-44725495D01*
X91750000Y-44749999D01*
X91750000Y-45400001D01*
X91748796Y-45424505D01*
X91745196Y-45448773D01*
X91739235Y-45472572D01*
X91730970Y-45495671D01*
X91720480Y-45517850D01*
X91707868Y-45538893D01*
X91693253Y-45558599D01*
X91676777Y-45576777D01*
X91658599Y-45593253D01*
X91638893Y-45607868D01*
X91617850Y-45620480D01*
X91595671Y-45630970D01*
X91572572Y-45639235D01*
X91548773Y-45645196D01*
X91524505Y-45648796D01*
X91500001Y-45650000D01*
X90599999Y-45650000D01*
X90575495Y-45648796D01*
X90551227Y-45645196D01*
X90527428Y-45639235D01*
X90504329Y-45630970D01*
X90482150Y-45620480D01*
X90461107Y-45607868D01*
X90441401Y-45593253D01*
X90423223Y-45576777D01*
X90406747Y-45558599D01*
X90392132Y-45538893D01*
X90379520Y-45517850D01*
X90369030Y-45495671D01*
X90360765Y-45472572D01*
X90354804Y-45448773D01*
X90351204Y-45424505D01*
X90350000Y-45400001D01*
X90350000Y-44749999D01*
X90351204Y-44725495D01*
X90354804Y-44701227D01*
X90360765Y-44677428D01*
X90369030Y-44654329D01*
X90379520Y-44632150D01*
X90392132Y-44611107D01*
X90406747Y-44591401D01*
X90423223Y-44573223D01*
X90441401Y-44556747D01*
X90461107Y-44542132D01*
X90482150Y-44529520D01*
X90504329Y-44519030D01*
X90527428Y-44510765D01*
X90551227Y-44504804D01*
X90575495Y-44501204D01*
X90599999Y-44500000D01*
X91500001Y-44500000D01*
X91524505Y-44501204D01*
X91524505Y-44501204D01*
G37*
D12*
X91050000Y-45075000D03*
D10*
G36*
X147024504Y-58578704D02*
G01*
X147048773Y-58582304D01*
X147072571Y-58588265D01*
X147095671Y-58596530D01*
X147117849Y-58607020D01*
X147138893Y-58619633D01*
X147158598Y-58634247D01*
X147176777Y-58650723D01*
X147193253Y-58668902D01*
X147207867Y-58688607D01*
X147220480Y-58709651D01*
X147230970Y-58731829D01*
X147239235Y-58754929D01*
X147245196Y-58778727D01*
X147248796Y-58802996D01*
X147250000Y-58827500D01*
X147250000Y-59752500D01*
X147248796Y-59777004D01*
X147245196Y-59801273D01*
X147239235Y-59825071D01*
X147230970Y-59848171D01*
X147220480Y-59870349D01*
X147207867Y-59891393D01*
X147193253Y-59911098D01*
X147176777Y-59929277D01*
X147158598Y-59945753D01*
X147138893Y-59960367D01*
X147117849Y-59972980D01*
X147095671Y-59983470D01*
X147072571Y-59991735D01*
X147048773Y-59997696D01*
X147024504Y-60001296D01*
X147000000Y-60002500D01*
X145750000Y-60002500D01*
X145725496Y-60001296D01*
X145701227Y-59997696D01*
X145677429Y-59991735D01*
X145654329Y-59983470D01*
X145632151Y-59972980D01*
X145611107Y-59960367D01*
X145591402Y-59945753D01*
X145573223Y-59929277D01*
X145556747Y-59911098D01*
X145542133Y-59891393D01*
X145529520Y-59870349D01*
X145519030Y-59848171D01*
X145510765Y-59825071D01*
X145504804Y-59801273D01*
X145501204Y-59777004D01*
X145500000Y-59752500D01*
X145500000Y-58827500D01*
X145501204Y-58802996D01*
X145504804Y-58778727D01*
X145510765Y-58754929D01*
X145519030Y-58731829D01*
X145529520Y-58709651D01*
X145542133Y-58688607D01*
X145556747Y-58668902D01*
X145573223Y-58650723D01*
X145591402Y-58634247D01*
X145611107Y-58619633D01*
X145632151Y-58607020D01*
X145654329Y-58596530D01*
X145677429Y-58588265D01*
X145701227Y-58582304D01*
X145725496Y-58578704D01*
X145750000Y-58577500D01*
X147000000Y-58577500D01*
X147024504Y-58578704D01*
X147024504Y-58578704D01*
G37*
D13*
X146375000Y-59290000D03*
D10*
G36*
X147024504Y-61553704D02*
G01*
X147048773Y-61557304D01*
X147072571Y-61563265D01*
X147095671Y-61571530D01*
X147117849Y-61582020D01*
X147138893Y-61594633D01*
X147158598Y-61609247D01*
X147176777Y-61625723D01*
X147193253Y-61643902D01*
X147207867Y-61663607D01*
X147220480Y-61684651D01*
X147230970Y-61706829D01*
X147239235Y-61729929D01*
X147245196Y-61753727D01*
X147248796Y-61777996D01*
X147250000Y-61802500D01*
X147250000Y-62727500D01*
X147248796Y-62752004D01*
X147245196Y-62776273D01*
X147239235Y-62800071D01*
X147230970Y-62823171D01*
X147220480Y-62845349D01*
X147207867Y-62866393D01*
X147193253Y-62886098D01*
X147176777Y-62904277D01*
X147158598Y-62920753D01*
X147138893Y-62935367D01*
X147117849Y-62947980D01*
X147095671Y-62958470D01*
X147072571Y-62966735D01*
X147048773Y-62972696D01*
X147024504Y-62976296D01*
X147000000Y-62977500D01*
X145750000Y-62977500D01*
X145725496Y-62976296D01*
X145701227Y-62972696D01*
X145677429Y-62966735D01*
X145654329Y-62958470D01*
X145632151Y-62947980D01*
X145611107Y-62935367D01*
X145591402Y-62920753D01*
X145573223Y-62904277D01*
X145556747Y-62886098D01*
X145542133Y-62866393D01*
X145529520Y-62845349D01*
X145519030Y-62823171D01*
X145510765Y-62800071D01*
X145504804Y-62776273D01*
X145501204Y-62752004D01*
X145500000Y-62727500D01*
X145500000Y-61802500D01*
X145501204Y-61777996D01*
X145504804Y-61753727D01*
X145510765Y-61729929D01*
X145519030Y-61706829D01*
X145529520Y-61684651D01*
X145542133Y-61663607D01*
X145556747Y-61643902D01*
X145573223Y-61625723D01*
X145591402Y-61609247D01*
X145611107Y-61594633D01*
X145632151Y-61582020D01*
X145654329Y-61571530D01*
X145677429Y-61563265D01*
X145701227Y-61557304D01*
X145725496Y-61553704D01*
X145750000Y-61552500D01*
X147000000Y-61552500D01*
X147024504Y-61553704D01*
X147024504Y-61553704D01*
G37*
D13*
X146375000Y-62265000D03*
D10*
G36*
X147024504Y-71213704D02*
G01*
X147048773Y-71217304D01*
X147072571Y-71223265D01*
X147095671Y-71231530D01*
X147117849Y-71242020D01*
X147138893Y-71254633D01*
X147158598Y-71269247D01*
X147176777Y-71285723D01*
X147193253Y-71303902D01*
X147207867Y-71323607D01*
X147220480Y-71344651D01*
X147230970Y-71366829D01*
X147239235Y-71389929D01*
X147245196Y-71413727D01*
X147248796Y-71437996D01*
X147250000Y-71462500D01*
X147250000Y-72387500D01*
X147248796Y-72412004D01*
X147245196Y-72436273D01*
X147239235Y-72460071D01*
X147230970Y-72483171D01*
X147220480Y-72505349D01*
X147207867Y-72526393D01*
X147193253Y-72546098D01*
X147176777Y-72564277D01*
X147158598Y-72580753D01*
X147138893Y-72595367D01*
X147117849Y-72607980D01*
X147095671Y-72618470D01*
X147072571Y-72626735D01*
X147048773Y-72632696D01*
X147024504Y-72636296D01*
X147000000Y-72637500D01*
X145750000Y-72637500D01*
X145725496Y-72636296D01*
X145701227Y-72632696D01*
X145677429Y-72626735D01*
X145654329Y-72618470D01*
X145632151Y-72607980D01*
X145611107Y-72595367D01*
X145591402Y-72580753D01*
X145573223Y-72564277D01*
X145556747Y-72546098D01*
X145542133Y-72526393D01*
X145529520Y-72505349D01*
X145519030Y-72483171D01*
X145510765Y-72460071D01*
X145504804Y-72436273D01*
X145501204Y-72412004D01*
X145500000Y-72387500D01*
X145500000Y-71462500D01*
X145501204Y-71437996D01*
X145504804Y-71413727D01*
X145510765Y-71389929D01*
X145519030Y-71366829D01*
X145529520Y-71344651D01*
X145542133Y-71323607D01*
X145556747Y-71303902D01*
X145573223Y-71285723D01*
X145591402Y-71269247D01*
X145611107Y-71254633D01*
X145632151Y-71242020D01*
X145654329Y-71231530D01*
X145677429Y-71223265D01*
X145701227Y-71217304D01*
X145725496Y-71213704D01*
X145750000Y-71212500D01*
X147000000Y-71212500D01*
X147024504Y-71213704D01*
X147024504Y-71213704D01*
G37*
D13*
X146375000Y-71925000D03*
D10*
G36*
X147024504Y-68238704D02*
G01*
X147048773Y-68242304D01*
X147072571Y-68248265D01*
X147095671Y-68256530D01*
X147117849Y-68267020D01*
X147138893Y-68279633D01*
X147158598Y-68294247D01*
X147176777Y-68310723D01*
X147193253Y-68328902D01*
X147207867Y-68348607D01*
X147220480Y-68369651D01*
X147230970Y-68391829D01*
X147239235Y-68414929D01*
X147245196Y-68438727D01*
X147248796Y-68462996D01*
X147250000Y-68487500D01*
X147250000Y-69412500D01*
X147248796Y-69437004D01*
X147245196Y-69461273D01*
X147239235Y-69485071D01*
X147230970Y-69508171D01*
X147220480Y-69530349D01*
X147207867Y-69551393D01*
X147193253Y-69571098D01*
X147176777Y-69589277D01*
X147158598Y-69605753D01*
X147138893Y-69620367D01*
X147117849Y-69632980D01*
X147095671Y-69643470D01*
X147072571Y-69651735D01*
X147048773Y-69657696D01*
X147024504Y-69661296D01*
X147000000Y-69662500D01*
X145750000Y-69662500D01*
X145725496Y-69661296D01*
X145701227Y-69657696D01*
X145677429Y-69651735D01*
X145654329Y-69643470D01*
X145632151Y-69632980D01*
X145611107Y-69620367D01*
X145591402Y-69605753D01*
X145573223Y-69589277D01*
X145556747Y-69571098D01*
X145542133Y-69551393D01*
X145529520Y-69530349D01*
X145519030Y-69508171D01*
X145510765Y-69485071D01*
X145504804Y-69461273D01*
X145501204Y-69437004D01*
X145500000Y-69412500D01*
X145500000Y-68487500D01*
X145501204Y-68462996D01*
X145504804Y-68438727D01*
X145510765Y-68414929D01*
X145519030Y-68391829D01*
X145529520Y-68369651D01*
X145542133Y-68348607D01*
X145556747Y-68328902D01*
X145573223Y-68310723D01*
X145591402Y-68294247D01*
X145611107Y-68279633D01*
X145632151Y-68267020D01*
X145654329Y-68256530D01*
X145677429Y-68248265D01*
X145701227Y-68242304D01*
X145725496Y-68238704D01*
X145750000Y-68237500D01*
X147000000Y-68237500D01*
X147024504Y-68238704D01*
X147024504Y-68238704D01*
G37*
D13*
X146375000Y-68950000D03*
D10*
G36*
X147024504Y-80863704D02*
G01*
X147048773Y-80867304D01*
X147072571Y-80873265D01*
X147095671Y-80881530D01*
X147117849Y-80892020D01*
X147138893Y-80904633D01*
X147158598Y-80919247D01*
X147176777Y-80935723D01*
X147193253Y-80953902D01*
X147207867Y-80973607D01*
X147220480Y-80994651D01*
X147230970Y-81016829D01*
X147239235Y-81039929D01*
X147245196Y-81063727D01*
X147248796Y-81087996D01*
X147250000Y-81112500D01*
X147250000Y-82037500D01*
X147248796Y-82062004D01*
X147245196Y-82086273D01*
X147239235Y-82110071D01*
X147230970Y-82133171D01*
X147220480Y-82155349D01*
X147207867Y-82176393D01*
X147193253Y-82196098D01*
X147176777Y-82214277D01*
X147158598Y-82230753D01*
X147138893Y-82245367D01*
X147117849Y-82257980D01*
X147095671Y-82268470D01*
X147072571Y-82276735D01*
X147048773Y-82282696D01*
X147024504Y-82286296D01*
X147000000Y-82287500D01*
X145750000Y-82287500D01*
X145725496Y-82286296D01*
X145701227Y-82282696D01*
X145677429Y-82276735D01*
X145654329Y-82268470D01*
X145632151Y-82257980D01*
X145611107Y-82245367D01*
X145591402Y-82230753D01*
X145573223Y-82214277D01*
X145556747Y-82196098D01*
X145542133Y-82176393D01*
X145529520Y-82155349D01*
X145519030Y-82133171D01*
X145510765Y-82110071D01*
X145504804Y-82086273D01*
X145501204Y-82062004D01*
X145500000Y-82037500D01*
X145500000Y-81112500D01*
X145501204Y-81087996D01*
X145504804Y-81063727D01*
X145510765Y-81039929D01*
X145519030Y-81016829D01*
X145529520Y-80994651D01*
X145542133Y-80973607D01*
X145556747Y-80953902D01*
X145573223Y-80935723D01*
X145591402Y-80919247D01*
X145611107Y-80904633D01*
X145632151Y-80892020D01*
X145654329Y-80881530D01*
X145677429Y-80873265D01*
X145701227Y-80867304D01*
X145725496Y-80863704D01*
X145750000Y-80862500D01*
X147000000Y-80862500D01*
X147024504Y-80863704D01*
X147024504Y-80863704D01*
G37*
D13*
X146375000Y-81575000D03*
D10*
G36*
X147024504Y-77888704D02*
G01*
X147048773Y-77892304D01*
X147072571Y-77898265D01*
X147095671Y-77906530D01*
X147117849Y-77917020D01*
X147138893Y-77929633D01*
X147158598Y-77944247D01*
X147176777Y-77960723D01*
X147193253Y-77978902D01*
X147207867Y-77998607D01*
X147220480Y-78019651D01*
X147230970Y-78041829D01*
X147239235Y-78064929D01*
X147245196Y-78088727D01*
X147248796Y-78112996D01*
X147250000Y-78137500D01*
X147250000Y-79062500D01*
X147248796Y-79087004D01*
X147245196Y-79111273D01*
X147239235Y-79135071D01*
X147230970Y-79158171D01*
X147220480Y-79180349D01*
X147207867Y-79201393D01*
X147193253Y-79221098D01*
X147176777Y-79239277D01*
X147158598Y-79255753D01*
X147138893Y-79270367D01*
X147117849Y-79282980D01*
X147095671Y-79293470D01*
X147072571Y-79301735D01*
X147048773Y-79307696D01*
X147024504Y-79311296D01*
X147000000Y-79312500D01*
X145750000Y-79312500D01*
X145725496Y-79311296D01*
X145701227Y-79307696D01*
X145677429Y-79301735D01*
X145654329Y-79293470D01*
X145632151Y-79282980D01*
X145611107Y-79270367D01*
X145591402Y-79255753D01*
X145573223Y-79239277D01*
X145556747Y-79221098D01*
X145542133Y-79201393D01*
X145529520Y-79180349D01*
X145519030Y-79158171D01*
X145510765Y-79135071D01*
X145504804Y-79111273D01*
X145501204Y-79087004D01*
X145500000Y-79062500D01*
X145500000Y-78137500D01*
X145501204Y-78112996D01*
X145504804Y-78088727D01*
X145510765Y-78064929D01*
X145519030Y-78041829D01*
X145529520Y-78019651D01*
X145542133Y-77998607D01*
X145556747Y-77978902D01*
X145573223Y-77960723D01*
X145591402Y-77944247D01*
X145611107Y-77929633D01*
X145632151Y-77917020D01*
X145654329Y-77906530D01*
X145677429Y-77898265D01*
X145701227Y-77892304D01*
X145725496Y-77888704D01*
X145750000Y-77887500D01*
X147000000Y-77887500D01*
X147024504Y-77888704D01*
X147024504Y-77888704D01*
G37*
D13*
X146375000Y-78600000D03*
D10*
G36*
X87974505Y-46551204D02*
G01*
X87998773Y-46554804D01*
X88022572Y-46560765D01*
X88045671Y-46569030D01*
X88067850Y-46579520D01*
X88088893Y-46592132D01*
X88108599Y-46606747D01*
X88126777Y-46623223D01*
X88143253Y-46641401D01*
X88157868Y-46661107D01*
X88170480Y-46682150D01*
X88180970Y-46704329D01*
X88189235Y-46727428D01*
X88195196Y-46751227D01*
X88198796Y-46775495D01*
X88200000Y-46799999D01*
X88200000Y-47450001D01*
X88198796Y-47474505D01*
X88195196Y-47498773D01*
X88189235Y-47522572D01*
X88180970Y-47545671D01*
X88170480Y-47567850D01*
X88157868Y-47588893D01*
X88143253Y-47608599D01*
X88126777Y-47626777D01*
X88108599Y-47643253D01*
X88088893Y-47657868D01*
X88067850Y-47670480D01*
X88045671Y-47680970D01*
X88022572Y-47689235D01*
X87998773Y-47695196D01*
X87974505Y-47698796D01*
X87950001Y-47700000D01*
X87049999Y-47700000D01*
X87025495Y-47698796D01*
X87001227Y-47695196D01*
X86977428Y-47689235D01*
X86954329Y-47680970D01*
X86932150Y-47670480D01*
X86911107Y-47657868D01*
X86891401Y-47643253D01*
X86873223Y-47626777D01*
X86856747Y-47608599D01*
X86842132Y-47588893D01*
X86829520Y-47567850D01*
X86819030Y-47545671D01*
X86810765Y-47522572D01*
X86804804Y-47498773D01*
X86801204Y-47474505D01*
X86800000Y-47450001D01*
X86800000Y-46799999D01*
X86801204Y-46775495D01*
X86804804Y-46751227D01*
X86810765Y-46727428D01*
X86819030Y-46704329D01*
X86829520Y-46682150D01*
X86842132Y-46661107D01*
X86856747Y-46641401D01*
X86873223Y-46623223D01*
X86891401Y-46606747D01*
X86911107Y-46592132D01*
X86932150Y-46579520D01*
X86954329Y-46569030D01*
X86977428Y-46560765D01*
X87001227Y-46554804D01*
X87025495Y-46551204D01*
X87049999Y-46550000D01*
X87950001Y-46550000D01*
X87974505Y-46551204D01*
X87974505Y-46551204D01*
G37*
D12*
X87500000Y-47125000D03*
D10*
G36*
X87974505Y-44501204D02*
G01*
X87998773Y-44504804D01*
X88022572Y-44510765D01*
X88045671Y-44519030D01*
X88067850Y-44529520D01*
X88088893Y-44542132D01*
X88108599Y-44556747D01*
X88126777Y-44573223D01*
X88143253Y-44591401D01*
X88157868Y-44611107D01*
X88170480Y-44632150D01*
X88180970Y-44654329D01*
X88189235Y-44677428D01*
X88195196Y-44701227D01*
X88198796Y-44725495D01*
X88200000Y-44749999D01*
X88200000Y-45400001D01*
X88198796Y-45424505D01*
X88195196Y-45448773D01*
X88189235Y-45472572D01*
X88180970Y-45495671D01*
X88170480Y-45517850D01*
X88157868Y-45538893D01*
X88143253Y-45558599D01*
X88126777Y-45576777D01*
X88108599Y-45593253D01*
X88088893Y-45607868D01*
X88067850Y-45620480D01*
X88045671Y-45630970D01*
X88022572Y-45639235D01*
X87998773Y-45645196D01*
X87974505Y-45648796D01*
X87950001Y-45650000D01*
X87049999Y-45650000D01*
X87025495Y-45648796D01*
X87001227Y-45645196D01*
X86977428Y-45639235D01*
X86954329Y-45630970D01*
X86932150Y-45620480D01*
X86911107Y-45607868D01*
X86891401Y-45593253D01*
X86873223Y-45576777D01*
X86856747Y-45558599D01*
X86842132Y-45538893D01*
X86829520Y-45517850D01*
X86819030Y-45495671D01*
X86810765Y-45472572D01*
X86804804Y-45448773D01*
X86801204Y-45424505D01*
X86800000Y-45400001D01*
X86800000Y-44749999D01*
X86801204Y-44725495D01*
X86804804Y-44701227D01*
X86810765Y-44677428D01*
X86819030Y-44654329D01*
X86829520Y-44632150D01*
X86842132Y-44611107D01*
X86856747Y-44591401D01*
X86873223Y-44573223D01*
X86891401Y-44556747D01*
X86911107Y-44542132D01*
X86932150Y-44529520D01*
X86954329Y-44519030D01*
X86977428Y-44510765D01*
X87001227Y-44504804D01*
X87025495Y-44501204D01*
X87049999Y-44500000D01*
X87950001Y-44500000D01*
X87974505Y-44501204D01*
X87974505Y-44501204D01*
G37*
D12*
X87500000Y-45075000D03*
D10*
G36*
X84424505Y-46551204D02*
G01*
X84448773Y-46554804D01*
X84472572Y-46560765D01*
X84495671Y-46569030D01*
X84517850Y-46579520D01*
X84538893Y-46592132D01*
X84558599Y-46606747D01*
X84576777Y-46623223D01*
X84593253Y-46641401D01*
X84607868Y-46661107D01*
X84620480Y-46682150D01*
X84630970Y-46704329D01*
X84639235Y-46727428D01*
X84645196Y-46751227D01*
X84648796Y-46775495D01*
X84650000Y-46799999D01*
X84650000Y-47450001D01*
X84648796Y-47474505D01*
X84645196Y-47498773D01*
X84639235Y-47522572D01*
X84630970Y-47545671D01*
X84620480Y-47567850D01*
X84607868Y-47588893D01*
X84593253Y-47608599D01*
X84576777Y-47626777D01*
X84558599Y-47643253D01*
X84538893Y-47657868D01*
X84517850Y-47670480D01*
X84495671Y-47680970D01*
X84472572Y-47689235D01*
X84448773Y-47695196D01*
X84424505Y-47698796D01*
X84400001Y-47700000D01*
X83499999Y-47700000D01*
X83475495Y-47698796D01*
X83451227Y-47695196D01*
X83427428Y-47689235D01*
X83404329Y-47680970D01*
X83382150Y-47670480D01*
X83361107Y-47657868D01*
X83341401Y-47643253D01*
X83323223Y-47626777D01*
X83306747Y-47608599D01*
X83292132Y-47588893D01*
X83279520Y-47567850D01*
X83269030Y-47545671D01*
X83260765Y-47522572D01*
X83254804Y-47498773D01*
X83251204Y-47474505D01*
X83250000Y-47450001D01*
X83250000Y-46799999D01*
X83251204Y-46775495D01*
X83254804Y-46751227D01*
X83260765Y-46727428D01*
X83269030Y-46704329D01*
X83279520Y-46682150D01*
X83292132Y-46661107D01*
X83306747Y-46641401D01*
X83323223Y-46623223D01*
X83341401Y-46606747D01*
X83361107Y-46592132D01*
X83382150Y-46579520D01*
X83404329Y-46569030D01*
X83427428Y-46560765D01*
X83451227Y-46554804D01*
X83475495Y-46551204D01*
X83499999Y-46550000D01*
X84400001Y-46550000D01*
X84424505Y-46551204D01*
X84424505Y-46551204D01*
G37*
D12*
X83950000Y-47125000D03*
D10*
G36*
X84424505Y-44501204D02*
G01*
X84448773Y-44504804D01*
X84472572Y-44510765D01*
X84495671Y-44519030D01*
X84517850Y-44529520D01*
X84538893Y-44542132D01*
X84558599Y-44556747D01*
X84576777Y-44573223D01*
X84593253Y-44591401D01*
X84607868Y-44611107D01*
X84620480Y-44632150D01*
X84630970Y-44654329D01*
X84639235Y-44677428D01*
X84645196Y-44701227D01*
X84648796Y-44725495D01*
X84650000Y-44749999D01*
X84650000Y-45400001D01*
X84648796Y-45424505D01*
X84645196Y-45448773D01*
X84639235Y-45472572D01*
X84630970Y-45495671D01*
X84620480Y-45517850D01*
X84607868Y-45538893D01*
X84593253Y-45558599D01*
X84576777Y-45576777D01*
X84558599Y-45593253D01*
X84538893Y-45607868D01*
X84517850Y-45620480D01*
X84495671Y-45630970D01*
X84472572Y-45639235D01*
X84448773Y-45645196D01*
X84424505Y-45648796D01*
X84400001Y-45650000D01*
X83499999Y-45650000D01*
X83475495Y-45648796D01*
X83451227Y-45645196D01*
X83427428Y-45639235D01*
X83404329Y-45630970D01*
X83382150Y-45620480D01*
X83361107Y-45607868D01*
X83341401Y-45593253D01*
X83323223Y-45576777D01*
X83306747Y-45558599D01*
X83292132Y-45538893D01*
X83279520Y-45517850D01*
X83269030Y-45495671D01*
X83260765Y-45472572D01*
X83254804Y-45448773D01*
X83251204Y-45424505D01*
X83250000Y-45400001D01*
X83250000Y-44749999D01*
X83251204Y-44725495D01*
X83254804Y-44701227D01*
X83260765Y-44677428D01*
X83269030Y-44654329D01*
X83279520Y-44632150D01*
X83292132Y-44611107D01*
X83306747Y-44591401D01*
X83323223Y-44573223D01*
X83341401Y-44556747D01*
X83361107Y-44542132D01*
X83382150Y-44529520D01*
X83404329Y-44519030D01*
X83427428Y-44510765D01*
X83451227Y-44504804D01*
X83475495Y-44501204D01*
X83499999Y-44500000D01*
X84400001Y-44500000D01*
X84424505Y-44501204D01*
X84424505Y-44501204D01*
G37*
D12*
X83950000Y-45075000D03*
D10*
G36*
X80874505Y-46551204D02*
G01*
X80898773Y-46554804D01*
X80922572Y-46560765D01*
X80945671Y-46569030D01*
X80967850Y-46579520D01*
X80988893Y-46592132D01*
X81008599Y-46606747D01*
X81026777Y-46623223D01*
X81043253Y-46641401D01*
X81057868Y-46661107D01*
X81070480Y-46682150D01*
X81080970Y-46704329D01*
X81089235Y-46727428D01*
X81095196Y-46751227D01*
X81098796Y-46775495D01*
X81100000Y-46799999D01*
X81100000Y-47450001D01*
X81098796Y-47474505D01*
X81095196Y-47498773D01*
X81089235Y-47522572D01*
X81080970Y-47545671D01*
X81070480Y-47567850D01*
X81057868Y-47588893D01*
X81043253Y-47608599D01*
X81026777Y-47626777D01*
X81008599Y-47643253D01*
X80988893Y-47657868D01*
X80967850Y-47670480D01*
X80945671Y-47680970D01*
X80922572Y-47689235D01*
X80898773Y-47695196D01*
X80874505Y-47698796D01*
X80850001Y-47700000D01*
X79949999Y-47700000D01*
X79925495Y-47698796D01*
X79901227Y-47695196D01*
X79877428Y-47689235D01*
X79854329Y-47680970D01*
X79832150Y-47670480D01*
X79811107Y-47657868D01*
X79791401Y-47643253D01*
X79773223Y-47626777D01*
X79756747Y-47608599D01*
X79742132Y-47588893D01*
X79729520Y-47567850D01*
X79719030Y-47545671D01*
X79710765Y-47522572D01*
X79704804Y-47498773D01*
X79701204Y-47474505D01*
X79700000Y-47450001D01*
X79700000Y-46799999D01*
X79701204Y-46775495D01*
X79704804Y-46751227D01*
X79710765Y-46727428D01*
X79719030Y-46704329D01*
X79729520Y-46682150D01*
X79742132Y-46661107D01*
X79756747Y-46641401D01*
X79773223Y-46623223D01*
X79791401Y-46606747D01*
X79811107Y-46592132D01*
X79832150Y-46579520D01*
X79854329Y-46569030D01*
X79877428Y-46560765D01*
X79901227Y-46554804D01*
X79925495Y-46551204D01*
X79949999Y-46550000D01*
X80850001Y-46550000D01*
X80874505Y-46551204D01*
X80874505Y-46551204D01*
G37*
D12*
X80400000Y-47125000D03*
D10*
G36*
X80874505Y-44501204D02*
G01*
X80898773Y-44504804D01*
X80922572Y-44510765D01*
X80945671Y-44519030D01*
X80967850Y-44529520D01*
X80988893Y-44542132D01*
X81008599Y-44556747D01*
X81026777Y-44573223D01*
X81043253Y-44591401D01*
X81057868Y-44611107D01*
X81070480Y-44632150D01*
X81080970Y-44654329D01*
X81089235Y-44677428D01*
X81095196Y-44701227D01*
X81098796Y-44725495D01*
X81100000Y-44749999D01*
X81100000Y-45400001D01*
X81098796Y-45424505D01*
X81095196Y-45448773D01*
X81089235Y-45472572D01*
X81080970Y-45495671D01*
X81070480Y-45517850D01*
X81057868Y-45538893D01*
X81043253Y-45558599D01*
X81026777Y-45576777D01*
X81008599Y-45593253D01*
X80988893Y-45607868D01*
X80967850Y-45620480D01*
X80945671Y-45630970D01*
X80922572Y-45639235D01*
X80898773Y-45645196D01*
X80874505Y-45648796D01*
X80850001Y-45650000D01*
X79949999Y-45650000D01*
X79925495Y-45648796D01*
X79901227Y-45645196D01*
X79877428Y-45639235D01*
X79854329Y-45630970D01*
X79832150Y-45620480D01*
X79811107Y-45607868D01*
X79791401Y-45593253D01*
X79773223Y-45576777D01*
X79756747Y-45558599D01*
X79742132Y-45538893D01*
X79729520Y-45517850D01*
X79719030Y-45495671D01*
X79710765Y-45472572D01*
X79704804Y-45448773D01*
X79701204Y-45424505D01*
X79700000Y-45400001D01*
X79700000Y-44749999D01*
X79701204Y-44725495D01*
X79704804Y-44701227D01*
X79710765Y-44677428D01*
X79719030Y-44654329D01*
X79729520Y-44632150D01*
X79742132Y-44611107D01*
X79756747Y-44591401D01*
X79773223Y-44573223D01*
X79791401Y-44556747D01*
X79811107Y-44542132D01*
X79832150Y-44529520D01*
X79854329Y-44519030D01*
X79877428Y-44510765D01*
X79901227Y-44504804D01*
X79925495Y-44501204D01*
X79949999Y-44500000D01*
X80850001Y-44500000D01*
X80874505Y-44501204D01*
X80874505Y-44501204D01*
G37*
D12*
X80400000Y-45075000D03*
D10*
G36*
X147024504Y-87538704D02*
G01*
X147048773Y-87542304D01*
X147072571Y-87548265D01*
X147095671Y-87556530D01*
X147117849Y-87567020D01*
X147138893Y-87579633D01*
X147158598Y-87594247D01*
X147176777Y-87610723D01*
X147193253Y-87628902D01*
X147207867Y-87648607D01*
X147220480Y-87669651D01*
X147230970Y-87691829D01*
X147239235Y-87714929D01*
X147245196Y-87738727D01*
X147248796Y-87762996D01*
X147250000Y-87787500D01*
X147250000Y-88712500D01*
X147248796Y-88737004D01*
X147245196Y-88761273D01*
X147239235Y-88785071D01*
X147230970Y-88808171D01*
X147220480Y-88830349D01*
X147207867Y-88851393D01*
X147193253Y-88871098D01*
X147176777Y-88889277D01*
X147158598Y-88905753D01*
X147138893Y-88920367D01*
X147117849Y-88932980D01*
X147095671Y-88943470D01*
X147072571Y-88951735D01*
X147048773Y-88957696D01*
X147024504Y-88961296D01*
X147000000Y-88962500D01*
X145750000Y-88962500D01*
X145725496Y-88961296D01*
X145701227Y-88957696D01*
X145677429Y-88951735D01*
X145654329Y-88943470D01*
X145632151Y-88932980D01*
X145611107Y-88920367D01*
X145591402Y-88905753D01*
X145573223Y-88889277D01*
X145556747Y-88871098D01*
X145542133Y-88851393D01*
X145529520Y-88830349D01*
X145519030Y-88808171D01*
X145510765Y-88785071D01*
X145504804Y-88761273D01*
X145501204Y-88737004D01*
X145500000Y-88712500D01*
X145500000Y-87787500D01*
X145501204Y-87762996D01*
X145504804Y-87738727D01*
X145510765Y-87714929D01*
X145519030Y-87691829D01*
X145529520Y-87669651D01*
X145542133Y-87648607D01*
X145556747Y-87628902D01*
X145573223Y-87610723D01*
X145591402Y-87594247D01*
X145611107Y-87579633D01*
X145632151Y-87567020D01*
X145654329Y-87556530D01*
X145677429Y-87548265D01*
X145701227Y-87542304D01*
X145725496Y-87538704D01*
X145750000Y-87537500D01*
X147000000Y-87537500D01*
X147024504Y-87538704D01*
X147024504Y-87538704D01*
G37*
D13*
X146375000Y-88250000D03*
D10*
G36*
X147024504Y-90513704D02*
G01*
X147048773Y-90517304D01*
X147072571Y-90523265D01*
X147095671Y-90531530D01*
X147117849Y-90542020D01*
X147138893Y-90554633D01*
X147158598Y-90569247D01*
X147176777Y-90585723D01*
X147193253Y-90603902D01*
X147207867Y-90623607D01*
X147220480Y-90644651D01*
X147230970Y-90666829D01*
X147239235Y-90689929D01*
X147245196Y-90713727D01*
X147248796Y-90737996D01*
X147250000Y-90762500D01*
X147250000Y-91687500D01*
X147248796Y-91712004D01*
X147245196Y-91736273D01*
X147239235Y-91760071D01*
X147230970Y-91783171D01*
X147220480Y-91805349D01*
X147207867Y-91826393D01*
X147193253Y-91846098D01*
X147176777Y-91864277D01*
X147158598Y-91880753D01*
X147138893Y-91895367D01*
X147117849Y-91907980D01*
X147095671Y-91918470D01*
X147072571Y-91926735D01*
X147048773Y-91932696D01*
X147024504Y-91936296D01*
X147000000Y-91937500D01*
X145750000Y-91937500D01*
X145725496Y-91936296D01*
X145701227Y-91932696D01*
X145677429Y-91926735D01*
X145654329Y-91918470D01*
X145632151Y-91907980D01*
X145611107Y-91895367D01*
X145591402Y-91880753D01*
X145573223Y-91864277D01*
X145556747Y-91846098D01*
X145542133Y-91826393D01*
X145529520Y-91805349D01*
X145519030Y-91783171D01*
X145510765Y-91760071D01*
X145504804Y-91736273D01*
X145501204Y-91712004D01*
X145500000Y-91687500D01*
X145500000Y-90762500D01*
X145501204Y-90737996D01*
X145504804Y-90713727D01*
X145510765Y-90689929D01*
X145519030Y-90666829D01*
X145529520Y-90644651D01*
X145542133Y-90623607D01*
X145556747Y-90603902D01*
X145573223Y-90585723D01*
X145591402Y-90569247D01*
X145611107Y-90554633D01*
X145632151Y-90542020D01*
X145654329Y-90531530D01*
X145677429Y-90523265D01*
X145701227Y-90517304D01*
X145725496Y-90513704D01*
X145750000Y-90512500D01*
X147000000Y-90512500D01*
X147024504Y-90513704D01*
X147024504Y-90513704D01*
G37*
D13*
X146375000Y-91225000D03*
D10*
G36*
X147024504Y-97188704D02*
G01*
X147048773Y-97192304D01*
X147072571Y-97198265D01*
X147095671Y-97206530D01*
X147117849Y-97217020D01*
X147138893Y-97229633D01*
X147158598Y-97244247D01*
X147176777Y-97260723D01*
X147193253Y-97278902D01*
X147207867Y-97298607D01*
X147220480Y-97319651D01*
X147230970Y-97341829D01*
X147239235Y-97364929D01*
X147245196Y-97388727D01*
X147248796Y-97412996D01*
X147250000Y-97437500D01*
X147250000Y-98362500D01*
X147248796Y-98387004D01*
X147245196Y-98411273D01*
X147239235Y-98435071D01*
X147230970Y-98458171D01*
X147220480Y-98480349D01*
X147207867Y-98501393D01*
X147193253Y-98521098D01*
X147176777Y-98539277D01*
X147158598Y-98555753D01*
X147138893Y-98570367D01*
X147117849Y-98582980D01*
X147095671Y-98593470D01*
X147072571Y-98601735D01*
X147048773Y-98607696D01*
X147024504Y-98611296D01*
X147000000Y-98612500D01*
X145750000Y-98612500D01*
X145725496Y-98611296D01*
X145701227Y-98607696D01*
X145677429Y-98601735D01*
X145654329Y-98593470D01*
X145632151Y-98582980D01*
X145611107Y-98570367D01*
X145591402Y-98555753D01*
X145573223Y-98539277D01*
X145556747Y-98521098D01*
X145542133Y-98501393D01*
X145529520Y-98480349D01*
X145519030Y-98458171D01*
X145510765Y-98435071D01*
X145504804Y-98411273D01*
X145501204Y-98387004D01*
X145500000Y-98362500D01*
X145500000Y-97437500D01*
X145501204Y-97412996D01*
X145504804Y-97388727D01*
X145510765Y-97364929D01*
X145519030Y-97341829D01*
X145529520Y-97319651D01*
X145542133Y-97298607D01*
X145556747Y-97278902D01*
X145573223Y-97260723D01*
X145591402Y-97244247D01*
X145611107Y-97229633D01*
X145632151Y-97217020D01*
X145654329Y-97206530D01*
X145677429Y-97198265D01*
X145701227Y-97192304D01*
X145725496Y-97188704D01*
X145750000Y-97187500D01*
X147000000Y-97187500D01*
X147024504Y-97188704D01*
X147024504Y-97188704D01*
G37*
D13*
X146375000Y-97900000D03*
D10*
G36*
X147024504Y-100163704D02*
G01*
X147048773Y-100167304D01*
X147072571Y-100173265D01*
X147095671Y-100181530D01*
X147117849Y-100192020D01*
X147138893Y-100204633D01*
X147158598Y-100219247D01*
X147176777Y-100235723D01*
X147193253Y-100253902D01*
X147207867Y-100273607D01*
X147220480Y-100294651D01*
X147230970Y-100316829D01*
X147239235Y-100339929D01*
X147245196Y-100363727D01*
X147248796Y-100387996D01*
X147250000Y-100412500D01*
X147250000Y-101337500D01*
X147248796Y-101362004D01*
X147245196Y-101386273D01*
X147239235Y-101410071D01*
X147230970Y-101433171D01*
X147220480Y-101455349D01*
X147207867Y-101476393D01*
X147193253Y-101496098D01*
X147176777Y-101514277D01*
X147158598Y-101530753D01*
X147138893Y-101545367D01*
X147117849Y-101557980D01*
X147095671Y-101568470D01*
X147072571Y-101576735D01*
X147048773Y-101582696D01*
X147024504Y-101586296D01*
X147000000Y-101587500D01*
X145750000Y-101587500D01*
X145725496Y-101586296D01*
X145701227Y-101582696D01*
X145677429Y-101576735D01*
X145654329Y-101568470D01*
X145632151Y-101557980D01*
X145611107Y-101545367D01*
X145591402Y-101530753D01*
X145573223Y-101514277D01*
X145556747Y-101496098D01*
X145542133Y-101476393D01*
X145529520Y-101455349D01*
X145519030Y-101433171D01*
X145510765Y-101410071D01*
X145504804Y-101386273D01*
X145501204Y-101362004D01*
X145500000Y-101337500D01*
X145500000Y-100412500D01*
X145501204Y-100387996D01*
X145504804Y-100363727D01*
X145510765Y-100339929D01*
X145519030Y-100316829D01*
X145529520Y-100294651D01*
X145542133Y-100273607D01*
X145556747Y-100253902D01*
X145573223Y-100235723D01*
X145591402Y-100219247D01*
X145611107Y-100204633D01*
X145632151Y-100192020D01*
X145654329Y-100181530D01*
X145677429Y-100173265D01*
X145701227Y-100167304D01*
X145725496Y-100163704D01*
X145750000Y-100162500D01*
X147000000Y-100162500D01*
X147024504Y-100163704D01*
X147024504Y-100163704D01*
G37*
D13*
X146375000Y-100875000D03*
D10*
G36*
X147024504Y-109813704D02*
G01*
X147048773Y-109817304D01*
X147072571Y-109823265D01*
X147095671Y-109831530D01*
X147117849Y-109842020D01*
X147138893Y-109854633D01*
X147158598Y-109869247D01*
X147176777Y-109885723D01*
X147193253Y-109903902D01*
X147207867Y-109923607D01*
X147220480Y-109944651D01*
X147230970Y-109966829D01*
X147239235Y-109989929D01*
X147245196Y-110013727D01*
X147248796Y-110037996D01*
X147250000Y-110062500D01*
X147250000Y-110987500D01*
X147248796Y-111012004D01*
X147245196Y-111036273D01*
X147239235Y-111060071D01*
X147230970Y-111083171D01*
X147220480Y-111105349D01*
X147207867Y-111126393D01*
X147193253Y-111146098D01*
X147176777Y-111164277D01*
X147158598Y-111180753D01*
X147138893Y-111195367D01*
X147117849Y-111207980D01*
X147095671Y-111218470D01*
X147072571Y-111226735D01*
X147048773Y-111232696D01*
X147024504Y-111236296D01*
X147000000Y-111237500D01*
X145750000Y-111237500D01*
X145725496Y-111236296D01*
X145701227Y-111232696D01*
X145677429Y-111226735D01*
X145654329Y-111218470D01*
X145632151Y-111207980D01*
X145611107Y-111195367D01*
X145591402Y-111180753D01*
X145573223Y-111164277D01*
X145556747Y-111146098D01*
X145542133Y-111126393D01*
X145529520Y-111105349D01*
X145519030Y-111083171D01*
X145510765Y-111060071D01*
X145504804Y-111036273D01*
X145501204Y-111012004D01*
X145500000Y-110987500D01*
X145500000Y-110062500D01*
X145501204Y-110037996D01*
X145504804Y-110013727D01*
X145510765Y-109989929D01*
X145519030Y-109966829D01*
X145529520Y-109944651D01*
X145542133Y-109923607D01*
X145556747Y-109903902D01*
X145573223Y-109885723D01*
X145591402Y-109869247D01*
X145611107Y-109854633D01*
X145632151Y-109842020D01*
X145654329Y-109831530D01*
X145677429Y-109823265D01*
X145701227Y-109817304D01*
X145725496Y-109813704D01*
X145750000Y-109812500D01*
X147000000Y-109812500D01*
X147024504Y-109813704D01*
X147024504Y-109813704D01*
G37*
D13*
X146375000Y-110525000D03*
D10*
G36*
X147024504Y-106838704D02*
G01*
X147048773Y-106842304D01*
X147072571Y-106848265D01*
X147095671Y-106856530D01*
X147117849Y-106867020D01*
X147138893Y-106879633D01*
X147158598Y-106894247D01*
X147176777Y-106910723D01*
X147193253Y-106928902D01*
X147207867Y-106948607D01*
X147220480Y-106969651D01*
X147230970Y-106991829D01*
X147239235Y-107014929D01*
X147245196Y-107038727D01*
X147248796Y-107062996D01*
X147250000Y-107087500D01*
X147250000Y-108012500D01*
X147248796Y-108037004D01*
X147245196Y-108061273D01*
X147239235Y-108085071D01*
X147230970Y-108108171D01*
X147220480Y-108130349D01*
X147207867Y-108151393D01*
X147193253Y-108171098D01*
X147176777Y-108189277D01*
X147158598Y-108205753D01*
X147138893Y-108220367D01*
X147117849Y-108232980D01*
X147095671Y-108243470D01*
X147072571Y-108251735D01*
X147048773Y-108257696D01*
X147024504Y-108261296D01*
X147000000Y-108262500D01*
X145750000Y-108262500D01*
X145725496Y-108261296D01*
X145701227Y-108257696D01*
X145677429Y-108251735D01*
X145654329Y-108243470D01*
X145632151Y-108232980D01*
X145611107Y-108220367D01*
X145591402Y-108205753D01*
X145573223Y-108189277D01*
X145556747Y-108171098D01*
X145542133Y-108151393D01*
X145529520Y-108130349D01*
X145519030Y-108108171D01*
X145510765Y-108085071D01*
X145504804Y-108061273D01*
X145501204Y-108037004D01*
X145500000Y-108012500D01*
X145500000Y-107087500D01*
X145501204Y-107062996D01*
X145504804Y-107038727D01*
X145510765Y-107014929D01*
X145519030Y-106991829D01*
X145529520Y-106969651D01*
X145542133Y-106948607D01*
X145556747Y-106928902D01*
X145573223Y-106910723D01*
X145591402Y-106894247D01*
X145611107Y-106879633D01*
X145632151Y-106867020D01*
X145654329Y-106856530D01*
X145677429Y-106848265D01*
X145701227Y-106842304D01*
X145725496Y-106838704D01*
X145750000Y-106837500D01*
X147000000Y-106837500D01*
X147024504Y-106838704D01*
X147024504Y-106838704D01*
G37*
D13*
X146375000Y-107550000D03*
D10*
G36*
X77324505Y-44501204D02*
G01*
X77348773Y-44504804D01*
X77372572Y-44510765D01*
X77395671Y-44519030D01*
X77417850Y-44529520D01*
X77438893Y-44542132D01*
X77458599Y-44556747D01*
X77476777Y-44573223D01*
X77493253Y-44591401D01*
X77507868Y-44611107D01*
X77520480Y-44632150D01*
X77530970Y-44654329D01*
X77539235Y-44677428D01*
X77545196Y-44701227D01*
X77548796Y-44725495D01*
X77550000Y-44749999D01*
X77550000Y-45400001D01*
X77548796Y-45424505D01*
X77545196Y-45448773D01*
X77539235Y-45472572D01*
X77530970Y-45495671D01*
X77520480Y-45517850D01*
X77507868Y-45538893D01*
X77493253Y-45558599D01*
X77476777Y-45576777D01*
X77458599Y-45593253D01*
X77438893Y-45607868D01*
X77417850Y-45620480D01*
X77395671Y-45630970D01*
X77372572Y-45639235D01*
X77348773Y-45645196D01*
X77324505Y-45648796D01*
X77300001Y-45650000D01*
X76399999Y-45650000D01*
X76375495Y-45648796D01*
X76351227Y-45645196D01*
X76327428Y-45639235D01*
X76304329Y-45630970D01*
X76282150Y-45620480D01*
X76261107Y-45607868D01*
X76241401Y-45593253D01*
X76223223Y-45576777D01*
X76206747Y-45558599D01*
X76192132Y-45538893D01*
X76179520Y-45517850D01*
X76169030Y-45495671D01*
X76160765Y-45472572D01*
X76154804Y-45448773D01*
X76151204Y-45424505D01*
X76150000Y-45400001D01*
X76150000Y-44749999D01*
X76151204Y-44725495D01*
X76154804Y-44701227D01*
X76160765Y-44677428D01*
X76169030Y-44654329D01*
X76179520Y-44632150D01*
X76192132Y-44611107D01*
X76206747Y-44591401D01*
X76223223Y-44573223D01*
X76241401Y-44556747D01*
X76261107Y-44542132D01*
X76282150Y-44529520D01*
X76304329Y-44519030D01*
X76327428Y-44510765D01*
X76351227Y-44504804D01*
X76375495Y-44501204D01*
X76399999Y-44500000D01*
X77300001Y-44500000D01*
X77324505Y-44501204D01*
X77324505Y-44501204D01*
G37*
D12*
X76850000Y-45075000D03*
D10*
G36*
X77324505Y-46551204D02*
G01*
X77348773Y-46554804D01*
X77372572Y-46560765D01*
X77395671Y-46569030D01*
X77417850Y-46579520D01*
X77438893Y-46592132D01*
X77458599Y-46606747D01*
X77476777Y-46623223D01*
X77493253Y-46641401D01*
X77507868Y-46661107D01*
X77520480Y-46682150D01*
X77530970Y-46704329D01*
X77539235Y-46727428D01*
X77545196Y-46751227D01*
X77548796Y-46775495D01*
X77550000Y-46799999D01*
X77550000Y-47450001D01*
X77548796Y-47474505D01*
X77545196Y-47498773D01*
X77539235Y-47522572D01*
X77530970Y-47545671D01*
X77520480Y-47567850D01*
X77507868Y-47588893D01*
X77493253Y-47608599D01*
X77476777Y-47626777D01*
X77458599Y-47643253D01*
X77438893Y-47657868D01*
X77417850Y-47670480D01*
X77395671Y-47680970D01*
X77372572Y-47689235D01*
X77348773Y-47695196D01*
X77324505Y-47698796D01*
X77300001Y-47700000D01*
X76399999Y-47700000D01*
X76375495Y-47698796D01*
X76351227Y-47695196D01*
X76327428Y-47689235D01*
X76304329Y-47680970D01*
X76282150Y-47670480D01*
X76261107Y-47657868D01*
X76241401Y-47643253D01*
X76223223Y-47626777D01*
X76206747Y-47608599D01*
X76192132Y-47588893D01*
X76179520Y-47567850D01*
X76169030Y-47545671D01*
X76160765Y-47522572D01*
X76154804Y-47498773D01*
X76151204Y-47474505D01*
X76150000Y-47450001D01*
X76150000Y-46799999D01*
X76151204Y-46775495D01*
X76154804Y-46751227D01*
X76160765Y-46727428D01*
X76169030Y-46704329D01*
X76179520Y-46682150D01*
X76192132Y-46661107D01*
X76206747Y-46641401D01*
X76223223Y-46623223D01*
X76241401Y-46606747D01*
X76261107Y-46592132D01*
X76282150Y-46579520D01*
X76304329Y-46569030D01*
X76327428Y-46560765D01*
X76351227Y-46554804D01*
X76375495Y-46551204D01*
X76399999Y-46550000D01*
X77300001Y-46550000D01*
X77324505Y-46551204D01*
X77324505Y-46551204D01*
G37*
D12*
X76850000Y-47125000D03*
D10*
G36*
X73774505Y-44501204D02*
G01*
X73798773Y-44504804D01*
X73822572Y-44510765D01*
X73845671Y-44519030D01*
X73867850Y-44529520D01*
X73888893Y-44542132D01*
X73908599Y-44556747D01*
X73926777Y-44573223D01*
X73943253Y-44591401D01*
X73957868Y-44611107D01*
X73970480Y-44632150D01*
X73980970Y-44654329D01*
X73989235Y-44677428D01*
X73995196Y-44701227D01*
X73998796Y-44725495D01*
X74000000Y-44749999D01*
X74000000Y-45400001D01*
X73998796Y-45424505D01*
X73995196Y-45448773D01*
X73989235Y-45472572D01*
X73980970Y-45495671D01*
X73970480Y-45517850D01*
X73957868Y-45538893D01*
X73943253Y-45558599D01*
X73926777Y-45576777D01*
X73908599Y-45593253D01*
X73888893Y-45607868D01*
X73867850Y-45620480D01*
X73845671Y-45630970D01*
X73822572Y-45639235D01*
X73798773Y-45645196D01*
X73774505Y-45648796D01*
X73750001Y-45650000D01*
X72849999Y-45650000D01*
X72825495Y-45648796D01*
X72801227Y-45645196D01*
X72777428Y-45639235D01*
X72754329Y-45630970D01*
X72732150Y-45620480D01*
X72711107Y-45607868D01*
X72691401Y-45593253D01*
X72673223Y-45576777D01*
X72656747Y-45558599D01*
X72642132Y-45538893D01*
X72629520Y-45517850D01*
X72619030Y-45495671D01*
X72610765Y-45472572D01*
X72604804Y-45448773D01*
X72601204Y-45424505D01*
X72600000Y-45400001D01*
X72600000Y-44749999D01*
X72601204Y-44725495D01*
X72604804Y-44701227D01*
X72610765Y-44677428D01*
X72619030Y-44654329D01*
X72629520Y-44632150D01*
X72642132Y-44611107D01*
X72656747Y-44591401D01*
X72673223Y-44573223D01*
X72691401Y-44556747D01*
X72711107Y-44542132D01*
X72732150Y-44529520D01*
X72754329Y-44519030D01*
X72777428Y-44510765D01*
X72801227Y-44504804D01*
X72825495Y-44501204D01*
X72849999Y-44500000D01*
X73750001Y-44500000D01*
X73774505Y-44501204D01*
X73774505Y-44501204D01*
G37*
D12*
X73300000Y-45075000D03*
D10*
G36*
X73774505Y-46551204D02*
G01*
X73798773Y-46554804D01*
X73822572Y-46560765D01*
X73845671Y-46569030D01*
X73867850Y-46579520D01*
X73888893Y-46592132D01*
X73908599Y-46606747D01*
X73926777Y-46623223D01*
X73943253Y-46641401D01*
X73957868Y-46661107D01*
X73970480Y-46682150D01*
X73980970Y-46704329D01*
X73989235Y-46727428D01*
X73995196Y-46751227D01*
X73998796Y-46775495D01*
X74000000Y-46799999D01*
X74000000Y-47450001D01*
X73998796Y-47474505D01*
X73995196Y-47498773D01*
X73989235Y-47522572D01*
X73980970Y-47545671D01*
X73970480Y-47567850D01*
X73957868Y-47588893D01*
X73943253Y-47608599D01*
X73926777Y-47626777D01*
X73908599Y-47643253D01*
X73888893Y-47657868D01*
X73867850Y-47670480D01*
X73845671Y-47680970D01*
X73822572Y-47689235D01*
X73798773Y-47695196D01*
X73774505Y-47698796D01*
X73750001Y-47700000D01*
X72849999Y-47700000D01*
X72825495Y-47698796D01*
X72801227Y-47695196D01*
X72777428Y-47689235D01*
X72754329Y-47680970D01*
X72732150Y-47670480D01*
X72711107Y-47657868D01*
X72691401Y-47643253D01*
X72673223Y-47626777D01*
X72656747Y-47608599D01*
X72642132Y-47588893D01*
X72629520Y-47567850D01*
X72619030Y-47545671D01*
X72610765Y-47522572D01*
X72604804Y-47498773D01*
X72601204Y-47474505D01*
X72600000Y-47450001D01*
X72600000Y-46799999D01*
X72601204Y-46775495D01*
X72604804Y-46751227D01*
X72610765Y-46727428D01*
X72619030Y-46704329D01*
X72629520Y-46682150D01*
X72642132Y-46661107D01*
X72656747Y-46641401D01*
X72673223Y-46623223D01*
X72691401Y-46606747D01*
X72711107Y-46592132D01*
X72732150Y-46579520D01*
X72754329Y-46569030D01*
X72777428Y-46560765D01*
X72801227Y-46554804D01*
X72825495Y-46551204D01*
X72849999Y-46550000D01*
X73750001Y-46550000D01*
X73774505Y-46551204D01*
X73774505Y-46551204D01*
G37*
D12*
X73300000Y-47125000D03*
D10*
G36*
X147024504Y-116488704D02*
G01*
X147048773Y-116492304D01*
X147072571Y-116498265D01*
X147095671Y-116506530D01*
X147117849Y-116517020D01*
X147138893Y-116529633D01*
X147158598Y-116544247D01*
X147176777Y-116560723D01*
X147193253Y-116578902D01*
X147207867Y-116598607D01*
X147220480Y-116619651D01*
X147230970Y-116641829D01*
X147239235Y-116664929D01*
X147245196Y-116688727D01*
X147248796Y-116712996D01*
X147250000Y-116737500D01*
X147250000Y-117662500D01*
X147248796Y-117687004D01*
X147245196Y-117711273D01*
X147239235Y-117735071D01*
X147230970Y-117758171D01*
X147220480Y-117780349D01*
X147207867Y-117801393D01*
X147193253Y-117821098D01*
X147176777Y-117839277D01*
X147158598Y-117855753D01*
X147138893Y-117870367D01*
X147117849Y-117882980D01*
X147095671Y-117893470D01*
X147072571Y-117901735D01*
X147048773Y-117907696D01*
X147024504Y-117911296D01*
X147000000Y-117912500D01*
X145750000Y-117912500D01*
X145725496Y-117911296D01*
X145701227Y-117907696D01*
X145677429Y-117901735D01*
X145654329Y-117893470D01*
X145632151Y-117882980D01*
X145611107Y-117870367D01*
X145591402Y-117855753D01*
X145573223Y-117839277D01*
X145556747Y-117821098D01*
X145542133Y-117801393D01*
X145529520Y-117780349D01*
X145519030Y-117758171D01*
X145510765Y-117735071D01*
X145504804Y-117711273D01*
X145501204Y-117687004D01*
X145500000Y-117662500D01*
X145500000Y-116737500D01*
X145501204Y-116712996D01*
X145504804Y-116688727D01*
X145510765Y-116664929D01*
X145519030Y-116641829D01*
X145529520Y-116619651D01*
X145542133Y-116598607D01*
X145556747Y-116578902D01*
X145573223Y-116560723D01*
X145591402Y-116544247D01*
X145611107Y-116529633D01*
X145632151Y-116517020D01*
X145654329Y-116506530D01*
X145677429Y-116498265D01*
X145701227Y-116492304D01*
X145725496Y-116488704D01*
X145750000Y-116487500D01*
X147000000Y-116487500D01*
X147024504Y-116488704D01*
X147024504Y-116488704D01*
G37*
D13*
X146375000Y-117200000D03*
D10*
G36*
X147024504Y-119463704D02*
G01*
X147048773Y-119467304D01*
X147072571Y-119473265D01*
X147095671Y-119481530D01*
X147117849Y-119492020D01*
X147138893Y-119504633D01*
X147158598Y-119519247D01*
X147176777Y-119535723D01*
X147193253Y-119553902D01*
X147207867Y-119573607D01*
X147220480Y-119594651D01*
X147230970Y-119616829D01*
X147239235Y-119639929D01*
X147245196Y-119663727D01*
X147248796Y-119687996D01*
X147250000Y-119712500D01*
X147250000Y-120637500D01*
X147248796Y-120662004D01*
X147245196Y-120686273D01*
X147239235Y-120710071D01*
X147230970Y-120733171D01*
X147220480Y-120755349D01*
X147207867Y-120776393D01*
X147193253Y-120796098D01*
X147176777Y-120814277D01*
X147158598Y-120830753D01*
X147138893Y-120845367D01*
X147117849Y-120857980D01*
X147095671Y-120868470D01*
X147072571Y-120876735D01*
X147048773Y-120882696D01*
X147024504Y-120886296D01*
X147000000Y-120887500D01*
X145750000Y-120887500D01*
X145725496Y-120886296D01*
X145701227Y-120882696D01*
X145677429Y-120876735D01*
X145654329Y-120868470D01*
X145632151Y-120857980D01*
X145611107Y-120845367D01*
X145591402Y-120830753D01*
X145573223Y-120814277D01*
X145556747Y-120796098D01*
X145542133Y-120776393D01*
X145529520Y-120755349D01*
X145519030Y-120733171D01*
X145510765Y-120710071D01*
X145504804Y-120686273D01*
X145501204Y-120662004D01*
X145500000Y-120637500D01*
X145500000Y-119712500D01*
X145501204Y-119687996D01*
X145504804Y-119663727D01*
X145510765Y-119639929D01*
X145519030Y-119616829D01*
X145529520Y-119594651D01*
X145542133Y-119573607D01*
X145556747Y-119553902D01*
X145573223Y-119535723D01*
X145591402Y-119519247D01*
X145611107Y-119504633D01*
X145632151Y-119492020D01*
X145654329Y-119481530D01*
X145677429Y-119473265D01*
X145701227Y-119467304D01*
X145725496Y-119463704D01*
X145750000Y-119462500D01*
X147000000Y-119462500D01*
X147024504Y-119463704D01*
X147024504Y-119463704D01*
G37*
D13*
X146375000Y-120175000D03*
D10*
G36*
X147024504Y-129113704D02*
G01*
X147048773Y-129117304D01*
X147072571Y-129123265D01*
X147095671Y-129131530D01*
X147117849Y-129142020D01*
X147138893Y-129154633D01*
X147158598Y-129169247D01*
X147176777Y-129185723D01*
X147193253Y-129203902D01*
X147207867Y-129223607D01*
X147220480Y-129244651D01*
X147230970Y-129266829D01*
X147239235Y-129289929D01*
X147245196Y-129313727D01*
X147248796Y-129337996D01*
X147250000Y-129362500D01*
X147250000Y-130287500D01*
X147248796Y-130312004D01*
X147245196Y-130336273D01*
X147239235Y-130360071D01*
X147230970Y-130383171D01*
X147220480Y-130405349D01*
X147207867Y-130426393D01*
X147193253Y-130446098D01*
X147176777Y-130464277D01*
X147158598Y-130480753D01*
X147138893Y-130495367D01*
X147117849Y-130507980D01*
X147095671Y-130518470D01*
X147072571Y-130526735D01*
X147048773Y-130532696D01*
X147024504Y-130536296D01*
X147000000Y-130537500D01*
X145750000Y-130537500D01*
X145725496Y-130536296D01*
X145701227Y-130532696D01*
X145677429Y-130526735D01*
X145654329Y-130518470D01*
X145632151Y-130507980D01*
X145611107Y-130495367D01*
X145591402Y-130480753D01*
X145573223Y-130464277D01*
X145556747Y-130446098D01*
X145542133Y-130426393D01*
X145529520Y-130405349D01*
X145519030Y-130383171D01*
X145510765Y-130360071D01*
X145504804Y-130336273D01*
X145501204Y-130312004D01*
X145500000Y-130287500D01*
X145500000Y-129362500D01*
X145501204Y-129337996D01*
X145504804Y-129313727D01*
X145510765Y-129289929D01*
X145519030Y-129266829D01*
X145529520Y-129244651D01*
X145542133Y-129223607D01*
X145556747Y-129203902D01*
X145573223Y-129185723D01*
X145591402Y-129169247D01*
X145611107Y-129154633D01*
X145632151Y-129142020D01*
X145654329Y-129131530D01*
X145677429Y-129123265D01*
X145701227Y-129117304D01*
X145725496Y-129113704D01*
X145750000Y-129112500D01*
X147000000Y-129112500D01*
X147024504Y-129113704D01*
X147024504Y-129113704D01*
G37*
D13*
X146375000Y-129825000D03*
D10*
G36*
X147024504Y-126138704D02*
G01*
X147048773Y-126142304D01*
X147072571Y-126148265D01*
X147095671Y-126156530D01*
X147117849Y-126167020D01*
X147138893Y-126179633D01*
X147158598Y-126194247D01*
X147176777Y-126210723D01*
X147193253Y-126228902D01*
X147207867Y-126248607D01*
X147220480Y-126269651D01*
X147230970Y-126291829D01*
X147239235Y-126314929D01*
X147245196Y-126338727D01*
X147248796Y-126362996D01*
X147250000Y-126387500D01*
X147250000Y-127312500D01*
X147248796Y-127337004D01*
X147245196Y-127361273D01*
X147239235Y-127385071D01*
X147230970Y-127408171D01*
X147220480Y-127430349D01*
X147207867Y-127451393D01*
X147193253Y-127471098D01*
X147176777Y-127489277D01*
X147158598Y-127505753D01*
X147138893Y-127520367D01*
X147117849Y-127532980D01*
X147095671Y-127543470D01*
X147072571Y-127551735D01*
X147048773Y-127557696D01*
X147024504Y-127561296D01*
X147000000Y-127562500D01*
X145750000Y-127562500D01*
X145725496Y-127561296D01*
X145701227Y-127557696D01*
X145677429Y-127551735D01*
X145654329Y-127543470D01*
X145632151Y-127532980D01*
X145611107Y-127520367D01*
X145591402Y-127505753D01*
X145573223Y-127489277D01*
X145556747Y-127471098D01*
X145542133Y-127451393D01*
X145529520Y-127430349D01*
X145519030Y-127408171D01*
X145510765Y-127385071D01*
X145504804Y-127361273D01*
X145501204Y-127337004D01*
X145500000Y-127312500D01*
X145500000Y-126387500D01*
X145501204Y-126362996D01*
X145504804Y-126338727D01*
X145510765Y-126314929D01*
X145519030Y-126291829D01*
X145529520Y-126269651D01*
X145542133Y-126248607D01*
X145556747Y-126228902D01*
X145573223Y-126210723D01*
X145591402Y-126194247D01*
X145611107Y-126179633D01*
X145632151Y-126167020D01*
X145654329Y-126156530D01*
X145677429Y-126148265D01*
X145701227Y-126142304D01*
X145725496Y-126138704D01*
X145750000Y-126137500D01*
X147000000Y-126137500D01*
X147024504Y-126138704D01*
X147024504Y-126138704D01*
G37*
D13*
X146375000Y-126850000D03*
D10*
G36*
X110390779Y-117701144D02*
G01*
X110413834Y-117704563D01*
X110436443Y-117710227D01*
X110458387Y-117718079D01*
X110479457Y-117728044D01*
X110499448Y-117740026D01*
X110518168Y-117753910D01*
X110535438Y-117769562D01*
X110551090Y-117786832D01*
X110564974Y-117805552D01*
X110576956Y-117825543D01*
X110586921Y-117846613D01*
X110594773Y-117868557D01*
X110600437Y-117891166D01*
X110603856Y-117914221D01*
X110605000Y-117937500D01*
X110605000Y-118412500D01*
X110603856Y-118435779D01*
X110600437Y-118458834D01*
X110594773Y-118481443D01*
X110586921Y-118503387D01*
X110576956Y-118524457D01*
X110564974Y-118544448D01*
X110551090Y-118563168D01*
X110535438Y-118580438D01*
X110518168Y-118596090D01*
X110499448Y-118609974D01*
X110479457Y-118621956D01*
X110458387Y-118631921D01*
X110436443Y-118639773D01*
X110413834Y-118645437D01*
X110390779Y-118648856D01*
X110367500Y-118650000D01*
X109792500Y-118650000D01*
X109769221Y-118648856D01*
X109746166Y-118645437D01*
X109723557Y-118639773D01*
X109701613Y-118631921D01*
X109680543Y-118621956D01*
X109660552Y-118609974D01*
X109641832Y-118596090D01*
X109624562Y-118580438D01*
X109608910Y-118563168D01*
X109595026Y-118544448D01*
X109583044Y-118524457D01*
X109573079Y-118503387D01*
X109565227Y-118481443D01*
X109559563Y-118458834D01*
X109556144Y-118435779D01*
X109555000Y-118412500D01*
X109555000Y-117937500D01*
X109556144Y-117914221D01*
X109559563Y-117891166D01*
X109565227Y-117868557D01*
X109573079Y-117846613D01*
X109583044Y-117825543D01*
X109595026Y-117805552D01*
X109608910Y-117786832D01*
X109624562Y-117769562D01*
X109641832Y-117753910D01*
X109660552Y-117740026D01*
X109680543Y-117728044D01*
X109701613Y-117718079D01*
X109723557Y-117710227D01*
X109746166Y-117704563D01*
X109769221Y-117701144D01*
X109792500Y-117700000D01*
X110367500Y-117700000D01*
X110390779Y-117701144D01*
X110390779Y-117701144D01*
G37*
D14*
X110080000Y-118175000D03*
D10*
G36*
X112140779Y-117701144D02*
G01*
X112163834Y-117704563D01*
X112186443Y-117710227D01*
X112208387Y-117718079D01*
X112229457Y-117728044D01*
X112249448Y-117740026D01*
X112268168Y-117753910D01*
X112285438Y-117769562D01*
X112301090Y-117786832D01*
X112314974Y-117805552D01*
X112326956Y-117825543D01*
X112336921Y-117846613D01*
X112344773Y-117868557D01*
X112350437Y-117891166D01*
X112353856Y-117914221D01*
X112355000Y-117937500D01*
X112355000Y-118412500D01*
X112353856Y-118435779D01*
X112350437Y-118458834D01*
X112344773Y-118481443D01*
X112336921Y-118503387D01*
X112326956Y-118524457D01*
X112314974Y-118544448D01*
X112301090Y-118563168D01*
X112285438Y-118580438D01*
X112268168Y-118596090D01*
X112249448Y-118609974D01*
X112229457Y-118621956D01*
X112208387Y-118631921D01*
X112186443Y-118639773D01*
X112163834Y-118645437D01*
X112140779Y-118648856D01*
X112117500Y-118650000D01*
X111542500Y-118650000D01*
X111519221Y-118648856D01*
X111496166Y-118645437D01*
X111473557Y-118639773D01*
X111451613Y-118631921D01*
X111430543Y-118621956D01*
X111410552Y-118609974D01*
X111391832Y-118596090D01*
X111374562Y-118580438D01*
X111358910Y-118563168D01*
X111345026Y-118544448D01*
X111333044Y-118524457D01*
X111323079Y-118503387D01*
X111315227Y-118481443D01*
X111309563Y-118458834D01*
X111306144Y-118435779D01*
X111305000Y-118412500D01*
X111305000Y-117937500D01*
X111306144Y-117914221D01*
X111309563Y-117891166D01*
X111315227Y-117868557D01*
X111323079Y-117846613D01*
X111333044Y-117825543D01*
X111345026Y-117805552D01*
X111358910Y-117786832D01*
X111374562Y-117769562D01*
X111391832Y-117753910D01*
X111410552Y-117740026D01*
X111430543Y-117728044D01*
X111451613Y-117718079D01*
X111473557Y-117710227D01*
X111496166Y-117704563D01*
X111519221Y-117701144D01*
X111542500Y-117700000D01*
X112117500Y-117700000D01*
X112140779Y-117701144D01*
X112140779Y-117701144D01*
G37*
D14*
X111830000Y-118175000D03*
D10*
G36*
X110415779Y-121726144D02*
G01*
X110438834Y-121729563D01*
X110461443Y-121735227D01*
X110483387Y-121743079D01*
X110504457Y-121753044D01*
X110524448Y-121765026D01*
X110543168Y-121778910D01*
X110560438Y-121794562D01*
X110576090Y-121811832D01*
X110589974Y-121830552D01*
X110601956Y-121850543D01*
X110611921Y-121871613D01*
X110619773Y-121893557D01*
X110625437Y-121916166D01*
X110628856Y-121939221D01*
X110630000Y-121962500D01*
X110630000Y-122437500D01*
X110628856Y-122460779D01*
X110625437Y-122483834D01*
X110619773Y-122506443D01*
X110611921Y-122528387D01*
X110601956Y-122549457D01*
X110589974Y-122569448D01*
X110576090Y-122588168D01*
X110560438Y-122605438D01*
X110543168Y-122621090D01*
X110524448Y-122634974D01*
X110504457Y-122646956D01*
X110483387Y-122656921D01*
X110461443Y-122664773D01*
X110438834Y-122670437D01*
X110415779Y-122673856D01*
X110392500Y-122675000D01*
X109817500Y-122675000D01*
X109794221Y-122673856D01*
X109771166Y-122670437D01*
X109748557Y-122664773D01*
X109726613Y-122656921D01*
X109705543Y-122646956D01*
X109685552Y-122634974D01*
X109666832Y-122621090D01*
X109649562Y-122605438D01*
X109633910Y-122588168D01*
X109620026Y-122569448D01*
X109608044Y-122549457D01*
X109598079Y-122528387D01*
X109590227Y-122506443D01*
X109584563Y-122483834D01*
X109581144Y-122460779D01*
X109580000Y-122437500D01*
X109580000Y-121962500D01*
X109581144Y-121939221D01*
X109584563Y-121916166D01*
X109590227Y-121893557D01*
X109598079Y-121871613D01*
X109608044Y-121850543D01*
X109620026Y-121830552D01*
X109633910Y-121811832D01*
X109649562Y-121794562D01*
X109666832Y-121778910D01*
X109685552Y-121765026D01*
X109705543Y-121753044D01*
X109726613Y-121743079D01*
X109748557Y-121735227D01*
X109771166Y-121729563D01*
X109794221Y-121726144D01*
X109817500Y-121725000D01*
X110392500Y-121725000D01*
X110415779Y-121726144D01*
X110415779Y-121726144D01*
G37*
D14*
X110105000Y-122200000D03*
D10*
G36*
X112165779Y-121726144D02*
G01*
X112188834Y-121729563D01*
X112211443Y-121735227D01*
X112233387Y-121743079D01*
X112254457Y-121753044D01*
X112274448Y-121765026D01*
X112293168Y-121778910D01*
X112310438Y-121794562D01*
X112326090Y-121811832D01*
X112339974Y-121830552D01*
X112351956Y-121850543D01*
X112361921Y-121871613D01*
X112369773Y-121893557D01*
X112375437Y-121916166D01*
X112378856Y-121939221D01*
X112380000Y-121962500D01*
X112380000Y-122437500D01*
X112378856Y-122460779D01*
X112375437Y-122483834D01*
X112369773Y-122506443D01*
X112361921Y-122528387D01*
X112351956Y-122549457D01*
X112339974Y-122569448D01*
X112326090Y-122588168D01*
X112310438Y-122605438D01*
X112293168Y-122621090D01*
X112274448Y-122634974D01*
X112254457Y-122646956D01*
X112233387Y-122656921D01*
X112211443Y-122664773D01*
X112188834Y-122670437D01*
X112165779Y-122673856D01*
X112142500Y-122675000D01*
X111567500Y-122675000D01*
X111544221Y-122673856D01*
X111521166Y-122670437D01*
X111498557Y-122664773D01*
X111476613Y-122656921D01*
X111455543Y-122646956D01*
X111435552Y-122634974D01*
X111416832Y-122621090D01*
X111399562Y-122605438D01*
X111383910Y-122588168D01*
X111370026Y-122569448D01*
X111358044Y-122549457D01*
X111348079Y-122528387D01*
X111340227Y-122506443D01*
X111334563Y-122483834D01*
X111331144Y-122460779D01*
X111330000Y-122437500D01*
X111330000Y-121962500D01*
X111331144Y-121939221D01*
X111334563Y-121916166D01*
X111340227Y-121893557D01*
X111348079Y-121871613D01*
X111358044Y-121850543D01*
X111370026Y-121830552D01*
X111383910Y-121811832D01*
X111399562Y-121794562D01*
X111416832Y-121778910D01*
X111435552Y-121765026D01*
X111455543Y-121753044D01*
X111476613Y-121743079D01*
X111498557Y-121735227D01*
X111521166Y-121729563D01*
X111544221Y-121726144D01*
X111567500Y-121725000D01*
X112142500Y-121725000D01*
X112165779Y-121726144D01*
X112165779Y-121726144D01*
G37*
D14*
X111855000Y-122200000D03*
D10*
G36*
X112540779Y-104626144D02*
G01*
X112563834Y-104629563D01*
X112586443Y-104635227D01*
X112608387Y-104643079D01*
X112629457Y-104653044D01*
X112649448Y-104665026D01*
X112668168Y-104678910D01*
X112685438Y-104694562D01*
X112701090Y-104711832D01*
X112714974Y-104730552D01*
X112726956Y-104750543D01*
X112736921Y-104771613D01*
X112744773Y-104793557D01*
X112750437Y-104816166D01*
X112753856Y-104839221D01*
X112755000Y-104862500D01*
X112755000Y-105337500D01*
X112753856Y-105360779D01*
X112750437Y-105383834D01*
X112744773Y-105406443D01*
X112736921Y-105428387D01*
X112726956Y-105449457D01*
X112714974Y-105469448D01*
X112701090Y-105488168D01*
X112685438Y-105505438D01*
X112668168Y-105521090D01*
X112649448Y-105534974D01*
X112629457Y-105546956D01*
X112608387Y-105556921D01*
X112586443Y-105564773D01*
X112563834Y-105570437D01*
X112540779Y-105573856D01*
X112517500Y-105575000D01*
X111942500Y-105575000D01*
X111919221Y-105573856D01*
X111896166Y-105570437D01*
X111873557Y-105564773D01*
X111851613Y-105556921D01*
X111830543Y-105546956D01*
X111810552Y-105534974D01*
X111791832Y-105521090D01*
X111774562Y-105505438D01*
X111758910Y-105488168D01*
X111745026Y-105469448D01*
X111733044Y-105449457D01*
X111723079Y-105428387D01*
X111715227Y-105406443D01*
X111709563Y-105383834D01*
X111706144Y-105360779D01*
X111705000Y-105337500D01*
X111705000Y-104862500D01*
X111706144Y-104839221D01*
X111709563Y-104816166D01*
X111715227Y-104793557D01*
X111723079Y-104771613D01*
X111733044Y-104750543D01*
X111745026Y-104730552D01*
X111758910Y-104711832D01*
X111774562Y-104694562D01*
X111791832Y-104678910D01*
X111810552Y-104665026D01*
X111830543Y-104653044D01*
X111851613Y-104643079D01*
X111873557Y-104635227D01*
X111896166Y-104629563D01*
X111919221Y-104626144D01*
X111942500Y-104625000D01*
X112517500Y-104625000D01*
X112540779Y-104626144D01*
X112540779Y-104626144D01*
G37*
D14*
X112230000Y-105100000D03*
D10*
G36*
X110790779Y-104626144D02*
G01*
X110813834Y-104629563D01*
X110836443Y-104635227D01*
X110858387Y-104643079D01*
X110879457Y-104653044D01*
X110899448Y-104665026D01*
X110918168Y-104678910D01*
X110935438Y-104694562D01*
X110951090Y-104711832D01*
X110964974Y-104730552D01*
X110976956Y-104750543D01*
X110986921Y-104771613D01*
X110994773Y-104793557D01*
X111000437Y-104816166D01*
X111003856Y-104839221D01*
X111005000Y-104862500D01*
X111005000Y-105337500D01*
X111003856Y-105360779D01*
X111000437Y-105383834D01*
X110994773Y-105406443D01*
X110986921Y-105428387D01*
X110976956Y-105449457D01*
X110964974Y-105469448D01*
X110951090Y-105488168D01*
X110935438Y-105505438D01*
X110918168Y-105521090D01*
X110899448Y-105534974D01*
X110879457Y-105546956D01*
X110858387Y-105556921D01*
X110836443Y-105564773D01*
X110813834Y-105570437D01*
X110790779Y-105573856D01*
X110767500Y-105575000D01*
X110192500Y-105575000D01*
X110169221Y-105573856D01*
X110146166Y-105570437D01*
X110123557Y-105564773D01*
X110101613Y-105556921D01*
X110080543Y-105546956D01*
X110060552Y-105534974D01*
X110041832Y-105521090D01*
X110024562Y-105505438D01*
X110008910Y-105488168D01*
X109995026Y-105469448D01*
X109983044Y-105449457D01*
X109973079Y-105428387D01*
X109965227Y-105406443D01*
X109959563Y-105383834D01*
X109956144Y-105360779D01*
X109955000Y-105337500D01*
X109955000Y-104862500D01*
X109956144Y-104839221D01*
X109959563Y-104816166D01*
X109965227Y-104793557D01*
X109973079Y-104771613D01*
X109983044Y-104750543D01*
X109995026Y-104730552D01*
X110008910Y-104711832D01*
X110024562Y-104694562D01*
X110041832Y-104678910D01*
X110060552Y-104665026D01*
X110080543Y-104653044D01*
X110101613Y-104643079D01*
X110123557Y-104635227D01*
X110146166Y-104629563D01*
X110169221Y-104626144D01*
X110192500Y-104625000D01*
X110767500Y-104625000D01*
X110790779Y-104626144D01*
X110790779Y-104626144D01*
G37*
D14*
X110480000Y-105100000D03*
D10*
G36*
X112415779Y-108626144D02*
G01*
X112438834Y-108629563D01*
X112461443Y-108635227D01*
X112483387Y-108643079D01*
X112504457Y-108653044D01*
X112524448Y-108665026D01*
X112543168Y-108678910D01*
X112560438Y-108694562D01*
X112576090Y-108711832D01*
X112589974Y-108730552D01*
X112601956Y-108750543D01*
X112611921Y-108771613D01*
X112619773Y-108793557D01*
X112625437Y-108816166D01*
X112628856Y-108839221D01*
X112630000Y-108862500D01*
X112630000Y-109337500D01*
X112628856Y-109360779D01*
X112625437Y-109383834D01*
X112619773Y-109406443D01*
X112611921Y-109428387D01*
X112601956Y-109449457D01*
X112589974Y-109469448D01*
X112576090Y-109488168D01*
X112560438Y-109505438D01*
X112543168Y-109521090D01*
X112524448Y-109534974D01*
X112504457Y-109546956D01*
X112483387Y-109556921D01*
X112461443Y-109564773D01*
X112438834Y-109570437D01*
X112415779Y-109573856D01*
X112392500Y-109575000D01*
X111817500Y-109575000D01*
X111794221Y-109573856D01*
X111771166Y-109570437D01*
X111748557Y-109564773D01*
X111726613Y-109556921D01*
X111705543Y-109546956D01*
X111685552Y-109534974D01*
X111666832Y-109521090D01*
X111649562Y-109505438D01*
X111633910Y-109488168D01*
X111620026Y-109469448D01*
X111608044Y-109449457D01*
X111598079Y-109428387D01*
X111590227Y-109406443D01*
X111584563Y-109383834D01*
X111581144Y-109360779D01*
X111580000Y-109337500D01*
X111580000Y-108862500D01*
X111581144Y-108839221D01*
X111584563Y-108816166D01*
X111590227Y-108793557D01*
X111598079Y-108771613D01*
X111608044Y-108750543D01*
X111620026Y-108730552D01*
X111633910Y-108711832D01*
X111649562Y-108694562D01*
X111666832Y-108678910D01*
X111685552Y-108665026D01*
X111705543Y-108653044D01*
X111726613Y-108643079D01*
X111748557Y-108635227D01*
X111771166Y-108629563D01*
X111794221Y-108626144D01*
X111817500Y-108625000D01*
X112392500Y-108625000D01*
X112415779Y-108626144D01*
X112415779Y-108626144D01*
G37*
D14*
X112105000Y-109100000D03*
D10*
G36*
X110665779Y-108626144D02*
G01*
X110688834Y-108629563D01*
X110711443Y-108635227D01*
X110733387Y-108643079D01*
X110754457Y-108653044D01*
X110774448Y-108665026D01*
X110793168Y-108678910D01*
X110810438Y-108694562D01*
X110826090Y-108711832D01*
X110839974Y-108730552D01*
X110851956Y-108750543D01*
X110861921Y-108771613D01*
X110869773Y-108793557D01*
X110875437Y-108816166D01*
X110878856Y-108839221D01*
X110880000Y-108862500D01*
X110880000Y-109337500D01*
X110878856Y-109360779D01*
X110875437Y-109383834D01*
X110869773Y-109406443D01*
X110861921Y-109428387D01*
X110851956Y-109449457D01*
X110839974Y-109469448D01*
X110826090Y-109488168D01*
X110810438Y-109505438D01*
X110793168Y-109521090D01*
X110774448Y-109534974D01*
X110754457Y-109546956D01*
X110733387Y-109556921D01*
X110711443Y-109564773D01*
X110688834Y-109570437D01*
X110665779Y-109573856D01*
X110642500Y-109575000D01*
X110067500Y-109575000D01*
X110044221Y-109573856D01*
X110021166Y-109570437D01*
X109998557Y-109564773D01*
X109976613Y-109556921D01*
X109955543Y-109546956D01*
X109935552Y-109534974D01*
X109916832Y-109521090D01*
X109899562Y-109505438D01*
X109883910Y-109488168D01*
X109870026Y-109469448D01*
X109858044Y-109449457D01*
X109848079Y-109428387D01*
X109840227Y-109406443D01*
X109834563Y-109383834D01*
X109831144Y-109360779D01*
X109830000Y-109337500D01*
X109830000Y-108862500D01*
X109831144Y-108839221D01*
X109834563Y-108816166D01*
X109840227Y-108793557D01*
X109848079Y-108771613D01*
X109858044Y-108750543D01*
X109870026Y-108730552D01*
X109883910Y-108711832D01*
X109899562Y-108694562D01*
X109916832Y-108678910D01*
X109935552Y-108665026D01*
X109955543Y-108653044D01*
X109976613Y-108643079D01*
X109998557Y-108635227D01*
X110021166Y-108629563D01*
X110044221Y-108626144D01*
X110067500Y-108625000D01*
X110642500Y-108625000D01*
X110665779Y-108626144D01*
X110665779Y-108626144D01*
G37*
D14*
X110355000Y-109100000D03*
D15*
X127400000Y-48605000D03*
X127400000Y-43525000D03*
D16*
X117125000Y-46065000D03*
D10*
G36*
X98410779Y-40776144D02*
G01*
X98433834Y-40779563D01*
X98456443Y-40785227D01*
X98478387Y-40793079D01*
X98499457Y-40803044D01*
X98519448Y-40815026D01*
X98538168Y-40828910D01*
X98555438Y-40844562D01*
X98571090Y-40861832D01*
X98584974Y-40880552D01*
X98596956Y-40900543D01*
X98606921Y-40921613D01*
X98614773Y-40943557D01*
X98620437Y-40966166D01*
X98623856Y-40989221D01*
X98625000Y-41012500D01*
X98625000Y-41587500D01*
X98623856Y-41610779D01*
X98620437Y-41633834D01*
X98614773Y-41656443D01*
X98606921Y-41678387D01*
X98596956Y-41699457D01*
X98584974Y-41719448D01*
X98571090Y-41738168D01*
X98555438Y-41755438D01*
X98538168Y-41771090D01*
X98519448Y-41784974D01*
X98499457Y-41796956D01*
X98478387Y-41806921D01*
X98456443Y-41814773D01*
X98433834Y-41820437D01*
X98410779Y-41823856D01*
X98387500Y-41825000D01*
X97912500Y-41825000D01*
X97889221Y-41823856D01*
X97866166Y-41820437D01*
X97843557Y-41814773D01*
X97821613Y-41806921D01*
X97800543Y-41796956D01*
X97780552Y-41784974D01*
X97761832Y-41771090D01*
X97744562Y-41755438D01*
X97728910Y-41738168D01*
X97715026Y-41719448D01*
X97703044Y-41699457D01*
X97693079Y-41678387D01*
X97685227Y-41656443D01*
X97679563Y-41633834D01*
X97676144Y-41610779D01*
X97675000Y-41587500D01*
X97675000Y-41012500D01*
X97676144Y-40989221D01*
X97679563Y-40966166D01*
X97685227Y-40943557D01*
X97693079Y-40921613D01*
X97703044Y-40900543D01*
X97715026Y-40880552D01*
X97728910Y-40861832D01*
X97744562Y-40844562D01*
X97761832Y-40828910D01*
X97780552Y-40815026D01*
X97800543Y-40803044D01*
X97821613Y-40793079D01*
X97843557Y-40785227D01*
X97866166Y-40779563D01*
X97889221Y-40776144D01*
X97912500Y-40775000D01*
X98387500Y-40775000D01*
X98410779Y-40776144D01*
X98410779Y-40776144D01*
G37*
D14*
X98150000Y-41300000D03*
D10*
G36*
X98410779Y-42526144D02*
G01*
X98433834Y-42529563D01*
X98456443Y-42535227D01*
X98478387Y-42543079D01*
X98499457Y-42553044D01*
X98519448Y-42565026D01*
X98538168Y-42578910D01*
X98555438Y-42594562D01*
X98571090Y-42611832D01*
X98584974Y-42630552D01*
X98596956Y-42650543D01*
X98606921Y-42671613D01*
X98614773Y-42693557D01*
X98620437Y-42716166D01*
X98623856Y-42739221D01*
X98625000Y-42762500D01*
X98625000Y-43337500D01*
X98623856Y-43360779D01*
X98620437Y-43383834D01*
X98614773Y-43406443D01*
X98606921Y-43428387D01*
X98596956Y-43449457D01*
X98584974Y-43469448D01*
X98571090Y-43488168D01*
X98555438Y-43505438D01*
X98538168Y-43521090D01*
X98519448Y-43534974D01*
X98499457Y-43546956D01*
X98478387Y-43556921D01*
X98456443Y-43564773D01*
X98433834Y-43570437D01*
X98410779Y-43573856D01*
X98387500Y-43575000D01*
X97912500Y-43575000D01*
X97889221Y-43573856D01*
X97866166Y-43570437D01*
X97843557Y-43564773D01*
X97821613Y-43556921D01*
X97800543Y-43546956D01*
X97780552Y-43534974D01*
X97761832Y-43521090D01*
X97744562Y-43505438D01*
X97728910Y-43488168D01*
X97715026Y-43469448D01*
X97703044Y-43449457D01*
X97693079Y-43428387D01*
X97685227Y-43406443D01*
X97679563Y-43383834D01*
X97676144Y-43360779D01*
X97675000Y-43337500D01*
X97675000Y-42762500D01*
X97676144Y-42739221D01*
X97679563Y-42716166D01*
X97685227Y-42693557D01*
X97693079Y-42671613D01*
X97703044Y-42650543D01*
X97715026Y-42630552D01*
X97728910Y-42611832D01*
X97744562Y-42594562D01*
X97761832Y-42578910D01*
X97780552Y-42565026D01*
X97800543Y-42553044D01*
X97821613Y-42543079D01*
X97843557Y-42535227D01*
X97866166Y-42529563D01*
X97889221Y-42526144D01*
X97912500Y-42525000D01*
X98387500Y-42525000D01*
X98410779Y-42526144D01*
X98410779Y-42526144D01*
G37*
D14*
X98150000Y-43050000D03*
D10*
G36*
X94885779Y-40776144D02*
G01*
X94908834Y-40779563D01*
X94931443Y-40785227D01*
X94953387Y-40793079D01*
X94974457Y-40803044D01*
X94994448Y-40815026D01*
X95013168Y-40828910D01*
X95030438Y-40844562D01*
X95046090Y-40861832D01*
X95059974Y-40880552D01*
X95071956Y-40900543D01*
X95081921Y-40921613D01*
X95089773Y-40943557D01*
X95095437Y-40966166D01*
X95098856Y-40989221D01*
X95100000Y-41012500D01*
X95100000Y-41587500D01*
X95098856Y-41610779D01*
X95095437Y-41633834D01*
X95089773Y-41656443D01*
X95081921Y-41678387D01*
X95071956Y-41699457D01*
X95059974Y-41719448D01*
X95046090Y-41738168D01*
X95030438Y-41755438D01*
X95013168Y-41771090D01*
X94994448Y-41784974D01*
X94974457Y-41796956D01*
X94953387Y-41806921D01*
X94931443Y-41814773D01*
X94908834Y-41820437D01*
X94885779Y-41823856D01*
X94862500Y-41825000D01*
X94387500Y-41825000D01*
X94364221Y-41823856D01*
X94341166Y-41820437D01*
X94318557Y-41814773D01*
X94296613Y-41806921D01*
X94275543Y-41796956D01*
X94255552Y-41784974D01*
X94236832Y-41771090D01*
X94219562Y-41755438D01*
X94203910Y-41738168D01*
X94190026Y-41719448D01*
X94178044Y-41699457D01*
X94168079Y-41678387D01*
X94160227Y-41656443D01*
X94154563Y-41633834D01*
X94151144Y-41610779D01*
X94150000Y-41587500D01*
X94150000Y-41012500D01*
X94151144Y-40989221D01*
X94154563Y-40966166D01*
X94160227Y-40943557D01*
X94168079Y-40921613D01*
X94178044Y-40900543D01*
X94190026Y-40880552D01*
X94203910Y-40861832D01*
X94219562Y-40844562D01*
X94236832Y-40828910D01*
X94255552Y-40815026D01*
X94275543Y-40803044D01*
X94296613Y-40793079D01*
X94318557Y-40785227D01*
X94341166Y-40779563D01*
X94364221Y-40776144D01*
X94387500Y-40775000D01*
X94862500Y-40775000D01*
X94885779Y-40776144D01*
X94885779Y-40776144D01*
G37*
D14*
X94625000Y-41300000D03*
D10*
G36*
X94885779Y-42526144D02*
G01*
X94908834Y-42529563D01*
X94931443Y-42535227D01*
X94953387Y-42543079D01*
X94974457Y-42553044D01*
X94994448Y-42565026D01*
X95013168Y-42578910D01*
X95030438Y-42594562D01*
X95046090Y-42611832D01*
X95059974Y-42630552D01*
X95071956Y-42650543D01*
X95081921Y-42671613D01*
X95089773Y-42693557D01*
X95095437Y-42716166D01*
X95098856Y-42739221D01*
X95100000Y-42762500D01*
X95100000Y-43337500D01*
X95098856Y-43360779D01*
X95095437Y-43383834D01*
X95089773Y-43406443D01*
X95081921Y-43428387D01*
X95071956Y-43449457D01*
X95059974Y-43469448D01*
X95046090Y-43488168D01*
X95030438Y-43505438D01*
X95013168Y-43521090D01*
X94994448Y-43534974D01*
X94974457Y-43546956D01*
X94953387Y-43556921D01*
X94931443Y-43564773D01*
X94908834Y-43570437D01*
X94885779Y-43573856D01*
X94862500Y-43575000D01*
X94387500Y-43575000D01*
X94364221Y-43573856D01*
X94341166Y-43570437D01*
X94318557Y-43564773D01*
X94296613Y-43556921D01*
X94275543Y-43546956D01*
X94255552Y-43534974D01*
X94236832Y-43521090D01*
X94219562Y-43505438D01*
X94203910Y-43488168D01*
X94190026Y-43469448D01*
X94178044Y-43449457D01*
X94168079Y-43428387D01*
X94160227Y-43406443D01*
X94154563Y-43383834D01*
X94151144Y-43360779D01*
X94150000Y-43337500D01*
X94150000Y-42762500D01*
X94151144Y-42739221D01*
X94154563Y-42716166D01*
X94160227Y-42693557D01*
X94168079Y-42671613D01*
X94178044Y-42650543D01*
X94190026Y-42630552D01*
X94203910Y-42611832D01*
X94219562Y-42594562D01*
X94236832Y-42578910D01*
X94255552Y-42565026D01*
X94275543Y-42553044D01*
X94296613Y-42543079D01*
X94318557Y-42535227D01*
X94341166Y-42529563D01*
X94364221Y-42526144D01*
X94387500Y-42525000D01*
X94862500Y-42525000D01*
X94885779Y-42526144D01*
X94885779Y-42526144D01*
G37*
D14*
X94625000Y-43050000D03*
D10*
G36*
X91310779Y-40776144D02*
G01*
X91333834Y-40779563D01*
X91356443Y-40785227D01*
X91378387Y-40793079D01*
X91399457Y-40803044D01*
X91419448Y-40815026D01*
X91438168Y-40828910D01*
X91455438Y-40844562D01*
X91471090Y-40861832D01*
X91484974Y-40880552D01*
X91496956Y-40900543D01*
X91506921Y-40921613D01*
X91514773Y-40943557D01*
X91520437Y-40966166D01*
X91523856Y-40989221D01*
X91525000Y-41012500D01*
X91525000Y-41587500D01*
X91523856Y-41610779D01*
X91520437Y-41633834D01*
X91514773Y-41656443D01*
X91506921Y-41678387D01*
X91496956Y-41699457D01*
X91484974Y-41719448D01*
X91471090Y-41738168D01*
X91455438Y-41755438D01*
X91438168Y-41771090D01*
X91419448Y-41784974D01*
X91399457Y-41796956D01*
X91378387Y-41806921D01*
X91356443Y-41814773D01*
X91333834Y-41820437D01*
X91310779Y-41823856D01*
X91287500Y-41825000D01*
X90812500Y-41825000D01*
X90789221Y-41823856D01*
X90766166Y-41820437D01*
X90743557Y-41814773D01*
X90721613Y-41806921D01*
X90700543Y-41796956D01*
X90680552Y-41784974D01*
X90661832Y-41771090D01*
X90644562Y-41755438D01*
X90628910Y-41738168D01*
X90615026Y-41719448D01*
X90603044Y-41699457D01*
X90593079Y-41678387D01*
X90585227Y-41656443D01*
X90579563Y-41633834D01*
X90576144Y-41610779D01*
X90575000Y-41587500D01*
X90575000Y-41012500D01*
X90576144Y-40989221D01*
X90579563Y-40966166D01*
X90585227Y-40943557D01*
X90593079Y-40921613D01*
X90603044Y-40900543D01*
X90615026Y-40880552D01*
X90628910Y-40861832D01*
X90644562Y-40844562D01*
X90661832Y-40828910D01*
X90680552Y-40815026D01*
X90700543Y-40803044D01*
X90721613Y-40793079D01*
X90743557Y-40785227D01*
X90766166Y-40779563D01*
X90789221Y-40776144D01*
X90812500Y-40775000D01*
X91287500Y-40775000D01*
X91310779Y-40776144D01*
X91310779Y-40776144D01*
G37*
D14*
X91050000Y-41300000D03*
D10*
G36*
X91310779Y-42526144D02*
G01*
X91333834Y-42529563D01*
X91356443Y-42535227D01*
X91378387Y-42543079D01*
X91399457Y-42553044D01*
X91419448Y-42565026D01*
X91438168Y-42578910D01*
X91455438Y-42594562D01*
X91471090Y-42611832D01*
X91484974Y-42630552D01*
X91496956Y-42650543D01*
X91506921Y-42671613D01*
X91514773Y-42693557D01*
X91520437Y-42716166D01*
X91523856Y-42739221D01*
X91525000Y-42762500D01*
X91525000Y-43337500D01*
X91523856Y-43360779D01*
X91520437Y-43383834D01*
X91514773Y-43406443D01*
X91506921Y-43428387D01*
X91496956Y-43449457D01*
X91484974Y-43469448D01*
X91471090Y-43488168D01*
X91455438Y-43505438D01*
X91438168Y-43521090D01*
X91419448Y-43534974D01*
X91399457Y-43546956D01*
X91378387Y-43556921D01*
X91356443Y-43564773D01*
X91333834Y-43570437D01*
X91310779Y-43573856D01*
X91287500Y-43575000D01*
X90812500Y-43575000D01*
X90789221Y-43573856D01*
X90766166Y-43570437D01*
X90743557Y-43564773D01*
X90721613Y-43556921D01*
X90700543Y-43546956D01*
X90680552Y-43534974D01*
X90661832Y-43521090D01*
X90644562Y-43505438D01*
X90628910Y-43488168D01*
X90615026Y-43469448D01*
X90603044Y-43449457D01*
X90593079Y-43428387D01*
X90585227Y-43406443D01*
X90579563Y-43383834D01*
X90576144Y-43360779D01*
X90575000Y-43337500D01*
X90575000Y-42762500D01*
X90576144Y-42739221D01*
X90579563Y-42716166D01*
X90585227Y-42693557D01*
X90593079Y-42671613D01*
X90603044Y-42650543D01*
X90615026Y-42630552D01*
X90628910Y-42611832D01*
X90644562Y-42594562D01*
X90661832Y-42578910D01*
X90680552Y-42565026D01*
X90700543Y-42553044D01*
X90721613Y-42543079D01*
X90743557Y-42535227D01*
X90766166Y-42529563D01*
X90789221Y-42526144D01*
X90812500Y-42525000D01*
X91287500Y-42525000D01*
X91310779Y-42526144D01*
X91310779Y-42526144D01*
G37*
D14*
X91050000Y-43050000D03*
D10*
G36*
X87760779Y-42526144D02*
G01*
X87783834Y-42529563D01*
X87806443Y-42535227D01*
X87828387Y-42543079D01*
X87849457Y-42553044D01*
X87869448Y-42565026D01*
X87888168Y-42578910D01*
X87905438Y-42594562D01*
X87921090Y-42611832D01*
X87934974Y-42630552D01*
X87946956Y-42650543D01*
X87956921Y-42671613D01*
X87964773Y-42693557D01*
X87970437Y-42716166D01*
X87973856Y-42739221D01*
X87975000Y-42762500D01*
X87975000Y-43337500D01*
X87973856Y-43360779D01*
X87970437Y-43383834D01*
X87964773Y-43406443D01*
X87956921Y-43428387D01*
X87946956Y-43449457D01*
X87934974Y-43469448D01*
X87921090Y-43488168D01*
X87905438Y-43505438D01*
X87888168Y-43521090D01*
X87869448Y-43534974D01*
X87849457Y-43546956D01*
X87828387Y-43556921D01*
X87806443Y-43564773D01*
X87783834Y-43570437D01*
X87760779Y-43573856D01*
X87737500Y-43575000D01*
X87262500Y-43575000D01*
X87239221Y-43573856D01*
X87216166Y-43570437D01*
X87193557Y-43564773D01*
X87171613Y-43556921D01*
X87150543Y-43546956D01*
X87130552Y-43534974D01*
X87111832Y-43521090D01*
X87094562Y-43505438D01*
X87078910Y-43488168D01*
X87065026Y-43469448D01*
X87053044Y-43449457D01*
X87043079Y-43428387D01*
X87035227Y-43406443D01*
X87029563Y-43383834D01*
X87026144Y-43360779D01*
X87025000Y-43337500D01*
X87025000Y-42762500D01*
X87026144Y-42739221D01*
X87029563Y-42716166D01*
X87035227Y-42693557D01*
X87043079Y-42671613D01*
X87053044Y-42650543D01*
X87065026Y-42630552D01*
X87078910Y-42611832D01*
X87094562Y-42594562D01*
X87111832Y-42578910D01*
X87130552Y-42565026D01*
X87150543Y-42553044D01*
X87171613Y-42543079D01*
X87193557Y-42535227D01*
X87216166Y-42529563D01*
X87239221Y-42526144D01*
X87262500Y-42525000D01*
X87737500Y-42525000D01*
X87760779Y-42526144D01*
X87760779Y-42526144D01*
G37*
D14*
X87500000Y-43050000D03*
D10*
G36*
X87760779Y-40776144D02*
G01*
X87783834Y-40779563D01*
X87806443Y-40785227D01*
X87828387Y-40793079D01*
X87849457Y-40803044D01*
X87869448Y-40815026D01*
X87888168Y-40828910D01*
X87905438Y-40844562D01*
X87921090Y-40861832D01*
X87934974Y-40880552D01*
X87946956Y-40900543D01*
X87956921Y-40921613D01*
X87964773Y-40943557D01*
X87970437Y-40966166D01*
X87973856Y-40989221D01*
X87975000Y-41012500D01*
X87975000Y-41587500D01*
X87973856Y-41610779D01*
X87970437Y-41633834D01*
X87964773Y-41656443D01*
X87956921Y-41678387D01*
X87946956Y-41699457D01*
X87934974Y-41719448D01*
X87921090Y-41738168D01*
X87905438Y-41755438D01*
X87888168Y-41771090D01*
X87869448Y-41784974D01*
X87849457Y-41796956D01*
X87828387Y-41806921D01*
X87806443Y-41814773D01*
X87783834Y-41820437D01*
X87760779Y-41823856D01*
X87737500Y-41825000D01*
X87262500Y-41825000D01*
X87239221Y-41823856D01*
X87216166Y-41820437D01*
X87193557Y-41814773D01*
X87171613Y-41806921D01*
X87150543Y-41796956D01*
X87130552Y-41784974D01*
X87111832Y-41771090D01*
X87094562Y-41755438D01*
X87078910Y-41738168D01*
X87065026Y-41719448D01*
X87053044Y-41699457D01*
X87043079Y-41678387D01*
X87035227Y-41656443D01*
X87029563Y-41633834D01*
X87026144Y-41610779D01*
X87025000Y-41587500D01*
X87025000Y-41012500D01*
X87026144Y-40989221D01*
X87029563Y-40966166D01*
X87035227Y-40943557D01*
X87043079Y-40921613D01*
X87053044Y-40900543D01*
X87065026Y-40880552D01*
X87078910Y-40861832D01*
X87094562Y-40844562D01*
X87111832Y-40828910D01*
X87130552Y-40815026D01*
X87150543Y-40803044D01*
X87171613Y-40793079D01*
X87193557Y-40785227D01*
X87216166Y-40779563D01*
X87239221Y-40776144D01*
X87262500Y-40775000D01*
X87737500Y-40775000D01*
X87760779Y-40776144D01*
X87760779Y-40776144D01*
G37*
D14*
X87500000Y-41300000D03*
D10*
G36*
X84210779Y-42526144D02*
G01*
X84233834Y-42529563D01*
X84256443Y-42535227D01*
X84278387Y-42543079D01*
X84299457Y-42553044D01*
X84319448Y-42565026D01*
X84338168Y-42578910D01*
X84355438Y-42594562D01*
X84371090Y-42611832D01*
X84384974Y-42630552D01*
X84396956Y-42650543D01*
X84406921Y-42671613D01*
X84414773Y-42693557D01*
X84420437Y-42716166D01*
X84423856Y-42739221D01*
X84425000Y-42762500D01*
X84425000Y-43337500D01*
X84423856Y-43360779D01*
X84420437Y-43383834D01*
X84414773Y-43406443D01*
X84406921Y-43428387D01*
X84396956Y-43449457D01*
X84384974Y-43469448D01*
X84371090Y-43488168D01*
X84355438Y-43505438D01*
X84338168Y-43521090D01*
X84319448Y-43534974D01*
X84299457Y-43546956D01*
X84278387Y-43556921D01*
X84256443Y-43564773D01*
X84233834Y-43570437D01*
X84210779Y-43573856D01*
X84187500Y-43575000D01*
X83712500Y-43575000D01*
X83689221Y-43573856D01*
X83666166Y-43570437D01*
X83643557Y-43564773D01*
X83621613Y-43556921D01*
X83600543Y-43546956D01*
X83580552Y-43534974D01*
X83561832Y-43521090D01*
X83544562Y-43505438D01*
X83528910Y-43488168D01*
X83515026Y-43469448D01*
X83503044Y-43449457D01*
X83493079Y-43428387D01*
X83485227Y-43406443D01*
X83479563Y-43383834D01*
X83476144Y-43360779D01*
X83475000Y-43337500D01*
X83475000Y-42762500D01*
X83476144Y-42739221D01*
X83479563Y-42716166D01*
X83485227Y-42693557D01*
X83493079Y-42671613D01*
X83503044Y-42650543D01*
X83515026Y-42630552D01*
X83528910Y-42611832D01*
X83544562Y-42594562D01*
X83561832Y-42578910D01*
X83580552Y-42565026D01*
X83600543Y-42553044D01*
X83621613Y-42543079D01*
X83643557Y-42535227D01*
X83666166Y-42529563D01*
X83689221Y-42526144D01*
X83712500Y-42525000D01*
X84187500Y-42525000D01*
X84210779Y-42526144D01*
X84210779Y-42526144D01*
G37*
D14*
X83950000Y-43050000D03*
D10*
G36*
X84210779Y-40776144D02*
G01*
X84233834Y-40779563D01*
X84256443Y-40785227D01*
X84278387Y-40793079D01*
X84299457Y-40803044D01*
X84319448Y-40815026D01*
X84338168Y-40828910D01*
X84355438Y-40844562D01*
X84371090Y-40861832D01*
X84384974Y-40880552D01*
X84396956Y-40900543D01*
X84406921Y-40921613D01*
X84414773Y-40943557D01*
X84420437Y-40966166D01*
X84423856Y-40989221D01*
X84425000Y-41012500D01*
X84425000Y-41587500D01*
X84423856Y-41610779D01*
X84420437Y-41633834D01*
X84414773Y-41656443D01*
X84406921Y-41678387D01*
X84396956Y-41699457D01*
X84384974Y-41719448D01*
X84371090Y-41738168D01*
X84355438Y-41755438D01*
X84338168Y-41771090D01*
X84319448Y-41784974D01*
X84299457Y-41796956D01*
X84278387Y-41806921D01*
X84256443Y-41814773D01*
X84233834Y-41820437D01*
X84210779Y-41823856D01*
X84187500Y-41825000D01*
X83712500Y-41825000D01*
X83689221Y-41823856D01*
X83666166Y-41820437D01*
X83643557Y-41814773D01*
X83621613Y-41806921D01*
X83600543Y-41796956D01*
X83580552Y-41784974D01*
X83561832Y-41771090D01*
X83544562Y-41755438D01*
X83528910Y-41738168D01*
X83515026Y-41719448D01*
X83503044Y-41699457D01*
X83493079Y-41678387D01*
X83485227Y-41656443D01*
X83479563Y-41633834D01*
X83476144Y-41610779D01*
X83475000Y-41587500D01*
X83475000Y-41012500D01*
X83476144Y-40989221D01*
X83479563Y-40966166D01*
X83485227Y-40943557D01*
X83493079Y-40921613D01*
X83503044Y-40900543D01*
X83515026Y-40880552D01*
X83528910Y-40861832D01*
X83544562Y-40844562D01*
X83561832Y-40828910D01*
X83580552Y-40815026D01*
X83600543Y-40803044D01*
X83621613Y-40793079D01*
X83643557Y-40785227D01*
X83666166Y-40779563D01*
X83689221Y-40776144D01*
X83712500Y-40775000D01*
X84187500Y-40775000D01*
X84210779Y-40776144D01*
X84210779Y-40776144D01*
G37*
D14*
X83950000Y-41300000D03*
D10*
G36*
X80660779Y-40776144D02*
G01*
X80683834Y-40779563D01*
X80706443Y-40785227D01*
X80728387Y-40793079D01*
X80749457Y-40803044D01*
X80769448Y-40815026D01*
X80788168Y-40828910D01*
X80805438Y-40844562D01*
X80821090Y-40861832D01*
X80834974Y-40880552D01*
X80846956Y-40900543D01*
X80856921Y-40921613D01*
X80864773Y-40943557D01*
X80870437Y-40966166D01*
X80873856Y-40989221D01*
X80875000Y-41012500D01*
X80875000Y-41587500D01*
X80873856Y-41610779D01*
X80870437Y-41633834D01*
X80864773Y-41656443D01*
X80856921Y-41678387D01*
X80846956Y-41699457D01*
X80834974Y-41719448D01*
X80821090Y-41738168D01*
X80805438Y-41755438D01*
X80788168Y-41771090D01*
X80769448Y-41784974D01*
X80749457Y-41796956D01*
X80728387Y-41806921D01*
X80706443Y-41814773D01*
X80683834Y-41820437D01*
X80660779Y-41823856D01*
X80637500Y-41825000D01*
X80162500Y-41825000D01*
X80139221Y-41823856D01*
X80116166Y-41820437D01*
X80093557Y-41814773D01*
X80071613Y-41806921D01*
X80050543Y-41796956D01*
X80030552Y-41784974D01*
X80011832Y-41771090D01*
X79994562Y-41755438D01*
X79978910Y-41738168D01*
X79965026Y-41719448D01*
X79953044Y-41699457D01*
X79943079Y-41678387D01*
X79935227Y-41656443D01*
X79929563Y-41633834D01*
X79926144Y-41610779D01*
X79925000Y-41587500D01*
X79925000Y-41012500D01*
X79926144Y-40989221D01*
X79929563Y-40966166D01*
X79935227Y-40943557D01*
X79943079Y-40921613D01*
X79953044Y-40900543D01*
X79965026Y-40880552D01*
X79978910Y-40861832D01*
X79994562Y-40844562D01*
X80011832Y-40828910D01*
X80030552Y-40815026D01*
X80050543Y-40803044D01*
X80071613Y-40793079D01*
X80093557Y-40785227D01*
X80116166Y-40779563D01*
X80139221Y-40776144D01*
X80162500Y-40775000D01*
X80637500Y-40775000D01*
X80660779Y-40776144D01*
X80660779Y-40776144D01*
G37*
D14*
X80400000Y-41300000D03*
D10*
G36*
X80660779Y-42526144D02*
G01*
X80683834Y-42529563D01*
X80706443Y-42535227D01*
X80728387Y-42543079D01*
X80749457Y-42553044D01*
X80769448Y-42565026D01*
X80788168Y-42578910D01*
X80805438Y-42594562D01*
X80821090Y-42611832D01*
X80834974Y-42630552D01*
X80846956Y-42650543D01*
X80856921Y-42671613D01*
X80864773Y-42693557D01*
X80870437Y-42716166D01*
X80873856Y-42739221D01*
X80875000Y-42762500D01*
X80875000Y-43337500D01*
X80873856Y-43360779D01*
X80870437Y-43383834D01*
X80864773Y-43406443D01*
X80856921Y-43428387D01*
X80846956Y-43449457D01*
X80834974Y-43469448D01*
X80821090Y-43488168D01*
X80805438Y-43505438D01*
X80788168Y-43521090D01*
X80769448Y-43534974D01*
X80749457Y-43546956D01*
X80728387Y-43556921D01*
X80706443Y-43564773D01*
X80683834Y-43570437D01*
X80660779Y-43573856D01*
X80637500Y-43575000D01*
X80162500Y-43575000D01*
X80139221Y-43573856D01*
X80116166Y-43570437D01*
X80093557Y-43564773D01*
X80071613Y-43556921D01*
X80050543Y-43546956D01*
X80030552Y-43534974D01*
X80011832Y-43521090D01*
X79994562Y-43505438D01*
X79978910Y-43488168D01*
X79965026Y-43469448D01*
X79953044Y-43449457D01*
X79943079Y-43428387D01*
X79935227Y-43406443D01*
X79929563Y-43383834D01*
X79926144Y-43360779D01*
X79925000Y-43337500D01*
X79925000Y-42762500D01*
X79926144Y-42739221D01*
X79929563Y-42716166D01*
X79935227Y-42693557D01*
X79943079Y-42671613D01*
X79953044Y-42650543D01*
X79965026Y-42630552D01*
X79978910Y-42611832D01*
X79994562Y-42594562D01*
X80011832Y-42578910D01*
X80030552Y-42565026D01*
X80050543Y-42553044D01*
X80071613Y-42543079D01*
X80093557Y-42535227D01*
X80116166Y-42529563D01*
X80139221Y-42526144D01*
X80162500Y-42525000D01*
X80637500Y-42525000D01*
X80660779Y-42526144D01*
X80660779Y-42526144D01*
G37*
D14*
X80400000Y-43050000D03*
D10*
G36*
X77085779Y-42526144D02*
G01*
X77108834Y-42529563D01*
X77131443Y-42535227D01*
X77153387Y-42543079D01*
X77174457Y-42553044D01*
X77194448Y-42565026D01*
X77213168Y-42578910D01*
X77230438Y-42594562D01*
X77246090Y-42611832D01*
X77259974Y-42630552D01*
X77271956Y-42650543D01*
X77281921Y-42671613D01*
X77289773Y-42693557D01*
X77295437Y-42716166D01*
X77298856Y-42739221D01*
X77300000Y-42762500D01*
X77300000Y-43337500D01*
X77298856Y-43360779D01*
X77295437Y-43383834D01*
X77289773Y-43406443D01*
X77281921Y-43428387D01*
X77271956Y-43449457D01*
X77259974Y-43469448D01*
X77246090Y-43488168D01*
X77230438Y-43505438D01*
X77213168Y-43521090D01*
X77194448Y-43534974D01*
X77174457Y-43546956D01*
X77153387Y-43556921D01*
X77131443Y-43564773D01*
X77108834Y-43570437D01*
X77085779Y-43573856D01*
X77062500Y-43575000D01*
X76587500Y-43575000D01*
X76564221Y-43573856D01*
X76541166Y-43570437D01*
X76518557Y-43564773D01*
X76496613Y-43556921D01*
X76475543Y-43546956D01*
X76455552Y-43534974D01*
X76436832Y-43521090D01*
X76419562Y-43505438D01*
X76403910Y-43488168D01*
X76390026Y-43469448D01*
X76378044Y-43449457D01*
X76368079Y-43428387D01*
X76360227Y-43406443D01*
X76354563Y-43383834D01*
X76351144Y-43360779D01*
X76350000Y-43337500D01*
X76350000Y-42762500D01*
X76351144Y-42739221D01*
X76354563Y-42716166D01*
X76360227Y-42693557D01*
X76368079Y-42671613D01*
X76378044Y-42650543D01*
X76390026Y-42630552D01*
X76403910Y-42611832D01*
X76419562Y-42594562D01*
X76436832Y-42578910D01*
X76455552Y-42565026D01*
X76475543Y-42553044D01*
X76496613Y-42543079D01*
X76518557Y-42535227D01*
X76541166Y-42529563D01*
X76564221Y-42526144D01*
X76587500Y-42525000D01*
X77062500Y-42525000D01*
X77085779Y-42526144D01*
X77085779Y-42526144D01*
G37*
D14*
X76825000Y-43050000D03*
D10*
G36*
X77085779Y-40776144D02*
G01*
X77108834Y-40779563D01*
X77131443Y-40785227D01*
X77153387Y-40793079D01*
X77174457Y-40803044D01*
X77194448Y-40815026D01*
X77213168Y-40828910D01*
X77230438Y-40844562D01*
X77246090Y-40861832D01*
X77259974Y-40880552D01*
X77271956Y-40900543D01*
X77281921Y-40921613D01*
X77289773Y-40943557D01*
X77295437Y-40966166D01*
X77298856Y-40989221D01*
X77300000Y-41012500D01*
X77300000Y-41587500D01*
X77298856Y-41610779D01*
X77295437Y-41633834D01*
X77289773Y-41656443D01*
X77281921Y-41678387D01*
X77271956Y-41699457D01*
X77259974Y-41719448D01*
X77246090Y-41738168D01*
X77230438Y-41755438D01*
X77213168Y-41771090D01*
X77194448Y-41784974D01*
X77174457Y-41796956D01*
X77153387Y-41806921D01*
X77131443Y-41814773D01*
X77108834Y-41820437D01*
X77085779Y-41823856D01*
X77062500Y-41825000D01*
X76587500Y-41825000D01*
X76564221Y-41823856D01*
X76541166Y-41820437D01*
X76518557Y-41814773D01*
X76496613Y-41806921D01*
X76475543Y-41796956D01*
X76455552Y-41784974D01*
X76436832Y-41771090D01*
X76419562Y-41755438D01*
X76403910Y-41738168D01*
X76390026Y-41719448D01*
X76378044Y-41699457D01*
X76368079Y-41678387D01*
X76360227Y-41656443D01*
X76354563Y-41633834D01*
X76351144Y-41610779D01*
X76350000Y-41587500D01*
X76350000Y-41012500D01*
X76351144Y-40989221D01*
X76354563Y-40966166D01*
X76360227Y-40943557D01*
X76368079Y-40921613D01*
X76378044Y-40900543D01*
X76390026Y-40880552D01*
X76403910Y-40861832D01*
X76419562Y-40844562D01*
X76436832Y-40828910D01*
X76455552Y-40815026D01*
X76475543Y-40803044D01*
X76496613Y-40793079D01*
X76518557Y-40785227D01*
X76541166Y-40779563D01*
X76564221Y-40776144D01*
X76587500Y-40775000D01*
X77062500Y-40775000D01*
X77085779Y-40776144D01*
X77085779Y-40776144D01*
G37*
D14*
X76825000Y-41300000D03*
D10*
G36*
X73560779Y-40776144D02*
G01*
X73583834Y-40779563D01*
X73606443Y-40785227D01*
X73628387Y-40793079D01*
X73649457Y-40803044D01*
X73669448Y-40815026D01*
X73688168Y-40828910D01*
X73705438Y-40844562D01*
X73721090Y-40861832D01*
X73734974Y-40880552D01*
X73746956Y-40900543D01*
X73756921Y-40921613D01*
X73764773Y-40943557D01*
X73770437Y-40966166D01*
X73773856Y-40989221D01*
X73775000Y-41012500D01*
X73775000Y-41587500D01*
X73773856Y-41610779D01*
X73770437Y-41633834D01*
X73764773Y-41656443D01*
X73756921Y-41678387D01*
X73746956Y-41699457D01*
X73734974Y-41719448D01*
X73721090Y-41738168D01*
X73705438Y-41755438D01*
X73688168Y-41771090D01*
X73669448Y-41784974D01*
X73649457Y-41796956D01*
X73628387Y-41806921D01*
X73606443Y-41814773D01*
X73583834Y-41820437D01*
X73560779Y-41823856D01*
X73537500Y-41825000D01*
X73062500Y-41825000D01*
X73039221Y-41823856D01*
X73016166Y-41820437D01*
X72993557Y-41814773D01*
X72971613Y-41806921D01*
X72950543Y-41796956D01*
X72930552Y-41784974D01*
X72911832Y-41771090D01*
X72894562Y-41755438D01*
X72878910Y-41738168D01*
X72865026Y-41719448D01*
X72853044Y-41699457D01*
X72843079Y-41678387D01*
X72835227Y-41656443D01*
X72829563Y-41633834D01*
X72826144Y-41610779D01*
X72825000Y-41587500D01*
X72825000Y-41012500D01*
X72826144Y-40989221D01*
X72829563Y-40966166D01*
X72835227Y-40943557D01*
X72843079Y-40921613D01*
X72853044Y-40900543D01*
X72865026Y-40880552D01*
X72878910Y-40861832D01*
X72894562Y-40844562D01*
X72911832Y-40828910D01*
X72930552Y-40815026D01*
X72950543Y-40803044D01*
X72971613Y-40793079D01*
X72993557Y-40785227D01*
X73016166Y-40779563D01*
X73039221Y-40776144D01*
X73062500Y-40775000D01*
X73537500Y-40775000D01*
X73560779Y-40776144D01*
X73560779Y-40776144D01*
G37*
D14*
X73300000Y-41300000D03*
D10*
G36*
X73560779Y-42526144D02*
G01*
X73583834Y-42529563D01*
X73606443Y-42535227D01*
X73628387Y-42543079D01*
X73649457Y-42553044D01*
X73669448Y-42565026D01*
X73688168Y-42578910D01*
X73705438Y-42594562D01*
X73721090Y-42611832D01*
X73734974Y-42630552D01*
X73746956Y-42650543D01*
X73756921Y-42671613D01*
X73764773Y-42693557D01*
X73770437Y-42716166D01*
X73773856Y-42739221D01*
X73775000Y-42762500D01*
X73775000Y-43337500D01*
X73773856Y-43360779D01*
X73770437Y-43383834D01*
X73764773Y-43406443D01*
X73756921Y-43428387D01*
X73746956Y-43449457D01*
X73734974Y-43469448D01*
X73721090Y-43488168D01*
X73705438Y-43505438D01*
X73688168Y-43521090D01*
X73669448Y-43534974D01*
X73649457Y-43546956D01*
X73628387Y-43556921D01*
X73606443Y-43564773D01*
X73583834Y-43570437D01*
X73560779Y-43573856D01*
X73537500Y-43575000D01*
X73062500Y-43575000D01*
X73039221Y-43573856D01*
X73016166Y-43570437D01*
X72993557Y-43564773D01*
X72971613Y-43556921D01*
X72950543Y-43546956D01*
X72930552Y-43534974D01*
X72911832Y-43521090D01*
X72894562Y-43505438D01*
X72878910Y-43488168D01*
X72865026Y-43469448D01*
X72853044Y-43449457D01*
X72843079Y-43428387D01*
X72835227Y-43406443D01*
X72829563Y-43383834D01*
X72826144Y-43360779D01*
X72825000Y-43337500D01*
X72825000Y-42762500D01*
X72826144Y-42739221D01*
X72829563Y-42716166D01*
X72835227Y-42693557D01*
X72843079Y-42671613D01*
X72853044Y-42650543D01*
X72865026Y-42630552D01*
X72878910Y-42611832D01*
X72894562Y-42594562D01*
X72911832Y-42578910D01*
X72930552Y-42565026D01*
X72950543Y-42553044D01*
X72971613Y-42543079D01*
X72993557Y-42535227D01*
X73016166Y-42529563D01*
X73039221Y-42526144D01*
X73062500Y-42525000D01*
X73537500Y-42525000D01*
X73560779Y-42526144D01*
X73560779Y-42526144D01*
G37*
D14*
X73300000Y-43050000D03*
D10*
G36*
X138985779Y-48876144D02*
G01*
X139008834Y-48879563D01*
X139031443Y-48885227D01*
X139053387Y-48893079D01*
X139074457Y-48903044D01*
X139094448Y-48915026D01*
X139113168Y-48928910D01*
X139130438Y-48944562D01*
X139146090Y-48961832D01*
X139159974Y-48980552D01*
X139171956Y-49000543D01*
X139181921Y-49021613D01*
X139189773Y-49043557D01*
X139195437Y-49066166D01*
X139198856Y-49089221D01*
X139200000Y-49112500D01*
X139200000Y-49587500D01*
X139198856Y-49610779D01*
X139195437Y-49633834D01*
X139189773Y-49656443D01*
X139181921Y-49678387D01*
X139171956Y-49699457D01*
X139159974Y-49719448D01*
X139146090Y-49738168D01*
X139130438Y-49755438D01*
X139113168Y-49771090D01*
X139094448Y-49784974D01*
X139074457Y-49796956D01*
X139053387Y-49806921D01*
X139031443Y-49814773D01*
X139008834Y-49820437D01*
X138985779Y-49823856D01*
X138962500Y-49825000D01*
X138387500Y-49825000D01*
X138364221Y-49823856D01*
X138341166Y-49820437D01*
X138318557Y-49814773D01*
X138296613Y-49806921D01*
X138275543Y-49796956D01*
X138255552Y-49784974D01*
X138236832Y-49771090D01*
X138219562Y-49755438D01*
X138203910Y-49738168D01*
X138190026Y-49719448D01*
X138178044Y-49699457D01*
X138168079Y-49678387D01*
X138160227Y-49656443D01*
X138154563Y-49633834D01*
X138151144Y-49610779D01*
X138150000Y-49587500D01*
X138150000Y-49112500D01*
X138151144Y-49089221D01*
X138154563Y-49066166D01*
X138160227Y-49043557D01*
X138168079Y-49021613D01*
X138178044Y-49000543D01*
X138190026Y-48980552D01*
X138203910Y-48961832D01*
X138219562Y-48944562D01*
X138236832Y-48928910D01*
X138255552Y-48915026D01*
X138275543Y-48903044D01*
X138296613Y-48893079D01*
X138318557Y-48885227D01*
X138341166Y-48879563D01*
X138364221Y-48876144D01*
X138387500Y-48875000D01*
X138962500Y-48875000D01*
X138985779Y-48876144D01*
X138985779Y-48876144D01*
G37*
D14*
X138675000Y-49350000D03*
D10*
G36*
X140735779Y-48876144D02*
G01*
X140758834Y-48879563D01*
X140781443Y-48885227D01*
X140803387Y-48893079D01*
X140824457Y-48903044D01*
X140844448Y-48915026D01*
X140863168Y-48928910D01*
X140880438Y-48944562D01*
X140896090Y-48961832D01*
X140909974Y-48980552D01*
X140921956Y-49000543D01*
X140931921Y-49021613D01*
X140939773Y-49043557D01*
X140945437Y-49066166D01*
X140948856Y-49089221D01*
X140950000Y-49112500D01*
X140950000Y-49587500D01*
X140948856Y-49610779D01*
X140945437Y-49633834D01*
X140939773Y-49656443D01*
X140931921Y-49678387D01*
X140921956Y-49699457D01*
X140909974Y-49719448D01*
X140896090Y-49738168D01*
X140880438Y-49755438D01*
X140863168Y-49771090D01*
X140844448Y-49784974D01*
X140824457Y-49796956D01*
X140803387Y-49806921D01*
X140781443Y-49814773D01*
X140758834Y-49820437D01*
X140735779Y-49823856D01*
X140712500Y-49825000D01*
X140137500Y-49825000D01*
X140114221Y-49823856D01*
X140091166Y-49820437D01*
X140068557Y-49814773D01*
X140046613Y-49806921D01*
X140025543Y-49796956D01*
X140005552Y-49784974D01*
X139986832Y-49771090D01*
X139969562Y-49755438D01*
X139953910Y-49738168D01*
X139940026Y-49719448D01*
X139928044Y-49699457D01*
X139918079Y-49678387D01*
X139910227Y-49656443D01*
X139904563Y-49633834D01*
X139901144Y-49610779D01*
X139900000Y-49587500D01*
X139900000Y-49112500D01*
X139901144Y-49089221D01*
X139904563Y-49066166D01*
X139910227Y-49043557D01*
X139918079Y-49021613D01*
X139928044Y-49000543D01*
X139940026Y-48980552D01*
X139953910Y-48961832D01*
X139969562Y-48944562D01*
X139986832Y-48928910D01*
X140005552Y-48915026D01*
X140025543Y-48903044D01*
X140046613Y-48893079D01*
X140068557Y-48885227D01*
X140091166Y-48879563D01*
X140114221Y-48876144D01*
X140137500Y-48875000D01*
X140712500Y-48875000D01*
X140735779Y-48876144D01*
X140735779Y-48876144D01*
G37*
D14*
X140425000Y-49350000D03*
M02*
