G04 #@! TF.GenerationSoftware,KiCad,Pcbnew,(5.1.4)-1*
G04 #@! TF.CreationDate,2020-09-30T13:08:59+02:00*
G04 #@! TF.ProjectId,car_controller,6361725f-636f-46e7-9472-6f6c6c65722e,rev?*
G04 #@! TF.SameCoordinates,Original*
G04 #@! TF.FileFunction,Soldermask,Top*
G04 #@! TF.FilePolarity,Negative*
%FSLAX46Y46*%
G04 Gerber Fmt 4.6, Leading zero omitted, Abs format (unit mm)*
G04 Created by KiCad (PCBNEW (5.1.4)-1) date 2020-09-30 13:08:59*
%MOMM*%
%LPD*%
G04 APERTURE LIST*
%ADD10C,0.100000*%
G04 APERTURE END LIST*
D10*
G36*
X147150562Y-129065681D02*
G01*
X147185481Y-129076274D01*
X147217663Y-129093476D01*
X147245873Y-129116627D01*
X147269024Y-129144837D01*
X147286226Y-129177019D01*
X147296819Y-129211938D01*
X147301000Y-129254395D01*
X147301000Y-130395605D01*
X147296819Y-130438062D01*
X147286226Y-130472981D01*
X147269024Y-130505163D01*
X147245873Y-130533373D01*
X147217663Y-130556524D01*
X147185481Y-130573726D01*
X147150562Y-130584319D01*
X147108105Y-130588500D01*
X145641895Y-130588500D01*
X145599438Y-130584319D01*
X145564519Y-130573726D01*
X145532337Y-130556524D01*
X145504127Y-130533373D01*
X145480976Y-130505163D01*
X145463774Y-130472981D01*
X145453181Y-130438062D01*
X145449000Y-130395605D01*
X145449000Y-129254395D01*
X145453181Y-129211938D01*
X145463774Y-129177019D01*
X145480976Y-129144837D01*
X145504127Y-129116627D01*
X145532337Y-129093476D01*
X145564519Y-129076274D01*
X145599438Y-129065681D01*
X145641895Y-129061500D01*
X147108105Y-129061500D01*
X147150562Y-129065681D01*
X147150562Y-129065681D01*
G37*
G36*
X139356000Y-129846000D02*
G01*
X137554000Y-129846000D01*
X137554000Y-128044000D01*
X139356000Y-128044000D01*
X139356000Y-129846000D01*
X139356000Y-129846000D01*
G37*
G36*
X157118254Y-125222818D02*
G01*
X157491511Y-125377426D01*
X157491513Y-125377427D01*
X157827436Y-125601884D01*
X158113116Y-125887564D01*
X158323229Y-126202019D01*
X158337574Y-126223489D01*
X158492182Y-126596746D01*
X158571000Y-126992993D01*
X158571000Y-127397007D01*
X158492182Y-127793254D01*
X158337574Y-128166511D01*
X158337573Y-128166513D01*
X158113116Y-128502436D01*
X157827436Y-128788116D01*
X157491513Y-129012573D01*
X157491512Y-129012574D01*
X157491511Y-129012574D01*
X157118254Y-129167182D01*
X156722007Y-129246000D01*
X156317993Y-129246000D01*
X155921746Y-129167182D01*
X155548489Y-129012574D01*
X155548488Y-129012574D01*
X155548487Y-129012573D01*
X155212564Y-128788116D01*
X154926884Y-128502436D01*
X154702427Y-128166513D01*
X154702426Y-128166511D01*
X154547818Y-127793254D01*
X154469000Y-127397007D01*
X154469000Y-126992993D01*
X154547818Y-126596746D01*
X154702426Y-126223489D01*
X154716772Y-126202019D01*
X154926884Y-125887564D01*
X155212564Y-125601884D01*
X155548487Y-125377427D01*
X155548489Y-125377426D01*
X155921746Y-125222818D01*
X156317993Y-125144000D01*
X156722007Y-125144000D01*
X157118254Y-125222818D01*
X157118254Y-125222818D01*
G37*
G36*
X147150562Y-126090681D02*
G01*
X147185481Y-126101274D01*
X147217663Y-126118476D01*
X147245873Y-126141627D01*
X147269024Y-126169837D01*
X147286226Y-126202019D01*
X147296819Y-126236938D01*
X147301000Y-126279395D01*
X147301000Y-127420605D01*
X147296819Y-127463062D01*
X147286226Y-127497981D01*
X147269024Y-127530163D01*
X147245873Y-127558373D01*
X147217663Y-127581524D01*
X147185481Y-127598726D01*
X147150562Y-127609319D01*
X147108105Y-127613500D01*
X145641895Y-127613500D01*
X145599438Y-127609319D01*
X145564519Y-127598726D01*
X145532337Y-127581524D01*
X145504127Y-127558373D01*
X145480976Y-127530163D01*
X145463774Y-127497981D01*
X145453181Y-127463062D01*
X145449000Y-127420605D01*
X145449000Y-126279395D01*
X145453181Y-126236938D01*
X145463774Y-126202019D01*
X145480976Y-126169837D01*
X145504127Y-126141627D01*
X145532337Y-126118476D01*
X145564519Y-126101274D01*
X145599438Y-126090681D01*
X145641895Y-126086500D01*
X147108105Y-126086500D01*
X147150562Y-126090681D01*
X147150562Y-126090681D01*
G37*
G36*
X138565443Y-125510519D02*
G01*
X138631627Y-125517037D01*
X138801466Y-125568557D01*
X138957991Y-125652222D01*
X138993729Y-125681552D01*
X139095186Y-125764814D01*
X139178448Y-125866271D01*
X139207778Y-125902009D01*
X139291443Y-126058534D01*
X139342963Y-126228373D01*
X139360359Y-126405000D01*
X139342963Y-126581627D01*
X139291443Y-126751466D01*
X139207778Y-126907991D01*
X139178448Y-126943729D01*
X139095186Y-127045186D01*
X138993729Y-127128448D01*
X138957991Y-127157778D01*
X138801466Y-127241443D01*
X138631627Y-127292963D01*
X138565442Y-127299482D01*
X138499260Y-127306000D01*
X138410740Y-127306000D01*
X138344558Y-127299482D01*
X138278373Y-127292963D01*
X138108534Y-127241443D01*
X137952009Y-127157778D01*
X137916271Y-127128448D01*
X137814814Y-127045186D01*
X137731552Y-126943729D01*
X137702222Y-126907991D01*
X137618557Y-126751466D01*
X137567037Y-126581627D01*
X137549641Y-126405000D01*
X137567037Y-126228373D01*
X137618557Y-126058534D01*
X137702222Y-125902009D01*
X137731552Y-125866271D01*
X137814814Y-125764814D01*
X137916271Y-125681552D01*
X137952009Y-125652222D01*
X138108534Y-125568557D01*
X138278373Y-125517037D01*
X138344557Y-125510519D01*
X138410740Y-125504000D01*
X138499260Y-125504000D01*
X138565443Y-125510519D01*
X138565443Y-125510519D01*
G37*
G36*
X138565442Y-122970518D02*
G01*
X138631627Y-122977037D01*
X138801466Y-123028557D01*
X138957991Y-123112222D01*
X138993729Y-123141552D01*
X139095186Y-123224814D01*
X139178448Y-123326271D01*
X139207778Y-123362009D01*
X139291443Y-123518534D01*
X139342963Y-123688373D01*
X139360359Y-123865000D01*
X139342963Y-124041627D01*
X139291443Y-124211466D01*
X139207778Y-124367991D01*
X139178448Y-124403729D01*
X139095186Y-124505186D01*
X138993729Y-124588448D01*
X138957991Y-124617778D01*
X138801466Y-124701443D01*
X138631627Y-124752963D01*
X138565443Y-124759481D01*
X138499260Y-124766000D01*
X138410740Y-124766000D01*
X138344557Y-124759481D01*
X138278373Y-124752963D01*
X138108534Y-124701443D01*
X137952009Y-124617778D01*
X137916271Y-124588448D01*
X137814814Y-124505186D01*
X137731552Y-124403729D01*
X137702222Y-124367991D01*
X137618557Y-124211466D01*
X137567037Y-124041627D01*
X137549641Y-123865000D01*
X137567037Y-123688373D01*
X137618557Y-123518534D01*
X137702222Y-123362009D01*
X137731552Y-123326271D01*
X137814814Y-123224814D01*
X137916271Y-123141552D01*
X137952009Y-123112222D01*
X138108534Y-123028557D01*
X138278373Y-122977037D01*
X138344558Y-122970518D01*
X138410740Y-122964000D01*
X138499260Y-122964000D01*
X138565442Y-122970518D01*
X138565442Y-122970518D01*
G37*
G36*
X110519499Y-121678445D02*
G01*
X110556995Y-121689820D01*
X110591554Y-121708292D01*
X110621847Y-121733153D01*
X110646708Y-121763446D01*
X110665180Y-121798005D01*
X110676555Y-121835501D01*
X110681000Y-121880638D01*
X110681000Y-122519362D01*
X110676555Y-122564499D01*
X110665180Y-122601995D01*
X110646708Y-122636554D01*
X110621847Y-122666847D01*
X110591554Y-122691708D01*
X110556995Y-122710180D01*
X110519499Y-122721555D01*
X110474362Y-122726000D01*
X109735638Y-122726000D01*
X109690501Y-122721555D01*
X109653005Y-122710180D01*
X109618446Y-122691708D01*
X109588153Y-122666847D01*
X109563292Y-122636554D01*
X109544820Y-122601995D01*
X109533445Y-122564499D01*
X109529000Y-122519362D01*
X109529000Y-121880638D01*
X109533445Y-121835501D01*
X109544820Y-121798005D01*
X109563292Y-121763446D01*
X109588153Y-121733153D01*
X109618446Y-121708292D01*
X109653005Y-121689820D01*
X109690501Y-121678445D01*
X109735638Y-121674000D01*
X110474362Y-121674000D01*
X110519499Y-121678445D01*
X110519499Y-121678445D01*
G37*
G36*
X112269499Y-121678445D02*
G01*
X112306995Y-121689820D01*
X112341554Y-121708292D01*
X112371847Y-121733153D01*
X112396708Y-121763446D01*
X112415180Y-121798005D01*
X112426555Y-121835501D01*
X112431000Y-121880638D01*
X112431000Y-122519362D01*
X112426555Y-122564499D01*
X112415180Y-122601995D01*
X112396708Y-122636554D01*
X112371847Y-122666847D01*
X112341554Y-122691708D01*
X112306995Y-122710180D01*
X112269499Y-122721555D01*
X112224362Y-122726000D01*
X111485638Y-122726000D01*
X111440501Y-122721555D01*
X111403005Y-122710180D01*
X111368446Y-122691708D01*
X111338153Y-122666847D01*
X111313292Y-122636554D01*
X111294820Y-122601995D01*
X111283445Y-122564499D01*
X111279000Y-122519362D01*
X111279000Y-121880638D01*
X111283445Y-121835501D01*
X111294820Y-121798005D01*
X111313292Y-121763446D01*
X111338153Y-121733153D01*
X111368446Y-121708292D01*
X111403005Y-121689820D01*
X111440501Y-121678445D01*
X111485638Y-121674000D01*
X112224362Y-121674000D01*
X112269499Y-121678445D01*
X112269499Y-121678445D01*
G37*
G36*
X155348228Y-119446703D02*
G01*
X155503100Y-119510853D01*
X155642481Y-119603985D01*
X155761015Y-119722519D01*
X155854147Y-119861900D01*
X155918297Y-120016772D01*
X155951000Y-120181184D01*
X155951000Y-120348816D01*
X155918297Y-120513228D01*
X155854147Y-120668100D01*
X155761015Y-120807481D01*
X155642481Y-120926015D01*
X155503100Y-121019147D01*
X155348228Y-121083297D01*
X155183816Y-121116000D01*
X155016184Y-121116000D01*
X154851772Y-121083297D01*
X154696900Y-121019147D01*
X154557519Y-120926015D01*
X154438985Y-120807481D01*
X154345853Y-120668100D01*
X154281703Y-120513228D01*
X154249000Y-120348816D01*
X154249000Y-120181184D01*
X154281703Y-120016772D01*
X154345853Y-119861900D01*
X154438985Y-119722519D01*
X154557519Y-119603985D01*
X154696900Y-119510853D01*
X154851772Y-119446703D01*
X155016184Y-119414000D01*
X155183816Y-119414000D01*
X155348228Y-119446703D01*
X155348228Y-119446703D01*
G37*
G36*
X147150562Y-119415681D02*
G01*
X147185481Y-119426274D01*
X147217663Y-119443476D01*
X147245873Y-119466627D01*
X147269024Y-119494837D01*
X147286226Y-119527019D01*
X147296819Y-119561938D01*
X147301000Y-119604395D01*
X147301000Y-120745605D01*
X147296819Y-120788062D01*
X147286226Y-120822981D01*
X147269024Y-120855163D01*
X147245873Y-120883373D01*
X147217663Y-120906524D01*
X147185481Y-120923726D01*
X147150562Y-120934319D01*
X147108105Y-120938500D01*
X145641895Y-120938500D01*
X145599438Y-120934319D01*
X145564519Y-120923726D01*
X145532337Y-120906524D01*
X145504127Y-120883373D01*
X145480976Y-120855163D01*
X145463774Y-120822981D01*
X145453181Y-120788062D01*
X145449000Y-120745605D01*
X145449000Y-119604395D01*
X145453181Y-119561938D01*
X145463774Y-119527019D01*
X145480976Y-119494837D01*
X145504127Y-119466627D01*
X145532337Y-119443476D01*
X145564519Y-119426274D01*
X145599438Y-119415681D01*
X145641895Y-119411500D01*
X147108105Y-119411500D01*
X147150562Y-119415681D01*
X147150562Y-119415681D01*
G37*
G36*
X139356000Y-120196000D02*
G01*
X137554000Y-120196000D01*
X137554000Y-118394000D01*
X139356000Y-118394000D01*
X139356000Y-120196000D01*
X139356000Y-120196000D01*
G37*
G36*
X74907394Y-118465934D02*
G01*
X75058624Y-118528576D01*
X75058626Y-118528577D01*
X75194732Y-118619520D01*
X75310480Y-118735268D01*
X75351183Y-118796185D01*
X75401424Y-118871376D01*
X75464066Y-119022606D01*
X75496000Y-119183152D01*
X75496000Y-119346848D01*
X75464066Y-119507394D01*
X75411562Y-119634148D01*
X75401423Y-119658626D01*
X75310480Y-119794732D01*
X75194732Y-119910480D01*
X75058626Y-120001423D01*
X75058625Y-120001424D01*
X75058624Y-120001424D01*
X74907394Y-120064066D01*
X74746848Y-120096000D01*
X74583152Y-120096000D01*
X74422606Y-120064066D01*
X74271376Y-120001424D01*
X74271375Y-120001424D01*
X74271374Y-120001423D01*
X74135268Y-119910480D01*
X74019520Y-119794732D01*
X73928577Y-119658626D01*
X73918438Y-119634148D01*
X73865934Y-119507394D01*
X73834000Y-119346848D01*
X73834000Y-119183152D01*
X73865934Y-119022606D01*
X73928576Y-118871376D01*
X73978817Y-118796185D01*
X74019520Y-118735268D01*
X74135268Y-118619520D01*
X74271374Y-118528577D01*
X74271376Y-118528576D01*
X74422606Y-118465934D01*
X74583152Y-118434000D01*
X74746848Y-118434000D01*
X74907394Y-118465934D01*
X74907394Y-118465934D01*
G37*
G36*
X100896000Y-120096000D02*
G01*
X99234000Y-120096000D01*
X99234000Y-118434000D01*
X100896000Y-118434000D01*
X100896000Y-120096000D01*
X100896000Y-120096000D01*
G37*
G36*
X158188228Y-118061703D02*
G01*
X158343100Y-118125853D01*
X158482481Y-118218985D01*
X158601015Y-118337519D01*
X158694147Y-118476900D01*
X158758297Y-118631772D01*
X158791000Y-118796184D01*
X158791000Y-118963816D01*
X158758297Y-119128228D01*
X158694147Y-119283100D01*
X158601015Y-119422481D01*
X158482481Y-119541015D01*
X158343100Y-119634147D01*
X158188228Y-119698297D01*
X158023816Y-119731000D01*
X157856184Y-119731000D01*
X157691772Y-119698297D01*
X157536900Y-119634147D01*
X157397519Y-119541015D01*
X157278985Y-119422481D01*
X157185853Y-119283100D01*
X157121703Y-119128228D01*
X157089000Y-118963816D01*
X157089000Y-118796184D01*
X157121703Y-118631772D01*
X157185853Y-118476900D01*
X157278985Y-118337519D01*
X157397519Y-118218985D01*
X157536900Y-118125853D01*
X157691772Y-118061703D01*
X157856184Y-118029000D01*
X158023816Y-118029000D01*
X158188228Y-118061703D01*
X158188228Y-118061703D01*
G37*
G36*
X110494499Y-117653445D02*
G01*
X110531995Y-117664820D01*
X110566554Y-117683292D01*
X110596847Y-117708153D01*
X110621708Y-117738446D01*
X110640180Y-117773005D01*
X110651555Y-117810501D01*
X110656000Y-117855638D01*
X110656000Y-118494362D01*
X110651555Y-118539499D01*
X110640180Y-118576995D01*
X110621708Y-118611554D01*
X110596847Y-118641847D01*
X110566554Y-118666708D01*
X110531995Y-118685180D01*
X110494499Y-118696555D01*
X110449362Y-118701000D01*
X109710638Y-118701000D01*
X109665501Y-118696555D01*
X109628005Y-118685180D01*
X109593446Y-118666708D01*
X109563153Y-118641847D01*
X109538292Y-118611554D01*
X109519820Y-118576995D01*
X109508445Y-118539499D01*
X109504000Y-118494362D01*
X109504000Y-117855638D01*
X109508445Y-117810501D01*
X109519820Y-117773005D01*
X109538292Y-117738446D01*
X109563153Y-117708153D01*
X109593446Y-117683292D01*
X109628005Y-117664820D01*
X109665501Y-117653445D01*
X109710638Y-117649000D01*
X110449362Y-117649000D01*
X110494499Y-117653445D01*
X110494499Y-117653445D01*
G37*
G36*
X112244499Y-117653445D02*
G01*
X112281995Y-117664820D01*
X112316554Y-117683292D01*
X112346847Y-117708153D01*
X112371708Y-117738446D01*
X112390180Y-117773005D01*
X112401555Y-117810501D01*
X112406000Y-117855638D01*
X112406000Y-118494362D01*
X112401555Y-118539499D01*
X112390180Y-118576995D01*
X112371708Y-118611554D01*
X112346847Y-118641847D01*
X112316554Y-118666708D01*
X112281995Y-118685180D01*
X112244499Y-118696555D01*
X112199362Y-118701000D01*
X111460638Y-118701000D01*
X111415501Y-118696555D01*
X111378005Y-118685180D01*
X111343446Y-118666708D01*
X111313153Y-118641847D01*
X111288292Y-118611554D01*
X111269820Y-118576995D01*
X111258445Y-118539499D01*
X111254000Y-118494362D01*
X111254000Y-117855638D01*
X111258445Y-117810501D01*
X111269820Y-117773005D01*
X111288292Y-117738446D01*
X111313153Y-117708153D01*
X111343446Y-117683292D01*
X111378005Y-117664820D01*
X111415501Y-117653445D01*
X111460638Y-117649000D01*
X112199362Y-117649000D01*
X112244499Y-117653445D01*
X112244499Y-117653445D01*
G37*
G36*
X155348228Y-116676703D02*
G01*
X155503100Y-116740853D01*
X155642481Y-116833985D01*
X155761015Y-116952519D01*
X155854147Y-117091900D01*
X155918297Y-117246772D01*
X155951000Y-117411184D01*
X155951000Y-117578816D01*
X155918297Y-117743228D01*
X155854147Y-117898100D01*
X155761015Y-118037481D01*
X155642481Y-118156015D01*
X155503100Y-118249147D01*
X155348228Y-118313297D01*
X155183816Y-118346000D01*
X155016184Y-118346000D01*
X154851772Y-118313297D01*
X154696900Y-118249147D01*
X154557519Y-118156015D01*
X154438985Y-118037481D01*
X154345853Y-117898100D01*
X154281703Y-117743228D01*
X154249000Y-117578816D01*
X154249000Y-117411184D01*
X154281703Y-117246772D01*
X154345853Y-117091900D01*
X154438985Y-116952519D01*
X154557519Y-116833985D01*
X154696900Y-116740853D01*
X154851772Y-116676703D01*
X155016184Y-116644000D01*
X155183816Y-116644000D01*
X155348228Y-116676703D01*
X155348228Y-116676703D01*
G37*
G36*
X147150562Y-116440681D02*
G01*
X147185481Y-116451274D01*
X147217663Y-116468476D01*
X147245873Y-116491627D01*
X147269024Y-116519837D01*
X147286226Y-116552019D01*
X147296819Y-116586938D01*
X147301000Y-116629395D01*
X147301000Y-117770605D01*
X147296819Y-117813062D01*
X147286226Y-117847981D01*
X147269024Y-117880163D01*
X147245873Y-117908373D01*
X147217663Y-117931524D01*
X147185481Y-117948726D01*
X147150562Y-117959319D01*
X147108105Y-117963500D01*
X145641895Y-117963500D01*
X145599438Y-117959319D01*
X145564519Y-117948726D01*
X145532337Y-117931524D01*
X145504127Y-117908373D01*
X145480976Y-117880163D01*
X145463774Y-117847981D01*
X145453181Y-117813062D01*
X145449000Y-117770605D01*
X145449000Y-116629395D01*
X145453181Y-116586938D01*
X145463774Y-116552019D01*
X145480976Y-116519837D01*
X145504127Y-116491627D01*
X145532337Y-116468476D01*
X145564519Y-116451274D01*
X145599438Y-116440681D01*
X145641895Y-116436500D01*
X147108105Y-116436500D01*
X147150562Y-116440681D01*
X147150562Y-116440681D01*
G37*
G36*
X138565442Y-115860518D02*
G01*
X138631627Y-115867037D01*
X138801466Y-115918557D01*
X138957991Y-116002222D01*
X138987190Y-116026185D01*
X139095186Y-116114814D01*
X139178448Y-116216271D01*
X139207778Y-116252009D01*
X139291443Y-116408534D01*
X139342963Y-116578373D01*
X139360359Y-116755000D01*
X139342963Y-116931627D01*
X139291443Y-117101466D01*
X139207778Y-117257991D01*
X139178448Y-117293729D01*
X139095186Y-117395186D01*
X138993729Y-117478448D01*
X138957991Y-117507778D01*
X138801466Y-117591443D01*
X138631627Y-117642963D01*
X138570331Y-117649000D01*
X138499260Y-117656000D01*
X138410740Y-117656000D01*
X138339669Y-117649000D01*
X138278373Y-117642963D01*
X138108534Y-117591443D01*
X137952009Y-117507778D01*
X137916271Y-117478448D01*
X137814814Y-117395186D01*
X137731552Y-117293729D01*
X137702222Y-117257991D01*
X137618557Y-117101466D01*
X137567037Y-116931627D01*
X137549641Y-116755000D01*
X137567037Y-116578373D01*
X137618557Y-116408534D01*
X137702222Y-116252009D01*
X137731552Y-116216271D01*
X137814814Y-116114814D01*
X137922810Y-116026185D01*
X137952009Y-116002222D01*
X138108534Y-115918557D01*
X138278373Y-115867037D01*
X138344558Y-115860518D01*
X138410740Y-115854000D01*
X138499260Y-115854000D01*
X138565442Y-115860518D01*
X138565442Y-115860518D01*
G37*
G36*
X74907394Y-115925934D02*
G01*
X75058624Y-115988576D01*
X75058626Y-115988577D01*
X75194732Y-116079520D01*
X75310480Y-116195268D01*
X75348393Y-116252009D01*
X75401424Y-116331376D01*
X75464066Y-116482606D01*
X75496000Y-116643152D01*
X75496000Y-116806848D01*
X75464066Y-116967394D01*
X75412492Y-117091903D01*
X75401423Y-117118626D01*
X75310480Y-117254732D01*
X75194732Y-117370480D01*
X75058626Y-117461423D01*
X75058625Y-117461424D01*
X75058624Y-117461424D01*
X74907394Y-117524066D01*
X74746848Y-117556000D01*
X74583152Y-117556000D01*
X74422606Y-117524066D01*
X74271376Y-117461424D01*
X74271375Y-117461424D01*
X74271374Y-117461423D01*
X74135268Y-117370480D01*
X74019520Y-117254732D01*
X73928577Y-117118626D01*
X73917508Y-117091903D01*
X73865934Y-116967394D01*
X73834000Y-116806848D01*
X73834000Y-116643152D01*
X73865934Y-116482606D01*
X73928576Y-116331376D01*
X73981607Y-116252009D01*
X74019520Y-116195268D01*
X74135268Y-116079520D01*
X74271374Y-115988577D01*
X74271376Y-115988576D01*
X74422606Y-115925934D01*
X74583152Y-115894000D01*
X74746848Y-115894000D01*
X74907394Y-115925934D01*
X74907394Y-115925934D01*
G37*
G36*
X100307394Y-115925934D02*
G01*
X100458624Y-115988576D01*
X100458626Y-115988577D01*
X100594732Y-116079520D01*
X100710480Y-116195268D01*
X100748393Y-116252009D01*
X100801424Y-116331376D01*
X100864066Y-116482606D01*
X100896000Y-116643152D01*
X100896000Y-116806848D01*
X100864066Y-116967394D01*
X100812492Y-117091903D01*
X100801423Y-117118626D01*
X100710480Y-117254732D01*
X100594732Y-117370480D01*
X100458626Y-117461423D01*
X100458625Y-117461424D01*
X100458624Y-117461424D01*
X100307394Y-117524066D01*
X100146848Y-117556000D01*
X99983152Y-117556000D01*
X99822606Y-117524066D01*
X99671376Y-117461424D01*
X99671375Y-117461424D01*
X99671374Y-117461423D01*
X99535268Y-117370480D01*
X99419520Y-117254732D01*
X99328577Y-117118626D01*
X99317508Y-117091903D01*
X99265934Y-116967394D01*
X99234000Y-116806848D01*
X99234000Y-116643152D01*
X99265934Y-116482606D01*
X99328576Y-116331376D01*
X99381607Y-116252009D01*
X99419520Y-116195268D01*
X99535268Y-116079520D01*
X99671374Y-115988577D01*
X99671376Y-115988576D01*
X99822606Y-115925934D01*
X99983152Y-115894000D01*
X100146848Y-115894000D01*
X100307394Y-115925934D01*
X100307394Y-115925934D01*
G37*
G36*
X158188228Y-115291703D02*
G01*
X158343100Y-115355853D01*
X158482481Y-115448985D01*
X158601015Y-115567519D01*
X158694147Y-115706900D01*
X158758297Y-115861772D01*
X158791000Y-116026184D01*
X158791000Y-116193816D01*
X158758297Y-116358228D01*
X158694147Y-116513100D01*
X158601015Y-116652481D01*
X158482481Y-116771015D01*
X158343100Y-116864147D01*
X158188228Y-116928297D01*
X158023816Y-116961000D01*
X157856184Y-116961000D01*
X157691772Y-116928297D01*
X157536900Y-116864147D01*
X157397519Y-116771015D01*
X157278985Y-116652481D01*
X157185853Y-116513100D01*
X157121703Y-116358228D01*
X157089000Y-116193816D01*
X157089000Y-116026184D01*
X157121703Y-115861772D01*
X157185853Y-115706900D01*
X157278985Y-115567519D01*
X157397519Y-115448985D01*
X157536900Y-115355853D01*
X157691772Y-115291703D01*
X157856184Y-115259000D01*
X158023816Y-115259000D01*
X158188228Y-115291703D01*
X158188228Y-115291703D01*
G37*
G36*
X155348228Y-113906703D02*
G01*
X155503100Y-113970853D01*
X155642481Y-114063985D01*
X155761015Y-114182519D01*
X155854147Y-114321900D01*
X155918297Y-114476772D01*
X155951000Y-114641184D01*
X155951000Y-114808816D01*
X155918297Y-114973228D01*
X155854147Y-115128100D01*
X155761015Y-115267481D01*
X155642481Y-115386015D01*
X155503100Y-115479147D01*
X155348228Y-115543297D01*
X155183816Y-115576000D01*
X155016184Y-115576000D01*
X154851772Y-115543297D01*
X154696900Y-115479147D01*
X154557519Y-115386015D01*
X154438985Y-115267481D01*
X154345853Y-115128100D01*
X154281703Y-114973228D01*
X154249000Y-114808816D01*
X154249000Y-114641184D01*
X154281703Y-114476772D01*
X154345853Y-114321900D01*
X154438985Y-114182519D01*
X154557519Y-114063985D01*
X154696900Y-113970853D01*
X154851772Y-113906703D01*
X155016184Y-113874000D01*
X155183816Y-113874000D01*
X155348228Y-113906703D01*
X155348228Y-113906703D01*
G37*
G36*
X138565442Y-113320518D02*
G01*
X138631627Y-113327037D01*
X138801466Y-113378557D01*
X138957991Y-113462222D01*
X138993729Y-113491552D01*
X139095186Y-113574814D01*
X139178448Y-113676271D01*
X139207778Y-113712009D01*
X139291443Y-113868534D01*
X139342963Y-114038373D01*
X139360359Y-114215000D01*
X139342963Y-114391627D01*
X139291443Y-114561466D01*
X139207778Y-114717991D01*
X139178448Y-114753729D01*
X139095186Y-114855186D01*
X138993729Y-114938448D01*
X138957991Y-114967778D01*
X138801466Y-115051443D01*
X138631627Y-115102963D01*
X138565442Y-115109482D01*
X138499260Y-115116000D01*
X138410740Y-115116000D01*
X138344558Y-115109482D01*
X138278373Y-115102963D01*
X138108534Y-115051443D01*
X137952009Y-114967778D01*
X137916271Y-114938448D01*
X137814814Y-114855186D01*
X137731552Y-114753729D01*
X137702222Y-114717991D01*
X137618557Y-114561466D01*
X137567037Y-114391627D01*
X137549641Y-114215000D01*
X137567037Y-114038373D01*
X137618557Y-113868534D01*
X137702222Y-113712009D01*
X137731552Y-113676271D01*
X137814814Y-113574814D01*
X137916271Y-113491552D01*
X137952009Y-113462222D01*
X138108534Y-113378557D01*
X138278373Y-113327037D01*
X138344558Y-113320518D01*
X138410740Y-113314000D01*
X138499260Y-113314000D01*
X138565442Y-113320518D01*
X138565442Y-113320518D01*
G37*
G36*
X74907394Y-113385934D02*
G01*
X75058624Y-113448576D01*
X75058626Y-113448577D01*
X75194732Y-113539520D01*
X75310480Y-113655268D01*
X75348393Y-113712009D01*
X75401424Y-113791376D01*
X75464066Y-113942606D01*
X75496000Y-114103152D01*
X75496000Y-114266848D01*
X75464066Y-114427394D01*
X75408531Y-114561466D01*
X75401423Y-114578626D01*
X75310480Y-114714732D01*
X75194732Y-114830480D01*
X75058626Y-114921423D01*
X75058625Y-114921424D01*
X75058624Y-114921424D01*
X74907394Y-114984066D01*
X74746848Y-115016000D01*
X74583152Y-115016000D01*
X74422606Y-114984066D01*
X74271376Y-114921424D01*
X74271375Y-114921424D01*
X74271374Y-114921423D01*
X74135268Y-114830480D01*
X74019520Y-114714732D01*
X73928577Y-114578626D01*
X73921469Y-114561466D01*
X73865934Y-114427394D01*
X73834000Y-114266848D01*
X73834000Y-114103152D01*
X73865934Y-113942606D01*
X73928576Y-113791376D01*
X73981607Y-113712009D01*
X74019520Y-113655268D01*
X74135268Y-113539520D01*
X74271374Y-113448577D01*
X74271376Y-113448576D01*
X74422606Y-113385934D01*
X74583152Y-113354000D01*
X74746848Y-113354000D01*
X74907394Y-113385934D01*
X74907394Y-113385934D01*
G37*
G36*
X100307394Y-113385934D02*
G01*
X100458624Y-113448576D01*
X100458626Y-113448577D01*
X100594732Y-113539520D01*
X100710480Y-113655268D01*
X100748393Y-113712009D01*
X100801424Y-113791376D01*
X100864066Y-113942606D01*
X100896000Y-114103152D01*
X100896000Y-114266848D01*
X100864066Y-114427394D01*
X100808531Y-114561466D01*
X100801423Y-114578626D01*
X100710480Y-114714732D01*
X100594732Y-114830480D01*
X100458626Y-114921423D01*
X100458625Y-114921424D01*
X100458624Y-114921424D01*
X100307394Y-114984066D01*
X100146848Y-115016000D01*
X99983152Y-115016000D01*
X99822606Y-114984066D01*
X99671376Y-114921424D01*
X99671375Y-114921424D01*
X99671374Y-114921423D01*
X99535268Y-114830480D01*
X99419520Y-114714732D01*
X99328577Y-114578626D01*
X99321469Y-114561466D01*
X99265934Y-114427394D01*
X99234000Y-114266848D01*
X99234000Y-114103152D01*
X99265934Y-113942606D01*
X99328576Y-113791376D01*
X99381607Y-113712009D01*
X99419520Y-113655268D01*
X99535268Y-113539520D01*
X99671374Y-113448577D01*
X99671376Y-113448576D01*
X99822606Y-113385934D01*
X99983152Y-113354000D01*
X100146848Y-113354000D01*
X100307394Y-113385934D01*
X100307394Y-113385934D01*
G37*
G36*
X158188228Y-112521703D02*
G01*
X158343100Y-112585853D01*
X158482481Y-112678985D01*
X158601015Y-112797519D01*
X158694147Y-112936900D01*
X158758297Y-113091772D01*
X158791000Y-113256184D01*
X158791000Y-113423816D01*
X158758297Y-113588228D01*
X158694147Y-113743100D01*
X158601015Y-113882481D01*
X158482481Y-114001015D01*
X158343100Y-114094147D01*
X158188228Y-114158297D01*
X158023816Y-114191000D01*
X157856184Y-114191000D01*
X157691772Y-114158297D01*
X157536900Y-114094147D01*
X157397519Y-114001015D01*
X157278985Y-113882481D01*
X157185853Y-113743100D01*
X157121703Y-113588228D01*
X157089000Y-113423816D01*
X157089000Y-113256184D01*
X157121703Y-113091772D01*
X157185853Y-112936900D01*
X157278985Y-112797519D01*
X157397519Y-112678985D01*
X157536900Y-112585853D01*
X157691772Y-112521703D01*
X157856184Y-112489000D01*
X158023816Y-112489000D01*
X158188228Y-112521703D01*
X158188228Y-112521703D01*
G37*
G36*
X155348228Y-111136703D02*
G01*
X155503100Y-111200853D01*
X155642481Y-111293985D01*
X155761015Y-111412519D01*
X155854147Y-111551900D01*
X155918297Y-111706772D01*
X155951000Y-111871184D01*
X155951000Y-112038816D01*
X155918297Y-112203228D01*
X155854147Y-112358100D01*
X155761015Y-112497481D01*
X155642481Y-112616015D01*
X155503100Y-112709147D01*
X155348228Y-112773297D01*
X155183816Y-112806000D01*
X155016184Y-112806000D01*
X154851772Y-112773297D01*
X154696900Y-112709147D01*
X154557519Y-112616015D01*
X154438985Y-112497481D01*
X154345853Y-112358100D01*
X154281703Y-112203228D01*
X154249000Y-112038816D01*
X154249000Y-111871184D01*
X154281703Y-111706772D01*
X154345853Y-111551900D01*
X154438985Y-111412519D01*
X154557519Y-111293985D01*
X154696900Y-111200853D01*
X154851772Y-111136703D01*
X155016184Y-111104000D01*
X155183816Y-111104000D01*
X155348228Y-111136703D01*
X155348228Y-111136703D01*
G37*
G36*
X74907394Y-110845934D02*
G01*
X75058624Y-110908576D01*
X75058626Y-110908577D01*
X75194732Y-110999520D01*
X75310480Y-111115268D01*
X75389395Y-111233373D01*
X75401424Y-111251376D01*
X75464066Y-111402606D01*
X75496000Y-111563152D01*
X75496000Y-111726848D01*
X75464066Y-111887394D01*
X75401424Y-112038624D01*
X75401423Y-112038626D01*
X75310480Y-112174732D01*
X75194732Y-112290480D01*
X75058626Y-112381423D01*
X75058625Y-112381424D01*
X75058624Y-112381424D01*
X74907394Y-112444066D01*
X74746848Y-112476000D01*
X74583152Y-112476000D01*
X74422606Y-112444066D01*
X74271376Y-112381424D01*
X74271375Y-112381424D01*
X74271374Y-112381423D01*
X74135268Y-112290480D01*
X74019520Y-112174732D01*
X73928577Y-112038626D01*
X73928576Y-112038624D01*
X73865934Y-111887394D01*
X73834000Y-111726848D01*
X73834000Y-111563152D01*
X73865934Y-111402606D01*
X73928576Y-111251376D01*
X73940605Y-111233373D01*
X74019520Y-111115268D01*
X74135268Y-110999520D01*
X74271374Y-110908577D01*
X74271376Y-110908576D01*
X74422606Y-110845934D01*
X74583152Y-110814000D01*
X74746848Y-110814000D01*
X74907394Y-110845934D01*
X74907394Y-110845934D01*
G37*
G36*
X100307394Y-110845934D02*
G01*
X100458624Y-110908576D01*
X100458626Y-110908577D01*
X100594732Y-110999520D01*
X100710480Y-111115268D01*
X100789395Y-111233373D01*
X100801424Y-111251376D01*
X100864066Y-111402606D01*
X100896000Y-111563152D01*
X100896000Y-111726848D01*
X100864066Y-111887394D01*
X100801424Y-112038624D01*
X100801423Y-112038626D01*
X100710480Y-112174732D01*
X100594732Y-112290480D01*
X100458626Y-112381423D01*
X100458625Y-112381424D01*
X100458624Y-112381424D01*
X100307394Y-112444066D01*
X100146848Y-112476000D01*
X99983152Y-112476000D01*
X99822606Y-112444066D01*
X99671376Y-112381424D01*
X99671375Y-112381424D01*
X99671374Y-112381423D01*
X99535268Y-112290480D01*
X99419520Y-112174732D01*
X99328577Y-112038626D01*
X99328576Y-112038624D01*
X99265934Y-111887394D01*
X99234000Y-111726848D01*
X99234000Y-111563152D01*
X99265934Y-111402606D01*
X99328576Y-111251376D01*
X99340605Y-111233373D01*
X99419520Y-111115268D01*
X99535268Y-110999520D01*
X99671374Y-110908577D01*
X99671376Y-110908576D01*
X99822606Y-110845934D01*
X99983152Y-110814000D01*
X100146848Y-110814000D01*
X100307394Y-110845934D01*
X100307394Y-110845934D01*
G37*
G36*
X158188228Y-109751703D02*
G01*
X158343100Y-109815853D01*
X158482481Y-109908985D01*
X158601015Y-110027519D01*
X158694147Y-110166900D01*
X158758297Y-110321772D01*
X158791000Y-110486184D01*
X158791000Y-110653816D01*
X158758297Y-110818228D01*
X158694147Y-110973100D01*
X158601015Y-111112481D01*
X158482481Y-111231015D01*
X158343100Y-111324147D01*
X158188228Y-111388297D01*
X158023816Y-111421000D01*
X157856184Y-111421000D01*
X157691772Y-111388297D01*
X157536900Y-111324147D01*
X157397519Y-111231015D01*
X157278985Y-111112481D01*
X157185853Y-110973100D01*
X157121703Y-110818228D01*
X157089000Y-110653816D01*
X157089000Y-110486184D01*
X157121703Y-110321772D01*
X157185853Y-110166900D01*
X157278985Y-110027519D01*
X157397519Y-109908985D01*
X157536900Y-109815853D01*
X157691772Y-109751703D01*
X157856184Y-109719000D01*
X158023816Y-109719000D01*
X158188228Y-109751703D01*
X158188228Y-109751703D01*
G37*
G36*
X147150562Y-109765681D02*
G01*
X147185481Y-109776274D01*
X147217663Y-109793476D01*
X147245873Y-109816627D01*
X147269024Y-109844837D01*
X147286226Y-109877019D01*
X147296819Y-109911938D01*
X147301000Y-109954395D01*
X147301000Y-111095605D01*
X147296819Y-111138062D01*
X147286226Y-111172981D01*
X147269024Y-111205163D01*
X147245873Y-111233373D01*
X147217663Y-111256524D01*
X147185481Y-111273726D01*
X147150562Y-111284319D01*
X147108105Y-111288500D01*
X145641895Y-111288500D01*
X145599438Y-111284319D01*
X145564519Y-111273726D01*
X145532337Y-111256524D01*
X145504127Y-111233373D01*
X145480976Y-111205163D01*
X145463774Y-111172981D01*
X145453181Y-111138062D01*
X145449000Y-111095605D01*
X145449000Y-109954395D01*
X145453181Y-109911938D01*
X145463774Y-109877019D01*
X145480976Y-109844837D01*
X145504127Y-109816627D01*
X145532337Y-109793476D01*
X145564519Y-109776274D01*
X145599438Y-109765681D01*
X145641895Y-109761500D01*
X147108105Y-109761500D01*
X147150562Y-109765681D01*
X147150562Y-109765681D01*
G37*
G36*
X139356000Y-110546000D02*
G01*
X137554000Y-110546000D01*
X137554000Y-108744000D01*
X139356000Y-108744000D01*
X139356000Y-110546000D01*
X139356000Y-110546000D01*
G37*
G36*
X155348228Y-108366703D02*
G01*
X155503100Y-108430853D01*
X155642481Y-108523985D01*
X155761015Y-108642519D01*
X155854147Y-108781900D01*
X155918297Y-108936772D01*
X155951000Y-109101184D01*
X155951000Y-109268816D01*
X155918297Y-109433228D01*
X155854147Y-109588100D01*
X155761015Y-109727481D01*
X155642481Y-109846015D01*
X155503100Y-109939147D01*
X155348228Y-110003297D01*
X155183816Y-110036000D01*
X155016184Y-110036000D01*
X154851772Y-110003297D01*
X154696900Y-109939147D01*
X154557519Y-109846015D01*
X154438985Y-109727481D01*
X154345853Y-109588100D01*
X154281703Y-109433228D01*
X154249000Y-109268816D01*
X154249000Y-109101184D01*
X154281703Y-108936772D01*
X154345853Y-108781900D01*
X154438985Y-108642519D01*
X154557519Y-108523985D01*
X154696900Y-108430853D01*
X154851772Y-108366703D01*
X155016184Y-108334000D01*
X155183816Y-108334000D01*
X155348228Y-108366703D01*
X155348228Y-108366703D01*
G37*
G36*
X100307394Y-108305934D02*
G01*
X100454102Y-108366703D01*
X100458626Y-108368577D01*
X100594732Y-108459520D01*
X100710480Y-108575268D01*
X100792490Y-108698005D01*
X100801424Y-108711376D01*
X100864066Y-108862606D01*
X100896000Y-109023152D01*
X100896000Y-109186848D01*
X100864066Y-109347394D01*
X100815912Y-109463646D01*
X100801423Y-109498626D01*
X100710480Y-109634732D01*
X100594732Y-109750480D01*
X100458626Y-109841423D01*
X100458625Y-109841424D01*
X100458624Y-109841424D01*
X100307394Y-109904066D01*
X100146848Y-109936000D01*
X99983152Y-109936000D01*
X99822606Y-109904066D01*
X99671376Y-109841424D01*
X99671375Y-109841424D01*
X99671374Y-109841423D01*
X99535268Y-109750480D01*
X99419520Y-109634732D01*
X99328577Y-109498626D01*
X99314088Y-109463646D01*
X99265934Y-109347394D01*
X99234000Y-109186848D01*
X99234000Y-109023152D01*
X99265934Y-108862606D01*
X99328576Y-108711376D01*
X99337510Y-108698005D01*
X99419520Y-108575268D01*
X99535268Y-108459520D01*
X99671374Y-108368577D01*
X99675898Y-108366703D01*
X99822606Y-108305934D01*
X99983152Y-108274000D01*
X100146848Y-108274000D01*
X100307394Y-108305934D01*
X100307394Y-108305934D01*
G37*
G36*
X74907394Y-108305934D02*
G01*
X75054102Y-108366703D01*
X75058626Y-108368577D01*
X75194732Y-108459520D01*
X75310480Y-108575268D01*
X75392490Y-108698005D01*
X75401424Y-108711376D01*
X75464066Y-108862606D01*
X75496000Y-109023152D01*
X75496000Y-109186848D01*
X75464066Y-109347394D01*
X75415912Y-109463646D01*
X75401423Y-109498626D01*
X75310480Y-109634732D01*
X75194732Y-109750480D01*
X75058626Y-109841423D01*
X75058625Y-109841424D01*
X75058624Y-109841424D01*
X74907394Y-109904066D01*
X74746848Y-109936000D01*
X74583152Y-109936000D01*
X74422606Y-109904066D01*
X74271376Y-109841424D01*
X74271375Y-109841424D01*
X74271374Y-109841423D01*
X74135268Y-109750480D01*
X74019520Y-109634732D01*
X73928577Y-109498626D01*
X73914088Y-109463646D01*
X73865934Y-109347394D01*
X73834000Y-109186848D01*
X73834000Y-109023152D01*
X73865934Y-108862606D01*
X73928576Y-108711376D01*
X73937510Y-108698005D01*
X74019520Y-108575268D01*
X74135268Y-108459520D01*
X74271374Y-108368577D01*
X74275898Y-108366703D01*
X74422606Y-108305934D01*
X74583152Y-108274000D01*
X74746848Y-108274000D01*
X74907394Y-108305934D01*
X74907394Y-108305934D01*
G37*
G36*
X110769499Y-108578445D02*
G01*
X110806995Y-108589820D01*
X110841554Y-108608292D01*
X110871847Y-108633153D01*
X110896708Y-108663446D01*
X110915180Y-108698005D01*
X110926555Y-108735501D01*
X110931000Y-108780638D01*
X110931000Y-109419362D01*
X110926555Y-109464499D01*
X110915180Y-109501995D01*
X110896708Y-109536554D01*
X110871847Y-109566847D01*
X110841554Y-109591708D01*
X110806995Y-109610180D01*
X110769499Y-109621555D01*
X110724362Y-109626000D01*
X109985638Y-109626000D01*
X109940501Y-109621555D01*
X109903005Y-109610180D01*
X109868446Y-109591708D01*
X109838153Y-109566847D01*
X109813292Y-109536554D01*
X109794820Y-109501995D01*
X109783445Y-109464499D01*
X109779000Y-109419362D01*
X109779000Y-108780638D01*
X109783445Y-108735501D01*
X109794820Y-108698005D01*
X109813292Y-108663446D01*
X109838153Y-108633153D01*
X109868446Y-108608292D01*
X109903005Y-108589820D01*
X109940501Y-108578445D01*
X109985638Y-108574000D01*
X110724362Y-108574000D01*
X110769499Y-108578445D01*
X110769499Y-108578445D01*
G37*
G36*
X112519499Y-108578445D02*
G01*
X112556995Y-108589820D01*
X112591554Y-108608292D01*
X112621847Y-108633153D01*
X112646708Y-108663446D01*
X112665180Y-108698005D01*
X112676555Y-108735501D01*
X112681000Y-108780638D01*
X112681000Y-109419362D01*
X112676555Y-109464499D01*
X112665180Y-109501995D01*
X112646708Y-109536554D01*
X112621847Y-109566847D01*
X112591554Y-109591708D01*
X112556995Y-109610180D01*
X112519499Y-109621555D01*
X112474362Y-109626000D01*
X111735638Y-109626000D01*
X111690501Y-109621555D01*
X111653005Y-109610180D01*
X111618446Y-109591708D01*
X111588153Y-109566847D01*
X111563292Y-109536554D01*
X111544820Y-109501995D01*
X111533445Y-109464499D01*
X111529000Y-109419362D01*
X111529000Y-108780638D01*
X111533445Y-108735501D01*
X111544820Y-108698005D01*
X111563292Y-108663446D01*
X111588153Y-108633153D01*
X111618446Y-108608292D01*
X111653005Y-108589820D01*
X111690501Y-108578445D01*
X111735638Y-108574000D01*
X112474362Y-108574000D01*
X112519499Y-108578445D01*
X112519499Y-108578445D01*
G37*
G36*
X158188228Y-106981703D02*
G01*
X158343100Y-107045853D01*
X158482481Y-107138985D01*
X158601015Y-107257519D01*
X158694147Y-107396900D01*
X158758297Y-107551772D01*
X158791000Y-107716184D01*
X158791000Y-107883816D01*
X158758297Y-108048228D01*
X158694147Y-108203100D01*
X158601015Y-108342481D01*
X158482481Y-108461015D01*
X158343100Y-108554147D01*
X158188228Y-108618297D01*
X158023816Y-108651000D01*
X157856184Y-108651000D01*
X157691772Y-108618297D01*
X157536900Y-108554147D01*
X157397519Y-108461015D01*
X157278985Y-108342481D01*
X157185853Y-108203100D01*
X157121703Y-108048228D01*
X157089000Y-107883816D01*
X157089000Y-107716184D01*
X157121703Y-107551772D01*
X157185853Y-107396900D01*
X157278985Y-107257519D01*
X157397519Y-107138985D01*
X157536900Y-107045853D01*
X157691772Y-106981703D01*
X157856184Y-106949000D01*
X158023816Y-106949000D01*
X158188228Y-106981703D01*
X158188228Y-106981703D01*
G37*
G36*
X147150562Y-106790681D02*
G01*
X147185481Y-106801274D01*
X147217663Y-106818476D01*
X147245873Y-106841627D01*
X147269024Y-106869837D01*
X147286226Y-106902019D01*
X147296819Y-106936938D01*
X147301000Y-106979395D01*
X147301000Y-108120605D01*
X147296819Y-108163062D01*
X147286226Y-108197981D01*
X147269024Y-108230163D01*
X147245873Y-108258373D01*
X147217663Y-108281524D01*
X147185481Y-108298726D01*
X147150562Y-108309319D01*
X147108105Y-108313500D01*
X145641895Y-108313500D01*
X145599438Y-108309319D01*
X145564519Y-108298726D01*
X145532337Y-108281524D01*
X145504127Y-108258373D01*
X145480976Y-108230163D01*
X145463774Y-108197981D01*
X145453181Y-108163062D01*
X145449000Y-108120605D01*
X145449000Y-106979395D01*
X145453181Y-106936938D01*
X145463774Y-106902019D01*
X145480976Y-106869837D01*
X145504127Y-106841627D01*
X145532337Y-106818476D01*
X145564519Y-106801274D01*
X145599438Y-106790681D01*
X145641895Y-106786500D01*
X147108105Y-106786500D01*
X147150562Y-106790681D01*
X147150562Y-106790681D01*
G37*
G36*
X138565443Y-106210519D02*
G01*
X138631627Y-106217037D01*
X138801466Y-106268557D01*
X138957991Y-106352222D01*
X138993729Y-106381552D01*
X139095186Y-106464814D01*
X139178448Y-106566271D01*
X139207778Y-106602009D01*
X139291443Y-106758534D01*
X139342963Y-106928373D01*
X139360359Y-107105000D01*
X139342963Y-107281627D01*
X139291443Y-107451466D01*
X139207778Y-107607991D01*
X139178448Y-107643729D01*
X139095186Y-107745186D01*
X138993729Y-107828448D01*
X138957991Y-107857778D01*
X138801466Y-107941443D01*
X138631627Y-107992963D01*
X138565443Y-107999481D01*
X138499260Y-108006000D01*
X138410740Y-108006000D01*
X138344557Y-107999481D01*
X138278373Y-107992963D01*
X138108534Y-107941443D01*
X137952009Y-107857778D01*
X137916271Y-107828448D01*
X137814814Y-107745186D01*
X137731552Y-107643729D01*
X137702222Y-107607991D01*
X137618557Y-107451466D01*
X137567037Y-107281627D01*
X137549641Y-107105000D01*
X137567037Y-106928373D01*
X137618557Y-106758534D01*
X137702222Y-106602009D01*
X137731552Y-106566271D01*
X137814814Y-106464814D01*
X137916271Y-106381552D01*
X137952009Y-106352222D01*
X138108534Y-106268557D01*
X138278373Y-106217037D01*
X138344557Y-106210519D01*
X138410740Y-106204000D01*
X138499260Y-106204000D01*
X138565443Y-106210519D01*
X138565443Y-106210519D01*
G37*
G36*
X100307394Y-105765934D02*
G01*
X100458624Y-105828576D01*
X100458626Y-105828577D01*
X100594732Y-105919520D01*
X100710480Y-106035268D01*
X100798347Y-106166771D01*
X100801424Y-106171376D01*
X100864066Y-106322606D01*
X100896000Y-106483152D01*
X100896000Y-106646848D01*
X100864066Y-106807394D01*
X100805410Y-106949000D01*
X100801423Y-106958626D01*
X100710480Y-107094732D01*
X100594732Y-107210480D01*
X100458626Y-107301423D01*
X100458625Y-107301424D01*
X100458624Y-107301424D01*
X100307394Y-107364066D01*
X100146848Y-107396000D01*
X99983152Y-107396000D01*
X99822606Y-107364066D01*
X99671376Y-107301424D01*
X99671375Y-107301424D01*
X99671374Y-107301423D01*
X99535268Y-107210480D01*
X99419520Y-107094732D01*
X99328577Y-106958626D01*
X99324590Y-106949000D01*
X99265934Y-106807394D01*
X99234000Y-106646848D01*
X99234000Y-106483152D01*
X99265934Y-106322606D01*
X99328576Y-106171376D01*
X99331653Y-106166771D01*
X99419520Y-106035268D01*
X99535268Y-105919520D01*
X99671374Y-105828577D01*
X99671376Y-105828576D01*
X99822606Y-105765934D01*
X99983152Y-105734000D01*
X100146848Y-105734000D01*
X100307394Y-105765934D01*
X100307394Y-105765934D01*
G37*
G36*
X74907394Y-105765934D02*
G01*
X75058624Y-105828576D01*
X75058626Y-105828577D01*
X75194732Y-105919520D01*
X75310480Y-106035268D01*
X75398347Y-106166771D01*
X75401424Y-106171376D01*
X75464066Y-106322606D01*
X75496000Y-106483152D01*
X75496000Y-106646848D01*
X75464066Y-106807394D01*
X75405410Y-106949000D01*
X75401423Y-106958626D01*
X75310480Y-107094732D01*
X75194732Y-107210480D01*
X75058626Y-107301423D01*
X75058625Y-107301424D01*
X75058624Y-107301424D01*
X74907394Y-107364066D01*
X74746848Y-107396000D01*
X74583152Y-107396000D01*
X74422606Y-107364066D01*
X74271376Y-107301424D01*
X74271375Y-107301424D01*
X74271374Y-107301423D01*
X74135268Y-107210480D01*
X74019520Y-107094732D01*
X73928577Y-106958626D01*
X73924590Y-106949000D01*
X73865934Y-106807394D01*
X73834000Y-106646848D01*
X73834000Y-106483152D01*
X73865934Y-106322606D01*
X73928576Y-106171376D01*
X73931653Y-106166771D01*
X74019520Y-106035268D01*
X74135268Y-105919520D01*
X74271374Y-105828577D01*
X74271376Y-105828576D01*
X74422606Y-105765934D01*
X74583152Y-105734000D01*
X74746848Y-105734000D01*
X74907394Y-105765934D01*
X74907394Y-105765934D01*
G37*
G36*
X155348228Y-105596703D02*
G01*
X155503100Y-105660853D01*
X155642481Y-105753985D01*
X155761015Y-105872519D01*
X155854147Y-106011900D01*
X155918297Y-106166772D01*
X155951000Y-106331184D01*
X155951000Y-106498816D01*
X155918297Y-106663228D01*
X155854147Y-106818100D01*
X155761015Y-106957481D01*
X155642481Y-107076015D01*
X155503100Y-107169147D01*
X155348228Y-107233297D01*
X155183816Y-107266000D01*
X155016184Y-107266000D01*
X154851772Y-107233297D01*
X154696900Y-107169147D01*
X154557519Y-107076015D01*
X154438985Y-106957481D01*
X154345853Y-106818100D01*
X154281703Y-106663228D01*
X154249000Y-106498816D01*
X154249000Y-106331184D01*
X154281703Y-106166772D01*
X154345853Y-106011900D01*
X154438985Y-105872519D01*
X154557519Y-105753985D01*
X154696900Y-105660853D01*
X154851772Y-105596703D01*
X155016184Y-105564000D01*
X155183816Y-105564000D01*
X155348228Y-105596703D01*
X155348228Y-105596703D01*
G37*
G36*
X158188228Y-104211703D02*
G01*
X158343100Y-104275853D01*
X158482481Y-104368985D01*
X158601015Y-104487519D01*
X158694147Y-104626900D01*
X158758297Y-104781772D01*
X158791000Y-104946184D01*
X158791000Y-105113816D01*
X158758297Y-105278228D01*
X158694147Y-105433100D01*
X158601015Y-105572481D01*
X158482481Y-105691015D01*
X158343100Y-105784147D01*
X158188228Y-105848297D01*
X158023816Y-105881000D01*
X157856184Y-105881000D01*
X157691772Y-105848297D01*
X157536900Y-105784147D01*
X157397519Y-105691015D01*
X157278985Y-105572481D01*
X157185853Y-105433100D01*
X157121703Y-105278228D01*
X157089000Y-105113816D01*
X157089000Y-104946184D01*
X157121703Y-104781772D01*
X157185853Y-104626900D01*
X157278985Y-104487519D01*
X157397519Y-104368985D01*
X157536900Y-104275853D01*
X157691772Y-104211703D01*
X157856184Y-104179000D01*
X158023816Y-104179000D01*
X158188228Y-104211703D01*
X158188228Y-104211703D01*
G37*
G36*
X112644499Y-104578445D02*
G01*
X112681995Y-104589820D01*
X112716554Y-104608292D01*
X112746847Y-104633153D01*
X112771708Y-104663446D01*
X112790180Y-104698005D01*
X112801555Y-104735501D01*
X112806000Y-104780638D01*
X112806000Y-105419362D01*
X112801555Y-105464499D01*
X112790180Y-105501995D01*
X112771708Y-105536554D01*
X112746847Y-105566847D01*
X112716554Y-105591708D01*
X112681995Y-105610180D01*
X112644499Y-105621555D01*
X112599362Y-105626000D01*
X111860638Y-105626000D01*
X111815501Y-105621555D01*
X111778005Y-105610180D01*
X111743446Y-105591708D01*
X111713153Y-105566847D01*
X111688292Y-105536554D01*
X111669820Y-105501995D01*
X111658445Y-105464499D01*
X111654000Y-105419362D01*
X111654000Y-104780638D01*
X111658445Y-104735501D01*
X111669820Y-104698005D01*
X111688292Y-104663446D01*
X111713153Y-104633153D01*
X111743446Y-104608292D01*
X111778005Y-104589820D01*
X111815501Y-104578445D01*
X111860638Y-104574000D01*
X112599362Y-104574000D01*
X112644499Y-104578445D01*
X112644499Y-104578445D01*
G37*
G36*
X110894499Y-104578445D02*
G01*
X110931995Y-104589820D01*
X110966554Y-104608292D01*
X110996847Y-104633153D01*
X111021708Y-104663446D01*
X111040180Y-104698005D01*
X111051555Y-104735501D01*
X111056000Y-104780638D01*
X111056000Y-105419362D01*
X111051555Y-105464499D01*
X111040180Y-105501995D01*
X111021708Y-105536554D01*
X110996847Y-105566847D01*
X110966554Y-105591708D01*
X110931995Y-105610180D01*
X110894499Y-105621555D01*
X110849362Y-105626000D01*
X110110638Y-105626000D01*
X110065501Y-105621555D01*
X110028005Y-105610180D01*
X109993446Y-105591708D01*
X109963153Y-105566847D01*
X109938292Y-105536554D01*
X109919820Y-105501995D01*
X109908445Y-105464499D01*
X109904000Y-105419362D01*
X109904000Y-104780638D01*
X109908445Y-104735501D01*
X109919820Y-104698005D01*
X109938292Y-104663446D01*
X109963153Y-104633153D01*
X109993446Y-104608292D01*
X110028005Y-104589820D01*
X110065501Y-104578445D01*
X110110638Y-104574000D01*
X110849362Y-104574000D01*
X110894499Y-104578445D01*
X110894499Y-104578445D01*
G37*
G36*
X138565442Y-103670518D02*
G01*
X138631627Y-103677037D01*
X138801466Y-103728557D01*
X138957991Y-103812222D01*
X138993729Y-103841552D01*
X139095186Y-103924814D01*
X139178448Y-104026271D01*
X139207778Y-104062009D01*
X139207779Y-104062011D01*
X139270312Y-104179000D01*
X139291443Y-104218534D01*
X139342963Y-104388373D01*
X139360359Y-104565000D01*
X139342963Y-104741627D01*
X139291443Y-104911466D01*
X139207778Y-105067991D01*
X139178448Y-105103729D01*
X139095186Y-105205186D01*
X138993729Y-105288448D01*
X138957991Y-105317778D01*
X138801466Y-105401443D01*
X138631627Y-105452963D01*
X138565442Y-105459482D01*
X138499260Y-105466000D01*
X138410740Y-105466000D01*
X138344557Y-105459481D01*
X138278373Y-105452963D01*
X138108534Y-105401443D01*
X137952009Y-105317778D01*
X137916271Y-105288448D01*
X137814814Y-105205186D01*
X137731552Y-105103729D01*
X137702222Y-105067991D01*
X137618557Y-104911466D01*
X137567037Y-104741627D01*
X137549641Y-104565000D01*
X137567037Y-104388373D01*
X137618557Y-104218534D01*
X137639689Y-104179000D01*
X137702221Y-104062011D01*
X137702222Y-104062009D01*
X137731552Y-104026271D01*
X137814814Y-103924814D01*
X137916271Y-103841552D01*
X137952009Y-103812222D01*
X138108534Y-103728557D01*
X138278373Y-103677037D01*
X138344557Y-103670519D01*
X138410740Y-103664000D01*
X138499260Y-103664000D01*
X138565442Y-103670518D01*
X138565442Y-103670518D01*
G37*
G36*
X100307394Y-103225934D02*
G01*
X100458624Y-103288576D01*
X100458626Y-103288577D01*
X100594732Y-103379520D01*
X100710480Y-103495268D01*
X100754524Y-103561185D01*
X100801424Y-103631376D01*
X100864066Y-103782606D01*
X100896000Y-103943152D01*
X100896000Y-104106848D01*
X100864066Y-104267394D01*
X100809491Y-104399148D01*
X100801423Y-104418626D01*
X100710480Y-104554732D01*
X100594732Y-104670480D01*
X100458626Y-104761423D01*
X100458625Y-104761424D01*
X100458624Y-104761424D01*
X100307394Y-104824066D01*
X100146848Y-104856000D01*
X99983152Y-104856000D01*
X99822606Y-104824066D01*
X99671376Y-104761424D01*
X99671375Y-104761424D01*
X99671374Y-104761423D01*
X99535268Y-104670480D01*
X99419520Y-104554732D01*
X99328577Y-104418626D01*
X99320509Y-104399148D01*
X99265934Y-104267394D01*
X99234000Y-104106848D01*
X99234000Y-103943152D01*
X99265934Y-103782606D01*
X99328576Y-103631376D01*
X99375476Y-103561185D01*
X99419520Y-103495268D01*
X99535268Y-103379520D01*
X99671374Y-103288577D01*
X99671376Y-103288576D01*
X99822606Y-103225934D01*
X99983152Y-103194000D01*
X100146848Y-103194000D01*
X100307394Y-103225934D01*
X100307394Y-103225934D01*
G37*
G36*
X74907394Y-103225934D02*
G01*
X75058624Y-103288576D01*
X75058626Y-103288577D01*
X75194732Y-103379520D01*
X75310480Y-103495268D01*
X75354524Y-103561185D01*
X75401424Y-103631376D01*
X75464066Y-103782606D01*
X75496000Y-103943152D01*
X75496000Y-104106848D01*
X75464066Y-104267394D01*
X75409491Y-104399148D01*
X75401423Y-104418626D01*
X75310480Y-104554732D01*
X75194732Y-104670480D01*
X75058626Y-104761423D01*
X75058625Y-104761424D01*
X75058624Y-104761424D01*
X74907394Y-104824066D01*
X74746848Y-104856000D01*
X74583152Y-104856000D01*
X74422606Y-104824066D01*
X74271376Y-104761424D01*
X74271375Y-104761424D01*
X74271374Y-104761423D01*
X74135268Y-104670480D01*
X74019520Y-104554732D01*
X73928577Y-104418626D01*
X73920509Y-104399148D01*
X73865934Y-104267394D01*
X73834000Y-104106848D01*
X73834000Y-103943152D01*
X73865934Y-103782606D01*
X73928576Y-103631376D01*
X73975476Y-103561185D01*
X74019520Y-103495268D01*
X74135268Y-103379520D01*
X74271374Y-103288577D01*
X74271376Y-103288576D01*
X74422606Y-103225934D01*
X74583152Y-103194000D01*
X74746848Y-103194000D01*
X74907394Y-103225934D01*
X74907394Y-103225934D01*
G37*
G36*
X155348228Y-102826703D02*
G01*
X155503100Y-102890853D01*
X155642481Y-102983985D01*
X155761015Y-103102519D01*
X155854147Y-103241900D01*
X155918297Y-103396772D01*
X155951000Y-103561184D01*
X155951000Y-103728816D01*
X155918297Y-103893228D01*
X155854147Y-104048100D01*
X155761015Y-104187481D01*
X155642481Y-104306015D01*
X155503100Y-104399147D01*
X155348228Y-104463297D01*
X155183816Y-104496000D01*
X155016184Y-104496000D01*
X154851772Y-104463297D01*
X154696900Y-104399147D01*
X154557519Y-104306015D01*
X154438985Y-104187481D01*
X154345853Y-104048100D01*
X154281703Y-103893228D01*
X154249000Y-103728816D01*
X154249000Y-103561184D01*
X154281703Y-103396772D01*
X154345853Y-103241900D01*
X154438985Y-103102519D01*
X154557519Y-102983985D01*
X154696900Y-102890853D01*
X154851772Y-102826703D01*
X155016184Y-102794000D01*
X155183816Y-102794000D01*
X155348228Y-102826703D01*
X155348228Y-102826703D01*
G37*
G36*
X158188228Y-101441703D02*
G01*
X158343100Y-101505853D01*
X158482481Y-101598985D01*
X158601015Y-101717519D01*
X158694147Y-101856900D01*
X158758297Y-102011772D01*
X158791000Y-102176184D01*
X158791000Y-102343816D01*
X158758297Y-102508228D01*
X158694147Y-102663100D01*
X158601015Y-102802481D01*
X158482481Y-102921015D01*
X158343100Y-103014147D01*
X158188228Y-103078297D01*
X158023816Y-103111000D01*
X157856184Y-103111000D01*
X157691772Y-103078297D01*
X157536900Y-103014147D01*
X157397519Y-102921015D01*
X157278985Y-102802481D01*
X157185853Y-102663100D01*
X157121703Y-102508228D01*
X157089000Y-102343816D01*
X157089000Y-102176184D01*
X157121703Y-102011772D01*
X157185853Y-101856900D01*
X157278985Y-101717519D01*
X157397519Y-101598985D01*
X157536900Y-101505853D01*
X157691772Y-101441703D01*
X157856184Y-101409000D01*
X158023816Y-101409000D01*
X158188228Y-101441703D01*
X158188228Y-101441703D01*
G37*
G36*
X74907394Y-100685934D02*
G01*
X75058624Y-100748576D01*
X75058626Y-100748577D01*
X75194732Y-100839520D01*
X75310480Y-100955268D01*
X75401423Y-101091374D01*
X75401424Y-101091376D01*
X75464066Y-101242606D01*
X75496000Y-101403152D01*
X75496000Y-101566848D01*
X75464066Y-101727394D01*
X75410422Y-101856900D01*
X75401423Y-101878626D01*
X75310480Y-102014732D01*
X75194732Y-102130480D01*
X75058626Y-102221423D01*
X75058625Y-102221424D01*
X75058624Y-102221424D01*
X74907394Y-102284066D01*
X74746848Y-102316000D01*
X74583152Y-102316000D01*
X74422606Y-102284066D01*
X74271376Y-102221424D01*
X74271375Y-102221424D01*
X74271374Y-102221423D01*
X74135268Y-102130480D01*
X74019520Y-102014732D01*
X73928577Y-101878626D01*
X73919578Y-101856900D01*
X73865934Y-101727394D01*
X73834000Y-101566848D01*
X73834000Y-101403152D01*
X73865934Y-101242606D01*
X73928576Y-101091376D01*
X73928577Y-101091374D01*
X74019520Y-100955268D01*
X74135268Y-100839520D01*
X74271374Y-100748577D01*
X74271376Y-100748576D01*
X74422606Y-100685934D01*
X74583152Y-100654000D01*
X74746848Y-100654000D01*
X74907394Y-100685934D01*
X74907394Y-100685934D01*
G37*
G36*
X100307394Y-100685934D02*
G01*
X100458624Y-100748576D01*
X100458626Y-100748577D01*
X100594732Y-100839520D01*
X100710480Y-100955268D01*
X100801423Y-101091374D01*
X100801424Y-101091376D01*
X100864066Y-101242606D01*
X100896000Y-101403152D01*
X100896000Y-101566848D01*
X100864066Y-101727394D01*
X100810422Y-101856900D01*
X100801423Y-101878626D01*
X100710480Y-102014732D01*
X100594732Y-102130480D01*
X100458626Y-102221423D01*
X100458625Y-102221424D01*
X100458624Y-102221424D01*
X100307394Y-102284066D01*
X100146848Y-102316000D01*
X99983152Y-102316000D01*
X99822606Y-102284066D01*
X99671376Y-102221424D01*
X99671375Y-102221424D01*
X99671374Y-102221423D01*
X99535268Y-102130480D01*
X99419520Y-102014732D01*
X99328577Y-101878626D01*
X99319578Y-101856900D01*
X99265934Y-101727394D01*
X99234000Y-101566848D01*
X99234000Y-101403152D01*
X99265934Y-101242606D01*
X99328576Y-101091376D01*
X99328577Y-101091374D01*
X99419520Y-100955268D01*
X99535268Y-100839520D01*
X99671374Y-100748577D01*
X99671376Y-100748576D01*
X99822606Y-100685934D01*
X99983152Y-100654000D01*
X100146848Y-100654000D01*
X100307394Y-100685934D01*
X100307394Y-100685934D01*
G37*
G36*
X155348228Y-100056703D02*
G01*
X155503100Y-100120853D01*
X155642481Y-100213985D01*
X155761015Y-100332519D01*
X155854147Y-100471900D01*
X155918297Y-100626772D01*
X155951000Y-100791184D01*
X155951000Y-100958816D01*
X155918297Y-101123228D01*
X155854147Y-101278100D01*
X155761015Y-101417481D01*
X155642481Y-101536015D01*
X155503100Y-101629147D01*
X155348228Y-101693297D01*
X155183816Y-101726000D01*
X155016184Y-101726000D01*
X154851772Y-101693297D01*
X154696900Y-101629147D01*
X154557519Y-101536015D01*
X154438985Y-101417481D01*
X154345853Y-101278100D01*
X154281703Y-101123228D01*
X154249000Y-100958816D01*
X154249000Y-100791184D01*
X154281703Y-100626772D01*
X154345853Y-100471900D01*
X154438985Y-100332519D01*
X154557519Y-100213985D01*
X154696900Y-100120853D01*
X154851772Y-100056703D01*
X155016184Y-100024000D01*
X155183816Y-100024000D01*
X155348228Y-100056703D01*
X155348228Y-100056703D01*
G37*
G36*
X147150562Y-100115681D02*
G01*
X147185481Y-100126274D01*
X147217663Y-100143476D01*
X147245873Y-100166627D01*
X147269024Y-100194837D01*
X147286226Y-100227019D01*
X147296819Y-100261938D01*
X147301000Y-100304395D01*
X147301000Y-101445605D01*
X147296819Y-101488062D01*
X147286226Y-101522981D01*
X147269024Y-101555163D01*
X147245873Y-101583373D01*
X147217663Y-101606524D01*
X147185481Y-101623726D01*
X147150562Y-101634319D01*
X147108105Y-101638500D01*
X145641895Y-101638500D01*
X145599438Y-101634319D01*
X145564519Y-101623726D01*
X145532337Y-101606524D01*
X145504127Y-101583373D01*
X145480976Y-101555163D01*
X145463774Y-101522981D01*
X145453181Y-101488062D01*
X145449000Y-101445605D01*
X145449000Y-100304395D01*
X145453181Y-100261938D01*
X145463774Y-100227019D01*
X145480976Y-100194837D01*
X145504127Y-100166627D01*
X145532337Y-100143476D01*
X145564519Y-100126274D01*
X145599438Y-100115681D01*
X145641895Y-100111500D01*
X147108105Y-100111500D01*
X147150562Y-100115681D01*
X147150562Y-100115681D01*
G37*
G36*
X139356000Y-100896000D02*
G01*
X137554000Y-100896000D01*
X137554000Y-99094000D01*
X139356000Y-99094000D01*
X139356000Y-100896000D01*
X139356000Y-100896000D01*
G37*
G36*
X158188228Y-98671703D02*
G01*
X158343100Y-98735853D01*
X158482481Y-98828985D01*
X158601015Y-98947519D01*
X158694147Y-99086900D01*
X158758297Y-99241772D01*
X158791000Y-99406184D01*
X158791000Y-99573816D01*
X158758297Y-99738228D01*
X158694147Y-99893100D01*
X158601015Y-100032481D01*
X158482481Y-100151015D01*
X158343100Y-100244147D01*
X158188228Y-100308297D01*
X158023816Y-100341000D01*
X157856184Y-100341000D01*
X157691772Y-100308297D01*
X157536900Y-100244147D01*
X157397519Y-100151015D01*
X157278985Y-100032481D01*
X157185853Y-99893100D01*
X157121703Y-99738228D01*
X157089000Y-99573816D01*
X157089000Y-99406184D01*
X157121703Y-99241772D01*
X157185853Y-99086900D01*
X157278985Y-98947519D01*
X157397519Y-98828985D01*
X157536900Y-98735853D01*
X157691772Y-98671703D01*
X157856184Y-98639000D01*
X158023816Y-98639000D01*
X158188228Y-98671703D01*
X158188228Y-98671703D01*
G37*
G36*
X74907394Y-98145934D02*
G01*
X75058624Y-98208576D01*
X75058626Y-98208577D01*
X75194732Y-98299520D01*
X75310480Y-98415268D01*
X75396789Y-98544439D01*
X75401424Y-98551376D01*
X75464066Y-98702606D01*
X75496000Y-98863152D01*
X75496000Y-99026848D01*
X75464066Y-99187394D01*
X75401424Y-99338624D01*
X75401423Y-99338626D01*
X75310480Y-99474732D01*
X75194732Y-99590480D01*
X75058626Y-99681423D01*
X75058625Y-99681424D01*
X75058624Y-99681424D01*
X74907394Y-99744066D01*
X74746848Y-99776000D01*
X74583152Y-99776000D01*
X74422606Y-99744066D01*
X74271376Y-99681424D01*
X74271375Y-99681424D01*
X74271374Y-99681423D01*
X74135268Y-99590480D01*
X74019520Y-99474732D01*
X73928577Y-99338626D01*
X73928576Y-99338624D01*
X73865934Y-99187394D01*
X73834000Y-99026848D01*
X73834000Y-98863152D01*
X73865934Y-98702606D01*
X73928576Y-98551376D01*
X73933211Y-98544439D01*
X74019520Y-98415268D01*
X74135268Y-98299520D01*
X74271374Y-98208577D01*
X74271376Y-98208576D01*
X74422606Y-98145934D01*
X74583152Y-98114000D01*
X74746848Y-98114000D01*
X74907394Y-98145934D01*
X74907394Y-98145934D01*
G37*
G36*
X100307394Y-98145934D02*
G01*
X100458624Y-98208576D01*
X100458626Y-98208577D01*
X100594732Y-98299520D01*
X100710480Y-98415268D01*
X100796789Y-98544439D01*
X100801424Y-98551376D01*
X100864066Y-98702606D01*
X100896000Y-98863152D01*
X100896000Y-99026848D01*
X100864066Y-99187394D01*
X100801424Y-99338624D01*
X100801423Y-99338626D01*
X100710480Y-99474732D01*
X100594732Y-99590480D01*
X100458626Y-99681423D01*
X100458625Y-99681424D01*
X100458624Y-99681424D01*
X100307394Y-99744066D01*
X100146848Y-99776000D01*
X99983152Y-99776000D01*
X99822606Y-99744066D01*
X99671376Y-99681424D01*
X99671375Y-99681424D01*
X99671374Y-99681423D01*
X99535268Y-99590480D01*
X99419520Y-99474732D01*
X99328577Y-99338626D01*
X99328576Y-99338624D01*
X99265934Y-99187394D01*
X99234000Y-99026848D01*
X99234000Y-98863152D01*
X99265934Y-98702606D01*
X99328576Y-98551376D01*
X99333211Y-98544439D01*
X99419520Y-98415268D01*
X99535268Y-98299520D01*
X99671374Y-98208577D01*
X99671376Y-98208576D01*
X99822606Y-98145934D01*
X99983152Y-98114000D01*
X100146848Y-98114000D01*
X100307394Y-98145934D01*
X100307394Y-98145934D01*
G37*
G36*
X155348228Y-97286703D02*
G01*
X155503100Y-97350853D01*
X155642481Y-97443985D01*
X155761015Y-97562519D01*
X155854147Y-97701900D01*
X155918297Y-97856772D01*
X155951000Y-98021184D01*
X155951000Y-98188816D01*
X155918297Y-98353228D01*
X155854147Y-98508100D01*
X155761015Y-98647481D01*
X155642481Y-98766015D01*
X155503100Y-98859147D01*
X155348228Y-98923297D01*
X155183816Y-98956000D01*
X155016184Y-98956000D01*
X154851772Y-98923297D01*
X154696900Y-98859147D01*
X154557519Y-98766015D01*
X154438985Y-98647481D01*
X154345853Y-98508100D01*
X154281703Y-98353228D01*
X154249000Y-98188816D01*
X154249000Y-98021184D01*
X154281703Y-97856772D01*
X154345853Y-97701900D01*
X154438985Y-97562519D01*
X154557519Y-97443985D01*
X154696900Y-97350853D01*
X154851772Y-97286703D01*
X155016184Y-97254000D01*
X155183816Y-97254000D01*
X155348228Y-97286703D01*
X155348228Y-97286703D01*
G37*
G36*
X147150562Y-97140681D02*
G01*
X147185481Y-97151274D01*
X147217663Y-97168476D01*
X147245873Y-97191627D01*
X147269024Y-97219837D01*
X147286226Y-97252019D01*
X147296819Y-97286938D01*
X147301000Y-97329395D01*
X147301000Y-98470605D01*
X147296819Y-98513062D01*
X147286226Y-98547981D01*
X147269024Y-98580163D01*
X147245873Y-98608373D01*
X147217663Y-98631524D01*
X147185481Y-98648726D01*
X147150562Y-98659319D01*
X147108105Y-98663500D01*
X145641895Y-98663500D01*
X145599438Y-98659319D01*
X145564519Y-98648726D01*
X145532337Y-98631524D01*
X145504127Y-98608373D01*
X145480976Y-98580163D01*
X145463774Y-98547981D01*
X145453181Y-98513062D01*
X145449000Y-98470605D01*
X145449000Y-97329395D01*
X145453181Y-97286938D01*
X145463774Y-97252019D01*
X145480976Y-97219837D01*
X145504127Y-97191627D01*
X145532337Y-97168476D01*
X145564519Y-97151274D01*
X145599438Y-97140681D01*
X145641895Y-97136500D01*
X147108105Y-97136500D01*
X147150562Y-97140681D01*
X147150562Y-97140681D01*
G37*
G36*
X138565443Y-96560519D02*
G01*
X138631627Y-96567037D01*
X138801466Y-96618557D01*
X138957991Y-96702222D01*
X138993729Y-96731552D01*
X139095186Y-96814814D01*
X139178448Y-96916271D01*
X139207778Y-96952009D01*
X139291443Y-97108534D01*
X139342963Y-97278373D01*
X139360359Y-97455000D01*
X139342963Y-97631627D01*
X139291443Y-97801466D01*
X139207778Y-97957991D01*
X139178448Y-97993729D01*
X139095186Y-98095186D01*
X138993729Y-98178448D01*
X138957991Y-98207778D01*
X138801466Y-98291443D01*
X138631627Y-98342963D01*
X138565443Y-98349481D01*
X138499260Y-98356000D01*
X138410740Y-98356000D01*
X138344557Y-98349481D01*
X138278373Y-98342963D01*
X138108534Y-98291443D01*
X137952009Y-98207778D01*
X137916271Y-98178448D01*
X137814814Y-98095186D01*
X137731552Y-97993729D01*
X137702222Y-97957991D01*
X137618557Y-97801466D01*
X137567037Y-97631627D01*
X137549641Y-97455000D01*
X137567037Y-97278373D01*
X137618557Y-97108534D01*
X137702222Y-96952009D01*
X137731552Y-96916271D01*
X137814814Y-96814814D01*
X137916271Y-96731552D01*
X137952009Y-96702222D01*
X138108534Y-96618557D01*
X138278373Y-96567037D01*
X138344558Y-96560518D01*
X138410740Y-96554000D01*
X138499260Y-96554000D01*
X138565443Y-96560519D01*
X138565443Y-96560519D01*
G37*
G36*
X158188228Y-95901703D02*
G01*
X158343100Y-95965853D01*
X158482481Y-96058985D01*
X158601015Y-96177519D01*
X158694147Y-96316900D01*
X158758297Y-96471772D01*
X158791000Y-96636184D01*
X158791000Y-96803816D01*
X158758297Y-96968228D01*
X158694147Y-97123100D01*
X158601015Y-97262481D01*
X158482481Y-97381015D01*
X158343100Y-97474147D01*
X158188228Y-97538297D01*
X158023816Y-97571000D01*
X157856184Y-97571000D01*
X157691772Y-97538297D01*
X157536900Y-97474147D01*
X157397519Y-97381015D01*
X157278985Y-97262481D01*
X157185853Y-97123100D01*
X157121703Y-96968228D01*
X157089000Y-96803816D01*
X157089000Y-96636184D01*
X157121703Y-96471772D01*
X157185853Y-96316900D01*
X157278985Y-96177519D01*
X157397519Y-96058985D01*
X157536900Y-95965853D01*
X157691772Y-95901703D01*
X157856184Y-95869000D01*
X158023816Y-95869000D01*
X158188228Y-95901703D01*
X158188228Y-95901703D01*
G37*
G36*
X74907394Y-95605934D02*
G01*
X75058624Y-95668576D01*
X75058626Y-95668577D01*
X75194732Y-95759520D01*
X75310480Y-95875268D01*
X75391160Y-95996015D01*
X75401424Y-96011376D01*
X75464066Y-96162606D01*
X75496000Y-96323152D01*
X75496000Y-96486848D01*
X75464066Y-96647394D01*
X75441355Y-96702222D01*
X75401423Y-96798626D01*
X75310480Y-96934732D01*
X75194732Y-97050480D01*
X75058626Y-97141423D01*
X75058625Y-97141424D01*
X75058624Y-97141424D01*
X74907394Y-97204066D01*
X74746848Y-97236000D01*
X74583152Y-97236000D01*
X74422606Y-97204066D01*
X74271376Y-97141424D01*
X74271375Y-97141424D01*
X74271374Y-97141423D01*
X74135268Y-97050480D01*
X74019520Y-96934732D01*
X73928577Y-96798626D01*
X73888645Y-96702222D01*
X73865934Y-96647394D01*
X73834000Y-96486848D01*
X73834000Y-96323152D01*
X73865934Y-96162606D01*
X73928576Y-96011376D01*
X73938840Y-95996015D01*
X74019520Y-95875268D01*
X74135268Y-95759520D01*
X74271374Y-95668577D01*
X74271376Y-95668576D01*
X74422606Y-95605934D01*
X74583152Y-95574000D01*
X74746848Y-95574000D01*
X74907394Y-95605934D01*
X74907394Y-95605934D01*
G37*
G36*
X100307394Y-95605934D02*
G01*
X100458624Y-95668576D01*
X100458626Y-95668577D01*
X100594732Y-95759520D01*
X100710480Y-95875268D01*
X100791160Y-95996015D01*
X100801424Y-96011376D01*
X100864066Y-96162606D01*
X100896000Y-96323152D01*
X100896000Y-96486848D01*
X100864066Y-96647394D01*
X100841355Y-96702222D01*
X100801423Y-96798626D01*
X100710480Y-96934732D01*
X100594732Y-97050480D01*
X100458626Y-97141423D01*
X100458625Y-97141424D01*
X100458624Y-97141424D01*
X100307394Y-97204066D01*
X100146848Y-97236000D01*
X99983152Y-97236000D01*
X99822606Y-97204066D01*
X99671376Y-97141424D01*
X99671375Y-97141424D01*
X99671374Y-97141423D01*
X99535268Y-97050480D01*
X99419520Y-96934732D01*
X99328577Y-96798626D01*
X99288645Y-96702222D01*
X99265934Y-96647394D01*
X99234000Y-96486848D01*
X99234000Y-96323152D01*
X99265934Y-96162606D01*
X99328576Y-96011376D01*
X99338840Y-95996015D01*
X99419520Y-95875268D01*
X99535268Y-95759520D01*
X99671374Y-95668577D01*
X99671376Y-95668576D01*
X99822606Y-95605934D01*
X99983152Y-95574000D01*
X100146848Y-95574000D01*
X100307394Y-95605934D01*
X100307394Y-95605934D01*
G37*
G36*
X155348228Y-94516703D02*
G01*
X155503100Y-94580853D01*
X155642481Y-94673985D01*
X155761015Y-94792519D01*
X155854147Y-94931900D01*
X155918297Y-95086772D01*
X155951000Y-95251184D01*
X155951000Y-95418816D01*
X155918297Y-95583228D01*
X155854147Y-95738100D01*
X155761015Y-95877481D01*
X155642481Y-95996015D01*
X155503100Y-96089147D01*
X155348228Y-96153297D01*
X155183816Y-96186000D01*
X155016184Y-96186000D01*
X154851772Y-96153297D01*
X154696900Y-96089147D01*
X154557519Y-95996015D01*
X154438985Y-95877481D01*
X154345853Y-95738100D01*
X154281703Y-95583228D01*
X154249000Y-95418816D01*
X154249000Y-95251184D01*
X154281703Y-95086772D01*
X154345853Y-94931900D01*
X154438985Y-94792519D01*
X154557519Y-94673985D01*
X154696900Y-94580853D01*
X154851772Y-94516703D01*
X155016184Y-94484000D01*
X155183816Y-94484000D01*
X155348228Y-94516703D01*
X155348228Y-94516703D01*
G37*
G36*
X138565442Y-94020518D02*
G01*
X138631627Y-94027037D01*
X138801466Y-94078557D01*
X138957991Y-94162222D01*
X138993729Y-94191552D01*
X139095186Y-94274814D01*
X139178448Y-94376271D01*
X139207778Y-94412009D01*
X139291443Y-94568534D01*
X139342963Y-94738373D01*
X139360359Y-94915000D01*
X139342963Y-95091627D01*
X139291443Y-95261466D01*
X139207778Y-95417991D01*
X139178448Y-95453729D01*
X139095186Y-95555186D01*
X138993729Y-95638448D01*
X138957991Y-95667778D01*
X138957989Y-95667779D01*
X138826435Y-95738097D01*
X138801466Y-95751443D01*
X138631627Y-95802963D01*
X138565442Y-95809482D01*
X138499260Y-95816000D01*
X138410740Y-95816000D01*
X138344557Y-95809481D01*
X138278373Y-95802963D01*
X138108534Y-95751443D01*
X138083566Y-95738097D01*
X137952011Y-95667779D01*
X137952009Y-95667778D01*
X137916271Y-95638448D01*
X137814814Y-95555186D01*
X137731552Y-95453729D01*
X137702222Y-95417991D01*
X137618557Y-95261466D01*
X137567037Y-95091627D01*
X137549641Y-94915000D01*
X137567037Y-94738373D01*
X137618557Y-94568534D01*
X137702222Y-94412009D01*
X137731552Y-94376271D01*
X137814814Y-94274814D01*
X137916271Y-94191552D01*
X137952009Y-94162222D01*
X138108534Y-94078557D01*
X138278373Y-94027037D01*
X138344558Y-94020518D01*
X138410740Y-94014000D01*
X138499260Y-94014000D01*
X138565442Y-94020518D01*
X138565442Y-94020518D01*
G37*
G36*
X158188228Y-93131703D02*
G01*
X158343100Y-93195853D01*
X158482481Y-93288985D01*
X158601015Y-93407519D01*
X158694147Y-93546900D01*
X158758297Y-93701772D01*
X158791000Y-93866184D01*
X158791000Y-94033816D01*
X158758297Y-94198228D01*
X158694147Y-94353100D01*
X158601015Y-94492481D01*
X158482481Y-94611015D01*
X158343100Y-94704147D01*
X158188228Y-94768297D01*
X158023816Y-94801000D01*
X157856184Y-94801000D01*
X157691772Y-94768297D01*
X157536900Y-94704147D01*
X157397519Y-94611015D01*
X157278985Y-94492481D01*
X157185853Y-94353100D01*
X157121703Y-94198228D01*
X157089000Y-94033816D01*
X157089000Y-93866184D01*
X157121703Y-93701772D01*
X157185853Y-93546900D01*
X157278985Y-93407519D01*
X157397519Y-93288985D01*
X157536900Y-93195853D01*
X157691772Y-93131703D01*
X157856184Y-93099000D01*
X158023816Y-93099000D01*
X158188228Y-93131703D01*
X158188228Y-93131703D01*
G37*
G36*
X100307394Y-93065934D02*
G01*
X100458624Y-93128576D01*
X100458626Y-93128577D01*
X100594732Y-93219520D01*
X100710480Y-93335268D01*
X100758757Y-93407520D01*
X100801424Y-93471376D01*
X100864066Y-93622606D01*
X100896000Y-93783152D01*
X100896000Y-93946848D01*
X100864066Y-94107394D01*
X100801424Y-94258624D01*
X100801423Y-94258626D01*
X100710480Y-94394732D01*
X100594732Y-94510480D01*
X100458626Y-94601423D01*
X100458625Y-94601424D01*
X100458624Y-94601424D01*
X100307394Y-94664066D01*
X100146848Y-94696000D01*
X99983152Y-94696000D01*
X99822606Y-94664066D01*
X99671376Y-94601424D01*
X99671375Y-94601424D01*
X99671374Y-94601423D01*
X99535268Y-94510480D01*
X99419520Y-94394732D01*
X99328577Y-94258626D01*
X99328576Y-94258624D01*
X99265934Y-94107394D01*
X99234000Y-93946848D01*
X99234000Y-93783152D01*
X99265934Y-93622606D01*
X99328576Y-93471376D01*
X99371243Y-93407520D01*
X99419520Y-93335268D01*
X99535268Y-93219520D01*
X99671374Y-93128577D01*
X99671376Y-93128576D01*
X99822606Y-93065934D01*
X99983152Y-93034000D01*
X100146848Y-93034000D01*
X100307394Y-93065934D01*
X100307394Y-93065934D01*
G37*
G36*
X74907394Y-93065934D02*
G01*
X75058624Y-93128576D01*
X75058626Y-93128577D01*
X75194732Y-93219520D01*
X75310480Y-93335268D01*
X75358757Y-93407520D01*
X75401424Y-93471376D01*
X75464066Y-93622606D01*
X75496000Y-93783152D01*
X75496000Y-93946848D01*
X75464066Y-94107394D01*
X75401424Y-94258624D01*
X75401423Y-94258626D01*
X75310480Y-94394732D01*
X75194732Y-94510480D01*
X75058626Y-94601423D01*
X75058625Y-94601424D01*
X75058624Y-94601424D01*
X74907394Y-94664066D01*
X74746848Y-94696000D01*
X74583152Y-94696000D01*
X74422606Y-94664066D01*
X74271376Y-94601424D01*
X74271375Y-94601424D01*
X74271374Y-94601423D01*
X74135268Y-94510480D01*
X74019520Y-94394732D01*
X73928577Y-94258626D01*
X73928576Y-94258624D01*
X73865934Y-94107394D01*
X73834000Y-93946848D01*
X73834000Y-93783152D01*
X73865934Y-93622606D01*
X73928576Y-93471376D01*
X73971243Y-93407520D01*
X74019520Y-93335268D01*
X74135268Y-93219520D01*
X74271374Y-93128577D01*
X74271376Y-93128576D01*
X74422606Y-93065934D01*
X74583152Y-93034000D01*
X74746848Y-93034000D01*
X74907394Y-93065934D01*
X74907394Y-93065934D01*
G37*
G36*
X155348228Y-91746703D02*
G01*
X155503100Y-91810853D01*
X155642481Y-91903985D01*
X155761015Y-92022519D01*
X155854147Y-92161900D01*
X155918297Y-92316772D01*
X155951000Y-92481184D01*
X155951000Y-92648816D01*
X155918297Y-92813228D01*
X155854147Y-92968100D01*
X155761015Y-93107481D01*
X155642481Y-93226015D01*
X155503100Y-93319147D01*
X155348228Y-93383297D01*
X155183816Y-93416000D01*
X155016184Y-93416000D01*
X154851772Y-93383297D01*
X154696900Y-93319147D01*
X154557519Y-93226015D01*
X154438985Y-93107481D01*
X154345853Y-92968100D01*
X154281703Y-92813228D01*
X154249000Y-92648816D01*
X154249000Y-92481184D01*
X154281703Y-92316772D01*
X154345853Y-92161900D01*
X154438985Y-92022519D01*
X154557519Y-91903985D01*
X154696900Y-91810853D01*
X154851772Y-91746703D01*
X155016184Y-91714000D01*
X155183816Y-91714000D01*
X155348228Y-91746703D01*
X155348228Y-91746703D01*
G37*
G36*
X100307394Y-90525934D02*
G01*
X100439274Y-90580561D01*
X100458626Y-90588577D01*
X100594732Y-90679520D01*
X100710480Y-90795268D01*
X100801423Y-90931374D01*
X100801424Y-90931376D01*
X100864066Y-91082606D01*
X100896000Y-91243152D01*
X100896000Y-91406848D01*
X100864066Y-91567394D01*
X100803339Y-91714000D01*
X100801423Y-91718626D01*
X100710480Y-91854732D01*
X100594732Y-91970480D01*
X100458626Y-92061423D01*
X100458625Y-92061424D01*
X100458624Y-92061424D01*
X100307394Y-92124066D01*
X100146848Y-92156000D01*
X99983152Y-92156000D01*
X99822606Y-92124066D01*
X99671376Y-92061424D01*
X99671375Y-92061424D01*
X99671374Y-92061423D01*
X99535268Y-91970480D01*
X99419520Y-91854732D01*
X99328577Y-91718626D01*
X99326661Y-91714000D01*
X99265934Y-91567394D01*
X99234000Y-91406848D01*
X99234000Y-91243152D01*
X99265934Y-91082606D01*
X99328576Y-90931376D01*
X99328577Y-90931374D01*
X99419520Y-90795268D01*
X99535268Y-90679520D01*
X99671374Y-90588577D01*
X99690726Y-90580561D01*
X99822606Y-90525934D01*
X99983152Y-90494000D01*
X100146848Y-90494000D01*
X100307394Y-90525934D01*
X100307394Y-90525934D01*
G37*
G36*
X74907394Y-90525934D02*
G01*
X75039274Y-90580561D01*
X75058626Y-90588577D01*
X75194732Y-90679520D01*
X75310480Y-90795268D01*
X75401423Y-90931374D01*
X75401424Y-90931376D01*
X75464066Y-91082606D01*
X75496000Y-91243152D01*
X75496000Y-91406848D01*
X75464066Y-91567394D01*
X75403339Y-91714000D01*
X75401423Y-91718626D01*
X75310480Y-91854732D01*
X75194732Y-91970480D01*
X75058626Y-92061423D01*
X75058625Y-92061424D01*
X75058624Y-92061424D01*
X74907394Y-92124066D01*
X74746848Y-92156000D01*
X74583152Y-92156000D01*
X74422606Y-92124066D01*
X74271376Y-92061424D01*
X74271375Y-92061424D01*
X74271374Y-92061423D01*
X74135268Y-91970480D01*
X74019520Y-91854732D01*
X73928577Y-91718626D01*
X73926661Y-91714000D01*
X73865934Y-91567394D01*
X73834000Y-91406848D01*
X73834000Y-91243152D01*
X73865934Y-91082606D01*
X73928576Y-90931376D01*
X73928577Y-90931374D01*
X74019520Y-90795268D01*
X74135268Y-90679520D01*
X74271374Y-90588577D01*
X74290726Y-90580561D01*
X74422606Y-90525934D01*
X74583152Y-90494000D01*
X74746848Y-90494000D01*
X74907394Y-90525934D01*
X74907394Y-90525934D01*
G37*
G36*
X158188228Y-90361703D02*
G01*
X158343100Y-90425853D01*
X158482481Y-90518985D01*
X158601015Y-90637519D01*
X158694147Y-90776900D01*
X158758297Y-90931772D01*
X158791000Y-91096184D01*
X158791000Y-91263816D01*
X158758297Y-91428228D01*
X158694147Y-91583100D01*
X158601015Y-91722481D01*
X158482481Y-91841015D01*
X158343100Y-91934147D01*
X158188228Y-91998297D01*
X158023816Y-92031000D01*
X157856184Y-92031000D01*
X157691772Y-91998297D01*
X157536900Y-91934147D01*
X157397519Y-91841015D01*
X157278985Y-91722481D01*
X157185853Y-91583100D01*
X157121703Y-91428228D01*
X157089000Y-91263816D01*
X157089000Y-91096184D01*
X157121703Y-90931772D01*
X157185853Y-90776900D01*
X157278985Y-90637519D01*
X157397519Y-90518985D01*
X157536900Y-90425853D01*
X157691772Y-90361703D01*
X157856184Y-90329000D01*
X158023816Y-90329000D01*
X158188228Y-90361703D01*
X158188228Y-90361703D01*
G37*
G36*
X147150562Y-90465681D02*
G01*
X147185481Y-90476274D01*
X147217663Y-90493476D01*
X147245873Y-90516627D01*
X147269024Y-90544837D01*
X147286226Y-90577019D01*
X147296819Y-90611938D01*
X147301000Y-90654395D01*
X147301000Y-91795605D01*
X147296819Y-91838062D01*
X147286226Y-91872981D01*
X147269024Y-91905163D01*
X147245873Y-91933373D01*
X147217663Y-91956524D01*
X147185481Y-91973726D01*
X147150562Y-91984319D01*
X147108105Y-91988500D01*
X145641895Y-91988500D01*
X145599438Y-91984319D01*
X145564519Y-91973726D01*
X145532337Y-91956524D01*
X145504127Y-91933373D01*
X145480976Y-91905163D01*
X145463774Y-91872981D01*
X145453181Y-91838062D01*
X145449000Y-91795605D01*
X145449000Y-90654395D01*
X145453181Y-90611938D01*
X145463774Y-90577019D01*
X145480976Y-90544837D01*
X145504127Y-90516627D01*
X145532337Y-90493476D01*
X145564519Y-90476274D01*
X145599438Y-90465681D01*
X145641895Y-90461500D01*
X147108105Y-90461500D01*
X147150562Y-90465681D01*
X147150562Y-90465681D01*
G37*
G36*
X139356000Y-91246000D02*
G01*
X137554000Y-91246000D01*
X137554000Y-89444000D01*
X139356000Y-89444000D01*
X139356000Y-91246000D01*
X139356000Y-91246000D01*
G37*
G36*
X155348228Y-88976703D02*
G01*
X155503100Y-89040853D01*
X155642481Y-89133985D01*
X155761015Y-89252519D01*
X155854147Y-89391900D01*
X155918297Y-89546772D01*
X155951000Y-89711184D01*
X155951000Y-89878816D01*
X155918297Y-90043228D01*
X155854147Y-90198100D01*
X155761015Y-90337481D01*
X155642481Y-90456015D01*
X155503100Y-90549147D01*
X155348228Y-90613297D01*
X155183816Y-90646000D01*
X155016184Y-90646000D01*
X154851772Y-90613297D01*
X154696900Y-90549147D01*
X154557519Y-90456015D01*
X154438985Y-90337481D01*
X154345853Y-90198100D01*
X154281703Y-90043228D01*
X154249000Y-89878816D01*
X154249000Y-89711184D01*
X154281703Y-89546772D01*
X154345853Y-89391900D01*
X154438985Y-89252519D01*
X154557519Y-89133985D01*
X154696900Y-89040853D01*
X154851772Y-88976703D01*
X155016184Y-88944000D01*
X155183816Y-88944000D01*
X155348228Y-88976703D01*
X155348228Y-88976703D01*
G37*
G36*
X100307394Y-87985934D02*
G01*
X100458624Y-88048576D01*
X100458626Y-88048577D01*
X100594732Y-88139520D01*
X100710480Y-88255268D01*
X100745708Y-88307991D01*
X100801424Y-88391376D01*
X100864066Y-88542606D01*
X100896000Y-88703152D01*
X100896000Y-88866848D01*
X100864066Y-89027394D01*
X100807420Y-89164148D01*
X100801423Y-89178626D01*
X100710480Y-89314732D01*
X100594732Y-89430480D01*
X100458626Y-89521423D01*
X100458625Y-89521424D01*
X100458624Y-89521424D01*
X100307394Y-89584066D01*
X100146848Y-89616000D01*
X99983152Y-89616000D01*
X99822606Y-89584066D01*
X99671376Y-89521424D01*
X99671375Y-89521424D01*
X99671374Y-89521423D01*
X99535268Y-89430480D01*
X99419520Y-89314732D01*
X99328577Y-89178626D01*
X99322580Y-89164148D01*
X99265934Y-89027394D01*
X99234000Y-88866848D01*
X99234000Y-88703152D01*
X99265934Y-88542606D01*
X99328576Y-88391376D01*
X99384292Y-88307991D01*
X99419520Y-88255268D01*
X99535268Y-88139520D01*
X99671374Y-88048577D01*
X99671376Y-88048576D01*
X99822606Y-87985934D01*
X99983152Y-87954000D01*
X100146848Y-87954000D01*
X100307394Y-87985934D01*
X100307394Y-87985934D01*
G37*
G36*
X74907394Y-87985934D02*
G01*
X75058624Y-88048576D01*
X75058626Y-88048577D01*
X75194732Y-88139520D01*
X75310480Y-88255268D01*
X75345708Y-88307991D01*
X75401424Y-88391376D01*
X75464066Y-88542606D01*
X75496000Y-88703152D01*
X75496000Y-88866848D01*
X75464066Y-89027394D01*
X75407420Y-89164148D01*
X75401423Y-89178626D01*
X75310480Y-89314732D01*
X75194732Y-89430480D01*
X75058626Y-89521423D01*
X75058625Y-89521424D01*
X75058624Y-89521424D01*
X74907394Y-89584066D01*
X74746848Y-89616000D01*
X74583152Y-89616000D01*
X74422606Y-89584066D01*
X74271376Y-89521424D01*
X74271375Y-89521424D01*
X74271374Y-89521423D01*
X74135268Y-89430480D01*
X74019520Y-89314732D01*
X73928577Y-89178626D01*
X73922580Y-89164148D01*
X73865934Y-89027394D01*
X73834000Y-88866848D01*
X73834000Y-88703152D01*
X73865934Y-88542606D01*
X73928576Y-88391376D01*
X73984292Y-88307991D01*
X74019520Y-88255268D01*
X74135268Y-88139520D01*
X74271374Y-88048577D01*
X74271376Y-88048576D01*
X74422606Y-87985934D01*
X74583152Y-87954000D01*
X74746848Y-87954000D01*
X74907394Y-87985934D01*
X74907394Y-87985934D01*
G37*
G36*
X158188228Y-87591703D02*
G01*
X158343100Y-87655853D01*
X158482481Y-87748985D01*
X158601015Y-87867519D01*
X158694147Y-88006900D01*
X158758297Y-88161772D01*
X158791000Y-88326184D01*
X158791000Y-88493816D01*
X158758297Y-88658228D01*
X158694147Y-88813100D01*
X158601015Y-88952481D01*
X158482481Y-89071015D01*
X158343100Y-89164147D01*
X158188228Y-89228297D01*
X158023816Y-89261000D01*
X157856184Y-89261000D01*
X157691772Y-89228297D01*
X157536900Y-89164147D01*
X157397519Y-89071015D01*
X157278985Y-88952481D01*
X157185853Y-88813100D01*
X157121703Y-88658228D01*
X157089000Y-88493816D01*
X157089000Y-88326184D01*
X157121703Y-88161772D01*
X157185853Y-88006900D01*
X157278985Y-87867519D01*
X157397519Y-87748985D01*
X157536900Y-87655853D01*
X157691772Y-87591703D01*
X157856184Y-87559000D01*
X158023816Y-87559000D01*
X158188228Y-87591703D01*
X158188228Y-87591703D01*
G37*
G36*
X147150562Y-87490681D02*
G01*
X147185481Y-87501274D01*
X147217663Y-87518476D01*
X147245873Y-87541627D01*
X147269024Y-87569837D01*
X147286226Y-87602019D01*
X147296819Y-87636938D01*
X147301000Y-87679395D01*
X147301000Y-88820605D01*
X147296819Y-88863062D01*
X147286226Y-88897981D01*
X147269024Y-88930163D01*
X147245873Y-88958373D01*
X147217663Y-88981524D01*
X147185481Y-88998726D01*
X147150562Y-89009319D01*
X147108105Y-89013500D01*
X145641895Y-89013500D01*
X145599438Y-89009319D01*
X145564519Y-88998726D01*
X145532337Y-88981524D01*
X145504127Y-88958373D01*
X145480976Y-88930163D01*
X145463774Y-88897981D01*
X145453181Y-88863062D01*
X145449000Y-88820605D01*
X145449000Y-87679395D01*
X145453181Y-87636938D01*
X145463774Y-87602019D01*
X145480976Y-87569837D01*
X145504127Y-87541627D01*
X145532337Y-87518476D01*
X145564519Y-87501274D01*
X145599438Y-87490681D01*
X145641895Y-87486500D01*
X147108105Y-87486500D01*
X147150562Y-87490681D01*
X147150562Y-87490681D01*
G37*
G36*
X138565442Y-86910518D02*
G01*
X138631627Y-86917037D01*
X138801466Y-86968557D01*
X138957991Y-87052222D01*
X138986964Y-87076000D01*
X139095186Y-87164814D01*
X139178448Y-87266271D01*
X139207778Y-87302009D01*
X139291443Y-87458534D01*
X139342963Y-87628373D01*
X139360359Y-87805000D01*
X139342963Y-87981627D01*
X139291443Y-88151466D01*
X139207778Y-88307991D01*
X139192847Y-88326184D01*
X139095186Y-88445186D01*
X138993729Y-88528448D01*
X138957991Y-88557778D01*
X138801466Y-88641443D01*
X138631627Y-88692963D01*
X138565443Y-88699481D01*
X138499260Y-88706000D01*
X138410740Y-88706000D01*
X138344557Y-88699481D01*
X138278373Y-88692963D01*
X138108534Y-88641443D01*
X137952009Y-88557778D01*
X137916271Y-88528448D01*
X137814814Y-88445186D01*
X137717153Y-88326184D01*
X137702222Y-88307991D01*
X137618557Y-88151466D01*
X137567037Y-87981627D01*
X137549641Y-87805000D01*
X137567037Y-87628373D01*
X137618557Y-87458534D01*
X137702222Y-87302009D01*
X137731552Y-87266271D01*
X137814814Y-87164814D01*
X137923036Y-87076000D01*
X137952009Y-87052222D01*
X138108534Y-86968557D01*
X138278373Y-86917037D01*
X138344558Y-86910518D01*
X138410740Y-86904000D01*
X138499260Y-86904000D01*
X138565442Y-86910518D01*
X138565442Y-86910518D01*
G37*
G36*
X155951000Y-87876000D02*
G01*
X154249000Y-87876000D01*
X154249000Y-86174000D01*
X155951000Y-86174000D01*
X155951000Y-87876000D01*
X155951000Y-87876000D01*
G37*
G36*
X100307394Y-85445934D02*
G01*
X100458624Y-85508576D01*
X100458626Y-85508577D01*
X100594732Y-85599520D01*
X100710480Y-85715268D01*
X100745708Y-85767991D01*
X100801424Y-85851376D01*
X100864066Y-86002606D01*
X100896000Y-86163152D01*
X100896000Y-86326848D01*
X100864066Y-86487394D01*
X100801424Y-86638624D01*
X100801423Y-86638626D01*
X100710480Y-86774732D01*
X100594732Y-86890480D01*
X100458626Y-86981423D01*
X100458625Y-86981424D01*
X100458624Y-86981424D01*
X100307394Y-87044066D01*
X100146848Y-87076000D01*
X99983152Y-87076000D01*
X99822606Y-87044066D01*
X99671376Y-86981424D01*
X99671375Y-86981424D01*
X99671374Y-86981423D01*
X99535268Y-86890480D01*
X99419520Y-86774732D01*
X99328577Y-86638626D01*
X99328576Y-86638624D01*
X99265934Y-86487394D01*
X99234000Y-86326848D01*
X99234000Y-86163152D01*
X99265934Y-86002606D01*
X99328576Y-85851376D01*
X99384292Y-85767991D01*
X99419520Y-85715268D01*
X99535268Y-85599520D01*
X99671374Y-85508577D01*
X99671376Y-85508576D01*
X99822606Y-85445934D01*
X99983152Y-85414000D01*
X100146848Y-85414000D01*
X100307394Y-85445934D01*
X100307394Y-85445934D01*
G37*
G36*
X74907394Y-85445934D02*
G01*
X75058624Y-85508576D01*
X75058626Y-85508577D01*
X75194732Y-85599520D01*
X75310480Y-85715268D01*
X75345708Y-85767991D01*
X75401424Y-85851376D01*
X75464066Y-86002606D01*
X75496000Y-86163152D01*
X75496000Y-86326848D01*
X75464066Y-86487394D01*
X75401424Y-86638624D01*
X75401423Y-86638626D01*
X75310480Y-86774732D01*
X75194732Y-86890480D01*
X75058626Y-86981423D01*
X75058625Y-86981424D01*
X75058624Y-86981424D01*
X74907394Y-87044066D01*
X74746848Y-87076000D01*
X74583152Y-87076000D01*
X74422606Y-87044066D01*
X74271376Y-86981424D01*
X74271375Y-86981424D01*
X74271374Y-86981423D01*
X74135268Y-86890480D01*
X74019520Y-86774732D01*
X73928577Y-86638626D01*
X73928576Y-86638624D01*
X73865934Y-86487394D01*
X73834000Y-86326848D01*
X73834000Y-86163152D01*
X73865934Y-86002606D01*
X73928576Y-85851376D01*
X73984292Y-85767991D01*
X74019520Y-85715268D01*
X74135268Y-85599520D01*
X74271374Y-85508577D01*
X74271376Y-85508576D01*
X74422606Y-85445934D01*
X74583152Y-85414000D01*
X74746848Y-85414000D01*
X74907394Y-85445934D01*
X74907394Y-85445934D01*
G37*
G36*
X138565442Y-84370518D02*
G01*
X138631627Y-84377037D01*
X138801466Y-84428557D01*
X138957991Y-84512222D01*
X138986964Y-84536000D01*
X139095186Y-84624814D01*
X139178448Y-84726271D01*
X139207778Y-84762009D01*
X139291443Y-84918534D01*
X139342963Y-85088373D01*
X139360359Y-85265000D01*
X139342963Y-85441627D01*
X139291443Y-85611466D01*
X139207778Y-85767991D01*
X139178448Y-85803729D01*
X139095186Y-85905186D01*
X138993729Y-85988448D01*
X138957991Y-86017778D01*
X138801466Y-86101443D01*
X138631627Y-86152963D01*
X138565443Y-86159481D01*
X138499260Y-86166000D01*
X138410740Y-86166000D01*
X138344557Y-86159481D01*
X138278373Y-86152963D01*
X138108534Y-86101443D01*
X137952009Y-86017778D01*
X137916271Y-85988448D01*
X137814814Y-85905186D01*
X137731552Y-85803729D01*
X137702222Y-85767991D01*
X137618557Y-85611466D01*
X137567037Y-85441627D01*
X137549641Y-85265000D01*
X137567037Y-85088373D01*
X137618557Y-84918534D01*
X137702222Y-84762009D01*
X137731552Y-84726271D01*
X137814814Y-84624814D01*
X137923036Y-84536000D01*
X137952009Y-84512222D01*
X138108534Y-84428557D01*
X138278373Y-84377037D01*
X138344558Y-84370518D01*
X138410740Y-84364000D01*
X138499260Y-84364000D01*
X138565442Y-84370518D01*
X138565442Y-84370518D01*
G37*
G36*
X100307394Y-82905934D02*
G01*
X100458624Y-82968576D01*
X100458626Y-82968577D01*
X100594732Y-83059520D01*
X100710480Y-83175268D01*
X100801423Y-83311374D01*
X100801424Y-83311376D01*
X100864066Y-83462606D01*
X100896000Y-83623152D01*
X100896000Y-83786848D01*
X100864066Y-83947394D01*
X100801424Y-84098624D01*
X100801423Y-84098626D01*
X100710480Y-84234732D01*
X100594732Y-84350480D01*
X100458626Y-84441423D01*
X100458625Y-84441424D01*
X100458624Y-84441424D01*
X100307394Y-84504066D01*
X100146848Y-84536000D01*
X99983152Y-84536000D01*
X99822606Y-84504066D01*
X99671376Y-84441424D01*
X99671375Y-84441424D01*
X99671374Y-84441423D01*
X99535268Y-84350480D01*
X99419520Y-84234732D01*
X99328577Y-84098626D01*
X99328576Y-84098624D01*
X99265934Y-83947394D01*
X99234000Y-83786848D01*
X99234000Y-83623152D01*
X99265934Y-83462606D01*
X99328576Y-83311376D01*
X99328577Y-83311374D01*
X99419520Y-83175268D01*
X99535268Y-83059520D01*
X99671374Y-82968577D01*
X99671376Y-82968576D01*
X99822606Y-82905934D01*
X99983152Y-82874000D01*
X100146848Y-82874000D01*
X100307394Y-82905934D01*
X100307394Y-82905934D01*
G37*
G36*
X74907394Y-82905934D02*
G01*
X75058624Y-82968576D01*
X75058626Y-82968577D01*
X75194732Y-83059520D01*
X75310480Y-83175268D01*
X75401423Y-83311374D01*
X75401424Y-83311376D01*
X75464066Y-83462606D01*
X75496000Y-83623152D01*
X75496000Y-83786848D01*
X75464066Y-83947394D01*
X75401424Y-84098624D01*
X75401423Y-84098626D01*
X75310480Y-84234732D01*
X75194732Y-84350480D01*
X75058626Y-84441423D01*
X75058625Y-84441424D01*
X75058624Y-84441424D01*
X74907394Y-84504066D01*
X74746848Y-84536000D01*
X74583152Y-84536000D01*
X74422606Y-84504066D01*
X74271376Y-84441424D01*
X74271375Y-84441424D01*
X74271374Y-84441423D01*
X74135268Y-84350480D01*
X74019520Y-84234732D01*
X73928577Y-84098626D01*
X73928576Y-84098624D01*
X73865934Y-83947394D01*
X73834000Y-83786848D01*
X73834000Y-83623152D01*
X73865934Y-83462606D01*
X73928576Y-83311376D01*
X73928577Y-83311374D01*
X74019520Y-83175268D01*
X74135268Y-83059520D01*
X74271374Y-82968577D01*
X74271376Y-82968576D01*
X74422606Y-82905934D01*
X74583152Y-82874000D01*
X74746848Y-82874000D01*
X74907394Y-82905934D01*
X74907394Y-82905934D01*
G37*
G36*
X147150562Y-80815681D02*
G01*
X147185481Y-80826274D01*
X147217663Y-80843476D01*
X147245873Y-80866627D01*
X147269024Y-80894837D01*
X147286226Y-80927019D01*
X147296819Y-80961938D01*
X147301000Y-81004395D01*
X147301000Y-82145605D01*
X147296819Y-82188062D01*
X147286226Y-82222981D01*
X147269024Y-82255163D01*
X147245873Y-82283373D01*
X147217663Y-82306524D01*
X147185481Y-82323726D01*
X147150562Y-82334319D01*
X147108105Y-82338500D01*
X145641895Y-82338500D01*
X145599438Y-82334319D01*
X145564519Y-82323726D01*
X145532337Y-82306524D01*
X145504127Y-82283373D01*
X145480976Y-82255163D01*
X145463774Y-82222981D01*
X145453181Y-82188062D01*
X145449000Y-82145605D01*
X145449000Y-81004395D01*
X145453181Y-80961938D01*
X145463774Y-80927019D01*
X145480976Y-80894837D01*
X145504127Y-80866627D01*
X145532337Y-80843476D01*
X145564519Y-80826274D01*
X145599438Y-80815681D01*
X145641895Y-80811500D01*
X147108105Y-80811500D01*
X147150562Y-80815681D01*
X147150562Y-80815681D01*
G37*
G36*
X157118254Y-78122818D02*
G01*
X157380336Y-78231376D01*
X157491513Y-78277427D01*
X157827436Y-78501884D01*
X158113116Y-78787564D01*
X158318943Y-79095605D01*
X158337574Y-79123489D01*
X158492182Y-79496746D01*
X158571000Y-79892993D01*
X158571000Y-80297007D01*
X158492182Y-80693254D01*
X158374702Y-80976876D01*
X158337573Y-81066513D01*
X158113116Y-81402436D01*
X157827436Y-81688116D01*
X157491513Y-81912573D01*
X157491512Y-81912574D01*
X157491511Y-81912574D01*
X157118254Y-82067182D01*
X156722007Y-82146000D01*
X156317993Y-82146000D01*
X155921746Y-82067182D01*
X155548489Y-81912574D01*
X155548488Y-81912574D01*
X155548487Y-81912573D01*
X155212564Y-81688116D01*
X154926884Y-81402436D01*
X154702427Y-81066513D01*
X154665298Y-80976876D01*
X154547818Y-80693254D01*
X154469000Y-80297007D01*
X154469000Y-79892993D01*
X154547818Y-79496746D01*
X154702426Y-79123489D01*
X154721058Y-79095605D01*
X154926884Y-78787564D01*
X155212564Y-78501884D01*
X155548487Y-78277427D01*
X155659664Y-78231376D01*
X155921746Y-78122818D01*
X156317993Y-78044000D01*
X156722007Y-78044000D01*
X157118254Y-78122818D01*
X157118254Y-78122818D01*
G37*
G36*
X74907394Y-80365934D02*
G01*
X75058624Y-80428576D01*
X75058626Y-80428577D01*
X75194732Y-80519520D01*
X75310480Y-80635268D01*
X75401423Y-80771374D01*
X75401424Y-80771376D01*
X75464066Y-80922606D01*
X75496000Y-81083152D01*
X75496000Y-81246848D01*
X75464066Y-81407394D01*
X75401424Y-81558624D01*
X75401423Y-81558626D01*
X75310480Y-81694732D01*
X75194732Y-81810480D01*
X75058626Y-81901423D01*
X75058625Y-81901424D01*
X75058624Y-81901424D01*
X74907394Y-81964066D01*
X74746848Y-81996000D01*
X74583152Y-81996000D01*
X74422606Y-81964066D01*
X74271376Y-81901424D01*
X74271375Y-81901424D01*
X74271374Y-81901423D01*
X74135268Y-81810480D01*
X74019520Y-81694732D01*
X73928577Y-81558626D01*
X73928576Y-81558624D01*
X73865934Y-81407394D01*
X73834000Y-81246848D01*
X73834000Y-81083152D01*
X73865934Y-80922606D01*
X73928576Y-80771376D01*
X73928577Y-80771374D01*
X74019520Y-80635268D01*
X74135268Y-80519520D01*
X74271374Y-80428577D01*
X74271376Y-80428576D01*
X74422606Y-80365934D01*
X74583152Y-80334000D01*
X74746848Y-80334000D01*
X74907394Y-80365934D01*
X74907394Y-80365934D01*
G37*
G36*
X100307394Y-80365934D02*
G01*
X100458624Y-80428576D01*
X100458626Y-80428577D01*
X100594732Y-80519520D01*
X100710480Y-80635268D01*
X100801423Y-80771374D01*
X100801424Y-80771376D01*
X100864066Y-80922606D01*
X100896000Y-81083152D01*
X100896000Y-81246848D01*
X100864066Y-81407394D01*
X100801424Y-81558624D01*
X100801423Y-81558626D01*
X100710480Y-81694732D01*
X100594732Y-81810480D01*
X100458626Y-81901423D01*
X100458625Y-81901424D01*
X100458624Y-81901424D01*
X100307394Y-81964066D01*
X100146848Y-81996000D01*
X99983152Y-81996000D01*
X99822606Y-81964066D01*
X99671376Y-81901424D01*
X99671375Y-81901424D01*
X99671374Y-81901423D01*
X99535268Y-81810480D01*
X99419520Y-81694732D01*
X99328577Y-81558626D01*
X99328576Y-81558624D01*
X99265934Y-81407394D01*
X99234000Y-81246848D01*
X99234000Y-81083152D01*
X99265934Y-80922606D01*
X99328576Y-80771376D01*
X99328577Y-80771374D01*
X99419520Y-80635268D01*
X99535268Y-80519520D01*
X99671374Y-80428577D01*
X99671376Y-80428576D01*
X99822606Y-80365934D01*
X99983152Y-80334000D01*
X100146848Y-80334000D01*
X100307394Y-80365934D01*
X100307394Y-80365934D01*
G37*
G36*
X139356000Y-81596000D02*
G01*
X137554000Y-81596000D01*
X137554000Y-79794000D01*
X139356000Y-79794000D01*
X139356000Y-81596000D01*
X139356000Y-81596000D01*
G37*
G36*
X100307394Y-77825934D02*
G01*
X100441898Y-77881648D01*
X100458626Y-77888577D01*
X100594732Y-77979520D01*
X100710480Y-78095268D01*
X100801423Y-78231374D01*
X100801424Y-78231376D01*
X100864066Y-78382606D01*
X100896000Y-78543152D01*
X100896000Y-78706848D01*
X100864066Y-78867394D01*
X100812683Y-78991442D01*
X100801423Y-79018626D01*
X100710480Y-79154732D01*
X100594732Y-79270480D01*
X100458626Y-79361423D01*
X100458625Y-79361424D01*
X100458624Y-79361424D01*
X100307394Y-79424066D01*
X100146848Y-79456000D01*
X99983152Y-79456000D01*
X99822606Y-79424066D01*
X99671376Y-79361424D01*
X99671375Y-79361424D01*
X99671374Y-79361423D01*
X99535268Y-79270480D01*
X99419520Y-79154732D01*
X99328577Y-79018626D01*
X99317317Y-78991442D01*
X99265934Y-78867394D01*
X99234000Y-78706848D01*
X99234000Y-78543152D01*
X99265934Y-78382606D01*
X99328576Y-78231376D01*
X99328577Y-78231374D01*
X99419520Y-78095268D01*
X99535268Y-77979520D01*
X99671374Y-77888577D01*
X99688102Y-77881648D01*
X99822606Y-77825934D01*
X99983152Y-77794000D01*
X100146848Y-77794000D01*
X100307394Y-77825934D01*
X100307394Y-77825934D01*
G37*
G36*
X74907394Y-77825934D02*
G01*
X75041898Y-77881648D01*
X75058626Y-77888577D01*
X75194732Y-77979520D01*
X75310480Y-78095268D01*
X75401423Y-78231374D01*
X75401424Y-78231376D01*
X75464066Y-78382606D01*
X75496000Y-78543152D01*
X75496000Y-78706848D01*
X75464066Y-78867394D01*
X75412683Y-78991442D01*
X75401423Y-79018626D01*
X75310480Y-79154732D01*
X75194732Y-79270480D01*
X75058626Y-79361423D01*
X75058625Y-79361424D01*
X75058624Y-79361424D01*
X74907394Y-79424066D01*
X74746848Y-79456000D01*
X74583152Y-79456000D01*
X74422606Y-79424066D01*
X74271376Y-79361424D01*
X74271375Y-79361424D01*
X74271374Y-79361423D01*
X74135268Y-79270480D01*
X74019520Y-79154732D01*
X73928577Y-79018626D01*
X73917317Y-78991442D01*
X73865934Y-78867394D01*
X73834000Y-78706848D01*
X73834000Y-78543152D01*
X73865934Y-78382606D01*
X73928576Y-78231376D01*
X73928577Y-78231374D01*
X74019520Y-78095268D01*
X74135268Y-77979520D01*
X74271374Y-77888577D01*
X74288102Y-77881648D01*
X74422606Y-77825934D01*
X74583152Y-77794000D01*
X74746848Y-77794000D01*
X74907394Y-77825934D01*
X74907394Y-77825934D01*
G37*
G36*
X147150562Y-77840681D02*
G01*
X147185481Y-77851274D01*
X147217663Y-77868476D01*
X147245873Y-77891627D01*
X147269024Y-77919837D01*
X147286226Y-77952019D01*
X147296819Y-77986938D01*
X147301000Y-78029395D01*
X147301000Y-79170605D01*
X147296819Y-79213062D01*
X147286226Y-79247981D01*
X147269024Y-79280163D01*
X147245873Y-79308373D01*
X147217663Y-79331524D01*
X147185481Y-79348726D01*
X147150562Y-79359319D01*
X147108105Y-79363500D01*
X145641895Y-79363500D01*
X145599438Y-79359319D01*
X145564519Y-79348726D01*
X145532337Y-79331524D01*
X145504127Y-79308373D01*
X145480976Y-79280163D01*
X145463774Y-79247981D01*
X145453181Y-79213062D01*
X145449000Y-79170605D01*
X145449000Y-78029395D01*
X145453181Y-77986938D01*
X145463774Y-77952019D01*
X145480976Y-77919837D01*
X145504127Y-77891627D01*
X145532337Y-77868476D01*
X145564519Y-77851274D01*
X145599438Y-77840681D01*
X145641895Y-77836500D01*
X147108105Y-77836500D01*
X147150562Y-77840681D01*
X147150562Y-77840681D01*
G37*
G36*
X138565442Y-77260518D02*
G01*
X138631627Y-77267037D01*
X138801466Y-77318557D01*
X138957991Y-77402222D01*
X138993729Y-77431552D01*
X139095186Y-77514814D01*
X139178448Y-77616271D01*
X139207778Y-77652009D01*
X139291443Y-77808534D01*
X139342963Y-77978373D01*
X139360359Y-78155000D01*
X139342963Y-78331627D01*
X139291443Y-78501466D01*
X139207778Y-78657991D01*
X139178448Y-78693729D01*
X139095186Y-78795186D01*
X139007199Y-78867394D01*
X138957991Y-78907778D01*
X138801466Y-78991443D01*
X138631627Y-79042963D01*
X138565443Y-79049481D01*
X138499260Y-79056000D01*
X138410740Y-79056000D01*
X138344557Y-79049481D01*
X138278373Y-79042963D01*
X138108534Y-78991443D01*
X137952009Y-78907778D01*
X137902801Y-78867394D01*
X137814814Y-78795186D01*
X137731552Y-78693729D01*
X137702222Y-78657991D01*
X137618557Y-78501466D01*
X137567037Y-78331627D01*
X137549641Y-78155000D01*
X137567037Y-77978373D01*
X137618557Y-77808534D01*
X137702222Y-77652009D01*
X137731552Y-77616271D01*
X137814814Y-77514814D01*
X137916271Y-77431552D01*
X137952009Y-77402222D01*
X138108534Y-77318557D01*
X138278373Y-77267037D01*
X138344558Y-77260518D01*
X138410740Y-77254000D01*
X138499260Y-77254000D01*
X138565442Y-77260518D01*
X138565442Y-77260518D01*
G37*
G36*
X74907394Y-75285934D02*
G01*
X75058624Y-75348576D01*
X75058626Y-75348577D01*
X75194732Y-75439520D01*
X75310480Y-75555268D01*
X75401423Y-75691374D01*
X75401424Y-75691376D01*
X75464066Y-75842606D01*
X75496000Y-76003152D01*
X75496000Y-76166848D01*
X75464066Y-76327394D01*
X75412683Y-76451442D01*
X75401423Y-76478626D01*
X75310480Y-76614732D01*
X75194732Y-76730480D01*
X75058626Y-76821423D01*
X75058625Y-76821424D01*
X75058624Y-76821424D01*
X74907394Y-76884066D01*
X74746848Y-76916000D01*
X74583152Y-76916000D01*
X74422606Y-76884066D01*
X74271376Y-76821424D01*
X74271375Y-76821424D01*
X74271374Y-76821423D01*
X74135268Y-76730480D01*
X74019520Y-76614732D01*
X73928577Y-76478626D01*
X73917317Y-76451442D01*
X73865934Y-76327394D01*
X73834000Y-76166848D01*
X73834000Y-76003152D01*
X73865934Y-75842606D01*
X73928576Y-75691376D01*
X73928577Y-75691374D01*
X74019520Y-75555268D01*
X74135268Y-75439520D01*
X74271374Y-75348577D01*
X74271376Y-75348576D01*
X74422606Y-75285934D01*
X74583152Y-75254000D01*
X74746848Y-75254000D01*
X74907394Y-75285934D01*
X74907394Y-75285934D01*
G37*
G36*
X100307394Y-75285934D02*
G01*
X100458624Y-75348576D01*
X100458626Y-75348577D01*
X100594732Y-75439520D01*
X100710480Y-75555268D01*
X100801423Y-75691374D01*
X100801424Y-75691376D01*
X100864066Y-75842606D01*
X100896000Y-76003152D01*
X100896000Y-76166848D01*
X100864066Y-76327394D01*
X100812683Y-76451442D01*
X100801423Y-76478626D01*
X100710480Y-76614732D01*
X100594732Y-76730480D01*
X100458626Y-76821423D01*
X100458625Y-76821424D01*
X100458624Y-76821424D01*
X100307394Y-76884066D01*
X100146848Y-76916000D01*
X99983152Y-76916000D01*
X99822606Y-76884066D01*
X99671376Y-76821424D01*
X99671375Y-76821424D01*
X99671374Y-76821423D01*
X99535268Y-76730480D01*
X99419520Y-76614732D01*
X99328577Y-76478626D01*
X99317317Y-76451442D01*
X99265934Y-76327394D01*
X99234000Y-76166848D01*
X99234000Y-76003152D01*
X99265934Y-75842606D01*
X99328576Y-75691376D01*
X99328577Y-75691374D01*
X99419520Y-75555268D01*
X99535268Y-75439520D01*
X99671374Y-75348577D01*
X99671376Y-75348576D01*
X99822606Y-75285934D01*
X99983152Y-75254000D01*
X100146848Y-75254000D01*
X100307394Y-75285934D01*
X100307394Y-75285934D01*
G37*
G36*
X138565442Y-74720518D02*
G01*
X138631627Y-74727037D01*
X138801466Y-74778557D01*
X138957991Y-74862222D01*
X138993729Y-74891552D01*
X139095186Y-74974814D01*
X139178448Y-75076271D01*
X139207778Y-75112009D01*
X139291443Y-75268534D01*
X139342963Y-75438373D01*
X139360359Y-75615000D01*
X139342963Y-75791627D01*
X139291443Y-75961466D01*
X139207778Y-76117991D01*
X139178448Y-76153729D01*
X139095186Y-76255186D01*
X139007199Y-76327394D01*
X138957991Y-76367778D01*
X138801466Y-76451443D01*
X138631627Y-76502963D01*
X138565443Y-76509481D01*
X138499260Y-76516000D01*
X138410740Y-76516000D01*
X138344557Y-76509481D01*
X138278373Y-76502963D01*
X138108534Y-76451443D01*
X137952009Y-76367778D01*
X137902801Y-76327394D01*
X137814814Y-76255186D01*
X137731552Y-76153729D01*
X137702222Y-76117991D01*
X137618557Y-75961466D01*
X137567037Y-75791627D01*
X137549641Y-75615000D01*
X137567037Y-75438373D01*
X137618557Y-75268534D01*
X137702222Y-75112009D01*
X137731552Y-75076271D01*
X137814814Y-74974814D01*
X137916271Y-74891552D01*
X137952009Y-74862222D01*
X138108534Y-74778557D01*
X138278373Y-74727037D01*
X138344558Y-74720518D01*
X138410740Y-74714000D01*
X138499260Y-74714000D01*
X138565442Y-74720518D01*
X138565442Y-74720518D01*
G37*
G36*
X74907394Y-72745934D02*
G01*
X75058624Y-72808576D01*
X75058626Y-72808577D01*
X75194732Y-72899520D01*
X75310480Y-73015268D01*
X75401423Y-73151374D01*
X75401424Y-73151376D01*
X75464066Y-73302606D01*
X75496000Y-73463152D01*
X75496000Y-73626848D01*
X75464066Y-73787394D01*
X75401424Y-73938624D01*
X75401423Y-73938626D01*
X75310480Y-74074732D01*
X75194732Y-74190480D01*
X75058626Y-74281423D01*
X75058625Y-74281424D01*
X75058624Y-74281424D01*
X74907394Y-74344066D01*
X74746848Y-74376000D01*
X74583152Y-74376000D01*
X74422606Y-74344066D01*
X74271376Y-74281424D01*
X74271375Y-74281424D01*
X74271374Y-74281423D01*
X74135268Y-74190480D01*
X74019520Y-74074732D01*
X73928577Y-73938626D01*
X73928576Y-73938624D01*
X73865934Y-73787394D01*
X73834000Y-73626848D01*
X73834000Y-73463152D01*
X73865934Y-73302606D01*
X73928576Y-73151376D01*
X73928577Y-73151374D01*
X74019520Y-73015268D01*
X74135268Y-72899520D01*
X74271374Y-72808577D01*
X74271376Y-72808576D01*
X74422606Y-72745934D01*
X74583152Y-72714000D01*
X74746848Y-72714000D01*
X74907394Y-72745934D01*
X74907394Y-72745934D01*
G37*
G36*
X100307394Y-72745934D02*
G01*
X100458624Y-72808576D01*
X100458626Y-72808577D01*
X100594732Y-72899520D01*
X100710480Y-73015268D01*
X100801423Y-73151374D01*
X100801424Y-73151376D01*
X100864066Y-73302606D01*
X100896000Y-73463152D01*
X100896000Y-73626848D01*
X100864066Y-73787394D01*
X100801424Y-73938624D01*
X100801423Y-73938626D01*
X100710480Y-74074732D01*
X100594732Y-74190480D01*
X100458626Y-74281423D01*
X100458625Y-74281424D01*
X100458624Y-74281424D01*
X100307394Y-74344066D01*
X100146848Y-74376000D01*
X99983152Y-74376000D01*
X99822606Y-74344066D01*
X99671376Y-74281424D01*
X99671375Y-74281424D01*
X99671374Y-74281423D01*
X99535268Y-74190480D01*
X99419520Y-74074732D01*
X99328577Y-73938626D01*
X99328576Y-73938624D01*
X99265934Y-73787394D01*
X99234000Y-73626848D01*
X99234000Y-73463152D01*
X99265934Y-73302606D01*
X99328576Y-73151376D01*
X99328577Y-73151374D01*
X99419520Y-73015268D01*
X99535268Y-72899520D01*
X99671374Y-72808577D01*
X99671376Y-72808576D01*
X99822606Y-72745934D01*
X99983152Y-72714000D01*
X100146848Y-72714000D01*
X100307394Y-72745934D01*
X100307394Y-72745934D01*
G37*
G36*
X147150562Y-71165681D02*
G01*
X147185481Y-71176274D01*
X147217663Y-71193476D01*
X147245873Y-71216627D01*
X147269024Y-71244837D01*
X147286226Y-71277019D01*
X147296819Y-71311938D01*
X147301000Y-71354395D01*
X147301000Y-72495605D01*
X147296819Y-72538062D01*
X147286226Y-72572981D01*
X147269024Y-72605163D01*
X147245873Y-72633373D01*
X147217663Y-72656524D01*
X147185481Y-72673726D01*
X147150562Y-72684319D01*
X147108105Y-72688500D01*
X145641895Y-72688500D01*
X145599438Y-72684319D01*
X145564519Y-72673726D01*
X145532337Y-72656524D01*
X145504127Y-72633373D01*
X145480976Y-72605163D01*
X145463774Y-72572981D01*
X145453181Y-72538062D01*
X145449000Y-72495605D01*
X145449000Y-71354395D01*
X145453181Y-71311938D01*
X145463774Y-71277019D01*
X145480976Y-71244837D01*
X145504127Y-71216627D01*
X145532337Y-71193476D01*
X145564519Y-71176274D01*
X145599438Y-71165681D01*
X145641895Y-71161500D01*
X147108105Y-71161500D01*
X147150562Y-71165681D01*
X147150562Y-71165681D01*
G37*
G36*
X139356000Y-71951000D02*
G01*
X137554000Y-71951000D01*
X137554000Y-70149000D01*
X139356000Y-70149000D01*
X139356000Y-71951000D01*
X139356000Y-71951000D01*
G37*
G36*
X147150562Y-68190681D02*
G01*
X147185481Y-68201274D01*
X147217663Y-68218476D01*
X147245873Y-68241627D01*
X147269024Y-68269837D01*
X147286226Y-68302019D01*
X147296819Y-68336938D01*
X147301000Y-68379395D01*
X147301000Y-69520605D01*
X147296819Y-69563062D01*
X147286226Y-69597981D01*
X147269024Y-69630163D01*
X147245873Y-69658373D01*
X147217663Y-69681524D01*
X147185481Y-69698726D01*
X147150562Y-69709319D01*
X147108105Y-69713500D01*
X145641895Y-69713500D01*
X145599438Y-69709319D01*
X145564519Y-69698726D01*
X145532337Y-69681524D01*
X145504127Y-69658373D01*
X145480976Y-69630163D01*
X145463774Y-69597981D01*
X145453181Y-69563062D01*
X145449000Y-69520605D01*
X145449000Y-68379395D01*
X145453181Y-68336938D01*
X145463774Y-68302019D01*
X145480976Y-68269837D01*
X145504127Y-68241627D01*
X145532337Y-68218476D01*
X145564519Y-68201274D01*
X145599438Y-68190681D01*
X145641895Y-68186500D01*
X147108105Y-68186500D01*
X147150562Y-68190681D01*
X147150562Y-68190681D01*
G37*
G36*
X138565443Y-67615519D02*
G01*
X138631627Y-67622037D01*
X138801466Y-67673557D01*
X138957991Y-67757222D01*
X138993729Y-67786552D01*
X139095186Y-67869814D01*
X139178448Y-67971271D01*
X139207778Y-68007009D01*
X139291443Y-68163534D01*
X139342963Y-68333373D01*
X139360359Y-68510000D01*
X139342963Y-68686627D01*
X139291443Y-68856466D01*
X139207778Y-69012991D01*
X139178448Y-69048729D01*
X139095186Y-69150186D01*
X138993729Y-69233448D01*
X138957991Y-69262778D01*
X138801466Y-69346443D01*
X138631627Y-69397963D01*
X138565443Y-69404481D01*
X138499260Y-69411000D01*
X138410740Y-69411000D01*
X138344557Y-69404481D01*
X138278373Y-69397963D01*
X138108534Y-69346443D01*
X137952009Y-69262778D01*
X137916271Y-69233448D01*
X137814814Y-69150186D01*
X137731552Y-69048729D01*
X137702222Y-69012991D01*
X137618557Y-68856466D01*
X137567037Y-68686627D01*
X137549641Y-68510000D01*
X137567037Y-68333373D01*
X137618557Y-68163534D01*
X137702222Y-68007009D01*
X137731552Y-67971271D01*
X137814814Y-67869814D01*
X137916271Y-67786552D01*
X137952009Y-67757222D01*
X138108534Y-67673557D01*
X138278373Y-67622037D01*
X138344557Y-67615519D01*
X138410740Y-67609000D01*
X138499260Y-67609000D01*
X138565443Y-67615519D01*
X138565443Y-67615519D01*
G37*
G36*
X138565443Y-65075519D02*
G01*
X138631627Y-65082037D01*
X138801466Y-65133557D01*
X138957991Y-65217222D01*
X138993729Y-65246552D01*
X139095186Y-65329814D01*
X139178448Y-65431271D01*
X139207778Y-65467009D01*
X139291443Y-65623534D01*
X139342963Y-65793373D01*
X139360359Y-65970000D01*
X139342963Y-66146627D01*
X139291443Y-66316466D01*
X139207778Y-66472991D01*
X139178448Y-66508729D01*
X139095186Y-66610186D01*
X138993729Y-66693448D01*
X138957991Y-66722778D01*
X138801466Y-66806443D01*
X138631627Y-66857963D01*
X138565443Y-66864481D01*
X138499260Y-66871000D01*
X138410740Y-66871000D01*
X138344557Y-66864481D01*
X138278373Y-66857963D01*
X138108534Y-66806443D01*
X137952009Y-66722778D01*
X137916271Y-66693448D01*
X137814814Y-66610186D01*
X137731552Y-66508729D01*
X137702222Y-66472991D01*
X137618557Y-66316466D01*
X137567037Y-66146627D01*
X137549641Y-65970000D01*
X137567037Y-65793373D01*
X137618557Y-65623534D01*
X137702222Y-65467009D01*
X137731552Y-65431271D01*
X137814814Y-65329814D01*
X137916271Y-65246552D01*
X137952009Y-65217222D01*
X138108534Y-65133557D01*
X138278373Y-65082037D01*
X138344557Y-65075519D01*
X138410740Y-65069000D01*
X138499260Y-65069000D01*
X138565443Y-65075519D01*
X138565443Y-65075519D01*
G37*
G36*
X147150562Y-61505681D02*
G01*
X147185481Y-61516274D01*
X147217663Y-61533476D01*
X147245873Y-61556627D01*
X147269024Y-61584837D01*
X147286226Y-61617019D01*
X147296819Y-61651938D01*
X147301000Y-61694395D01*
X147301000Y-62835605D01*
X147296819Y-62878062D01*
X147286226Y-62912981D01*
X147269024Y-62945163D01*
X147245873Y-62973373D01*
X147217663Y-62996524D01*
X147185481Y-63013726D01*
X147150562Y-63024319D01*
X147108105Y-63028500D01*
X145641895Y-63028500D01*
X145599438Y-63024319D01*
X145564519Y-63013726D01*
X145532337Y-62996524D01*
X145504127Y-62973373D01*
X145480976Y-62945163D01*
X145463774Y-62912981D01*
X145453181Y-62878062D01*
X145449000Y-62835605D01*
X145449000Y-61694395D01*
X145453181Y-61651938D01*
X145463774Y-61617019D01*
X145480976Y-61584837D01*
X145504127Y-61556627D01*
X145532337Y-61533476D01*
X145564519Y-61516274D01*
X145599438Y-61505681D01*
X145641895Y-61501500D01*
X147108105Y-61501500D01*
X147150562Y-61505681D01*
X147150562Y-61505681D01*
G37*
G36*
X139356000Y-62296000D02*
G01*
X137554000Y-62296000D01*
X137554000Y-60494000D01*
X139356000Y-60494000D01*
X139356000Y-62296000D01*
X139356000Y-62296000D01*
G37*
G36*
X147150562Y-58530681D02*
G01*
X147185481Y-58541274D01*
X147217663Y-58558476D01*
X147245873Y-58581627D01*
X147269024Y-58609837D01*
X147286226Y-58642019D01*
X147296819Y-58676938D01*
X147301000Y-58719395D01*
X147301000Y-59860605D01*
X147296819Y-59903062D01*
X147286226Y-59937981D01*
X147269024Y-59970163D01*
X147245873Y-59998373D01*
X147217663Y-60021524D01*
X147185481Y-60038726D01*
X147150562Y-60049319D01*
X147108105Y-60053500D01*
X145641895Y-60053500D01*
X145599438Y-60049319D01*
X145564519Y-60038726D01*
X145532337Y-60021524D01*
X145504127Y-59998373D01*
X145480976Y-59970163D01*
X145463774Y-59937981D01*
X145453181Y-59903062D01*
X145449000Y-59860605D01*
X145449000Y-58719395D01*
X145453181Y-58676938D01*
X145463774Y-58642019D01*
X145480976Y-58609837D01*
X145504127Y-58581627D01*
X145532337Y-58558476D01*
X145564519Y-58541274D01*
X145599438Y-58530681D01*
X145641895Y-58526500D01*
X147108105Y-58526500D01*
X147150562Y-58530681D01*
X147150562Y-58530681D01*
G37*
G36*
X138565442Y-57960518D02*
G01*
X138631627Y-57967037D01*
X138801466Y-58018557D01*
X138957991Y-58102222D01*
X138993729Y-58131552D01*
X139095186Y-58214814D01*
X139178448Y-58316271D01*
X139207778Y-58352009D01*
X139291443Y-58508534D01*
X139342963Y-58678373D01*
X139360359Y-58855000D01*
X139342963Y-59031627D01*
X139291443Y-59201466D01*
X139207778Y-59357991D01*
X139178448Y-59393729D01*
X139095186Y-59495186D01*
X138993729Y-59578448D01*
X138957991Y-59607778D01*
X138801466Y-59691443D01*
X138631627Y-59742963D01*
X138565443Y-59749481D01*
X138499260Y-59756000D01*
X138410740Y-59756000D01*
X138344557Y-59749481D01*
X138278373Y-59742963D01*
X138108534Y-59691443D01*
X137952009Y-59607778D01*
X137916271Y-59578448D01*
X137814814Y-59495186D01*
X137731552Y-59393729D01*
X137702222Y-59357991D01*
X137618557Y-59201466D01*
X137567037Y-59031627D01*
X137549641Y-58855000D01*
X137567037Y-58678373D01*
X137618557Y-58508534D01*
X137702222Y-58352009D01*
X137731552Y-58316271D01*
X137814814Y-58214814D01*
X137916271Y-58131552D01*
X137952009Y-58102222D01*
X138108534Y-58018557D01*
X138278373Y-57967037D01*
X138344558Y-57960518D01*
X138410740Y-57954000D01*
X138499260Y-57954000D01*
X138565442Y-57960518D01*
X138565442Y-57960518D01*
G37*
G36*
X138565443Y-55420519D02*
G01*
X138631627Y-55427037D01*
X138801466Y-55478557D01*
X138957991Y-55562222D01*
X138993729Y-55591552D01*
X139095186Y-55674814D01*
X139178448Y-55776271D01*
X139207778Y-55812009D01*
X139291443Y-55968534D01*
X139342963Y-56138373D01*
X139360359Y-56315000D01*
X139342963Y-56491627D01*
X139291443Y-56661466D01*
X139207778Y-56817991D01*
X139178448Y-56853729D01*
X139095186Y-56955186D01*
X138993729Y-57038448D01*
X138957991Y-57067778D01*
X138801466Y-57151443D01*
X138631627Y-57202963D01*
X138565443Y-57209481D01*
X138499260Y-57216000D01*
X138410740Y-57216000D01*
X138344557Y-57209481D01*
X138278373Y-57202963D01*
X138108534Y-57151443D01*
X137952009Y-57067778D01*
X137916271Y-57038448D01*
X137814814Y-56955186D01*
X137731552Y-56853729D01*
X137702222Y-56817991D01*
X137618557Y-56661466D01*
X137567037Y-56491627D01*
X137549641Y-56315000D01*
X137567037Y-56138373D01*
X137618557Y-55968534D01*
X137702222Y-55812009D01*
X137731552Y-55776271D01*
X137814814Y-55674814D01*
X137916271Y-55591552D01*
X137952009Y-55562222D01*
X138108534Y-55478557D01*
X138278373Y-55427037D01*
X138344557Y-55420519D01*
X138410740Y-55414000D01*
X138499260Y-55414000D01*
X138565443Y-55420519D01*
X138565443Y-55420519D01*
G37*
G36*
X163619059Y-50802860D02*
G01*
X163755732Y-50859472D01*
X163878735Y-50941660D01*
X163983340Y-51046265D01*
X164065528Y-51169268D01*
X164122140Y-51305941D01*
X164151000Y-51451033D01*
X164151000Y-51598967D01*
X164122140Y-51744059D01*
X164065528Y-51880732D01*
X163983340Y-52003735D01*
X163878735Y-52108340D01*
X163755732Y-52190528D01*
X163755731Y-52190529D01*
X163755730Y-52190529D01*
X163619059Y-52247140D01*
X163473968Y-52276000D01*
X163326032Y-52276000D01*
X163180941Y-52247140D01*
X163044270Y-52190529D01*
X163044269Y-52190529D01*
X163044268Y-52190528D01*
X162921265Y-52108340D01*
X162816660Y-52003735D01*
X162734472Y-51880732D01*
X162677860Y-51744059D01*
X162649000Y-51598967D01*
X162649000Y-51451033D01*
X162677860Y-51305941D01*
X162734472Y-51169268D01*
X162816660Y-51046265D01*
X162921265Y-50941660D01*
X163044268Y-50859472D01*
X163180941Y-50802860D01*
X163326032Y-50774000D01*
X163473968Y-50774000D01*
X163619059Y-50802860D01*
X163619059Y-50802860D01*
G37*
G36*
X122051000Y-52216000D02*
G01*
X112199000Y-52216000D01*
X112199000Y-39914000D01*
X122051000Y-39914000D01*
X122051000Y-52216000D01*
X122051000Y-52216000D01*
G37*
G36*
X155201000Y-50326000D02*
G01*
X151599000Y-50326000D01*
X151599000Y-46724000D01*
X155201000Y-46724000D01*
X155201000Y-50326000D01*
X155201000Y-50326000D01*
G37*
G36*
X139089499Y-48828445D02*
G01*
X139126995Y-48839820D01*
X139161554Y-48858292D01*
X139191847Y-48883153D01*
X139216708Y-48913446D01*
X139235180Y-48948005D01*
X139246555Y-48985501D01*
X139251000Y-49030638D01*
X139251000Y-49669362D01*
X139246555Y-49714499D01*
X139235180Y-49751995D01*
X139216708Y-49786554D01*
X139191847Y-49816847D01*
X139161554Y-49841708D01*
X139126995Y-49860180D01*
X139089499Y-49871555D01*
X139044362Y-49876000D01*
X138305638Y-49876000D01*
X138260501Y-49871555D01*
X138223005Y-49860180D01*
X138188446Y-49841708D01*
X138158153Y-49816847D01*
X138133292Y-49786554D01*
X138114820Y-49751995D01*
X138103445Y-49714499D01*
X138099000Y-49669362D01*
X138099000Y-49030638D01*
X138103445Y-48985501D01*
X138114820Y-48948005D01*
X138133292Y-48913446D01*
X138158153Y-48883153D01*
X138188446Y-48858292D01*
X138223005Y-48839820D01*
X138260501Y-48828445D01*
X138305638Y-48824000D01*
X139044362Y-48824000D01*
X139089499Y-48828445D01*
X139089499Y-48828445D01*
G37*
G36*
X140839499Y-48828445D02*
G01*
X140876995Y-48839820D01*
X140911554Y-48858292D01*
X140941847Y-48883153D01*
X140966708Y-48913446D01*
X140985180Y-48948005D01*
X140996555Y-48985501D01*
X141001000Y-49030638D01*
X141001000Y-49669362D01*
X140996555Y-49714499D01*
X140985180Y-49751995D01*
X140966708Y-49786554D01*
X140941847Y-49816847D01*
X140911554Y-49841708D01*
X140876995Y-49860180D01*
X140839499Y-49871555D01*
X140794362Y-49876000D01*
X140055638Y-49876000D01*
X140010501Y-49871555D01*
X139973005Y-49860180D01*
X139938446Y-49841708D01*
X139908153Y-49816847D01*
X139883292Y-49786554D01*
X139864820Y-49751995D01*
X139853445Y-49714499D01*
X139849000Y-49669362D01*
X139849000Y-49030638D01*
X139853445Y-48985501D01*
X139864820Y-48948005D01*
X139883292Y-48913446D01*
X139908153Y-48883153D01*
X139938446Y-48858292D01*
X139973005Y-48839820D01*
X140010501Y-48828445D01*
X140055638Y-48824000D01*
X140794362Y-48824000D01*
X140839499Y-48828445D01*
X140839499Y-48828445D01*
G37*
G36*
X129201000Y-49456000D02*
G01*
X125599000Y-49456000D01*
X125599000Y-47754000D01*
X129201000Y-47754000D01*
X129201000Y-49456000D01*
X129201000Y-49456000D01*
G37*
G36*
X134180997Y-45778051D02*
G01*
X134214652Y-45788261D01*
X134245665Y-45804838D01*
X134272851Y-45827149D01*
X134295162Y-45854335D01*
X134311739Y-45885348D01*
X134321949Y-45919003D01*
X134326000Y-45960138D01*
X134326000Y-48289862D01*
X134321949Y-48330997D01*
X134311739Y-48364652D01*
X134295162Y-48395665D01*
X134272851Y-48422851D01*
X134245665Y-48445162D01*
X134214652Y-48461739D01*
X134180997Y-48471949D01*
X134139862Y-48476000D01*
X132810138Y-48476000D01*
X132769003Y-48471949D01*
X132735348Y-48461739D01*
X132704335Y-48445162D01*
X132677149Y-48422851D01*
X132654838Y-48395665D01*
X132638261Y-48364652D01*
X132628051Y-48330997D01*
X132624000Y-48289862D01*
X132624000Y-45960138D01*
X132628051Y-45919003D01*
X132638261Y-45885348D01*
X132654838Y-45854335D01*
X132677149Y-45827149D01*
X132704335Y-45804838D01*
X132735348Y-45788261D01*
X132769003Y-45778051D01*
X132810138Y-45774000D01*
X134139862Y-45774000D01*
X134180997Y-45778051D01*
X134180997Y-45778051D01*
G37*
G36*
X88088674Y-46503465D02*
G01*
X88126367Y-46514899D01*
X88161103Y-46533466D01*
X88191548Y-46558452D01*
X88216534Y-46588897D01*
X88235101Y-46623633D01*
X88246535Y-46661326D01*
X88251000Y-46706661D01*
X88251000Y-47543339D01*
X88246535Y-47588674D01*
X88235101Y-47626367D01*
X88216534Y-47661103D01*
X88191548Y-47691548D01*
X88161103Y-47716534D01*
X88126367Y-47735101D01*
X88088674Y-47746535D01*
X88043339Y-47751000D01*
X86956661Y-47751000D01*
X86911326Y-47746535D01*
X86873633Y-47735101D01*
X86838897Y-47716534D01*
X86808452Y-47691548D01*
X86783466Y-47661103D01*
X86764899Y-47626367D01*
X86753465Y-47588674D01*
X86749000Y-47543339D01*
X86749000Y-46706661D01*
X86753465Y-46661326D01*
X86764899Y-46623633D01*
X86783466Y-46588897D01*
X86808452Y-46558452D01*
X86838897Y-46533466D01*
X86873633Y-46514899D01*
X86911326Y-46503465D01*
X86956661Y-46499000D01*
X88043339Y-46499000D01*
X88088674Y-46503465D01*
X88088674Y-46503465D01*
G37*
G36*
X98738674Y-46503465D02*
G01*
X98776367Y-46514899D01*
X98811103Y-46533466D01*
X98841548Y-46558452D01*
X98866534Y-46588897D01*
X98885101Y-46623633D01*
X98896535Y-46661326D01*
X98901000Y-46706661D01*
X98901000Y-47543339D01*
X98896535Y-47588674D01*
X98885101Y-47626367D01*
X98866534Y-47661103D01*
X98841548Y-47691548D01*
X98811103Y-47716534D01*
X98776367Y-47735101D01*
X98738674Y-47746535D01*
X98693339Y-47751000D01*
X97606661Y-47751000D01*
X97561326Y-47746535D01*
X97523633Y-47735101D01*
X97488897Y-47716534D01*
X97458452Y-47691548D01*
X97433466Y-47661103D01*
X97414899Y-47626367D01*
X97403465Y-47588674D01*
X97399000Y-47543339D01*
X97399000Y-46706661D01*
X97403465Y-46661326D01*
X97414899Y-46623633D01*
X97433466Y-46588897D01*
X97458452Y-46558452D01*
X97488897Y-46533466D01*
X97523633Y-46514899D01*
X97561326Y-46503465D01*
X97606661Y-46499000D01*
X98693339Y-46499000D01*
X98738674Y-46503465D01*
X98738674Y-46503465D01*
G37*
G36*
X95188674Y-46503465D02*
G01*
X95226367Y-46514899D01*
X95261103Y-46533466D01*
X95291548Y-46558452D01*
X95316534Y-46588897D01*
X95335101Y-46623633D01*
X95346535Y-46661326D01*
X95351000Y-46706661D01*
X95351000Y-47543339D01*
X95346535Y-47588674D01*
X95335101Y-47626367D01*
X95316534Y-47661103D01*
X95291548Y-47691548D01*
X95261103Y-47716534D01*
X95226367Y-47735101D01*
X95188674Y-47746535D01*
X95143339Y-47751000D01*
X94056661Y-47751000D01*
X94011326Y-47746535D01*
X93973633Y-47735101D01*
X93938897Y-47716534D01*
X93908452Y-47691548D01*
X93883466Y-47661103D01*
X93864899Y-47626367D01*
X93853465Y-47588674D01*
X93849000Y-47543339D01*
X93849000Y-46706661D01*
X93853465Y-46661326D01*
X93864899Y-46623633D01*
X93883466Y-46588897D01*
X93908452Y-46558452D01*
X93938897Y-46533466D01*
X93973633Y-46514899D01*
X94011326Y-46503465D01*
X94056661Y-46499000D01*
X95143339Y-46499000D01*
X95188674Y-46503465D01*
X95188674Y-46503465D01*
G37*
G36*
X91638674Y-46503465D02*
G01*
X91676367Y-46514899D01*
X91711103Y-46533466D01*
X91741548Y-46558452D01*
X91766534Y-46588897D01*
X91785101Y-46623633D01*
X91796535Y-46661326D01*
X91801000Y-46706661D01*
X91801000Y-47543339D01*
X91796535Y-47588674D01*
X91785101Y-47626367D01*
X91766534Y-47661103D01*
X91741548Y-47691548D01*
X91711103Y-47716534D01*
X91676367Y-47735101D01*
X91638674Y-47746535D01*
X91593339Y-47751000D01*
X90506661Y-47751000D01*
X90461326Y-47746535D01*
X90423633Y-47735101D01*
X90388897Y-47716534D01*
X90358452Y-47691548D01*
X90333466Y-47661103D01*
X90314899Y-47626367D01*
X90303465Y-47588674D01*
X90299000Y-47543339D01*
X90299000Y-46706661D01*
X90303465Y-46661326D01*
X90314899Y-46623633D01*
X90333466Y-46588897D01*
X90358452Y-46558452D01*
X90388897Y-46533466D01*
X90423633Y-46514899D01*
X90461326Y-46503465D01*
X90506661Y-46499000D01*
X91593339Y-46499000D01*
X91638674Y-46503465D01*
X91638674Y-46503465D01*
G37*
G36*
X80988674Y-46503465D02*
G01*
X81026367Y-46514899D01*
X81061103Y-46533466D01*
X81091548Y-46558452D01*
X81116534Y-46588897D01*
X81135101Y-46623633D01*
X81146535Y-46661326D01*
X81151000Y-46706661D01*
X81151000Y-47543339D01*
X81146535Y-47588674D01*
X81135101Y-47626367D01*
X81116534Y-47661103D01*
X81091548Y-47691548D01*
X81061103Y-47716534D01*
X81026367Y-47735101D01*
X80988674Y-47746535D01*
X80943339Y-47751000D01*
X79856661Y-47751000D01*
X79811326Y-47746535D01*
X79773633Y-47735101D01*
X79738897Y-47716534D01*
X79708452Y-47691548D01*
X79683466Y-47661103D01*
X79664899Y-47626367D01*
X79653465Y-47588674D01*
X79649000Y-47543339D01*
X79649000Y-46706661D01*
X79653465Y-46661326D01*
X79664899Y-46623633D01*
X79683466Y-46588897D01*
X79708452Y-46558452D01*
X79738897Y-46533466D01*
X79773633Y-46514899D01*
X79811326Y-46503465D01*
X79856661Y-46499000D01*
X80943339Y-46499000D01*
X80988674Y-46503465D01*
X80988674Y-46503465D01*
G37*
G36*
X77438674Y-46503465D02*
G01*
X77476367Y-46514899D01*
X77511103Y-46533466D01*
X77541548Y-46558452D01*
X77566534Y-46588897D01*
X77585101Y-46623633D01*
X77596535Y-46661326D01*
X77601000Y-46706661D01*
X77601000Y-47543339D01*
X77596535Y-47588674D01*
X77585101Y-47626367D01*
X77566534Y-47661103D01*
X77541548Y-47691548D01*
X77511103Y-47716534D01*
X77476367Y-47735101D01*
X77438674Y-47746535D01*
X77393339Y-47751000D01*
X76306661Y-47751000D01*
X76261326Y-47746535D01*
X76223633Y-47735101D01*
X76188897Y-47716534D01*
X76158452Y-47691548D01*
X76133466Y-47661103D01*
X76114899Y-47626367D01*
X76103465Y-47588674D01*
X76099000Y-47543339D01*
X76099000Y-46706661D01*
X76103465Y-46661326D01*
X76114899Y-46623633D01*
X76133466Y-46588897D01*
X76158452Y-46558452D01*
X76188897Y-46533466D01*
X76223633Y-46514899D01*
X76261326Y-46503465D01*
X76306661Y-46499000D01*
X77393339Y-46499000D01*
X77438674Y-46503465D01*
X77438674Y-46503465D01*
G37*
G36*
X73888674Y-46503465D02*
G01*
X73926367Y-46514899D01*
X73961103Y-46533466D01*
X73991548Y-46558452D01*
X74016534Y-46588897D01*
X74035101Y-46623633D01*
X74046535Y-46661326D01*
X74051000Y-46706661D01*
X74051000Y-47543339D01*
X74046535Y-47588674D01*
X74035101Y-47626367D01*
X74016534Y-47661103D01*
X73991548Y-47691548D01*
X73961103Y-47716534D01*
X73926367Y-47735101D01*
X73888674Y-47746535D01*
X73843339Y-47751000D01*
X72756661Y-47751000D01*
X72711326Y-47746535D01*
X72673633Y-47735101D01*
X72638897Y-47716534D01*
X72608452Y-47691548D01*
X72583466Y-47661103D01*
X72564899Y-47626367D01*
X72553465Y-47588674D01*
X72549000Y-47543339D01*
X72549000Y-46706661D01*
X72553465Y-46661326D01*
X72564899Y-46623633D01*
X72583466Y-46588897D01*
X72608452Y-46558452D01*
X72638897Y-46533466D01*
X72673633Y-46514899D01*
X72711326Y-46503465D01*
X72756661Y-46499000D01*
X73843339Y-46499000D01*
X73888674Y-46503465D01*
X73888674Y-46503465D01*
G37*
G36*
X84538674Y-46503465D02*
G01*
X84576367Y-46514899D01*
X84611103Y-46533466D01*
X84641548Y-46558452D01*
X84666534Y-46588897D01*
X84685101Y-46623633D01*
X84696535Y-46661326D01*
X84701000Y-46706661D01*
X84701000Y-47543339D01*
X84696535Y-47588674D01*
X84685101Y-47626367D01*
X84666534Y-47661103D01*
X84641548Y-47691548D01*
X84611103Y-47716534D01*
X84576367Y-47735101D01*
X84538674Y-47746535D01*
X84493339Y-47751000D01*
X83406661Y-47751000D01*
X83361326Y-47746535D01*
X83323633Y-47735101D01*
X83288897Y-47716534D01*
X83258452Y-47691548D01*
X83233466Y-47661103D01*
X83214899Y-47626367D01*
X83203465Y-47588674D01*
X83199000Y-47543339D01*
X83199000Y-46706661D01*
X83203465Y-46661326D01*
X83214899Y-46623633D01*
X83233466Y-46588897D01*
X83258452Y-46558452D01*
X83288897Y-46533466D01*
X83323633Y-46514899D01*
X83361326Y-46503465D01*
X83406661Y-46499000D01*
X84493339Y-46499000D01*
X84538674Y-46503465D01*
X84538674Y-46503465D01*
G37*
G36*
X108955997Y-43553051D02*
G01*
X108989652Y-43563261D01*
X109020665Y-43579838D01*
X109047851Y-43602149D01*
X109070162Y-43629335D01*
X109086739Y-43660348D01*
X109096949Y-43694003D01*
X109101000Y-43735138D01*
X109101000Y-46064862D01*
X109096949Y-46105997D01*
X109086739Y-46139652D01*
X109070162Y-46170665D01*
X109047851Y-46197851D01*
X109020665Y-46220162D01*
X108989652Y-46236739D01*
X108955997Y-46246949D01*
X108914862Y-46251000D01*
X107585138Y-46251000D01*
X107544003Y-46246949D01*
X107510348Y-46236739D01*
X107479335Y-46220162D01*
X107452149Y-46197851D01*
X107429838Y-46170665D01*
X107413261Y-46139652D01*
X107403051Y-46105997D01*
X107399000Y-46064862D01*
X107399000Y-43735138D01*
X107403051Y-43694003D01*
X107413261Y-43660348D01*
X107429838Y-43629335D01*
X107452149Y-43602149D01*
X107479335Y-43579838D01*
X107510348Y-43563261D01*
X107544003Y-43553051D01*
X107585138Y-43549000D01*
X108914862Y-43549000D01*
X108955997Y-43553051D01*
X108955997Y-43553051D01*
G37*
G36*
X91638674Y-44453465D02*
G01*
X91676367Y-44464899D01*
X91711103Y-44483466D01*
X91741548Y-44508452D01*
X91766534Y-44538897D01*
X91785101Y-44573633D01*
X91796535Y-44611326D01*
X91801000Y-44656661D01*
X91801000Y-45493339D01*
X91796535Y-45538674D01*
X91785101Y-45576367D01*
X91766534Y-45611103D01*
X91741548Y-45641548D01*
X91711103Y-45666534D01*
X91676367Y-45685101D01*
X91638674Y-45696535D01*
X91593339Y-45701000D01*
X90506661Y-45701000D01*
X90461326Y-45696535D01*
X90423633Y-45685101D01*
X90388897Y-45666534D01*
X90358452Y-45641548D01*
X90333466Y-45611103D01*
X90314899Y-45576367D01*
X90303465Y-45538674D01*
X90299000Y-45493339D01*
X90299000Y-44656661D01*
X90303465Y-44611326D01*
X90314899Y-44573633D01*
X90333466Y-44538897D01*
X90358452Y-44508452D01*
X90388897Y-44483466D01*
X90423633Y-44464899D01*
X90461326Y-44453465D01*
X90506661Y-44449000D01*
X91593339Y-44449000D01*
X91638674Y-44453465D01*
X91638674Y-44453465D01*
G37*
G36*
X98738674Y-44453465D02*
G01*
X98776367Y-44464899D01*
X98811103Y-44483466D01*
X98841548Y-44508452D01*
X98866534Y-44538897D01*
X98885101Y-44573633D01*
X98896535Y-44611326D01*
X98901000Y-44656661D01*
X98901000Y-45493339D01*
X98896535Y-45538674D01*
X98885101Y-45576367D01*
X98866534Y-45611103D01*
X98841548Y-45641548D01*
X98811103Y-45666534D01*
X98776367Y-45685101D01*
X98738674Y-45696535D01*
X98693339Y-45701000D01*
X97606661Y-45701000D01*
X97561326Y-45696535D01*
X97523633Y-45685101D01*
X97488897Y-45666534D01*
X97458452Y-45641548D01*
X97433466Y-45611103D01*
X97414899Y-45576367D01*
X97403465Y-45538674D01*
X97399000Y-45493339D01*
X97399000Y-44656661D01*
X97403465Y-44611326D01*
X97414899Y-44573633D01*
X97433466Y-44538897D01*
X97458452Y-44508452D01*
X97488897Y-44483466D01*
X97523633Y-44464899D01*
X97561326Y-44453465D01*
X97606661Y-44449000D01*
X98693339Y-44449000D01*
X98738674Y-44453465D01*
X98738674Y-44453465D01*
G37*
G36*
X80988674Y-44453465D02*
G01*
X81026367Y-44464899D01*
X81061103Y-44483466D01*
X81091548Y-44508452D01*
X81116534Y-44538897D01*
X81135101Y-44573633D01*
X81146535Y-44611326D01*
X81151000Y-44656661D01*
X81151000Y-45493339D01*
X81146535Y-45538674D01*
X81135101Y-45576367D01*
X81116534Y-45611103D01*
X81091548Y-45641548D01*
X81061103Y-45666534D01*
X81026367Y-45685101D01*
X80988674Y-45696535D01*
X80943339Y-45701000D01*
X79856661Y-45701000D01*
X79811326Y-45696535D01*
X79773633Y-45685101D01*
X79738897Y-45666534D01*
X79708452Y-45641548D01*
X79683466Y-45611103D01*
X79664899Y-45576367D01*
X79653465Y-45538674D01*
X79649000Y-45493339D01*
X79649000Y-44656661D01*
X79653465Y-44611326D01*
X79664899Y-44573633D01*
X79683466Y-44538897D01*
X79708452Y-44508452D01*
X79738897Y-44483466D01*
X79773633Y-44464899D01*
X79811326Y-44453465D01*
X79856661Y-44449000D01*
X80943339Y-44449000D01*
X80988674Y-44453465D01*
X80988674Y-44453465D01*
G37*
G36*
X77438674Y-44453465D02*
G01*
X77476367Y-44464899D01*
X77511103Y-44483466D01*
X77541548Y-44508452D01*
X77566534Y-44538897D01*
X77585101Y-44573633D01*
X77596535Y-44611326D01*
X77601000Y-44656661D01*
X77601000Y-45493339D01*
X77596535Y-45538674D01*
X77585101Y-45576367D01*
X77566534Y-45611103D01*
X77541548Y-45641548D01*
X77511103Y-45666534D01*
X77476367Y-45685101D01*
X77438674Y-45696535D01*
X77393339Y-45701000D01*
X76306661Y-45701000D01*
X76261326Y-45696535D01*
X76223633Y-45685101D01*
X76188897Y-45666534D01*
X76158452Y-45641548D01*
X76133466Y-45611103D01*
X76114899Y-45576367D01*
X76103465Y-45538674D01*
X76099000Y-45493339D01*
X76099000Y-44656661D01*
X76103465Y-44611326D01*
X76114899Y-44573633D01*
X76133466Y-44538897D01*
X76158452Y-44508452D01*
X76188897Y-44483466D01*
X76223633Y-44464899D01*
X76261326Y-44453465D01*
X76306661Y-44449000D01*
X77393339Y-44449000D01*
X77438674Y-44453465D01*
X77438674Y-44453465D01*
G37*
G36*
X73888674Y-44453465D02*
G01*
X73926367Y-44464899D01*
X73961103Y-44483466D01*
X73991548Y-44508452D01*
X74016534Y-44538897D01*
X74035101Y-44573633D01*
X74046535Y-44611326D01*
X74051000Y-44656661D01*
X74051000Y-45493339D01*
X74046535Y-45538674D01*
X74035101Y-45576367D01*
X74016534Y-45611103D01*
X73991548Y-45641548D01*
X73961103Y-45666534D01*
X73926367Y-45685101D01*
X73888674Y-45696535D01*
X73843339Y-45701000D01*
X72756661Y-45701000D01*
X72711326Y-45696535D01*
X72673633Y-45685101D01*
X72638897Y-45666534D01*
X72608452Y-45641548D01*
X72583466Y-45611103D01*
X72564899Y-45576367D01*
X72553465Y-45538674D01*
X72549000Y-45493339D01*
X72549000Y-44656661D01*
X72553465Y-44611326D01*
X72564899Y-44573633D01*
X72583466Y-44538897D01*
X72608452Y-44508452D01*
X72638897Y-44483466D01*
X72673633Y-44464899D01*
X72711326Y-44453465D01*
X72756661Y-44449000D01*
X73843339Y-44449000D01*
X73888674Y-44453465D01*
X73888674Y-44453465D01*
G37*
G36*
X88088674Y-44453465D02*
G01*
X88126367Y-44464899D01*
X88161103Y-44483466D01*
X88191548Y-44508452D01*
X88216534Y-44538897D01*
X88235101Y-44573633D01*
X88246535Y-44611326D01*
X88251000Y-44656661D01*
X88251000Y-45493339D01*
X88246535Y-45538674D01*
X88235101Y-45576367D01*
X88216534Y-45611103D01*
X88191548Y-45641548D01*
X88161103Y-45666534D01*
X88126367Y-45685101D01*
X88088674Y-45696535D01*
X88043339Y-45701000D01*
X86956661Y-45701000D01*
X86911326Y-45696535D01*
X86873633Y-45685101D01*
X86838897Y-45666534D01*
X86808452Y-45641548D01*
X86783466Y-45611103D01*
X86764899Y-45576367D01*
X86753465Y-45538674D01*
X86749000Y-45493339D01*
X86749000Y-44656661D01*
X86753465Y-44611326D01*
X86764899Y-44573633D01*
X86783466Y-44538897D01*
X86808452Y-44508452D01*
X86838897Y-44483466D01*
X86873633Y-44464899D01*
X86911326Y-44453465D01*
X86956661Y-44449000D01*
X88043339Y-44449000D01*
X88088674Y-44453465D01*
X88088674Y-44453465D01*
G37*
G36*
X84538674Y-44453465D02*
G01*
X84576367Y-44464899D01*
X84611103Y-44483466D01*
X84641548Y-44508452D01*
X84666534Y-44538897D01*
X84685101Y-44573633D01*
X84696535Y-44611326D01*
X84701000Y-44656661D01*
X84701000Y-45493339D01*
X84696535Y-45538674D01*
X84685101Y-45576367D01*
X84666534Y-45611103D01*
X84641548Y-45641548D01*
X84611103Y-45666534D01*
X84576367Y-45685101D01*
X84538674Y-45696535D01*
X84493339Y-45701000D01*
X83406661Y-45701000D01*
X83361326Y-45696535D01*
X83323633Y-45685101D01*
X83288897Y-45666534D01*
X83258452Y-45641548D01*
X83233466Y-45611103D01*
X83214899Y-45576367D01*
X83203465Y-45538674D01*
X83199000Y-45493339D01*
X83199000Y-44656661D01*
X83203465Y-44611326D01*
X83214899Y-44573633D01*
X83233466Y-44538897D01*
X83258452Y-44508452D01*
X83288897Y-44483466D01*
X83323633Y-44464899D01*
X83361326Y-44453465D01*
X83406661Y-44449000D01*
X84493339Y-44449000D01*
X84538674Y-44453465D01*
X84538674Y-44453465D01*
G37*
G36*
X95188674Y-44453465D02*
G01*
X95226367Y-44464899D01*
X95261103Y-44483466D01*
X95291548Y-44508452D01*
X95316534Y-44538897D01*
X95335101Y-44573633D01*
X95346535Y-44611326D01*
X95351000Y-44656661D01*
X95351000Y-45493339D01*
X95346535Y-45538674D01*
X95335101Y-45576367D01*
X95316534Y-45611103D01*
X95291548Y-45641548D01*
X95261103Y-45666534D01*
X95226367Y-45685101D01*
X95188674Y-45696535D01*
X95143339Y-45701000D01*
X94056661Y-45701000D01*
X94011326Y-45696535D01*
X93973633Y-45685101D01*
X93938897Y-45666534D01*
X93908452Y-45641548D01*
X93883466Y-45611103D01*
X93864899Y-45576367D01*
X93853465Y-45538674D01*
X93849000Y-45493339D01*
X93849000Y-44656661D01*
X93853465Y-44611326D01*
X93864899Y-44573633D01*
X93883466Y-44538897D01*
X93908452Y-44508452D01*
X93938897Y-44483466D01*
X93973633Y-44464899D01*
X94011326Y-44453465D01*
X94056661Y-44449000D01*
X95143339Y-44449000D01*
X95188674Y-44453465D01*
X95188674Y-44453465D01*
G37*
G36*
X153925331Y-41793211D02*
G01*
X154253092Y-41928974D01*
X154548070Y-42126072D01*
X154798928Y-42376930D01*
X154996026Y-42671908D01*
X155131789Y-42999669D01*
X155201000Y-43347616D01*
X155201000Y-43702384D01*
X155131789Y-44050331D01*
X154996026Y-44378092D01*
X154798928Y-44673070D01*
X154548070Y-44923928D01*
X154253092Y-45121026D01*
X153925331Y-45256789D01*
X153577384Y-45326000D01*
X153222616Y-45326000D01*
X152874669Y-45256789D01*
X152546908Y-45121026D01*
X152251930Y-44923928D01*
X152001072Y-44673070D01*
X151803974Y-44378092D01*
X151668211Y-44050331D01*
X151599000Y-43702384D01*
X151599000Y-43347616D01*
X151668211Y-42999669D01*
X151803974Y-42671908D01*
X152001072Y-42376930D01*
X152251930Y-42126072D01*
X152546908Y-41928974D01*
X152874669Y-41793211D01*
X153222616Y-41724000D01*
X153577384Y-41724000D01*
X153925331Y-41793211D01*
X153925331Y-41793211D01*
G37*
G36*
X134180997Y-42178051D02*
G01*
X134214652Y-42188261D01*
X134245665Y-42204838D01*
X134272851Y-42227149D01*
X134295162Y-42254335D01*
X134311739Y-42285348D01*
X134321949Y-42319003D01*
X134326000Y-42360138D01*
X134326000Y-44689862D01*
X134321949Y-44730997D01*
X134311739Y-44764652D01*
X134295162Y-44795665D01*
X134272851Y-44822851D01*
X134245665Y-44845162D01*
X134214652Y-44861739D01*
X134180997Y-44871949D01*
X134139862Y-44876000D01*
X132810138Y-44876000D01*
X132769003Y-44871949D01*
X132735348Y-44861739D01*
X132704335Y-44845162D01*
X132677149Y-44822851D01*
X132654838Y-44795665D01*
X132638261Y-44764652D01*
X132628051Y-44730997D01*
X132624000Y-44689862D01*
X132624000Y-42360138D01*
X132628051Y-42319003D01*
X132638261Y-42285348D01*
X132654838Y-42254335D01*
X132677149Y-42227149D01*
X132704335Y-42204838D01*
X132735348Y-42188261D01*
X132769003Y-42178051D01*
X132810138Y-42174000D01*
X134139862Y-42174000D01*
X134180997Y-42178051D01*
X134180997Y-42178051D01*
G37*
G36*
X139636000Y-44476000D02*
G01*
X137734000Y-44476000D01*
X137734000Y-42574000D01*
X139636000Y-42574000D01*
X139636000Y-44476000D01*
X139636000Y-44476000D01*
G37*
G36*
X141502395Y-42610546D02*
G01*
X141675466Y-42682234D01*
X141752818Y-42733919D01*
X141831227Y-42786310D01*
X141963690Y-42918773D01*
X141963691Y-42918775D01*
X142067766Y-43074534D01*
X142139454Y-43247605D01*
X142176000Y-43431333D01*
X142176000Y-43618667D01*
X142139454Y-43802395D01*
X142067766Y-43975466D01*
X142067765Y-43975467D01*
X141963690Y-44131227D01*
X141831227Y-44263690D01*
X141752818Y-44316081D01*
X141675466Y-44367766D01*
X141502395Y-44439454D01*
X141318667Y-44476000D01*
X141131333Y-44476000D01*
X140947605Y-44439454D01*
X140774534Y-44367766D01*
X140697182Y-44316081D01*
X140618773Y-44263690D01*
X140486310Y-44131227D01*
X140382235Y-43975467D01*
X140382234Y-43975466D01*
X140310546Y-43802395D01*
X140274000Y-43618667D01*
X140274000Y-43431333D01*
X140310546Y-43247605D01*
X140382234Y-43074534D01*
X140486309Y-42918775D01*
X140486310Y-42918773D01*
X140618773Y-42786310D01*
X140697182Y-42733919D01*
X140774534Y-42682234D01*
X140947605Y-42610546D01*
X141131333Y-42574000D01*
X141318667Y-42574000D01*
X141502395Y-42610546D01*
X141502395Y-42610546D01*
G37*
G36*
X129201000Y-44376000D02*
G01*
X125599000Y-44376000D01*
X125599000Y-42674000D01*
X129201000Y-42674000D01*
X129201000Y-44376000D01*
X129201000Y-44376000D01*
G37*
G36*
X94989499Y-42478445D02*
G01*
X95026995Y-42489820D01*
X95061554Y-42508292D01*
X95091847Y-42533153D01*
X95116708Y-42563446D01*
X95135180Y-42598005D01*
X95146555Y-42635501D01*
X95151000Y-42680638D01*
X95151000Y-43419362D01*
X95146555Y-43464499D01*
X95135180Y-43501995D01*
X95116708Y-43536554D01*
X95091847Y-43566847D01*
X95061554Y-43591708D01*
X95026995Y-43610180D01*
X94989499Y-43621555D01*
X94944362Y-43626000D01*
X94305638Y-43626000D01*
X94260501Y-43621555D01*
X94223005Y-43610180D01*
X94188446Y-43591708D01*
X94158153Y-43566847D01*
X94133292Y-43536554D01*
X94114820Y-43501995D01*
X94103445Y-43464499D01*
X94099000Y-43419362D01*
X94099000Y-42680638D01*
X94103445Y-42635501D01*
X94114820Y-42598005D01*
X94133292Y-42563446D01*
X94158153Y-42533153D01*
X94188446Y-42508292D01*
X94223005Y-42489820D01*
X94260501Y-42478445D01*
X94305638Y-42474000D01*
X94944362Y-42474000D01*
X94989499Y-42478445D01*
X94989499Y-42478445D01*
G37*
G36*
X98514499Y-42478445D02*
G01*
X98551995Y-42489820D01*
X98586554Y-42508292D01*
X98616847Y-42533153D01*
X98641708Y-42563446D01*
X98660180Y-42598005D01*
X98671555Y-42635501D01*
X98676000Y-42680638D01*
X98676000Y-43419362D01*
X98671555Y-43464499D01*
X98660180Y-43501995D01*
X98641708Y-43536554D01*
X98616847Y-43566847D01*
X98586554Y-43591708D01*
X98551995Y-43610180D01*
X98514499Y-43621555D01*
X98469362Y-43626000D01*
X97830638Y-43626000D01*
X97785501Y-43621555D01*
X97748005Y-43610180D01*
X97713446Y-43591708D01*
X97683153Y-43566847D01*
X97658292Y-43536554D01*
X97639820Y-43501995D01*
X97628445Y-43464499D01*
X97624000Y-43419362D01*
X97624000Y-42680638D01*
X97628445Y-42635501D01*
X97639820Y-42598005D01*
X97658292Y-42563446D01*
X97683153Y-42533153D01*
X97713446Y-42508292D01*
X97748005Y-42489820D01*
X97785501Y-42478445D01*
X97830638Y-42474000D01*
X98469362Y-42474000D01*
X98514499Y-42478445D01*
X98514499Y-42478445D01*
G37*
G36*
X91414499Y-42478445D02*
G01*
X91451995Y-42489820D01*
X91486554Y-42508292D01*
X91516847Y-42533153D01*
X91541708Y-42563446D01*
X91560180Y-42598005D01*
X91571555Y-42635501D01*
X91576000Y-42680638D01*
X91576000Y-43419362D01*
X91571555Y-43464499D01*
X91560180Y-43501995D01*
X91541708Y-43536554D01*
X91516847Y-43566847D01*
X91486554Y-43591708D01*
X91451995Y-43610180D01*
X91414499Y-43621555D01*
X91369362Y-43626000D01*
X90730638Y-43626000D01*
X90685501Y-43621555D01*
X90648005Y-43610180D01*
X90613446Y-43591708D01*
X90583153Y-43566847D01*
X90558292Y-43536554D01*
X90539820Y-43501995D01*
X90528445Y-43464499D01*
X90524000Y-43419362D01*
X90524000Y-42680638D01*
X90528445Y-42635501D01*
X90539820Y-42598005D01*
X90558292Y-42563446D01*
X90583153Y-42533153D01*
X90613446Y-42508292D01*
X90648005Y-42489820D01*
X90685501Y-42478445D01*
X90730638Y-42474000D01*
X91369362Y-42474000D01*
X91414499Y-42478445D01*
X91414499Y-42478445D01*
G37*
G36*
X87864499Y-42478445D02*
G01*
X87901995Y-42489820D01*
X87936554Y-42508292D01*
X87966847Y-42533153D01*
X87991708Y-42563446D01*
X88010180Y-42598005D01*
X88021555Y-42635501D01*
X88026000Y-42680638D01*
X88026000Y-43419362D01*
X88021555Y-43464499D01*
X88010180Y-43501995D01*
X87991708Y-43536554D01*
X87966847Y-43566847D01*
X87936554Y-43591708D01*
X87901995Y-43610180D01*
X87864499Y-43621555D01*
X87819362Y-43626000D01*
X87180638Y-43626000D01*
X87135501Y-43621555D01*
X87098005Y-43610180D01*
X87063446Y-43591708D01*
X87033153Y-43566847D01*
X87008292Y-43536554D01*
X86989820Y-43501995D01*
X86978445Y-43464499D01*
X86974000Y-43419362D01*
X86974000Y-42680638D01*
X86978445Y-42635501D01*
X86989820Y-42598005D01*
X87008292Y-42563446D01*
X87033153Y-42533153D01*
X87063446Y-42508292D01*
X87098005Y-42489820D01*
X87135501Y-42478445D01*
X87180638Y-42474000D01*
X87819362Y-42474000D01*
X87864499Y-42478445D01*
X87864499Y-42478445D01*
G37*
G36*
X84314499Y-42478445D02*
G01*
X84351995Y-42489820D01*
X84386554Y-42508292D01*
X84416847Y-42533153D01*
X84441708Y-42563446D01*
X84460180Y-42598005D01*
X84471555Y-42635501D01*
X84476000Y-42680638D01*
X84476000Y-43419362D01*
X84471555Y-43464499D01*
X84460180Y-43501995D01*
X84441708Y-43536554D01*
X84416847Y-43566847D01*
X84386554Y-43591708D01*
X84351995Y-43610180D01*
X84314499Y-43621555D01*
X84269362Y-43626000D01*
X83630638Y-43626000D01*
X83585501Y-43621555D01*
X83548005Y-43610180D01*
X83513446Y-43591708D01*
X83483153Y-43566847D01*
X83458292Y-43536554D01*
X83439820Y-43501995D01*
X83428445Y-43464499D01*
X83424000Y-43419362D01*
X83424000Y-42680638D01*
X83428445Y-42635501D01*
X83439820Y-42598005D01*
X83458292Y-42563446D01*
X83483153Y-42533153D01*
X83513446Y-42508292D01*
X83548005Y-42489820D01*
X83585501Y-42478445D01*
X83630638Y-42474000D01*
X84269362Y-42474000D01*
X84314499Y-42478445D01*
X84314499Y-42478445D01*
G37*
G36*
X80764499Y-42478445D02*
G01*
X80801995Y-42489820D01*
X80836554Y-42508292D01*
X80866847Y-42533153D01*
X80891708Y-42563446D01*
X80910180Y-42598005D01*
X80921555Y-42635501D01*
X80926000Y-42680638D01*
X80926000Y-43419362D01*
X80921555Y-43464499D01*
X80910180Y-43501995D01*
X80891708Y-43536554D01*
X80866847Y-43566847D01*
X80836554Y-43591708D01*
X80801995Y-43610180D01*
X80764499Y-43621555D01*
X80719362Y-43626000D01*
X80080638Y-43626000D01*
X80035501Y-43621555D01*
X79998005Y-43610180D01*
X79963446Y-43591708D01*
X79933153Y-43566847D01*
X79908292Y-43536554D01*
X79889820Y-43501995D01*
X79878445Y-43464499D01*
X79874000Y-43419362D01*
X79874000Y-42680638D01*
X79878445Y-42635501D01*
X79889820Y-42598005D01*
X79908292Y-42563446D01*
X79933153Y-42533153D01*
X79963446Y-42508292D01*
X79998005Y-42489820D01*
X80035501Y-42478445D01*
X80080638Y-42474000D01*
X80719362Y-42474000D01*
X80764499Y-42478445D01*
X80764499Y-42478445D01*
G37*
G36*
X77189499Y-42478445D02*
G01*
X77226995Y-42489820D01*
X77261554Y-42508292D01*
X77291847Y-42533153D01*
X77316708Y-42563446D01*
X77335180Y-42598005D01*
X77346555Y-42635501D01*
X77351000Y-42680638D01*
X77351000Y-43419362D01*
X77346555Y-43464499D01*
X77335180Y-43501995D01*
X77316708Y-43536554D01*
X77291847Y-43566847D01*
X77261554Y-43591708D01*
X77226995Y-43610180D01*
X77189499Y-43621555D01*
X77144362Y-43626000D01*
X76505638Y-43626000D01*
X76460501Y-43621555D01*
X76423005Y-43610180D01*
X76388446Y-43591708D01*
X76358153Y-43566847D01*
X76333292Y-43536554D01*
X76314820Y-43501995D01*
X76303445Y-43464499D01*
X76299000Y-43419362D01*
X76299000Y-42680638D01*
X76303445Y-42635501D01*
X76314820Y-42598005D01*
X76333292Y-42563446D01*
X76358153Y-42533153D01*
X76388446Y-42508292D01*
X76423005Y-42489820D01*
X76460501Y-42478445D01*
X76505638Y-42474000D01*
X77144362Y-42474000D01*
X77189499Y-42478445D01*
X77189499Y-42478445D01*
G37*
G36*
X73664499Y-42478445D02*
G01*
X73701995Y-42489820D01*
X73736554Y-42508292D01*
X73766847Y-42533153D01*
X73791708Y-42563446D01*
X73810180Y-42598005D01*
X73821555Y-42635501D01*
X73826000Y-42680638D01*
X73826000Y-43419362D01*
X73821555Y-43464499D01*
X73810180Y-43501995D01*
X73791708Y-43536554D01*
X73766847Y-43566847D01*
X73736554Y-43591708D01*
X73701995Y-43610180D01*
X73664499Y-43621555D01*
X73619362Y-43626000D01*
X72980638Y-43626000D01*
X72935501Y-43621555D01*
X72898005Y-43610180D01*
X72863446Y-43591708D01*
X72833153Y-43566847D01*
X72808292Y-43536554D01*
X72789820Y-43501995D01*
X72778445Y-43464499D01*
X72774000Y-43419362D01*
X72774000Y-42680638D01*
X72778445Y-42635501D01*
X72789820Y-42598005D01*
X72808292Y-42563446D01*
X72833153Y-42533153D01*
X72863446Y-42508292D01*
X72898005Y-42489820D01*
X72935501Y-42478445D01*
X72980638Y-42474000D01*
X73619362Y-42474000D01*
X73664499Y-42478445D01*
X73664499Y-42478445D01*
G37*
G36*
X108955997Y-39953051D02*
G01*
X108989652Y-39963261D01*
X109020665Y-39979838D01*
X109047851Y-40002149D01*
X109070162Y-40029335D01*
X109086739Y-40060348D01*
X109096949Y-40094003D01*
X109101000Y-40135138D01*
X109101000Y-42464862D01*
X109096949Y-42505997D01*
X109086739Y-42539652D01*
X109070162Y-42570665D01*
X109047851Y-42597851D01*
X109020665Y-42620162D01*
X108989652Y-42636739D01*
X108955997Y-42646949D01*
X108914862Y-42651000D01*
X107585138Y-42651000D01*
X107544003Y-42646949D01*
X107510348Y-42636739D01*
X107479335Y-42620162D01*
X107452149Y-42597851D01*
X107429838Y-42570665D01*
X107413261Y-42539652D01*
X107403051Y-42505997D01*
X107399000Y-42464862D01*
X107399000Y-40135138D01*
X107403051Y-40094003D01*
X107413261Y-40060348D01*
X107429838Y-40029335D01*
X107452149Y-40002149D01*
X107479335Y-39979838D01*
X107510348Y-39963261D01*
X107544003Y-39953051D01*
X107585138Y-39949000D01*
X108914862Y-39949000D01*
X108955997Y-39953051D01*
X108955997Y-39953051D01*
G37*
G36*
X73664499Y-40728445D02*
G01*
X73701995Y-40739820D01*
X73736554Y-40758292D01*
X73766847Y-40783153D01*
X73791708Y-40813446D01*
X73810180Y-40848005D01*
X73821555Y-40885501D01*
X73826000Y-40930638D01*
X73826000Y-41669362D01*
X73821555Y-41714499D01*
X73810180Y-41751995D01*
X73791708Y-41786554D01*
X73766847Y-41816847D01*
X73736554Y-41841708D01*
X73701995Y-41860180D01*
X73664499Y-41871555D01*
X73619362Y-41876000D01*
X72980638Y-41876000D01*
X72935501Y-41871555D01*
X72898005Y-41860180D01*
X72863446Y-41841708D01*
X72833153Y-41816847D01*
X72808292Y-41786554D01*
X72789820Y-41751995D01*
X72778445Y-41714499D01*
X72774000Y-41669362D01*
X72774000Y-40930638D01*
X72778445Y-40885501D01*
X72789820Y-40848005D01*
X72808292Y-40813446D01*
X72833153Y-40783153D01*
X72863446Y-40758292D01*
X72898005Y-40739820D01*
X72935501Y-40728445D01*
X72980638Y-40724000D01*
X73619362Y-40724000D01*
X73664499Y-40728445D01*
X73664499Y-40728445D01*
G37*
G36*
X77189499Y-40728445D02*
G01*
X77226995Y-40739820D01*
X77261554Y-40758292D01*
X77291847Y-40783153D01*
X77316708Y-40813446D01*
X77335180Y-40848005D01*
X77346555Y-40885501D01*
X77351000Y-40930638D01*
X77351000Y-41669362D01*
X77346555Y-41714499D01*
X77335180Y-41751995D01*
X77316708Y-41786554D01*
X77291847Y-41816847D01*
X77261554Y-41841708D01*
X77226995Y-41860180D01*
X77189499Y-41871555D01*
X77144362Y-41876000D01*
X76505638Y-41876000D01*
X76460501Y-41871555D01*
X76423005Y-41860180D01*
X76388446Y-41841708D01*
X76358153Y-41816847D01*
X76333292Y-41786554D01*
X76314820Y-41751995D01*
X76303445Y-41714499D01*
X76299000Y-41669362D01*
X76299000Y-40930638D01*
X76303445Y-40885501D01*
X76314820Y-40848005D01*
X76333292Y-40813446D01*
X76358153Y-40783153D01*
X76388446Y-40758292D01*
X76423005Y-40739820D01*
X76460501Y-40728445D01*
X76505638Y-40724000D01*
X77144362Y-40724000D01*
X77189499Y-40728445D01*
X77189499Y-40728445D01*
G37*
G36*
X80764499Y-40728445D02*
G01*
X80801995Y-40739820D01*
X80836554Y-40758292D01*
X80866847Y-40783153D01*
X80891708Y-40813446D01*
X80910180Y-40848005D01*
X80921555Y-40885501D01*
X80926000Y-40930638D01*
X80926000Y-41669362D01*
X80921555Y-41714499D01*
X80910180Y-41751995D01*
X80891708Y-41786554D01*
X80866847Y-41816847D01*
X80836554Y-41841708D01*
X80801995Y-41860180D01*
X80764499Y-41871555D01*
X80719362Y-41876000D01*
X80080638Y-41876000D01*
X80035501Y-41871555D01*
X79998005Y-41860180D01*
X79963446Y-41841708D01*
X79933153Y-41816847D01*
X79908292Y-41786554D01*
X79889820Y-41751995D01*
X79878445Y-41714499D01*
X79874000Y-41669362D01*
X79874000Y-40930638D01*
X79878445Y-40885501D01*
X79889820Y-40848005D01*
X79908292Y-40813446D01*
X79933153Y-40783153D01*
X79963446Y-40758292D01*
X79998005Y-40739820D01*
X80035501Y-40728445D01*
X80080638Y-40724000D01*
X80719362Y-40724000D01*
X80764499Y-40728445D01*
X80764499Y-40728445D01*
G37*
G36*
X84314499Y-40728445D02*
G01*
X84351995Y-40739820D01*
X84386554Y-40758292D01*
X84416847Y-40783153D01*
X84441708Y-40813446D01*
X84460180Y-40848005D01*
X84471555Y-40885501D01*
X84476000Y-40930638D01*
X84476000Y-41669362D01*
X84471555Y-41714499D01*
X84460180Y-41751995D01*
X84441708Y-41786554D01*
X84416847Y-41816847D01*
X84386554Y-41841708D01*
X84351995Y-41860180D01*
X84314499Y-41871555D01*
X84269362Y-41876000D01*
X83630638Y-41876000D01*
X83585501Y-41871555D01*
X83548005Y-41860180D01*
X83513446Y-41841708D01*
X83483153Y-41816847D01*
X83458292Y-41786554D01*
X83439820Y-41751995D01*
X83428445Y-41714499D01*
X83424000Y-41669362D01*
X83424000Y-40930638D01*
X83428445Y-40885501D01*
X83439820Y-40848005D01*
X83458292Y-40813446D01*
X83483153Y-40783153D01*
X83513446Y-40758292D01*
X83548005Y-40739820D01*
X83585501Y-40728445D01*
X83630638Y-40724000D01*
X84269362Y-40724000D01*
X84314499Y-40728445D01*
X84314499Y-40728445D01*
G37*
G36*
X87864499Y-40728445D02*
G01*
X87901995Y-40739820D01*
X87936554Y-40758292D01*
X87966847Y-40783153D01*
X87991708Y-40813446D01*
X88010180Y-40848005D01*
X88021555Y-40885501D01*
X88026000Y-40930638D01*
X88026000Y-41669362D01*
X88021555Y-41714499D01*
X88010180Y-41751995D01*
X87991708Y-41786554D01*
X87966847Y-41816847D01*
X87936554Y-41841708D01*
X87901995Y-41860180D01*
X87864499Y-41871555D01*
X87819362Y-41876000D01*
X87180638Y-41876000D01*
X87135501Y-41871555D01*
X87098005Y-41860180D01*
X87063446Y-41841708D01*
X87033153Y-41816847D01*
X87008292Y-41786554D01*
X86989820Y-41751995D01*
X86978445Y-41714499D01*
X86974000Y-41669362D01*
X86974000Y-40930638D01*
X86978445Y-40885501D01*
X86989820Y-40848005D01*
X87008292Y-40813446D01*
X87033153Y-40783153D01*
X87063446Y-40758292D01*
X87098005Y-40739820D01*
X87135501Y-40728445D01*
X87180638Y-40724000D01*
X87819362Y-40724000D01*
X87864499Y-40728445D01*
X87864499Y-40728445D01*
G37*
G36*
X91414499Y-40728445D02*
G01*
X91451995Y-40739820D01*
X91486554Y-40758292D01*
X91516847Y-40783153D01*
X91541708Y-40813446D01*
X91560180Y-40848005D01*
X91571555Y-40885501D01*
X91576000Y-40930638D01*
X91576000Y-41669362D01*
X91571555Y-41714499D01*
X91560180Y-41751995D01*
X91541708Y-41786554D01*
X91516847Y-41816847D01*
X91486554Y-41841708D01*
X91451995Y-41860180D01*
X91414499Y-41871555D01*
X91369362Y-41876000D01*
X90730638Y-41876000D01*
X90685501Y-41871555D01*
X90648005Y-41860180D01*
X90613446Y-41841708D01*
X90583153Y-41816847D01*
X90558292Y-41786554D01*
X90539820Y-41751995D01*
X90528445Y-41714499D01*
X90524000Y-41669362D01*
X90524000Y-40930638D01*
X90528445Y-40885501D01*
X90539820Y-40848005D01*
X90558292Y-40813446D01*
X90583153Y-40783153D01*
X90613446Y-40758292D01*
X90648005Y-40739820D01*
X90685501Y-40728445D01*
X90730638Y-40724000D01*
X91369362Y-40724000D01*
X91414499Y-40728445D01*
X91414499Y-40728445D01*
G37*
G36*
X94989499Y-40728445D02*
G01*
X95026995Y-40739820D01*
X95061554Y-40758292D01*
X95091847Y-40783153D01*
X95116708Y-40813446D01*
X95135180Y-40848005D01*
X95146555Y-40885501D01*
X95151000Y-40930638D01*
X95151000Y-41669362D01*
X95146555Y-41714499D01*
X95135180Y-41751995D01*
X95116708Y-41786554D01*
X95091847Y-41816847D01*
X95061554Y-41841708D01*
X95026995Y-41860180D01*
X94989499Y-41871555D01*
X94944362Y-41876000D01*
X94305638Y-41876000D01*
X94260501Y-41871555D01*
X94223005Y-41860180D01*
X94188446Y-41841708D01*
X94158153Y-41816847D01*
X94133292Y-41786554D01*
X94114820Y-41751995D01*
X94103445Y-41714499D01*
X94099000Y-41669362D01*
X94099000Y-40930638D01*
X94103445Y-40885501D01*
X94114820Y-40848005D01*
X94133292Y-40813446D01*
X94158153Y-40783153D01*
X94188446Y-40758292D01*
X94223005Y-40739820D01*
X94260501Y-40728445D01*
X94305638Y-40724000D01*
X94944362Y-40724000D01*
X94989499Y-40728445D01*
X94989499Y-40728445D01*
G37*
G36*
X98514499Y-40728445D02*
G01*
X98551995Y-40739820D01*
X98586554Y-40758292D01*
X98616847Y-40783153D01*
X98641708Y-40813446D01*
X98660180Y-40848005D01*
X98671555Y-40885501D01*
X98676000Y-40930638D01*
X98676000Y-41669362D01*
X98671555Y-41714499D01*
X98660180Y-41751995D01*
X98641708Y-41786554D01*
X98616847Y-41816847D01*
X98586554Y-41841708D01*
X98551995Y-41860180D01*
X98514499Y-41871555D01*
X98469362Y-41876000D01*
X97830638Y-41876000D01*
X97785501Y-41871555D01*
X97748005Y-41860180D01*
X97713446Y-41841708D01*
X97683153Y-41816847D01*
X97658292Y-41786554D01*
X97639820Y-41751995D01*
X97628445Y-41714499D01*
X97624000Y-41669362D01*
X97624000Y-40930638D01*
X97628445Y-40885501D01*
X97639820Y-40848005D01*
X97658292Y-40813446D01*
X97683153Y-40783153D01*
X97713446Y-40758292D01*
X97748005Y-40739820D01*
X97785501Y-40728445D01*
X97830638Y-40724000D01*
X98469362Y-40724000D01*
X98514499Y-40728445D01*
X98514499Y-40728445D01*
G37*
G36*
X163619059Y-39802860D02*
G01*
X163755732Y-39859472D01*
X163878735Y-39941660D01*
X163983340Y-40046265D01*
X164065528Y-40169268D01*
X164065529Y-40169270D01*
X164122140Y-40305941D01*
X164151000Y-40451032D01*
X164151000Y-40598968D01*
X164122140Y-40744059D01*
X164112090Y-40768323D01*
X164065528Y-40880732D01*
X163983340Y-41003735D01*
X163878735Y-41108340D01*
X163755732Y-41190528D01*
X163755731Y-41190529D01*
X163755730Y-41190529D01*
X163619059Y-41247140D01*
X163473968Y-41276000D01*
X163326032Y-41276000D01*
X163180941Y-41247140D01*
X163044270Y-41190529D01*
X163044269Y-41190529D01*
X163044268Y-41190528D01*
X162921265Y-41108340D01*
X162816660Y-41003735D01*
X162734472Y-40880732D01*
X162687911Y-40768323D01*
X162677860Y-40744059D01*
X162649000Y-40598968D01*
X162649000Y-40451032D01*
X162677860Y-40305941D01*
X162734471Y-40169270D01*
X162734472Y-40169268D01*
X162816660Y-40046265D01*
X162921265Y-39941660D01*
X163044268Y-39859472D01*
X163180941Y-39802860D01*
X163326032Y-39774000D01*
X163473968Y-39774000D01*
X163619059Y-39802860D01*
X163619059Y-39802860D01*
G37*
M02*
